<?xml version="1.0" standalone="no"?>
<!DOCTYPE svg PUBLIC "-//W3C//DTD SVG 1.1//EN" "http://www.w3.org/Graphics/SVG/1.1/DTD/svg11.dtd" >
<svg>
<metadata>
Created by FontForge 20090622 at Wed Aug 30 12:46:43 2017
 By deploy user
Copyright &#194;&#169; 2016 News UK &#38; Ireland Ltd. All rights reserved.
</metadata>
<defs>
<font id="TheSun-Medium" horiz-adv-x="0" >
  <font-face 
    font-family="The Sun Medium"
    font-weight="500"
    font-stretch="normal"
    units-per-em="1000"
    panose-1="2 11 6 4 2 2 4 2 2 4"
    ascent="800"
    descent="-200"
    x-height="557"
    cap-height="738"
    bbox="-695 -286 1278 1067"
    underline-thickness="50"
    underline-position="-50"
    unicode-range="U+000D-U+FEFF"
  />
<missing-glyph horiz-adv-x="482" 
d="M0 778h482v-778h-482v778zM102 99h278v580h-278v-580z" />
    <glyph glyph-name="ff" unicode="ff" horiz-adv-x="810" 
d="M231 557h154v-103h-154v-454h-128v454h-84v103h84v44q0 81 44 134.5t145 53.5q38 0 78 -10l15 -99q-38 12 -74 12q-44 0 -62 -21t-18 -63v-51zM636 557h154v-103h-154v-454h-128v454h-84v103h84v44q0 81 44 134.5t145 53.5q38 0 78 -10l15 -99q-38 12 -74 12
q-44 0 -62 -21t-18 -63v-51z" />
    <glyph glyph-name="ffi" unicode="ffi" horiz-adv-x="1072" 
d="M231 557h154v-103h-154v-454h-128v454h-84v103h84v44q0 81 44 134.5t145 53.5q38 0 78 -10l15 -99q-38 12 -74 12q-44 0 -62 -21t-18 -63v-51zM636 557h154v-103h-154v-454h-128v454h-84v103h84v44q0 81 44 134.5t145 53.5q38 0 78 -10l15 -99q-38 12 -74 12
q-44 0 -62 -21t-18 -63v-51zM883.5 669q-20.5 19 -20.5 50q0 32 20.5 50.5t57.5 18.5t57.5 -18.5t20.5 -50.5q0 -31 -20.5 -50t-57.5 -19t-57.5 19zM875 0v557h128v-557h-128z" />
    <glyph glyph-name="ffl" unicode="ffl" horiz-adv-x="1068" 
d="M231 557h154v-103h-154v-454h-128v454h-84v103h84v44q0 81 44 134.5t145 53.5q38 0 78 -10l15 -99q-38 12 -74 12q-44 0 -62 -21t-18 -63v-51zM636 557h154v-103h-154v-454h-128v454h-84v103h84v44q0 81 44 134.5t145 53.5q38 0 78 -10l15 -99q-38 12 -74 12
q-44 0 -62 -21t-18 -63v-51zM875 0v778h128v-778h-128z" />
    <glyph glyph-name="fi" unicode="fi" horiz-adv-x="667" 
d="M231 557h154v-103h-154v-454h-128v454h-84v103h84v44q0 81 44 134.5t145 53.5q38 0 78 -10l15 -99q-38 12 -74 12q-44 0 -62 -21t-18 -63v-51zM478.5 669q-20.5 19 -20.5 50q0 32 20.5 50.5t57.5 18.5t57.5 -18.5t20.5 -50.5q0 -31 -20.5 -50t-57.5 -19t-57.5 19zM470 0
v557h128v-557h-128z" />
    <glyph glyph-name="fl" unicode="fl" horiz-adv-x="663" 
d="M231 557h154v-103h-154v-454h-128v454h-84v103h84v44q0 81 44 134.5t145 53.5q38 0 78 -10l15 -99q-38 12 -74 12q-44 0 -62 -21t-18 -63v-51zM470 0v778h128v-778h-128z" />
    <glyph glyph-name=".notdef" horiz-adv-x="482" 
d="M0 778h482v-778h-482v778zM102 99h278v580h-278v-580z" />
    <glyph glyph-name="NULL" 
 />
    <glyph glyph-name="NULL" 
 />
    <glyph glyph-name="CR" unicode="&#xd;" horiz-adv-x="250" 
 />
    <glyph glyph-name="space" unicode=" " horiz-adv-x="250" 
 />
    <glyph glyph-name="A" unicode="A" horiz-adv-x="671" 
d="M507 0l-48 166h-251l-48 -166h-143l238 739h159l240 -739h-147zM238 271h190l-95 329z" />
    <glyph glyph-name="Aacute" unicode="&#xc1;" horiz-adv-x="671" 
d="M507 0l-48 166h-251l-48 -166h-143l238 739h159l240 -739h-147zM238 271h190l-95 329zM277 775l60 109h155l-98 -109h-117z" />
    <glyph glyph-name="Abreve" unicode="&#x102;" horiz-adv-x="671" 
d="M507 0l-48 166h-251l-48 -166h-143l238 739h159l240 -739h-147zM238 271h190l-95 329zM241 801.5q-34 28.5 -37 81.5h78q9 -38 53 -38q43 0 52 38h78q-3 -53 -36.5 -81.5t-93.5 -28.5t-94 28.5z" />
    <glyph glyph-name="Acircumflex" unicode="&#xc2;" horiz-adv-x="671" 
d="M507 0l-48 166h-251l-48 -166h-143l238 739h159l240 -739h-147zM238 271h190l-95 329zM489 774h-105l-49 50l-50 -50h-105l80 110h150z" />
    <glyph glyph-name="Adieresis" unicode="&#xc4;" horiz-adv-x="671" 
d="M507 0l-48 166h-251l-48 -166h-143l238 739h159l240 -739h-147zM238 271h190l-95 329zM208.5 789.5q-15.5 14.5 -15.5 36.5t15.5 36.5t43.5 14.5q29 0 45 -14t16 -37q0 -22 -16 -36.5t-45 -14.5q-28 0 -43.5 14.5zM373 789.5q-16 14.5 -16 36.5t16 36.5t44 14.5t44 -14
t16 -37q0 -22 -16 -36.5t-44 -14.5t-44 14.5z" />
    <glyph glyph-name="Agrave" unicode="&#xc0;" horiz-adv-x="671" 
d="M507 0l-48 166h-251l-48 -166h-143l238 739h159l240 -739h-147zM238 271h190l-95 329zM392 775h-116l-99 109h155z" />
    <glyph glyph-name="Amacron" unicode="&#x100;" horiz-adv-x="671" 
d="M507 0l-48 166h-251l-48 -166h-143l238 739h159l240 -739h-147zM238 271h190l-95 329zM212 869h245v-79h-245v79z" />
    <glyph glyph-name="Aogonek" unicode="&#x104;" horiz-adv-x="671" 
d="M671 -83l-10 -75q-43 -17 -83 -17q-52 0 -80 20.5t-28 56.5q0 27 17 49t58 49h-38l-48 166h-251l-48 -166h-143l238 739h159l240 -739h-43q-30 -22 -42 -38t-12 -31q0 -16 10 -22.5t32 -6.5q38 0 72 15zM238 271h190l-95 329z" />
    <glyph glyph-name="Aring" unicode="&#xc5;" horiz-adv-x="671" 
d="M507 0l-48 166h-251l-48 -166h-143l238 739h159l240 -739h-147zM238 271h190l-95 329zM263.5 781q-27.5 24 -27.5 61q0 36 28 59.5t71 23.5q42 0 69.5 -23.5t27.5 -59.5q0 -37 -27.5 -61t-69.5 -24q-44 0 -71.5 24zM364 815.5q11 10.5 11 26.5q0 15 -11 25.5t-29 10.5
q-19 0 -30 -10t-11 -26t11 -26.5t30 -10.5q18 0 29 10.5z" />
    <glyph glyph-name="Atilde" unicode="&#xc3;" horiz-adv-x="671" 
d="M507 0l-48 166h-251l-48 -166h-143l238 739h159l240 -739h-147zM238 271h190l-95 329zM190 815q2 15 8 30q20 50 73 50q23 0 39 -6t34 -17q9 -5 19.5 -9.5t19.5 -4.5q22 0 22 37h77q0 -32 -6 -58q-9 -31 -30 -45.5t-48 -14.5q-22 0 -38 5.5t-35 16.5q-9 5 -19.5 9.5
t-19.5 4.5q-21 0 -21 -36h-77q0 23 2 38z" />
    <glyph glyph-name="AE" unicode="&#xc6;" horiz-adv-x="941" 
d="M597 119h306v-119h-441v166h-236l-79 -166h-148l373 738h523v-119h-298v-186h264v-119h-264v-195zM276 271h186v348h-20z" />
    <glyph glyph-name="B" unicode="B" horiz-adv-x="629" 
d="M571.5 312.5q33.5 -46.5 33.5 -114.5q0 -93 -67 -145.5t-194 -52.5h-269v738h250q125 0 192 -51t67 -140q0 -61 -28.5 -104t-96.5 -64q79 -20 112.5 -66.5zM210 633v-202h113q60 0 91 26t31 77q0 99 -129 99h-106zM466 211q0 109 -128 109h-128v-210h124q132 0 132 101z
" />
    <glyph glyph-name="C" unicode="C" horiz-adv-x="561" 
d="M382 -11q-170 0 -260.5 101t-90.5 278q0 109 37.5 195t113.5 136t186 50q72 0 139 -28l17 -130q-71 38 -147 38q-105 0 -155.5 -67.5t-50.5 -193.5q0 -127 56.5 -193t168.5 -66q73 0 135 29v-121q-68 -28 -149 -28z" />
    <glyph glyph-name="Cacute" unicode="&#x106;" horiz-adv-x="561" 
d="M382 -11q-170 0 -260.5 101t-90.5 278q0 109 37.5 195t113.5 136t186 50q72 0 139 -28l17 -130q-71 38 -147 38q-105 0 -155.5 -67.5t-50.5 -193.5q0 -127 56.5 -193t168.5 -66q73 0 135 29v-121q-68 -28 -149 -28zM298 775l60 109h155l-98 -109h-117z" />
    <glyph glyph-name="Ccaron" unicode="&#x10c;" horiz-adv-x="561" 
d="M382 -11q-170 0 -260.5 101t-90.5 278q0 109 37.5 195t113.5 136t186 50q72 0 139 -28l17 -130q-71 38 -147 38q-105 0 -155.5 -67.5t-50.5 -193.5q0 -127 56.5 -193t168.5 -66q73 0 135 29v-121q-68 -28 -149 -28zM405 883h105l-79 -110h-150l-80 110h105l50 -50z" />
    <glyph glyph-name="Ccedilla" unicode="&#xc7;" horiz-adv-x="561" 
d="M382 -11q-170 0 -260.5 101t-90.5 278q0 109 37.5 195t113.5 136t186 50q72 0 139 -28l17 -130q-71 38 -147 38q-105 0 -155.5 -67.5t-50.5 -193.5q0 -127 56.5 -193t168.5 -66q73 0 135 29v-121q-68 -28 -149 -28zM285 -187l21 147h119l-51 -147h-89z" />
    <glyph glyph-name="Ccircumflex" unicode="&#x108;" horiz-adv-x="561" 
d="M382 -11q-170 0 -260.5 101t-90.5 278q0 109 37.5 195t113.5 136t186 50q72 0 139 -28l17 -130q-71 38 -147 38q-105 0 -155.5 -67.5t-50.5 -193.5q0 -127 56.5 -193t168.5 -66q73 0 135 29v-121q-68 -28 -149 -28zM510 774h-105l-49 50l-50 -50h-105l80 110h150z" />
    <glyph glyph-name="Cdotaccent" unicode="&#x10a;" horiz-adv-x="561" 
d="M382 -11q-170 0 -260.5 101t-90.5 278q0 109 37.5 195t113.5 136t186 50q72 0 139 -28l17 -130q-71 38 -147 38q-105 0 -155.5 -67.5t-50.5 -193.5q0 -127 56.5 -193t168.5 -66q73 0 135 29v-121q-68 -28 -149 -28zM303.5 799.5q-19.5 19.5 -19.5 47.5t19 47t52 19
q34 0 53 -19t19 -47t-19 -47.5t-53 -19.5q-32 0 -51.5 19.5z" />
    <glyph glyph-name="D" unicode="D" horiz-adv-x="678" 
d="M476.5 690.5q77.5 -47.5 116.5 -131t39 -191.5t-38.5 -191t-116.5 -130t-192 -47h-210v738h213q111 0 188.5 -47.5zM442.5 185q50.5 65 50.5 183q0 120 -50.5 185t-156.5 65h-76v-498h75q107 0 157.5 65z" />
    <glyph glyph-name="Eth" unicode="&#xd0;" horiz-adv-x="678" 
d="M476.5 690.5q77.5 -47.5 116.5 -131t39 -191.5t-38.5 -191t-116.5 -130t-192 -47h-210v318h-56v102h56v318h213q111 0 188.5 -47.5zM442.5 185q50.5 65 50.5 183q0 120 -50.5 185t-156.5 65h-76v-198h143v-102h-143v-198h75q107 0 157.5 65z" />
    <glyph glyph-name="Dcaron" unicode="&#x10e;" horiz-adv-x="678" 
d="M476.5 690.5q77.5 -47.5 116.5 -131t39 -191.5t-38.5 -191t-116.5 -130t-192 -47h-210v738h213q111 0 188.5 -47.5zM442.5 185q50.5 65 50.5 183q0 120 -50.5 185t-156.5 65h-76v-498h75q107 0 157.5 65zM341 883h105l-79 -110h-150l-80 110h105l50 -50z" />
    <glyph glyph-name="Dcroat" unicode="&#x110;" horiz-adv-x="678" 
d="M476.5 690.5q77.5 -47.5 116.5 -131t39 -191.5t-38.5 -191t-116.5 -130t-192 -47h-210v318h-56v102h56v318h213q111 0 188.5 -47.5zM442.5 185q50.5 65 50.5 183q0 120 -50.5 185t-156.5 65h-76v-198h143v-102h-143v-198h75q107 0 157.5 65z" />
    <glyph glyph-name="E" unicode="E" horiz-adv-x="567" 
d="M210 119h320v-119h-455v738h447v-119h-312v-186h279v-119h-279v-195z" />
    <glyph glyph-name="Eacute" unicode="&#xc9;" horiz-adv-x="567" 
d="M210 119h320v-119h-455v738h447v-119h-312v-186h279v-119h-279v-195zM241 775l60 109h155l-98 -109h-117z" />
    <glyph glyph-name="Ebreve" unicode="&#x114;" horiz-adv-x="567" 
d="M210 119h320v-119h-455v738h447v-119h-312v-186h279v-119h-279v-195zM205 801.5q-34 28.5 -37 81.5h78q9 -38 53 -38q43 0 52 38h78q-3 -53 -36.5 -81.5t-93.5 -28.5t-94 28.5z" />
    <glyph glyph-name="Ecaron" unicode="&#x11a;" horiz-adv-x="567" 
d="M210 119h320v-119h-455v738h447v-119h-312v-186h279v-119h-279v-195zM348 883h105l-79 -110h-150l-80 110h105l50 -50z" />
    <glyph glyph-name="Ecircumflex" unicode="&#xca;" horiz-adv-x="567" 
d="M210 119h320v-119h-455v738h447v-119h-312v-186h279v-119h-279v-195zM453 774h-105l-49 50l-50 -50h-105l80 110h150z" />
    <glyph glyph-name="Edieresis" unicode="&#xcb;" horiz-adv-x="567" 
d="M210 119h320v-119h-455v738h447v-119h-312v-186h279v-119h-279v-195zM172.5 789.5q-15.5 14.5 -15.5 36.5t15.5 36.5t43.5 14.5q29 0 45 -14t16 -37q0 -22 -16 -36.5t-45 -14.5q-28 0 -43.5 14.5zM337 789.5q-16 14.5 -16 36.5t16 36.5t44 14.5t44 -14t16 -37
q0 -22 -16 -36.5t-44 -14.5t-44 14.5z" />
    <glyph glyph-name="Edotaccent" unicode="&#x116;" horiz-adv-x="567" 
d="M210 119h320v-119h-455v738h447v-119h-312v-186h279v-119h-279v-195zM246.5 799.5q-19.5 19.5 -19.5 47.5t19 47t52 19q34 0 53 -19t19 -47t-19 -47.5t-53 -19.5q-32 0 -51.5 19.5z" />
    <glyph glyph-name="Egrave" unicode="&#xc8;" horiz-adv-x="567" 
d="M210 119h320v-119h-455v738h447v-119h-312v-186h279v-119h-279v-195zM356 775h-116l-99 109h155z" />
    <glyph glyph-name="Emacron" unicode="&#x112;" horiz-adv-x="567" 
d="M210 119h320v-119h-455v738h447v-119h-312v-186h279v-119h-279v-195zM176 869h245v-79h-245v79z" />
    <glyph glyph-name="Eogonek" unicode="&#x118;" horiz-adv-x="567" 
d="M210 119h320v-119h-455v738h447v-119h-312v-186h279v-119h-279v-195zM383.5 -32q-17.5 -19 -17.5 -37q0 -16 10 -22.5t32 -6.5q38 0 72 15l-10 -75q-43 -17 -83 -17q-52 0 -80 20.5t-28 56.5q0 35 30 64t111 72l25 -20q-44 -31 -61.5 -50z" />
    <glyph glyph-name="F" unicode="F" horiz-adv-x="533" 
d="M503 619h-293v-186h263v-119h-263v-314h-135v738h428v-119z" />
    <glyph glyph-name="G" unicode="G" horiz-adv-x="667" 
d="M614 408v-379q-63 -22 -111 -31t-108 -9q-176 0 -263 97.5t-87 276.5q0 109 39 196.5t118 138.5t192 51q100 0 182 -38l17 -131q-43 24 -92.5 36.5t-97.5 12.5q-110 0 -164 -69.5t-54 -196.5q0 -126 56 -191t167 -65q35 0 72 10v178h-129v113h263z" />
    <glyph glyph-name="Gbreve" unicode="&#x11e;" horiz-adv-x="667" 
d="M614 408v-379q-63 -22 -111 -31t-108 -9q-176 0 -263 97.5t-87 276.5q0 109 39 196.5t118 138.5t192 51q100 0 182 -38l17 -131q-43 24 -92.5 36.5t-97.5 12.5q-110 0 -164 -69.5t-54 -196.5q0 -126 56 -191t167 -65q35 0 72 10v178h-129v113h263zM295 803.5
q-34 28.5 -37 81.5h78q9 -38 53 -38q43 0 52 38h78q-3 -53 -36.5 -81.5t-93.5 -28.5t-94 28.5z" />
    <glyph glyph-name="Gcircumflex" unicode="&#x11c;" horiz-adv-x="667" 
d="M614 408v-379q-63 -22 -111 -31t-108 -9q-176 0 -263 97.5t-87 276.5q0 109 39 196.5t118 138.5t192 51q100 0 182 -38l17 -131q-43 24 -92.5 36.5t-97.5 12.5q-110 0 -164 -69.5t-54 -196.5q0 -126 56 -191t167 -65q35 0 72 10v178h-129v113h263zM543 776h-105l-49 50
l-50 -50h-105l80 110h150z" />
    <glyph glyph-name="Gcommaaccent" unicode="&#x122;" horiz-adv-x="667" 
d="M614 408v-379q-63 -22 -111 -31t-108 -9q-176 0 -263 97.5t-87 276.5q0 109 39 196.5t118 138.5t192 51q100 0 182 -38l17 -131q-43 24 -92.5 36.5t-97.5 12.5q-110 0 -164 -69.5t-54 -196.5q0 -126 56 -191t167 -65q35 0 72 10v178h-129v113h263zM452.5 -57.5
q19.5 -19.5 19.5 -54.5q0 -45 -27 -77.5t-87 -32.5q-9 0 -29 2l-2 44q16 -2 22 -2q19 0 28.5 6t12.5 19h-4q-26 0 -40 15.5t-14 37.5q0 26 18.5 44t49.5 18q33 0 52.5 -19.5z" />
    <glyph glyph-name="Gdotaccent" unicode="&#x120;" horiz-adv-x="667" 
d="M614 408v-379q-63 -22 -111 -31t-108 -9q-176 0 -263 97.5t-87 276.5q0 109 39 196.5t118 138.5t192 51q100 0 182 -38l17 -131q-43 24 -92.5 36.5t-97.5 12.5q-110 0 -164 -69.5t-54 -196.5q0 -126 56 -191t167 -65q35 0 72 10v178h-129v113h263zM336.5 801.5
q-19.5 19.5 -19.5 47.5t19 47t52 19q34 0 53 -19t19 -47t-19 -47.5t-53 -19.5q-32 0 -51.5 19.5z" />
    <glyph glyph-name="H" unicode="H" horiz-adv-x="712" 
d="M502 738h135v-738h-135v314h-292v-314h-135v738h135v-305h292v305z" />
    <glyph glyph-name="Hbar" unicode="&#x126;" horiz-adv-x="712" 
d="M502 738h135v-738h-135v314h-292v-314h-135v738h135v-109h292v109zM210 433h292v108h-292v-108z" />
    <glyph glyph-name="Hcircumflex" unicode="&#x124;" horiz-adv-x="712" 
d="M502 738h135v-738h-135v314h-292v-314h-135v738h135v-305h292v305zM509 774h-105l-49 50l-50 -50h-105l80 110h150z" />
    <glyph glyph-name="I" unicode="I" horiz-adv-x="285" 
d="M75 0v738h135v-738h-135z" />
    <glyph glyph-name="IJ" unicode="&#x132;" horiz-adv-x="696" 
d="M75 0v738h135v-738h-135zM320 3l-13 123q46 -16 95 -16q95 0 95 106v522h135v-522q0 -106 -53 -166.5t-159 -60.5q-62 0 -100 14z" />
    <glyph glyph-name="Iacute" unicode="&#xcd;" horiz-adv-x="285" 
d="M75 0v738h135v-738h-135zM84 775l60 109h155l-98 -109h-117z" />
    <glyph glyph-name="Ibreve" unicode="&#x12c;" horiz-adv-x="285" 
d="M75 0v738h135v-738h-135zM48 801.5q-34 28.5 -37 81.5h78q9 -38 53 -38q43 0 52 38h78q-3 -53 -36.5 -81.5t-93.5 -28.5t-94 28.5z" />
    <glyph glyph-name="Icircumflex" unicode="&#xce;" horiz-adv-x="285" 
d="M75 0v738h135v-738h-135zM296 774h-105l-49 50l-50 -50h-105l80 110h150z" />
    <glyph glyph-name="Idieresis" unicode="&#xcf;" horiz-adv-x="285" 
d="M75 0v738h135v-738h-135zM15.5 789.5q-15.5 14.5 -15.5 36.5t15.5 36.5t43.5 14.5q29 0 45 -14t16 -37q0 -22 -16 -36.5t-45 -14.5q-28 0 -43.5 14.5zM180 789.5q-16 14.5 -16 36.5t16 36.5t44 14.5t44 -14t16 -37q0 -22 -16 -36.5t-44 -14.5t-44 14.5z" />
    <glyph glyph-name="Idotaccent" unicode="&#x130;" horiz-adv-x="285" 
d="M75 0v738h135v-738h-135zM89.5 799.5q-19.5 19.5 -19.5 47.5t19 47t52 19q34 0 53 -19t19 -47t-19 -47.5t-53 -19.5q-32 0 -51.5 19.5z" />
    <glyph glyph-name="Igrave" unicode="&#xcc;" horiz-adv-x="285" 
d="M75 0v738h135v-738h-135zM199 775h-116l-99 109h155z" />
    <glyph glyph-name="Imacron" unicode="&#x12a;" horiz-adv-x="285" 
d="M75 0v738h135v-738h-135zM19 869h245v-79h-245v79z" />
    <glyph glyph-name="Iogonek" unicode="&#x12e;" horiz-adv-x="285" 
d="M237 -82l-10 -75q-42 -17 -83 -17q-52 0 -80 20.5t-28 56.5q0 27 16.5 49t56.5 48h-34v738h135v-738h-34q-29 -21 -41 -37t-12 -31q0 -16 10 -22.5t32 -6.5q38 0 72 15z" />
    <glyph glyph-name="Itilde" unicode="&#x128;" horiz-adv-x="285" 
d="M75 0v738h135v-738h-135zM-3 815q2 15 8 30q20 50 73 50q23 0 39 -6t34 -17q9 -5 19.5 -9.5t19.5 -4.5q22 0 22 37h77q0 -32 -6 -58q-9 -31 -30 -45.5t-48 -14.5q-22 0 -38 5.5t-35 16.5q-9 5 -19.5 9.5t-19.5 4.5q-21 0 -21 -36h-77q0 23 2 38z" />
    <glyph glyph-name="J" unicode="J" horiz-adv-x="411" 
d="M35 3l-13 123q46 -16 95 -16q95 0 95 106v522h135v-522q0 -106 -53 -166.5t-159 -60.5q-62 0 -100 14z" />
    <glyph glyph-name="Jcircumflex" unicode="&#x134;" horiz-adv-x="411" 
d="M35 3l-13 123q46 -16 95 -16q95 0 95 106v522h135v-522q0 -106 -53 -166.5t-159 -60.5q-62 0 -100 14zM433 774h-105l-49 50l-50 -50h-105l80 110h150z" />
    <glyph glyph-name="K" unicode="K" horiz-adv-x="616" 
d="M611 0h-159l-242 373v-373h-135v738h135v-338l240 338h147l-252 -343z" />
    <glyph glyph-name="Kcommaaccent" unicode="&#x136;" horiz-adv-x="616" 
d="M611 0h-159l-242 373v-373h-135v738h135v-338l240 338h147l-252 -343zM374.5 -57.5q19.5 -19.5 19.5 -54.5q0 -45 -27 -77.5t-87 -32.5q-9 0 -29 2l-2 44q16 -2 22 -2q19 0 28.5 6t12.5 19h-4q-26 0 -40 15.5t-14 37.5q0 26 18.5 44t49.5 18q33 0 52.5 -19.5z" />
    <glyph glyph-name="L" unicode="L" horiz-adv-x="486" 
d="M210 119h254v-119h-389v738h135v-619z" />
    <glyph glyph-name="Lacute" unicode="&#x139;" horiz-adv-x="486" 
d="M210 119h254v-119h-389v738h135v-619zM84 775l60 109h155l-98 -109h-117z" />
    <glyph glyph-name="Lcaron" unicode="&#x13d;" horiz-adv-x="486" 
d="M210 119h254v-119h-389v738h135v-619zM271 590v148h111l-32 -148h-79z" />
    <glyph glyph-name="Lcommaaccent" unicode="&#x13b;" horiz-adv-x="486" 
d="M210 119h254v-119h-389v738h135v-619zM337.5 -57.5q19.5 -19.5 19.5 -54.5q0 -45 -27 -77.5t-87 -32.5q-9 0 -29 2l-2 44q16 -2 22 -2q19 0 28.5 6t12.5 19h-4q-26 0 -40 15.5t-14 37.5q0 26 18.5 44t49.5 18q33 0 52.5 -19.5z" />
    <glyph glyph-name="Ldot" unicode="&#x13f;" horiz-adv-x="486" 
d="M210 119h254v-119h-389v738h135v-619zM328.5 352q-21.5 21 -21.5 54t21.5 54.5t57.5 21.5t57.5 -21.5t21.5 -54.5t-21.5 -54t-57.5 -21t-57.5 21z" />
    <glyph glyph-name="Lslash" unicode="&#x141;" horiz-adv-x="486" 
d="M210 119h254v-119h-389v738h135v-311l168 138v-120l-168 -138v-188z" />
    <glyph glyph-name="M" unicode="M" horiz-adv-x="821" 
d="M784 0h-123l-49 514l-157 -514h-89l-157 514l-50 -514h-122l75 738h142l156 -526l157 526h143z" />
    <glyph glyph-name="N" unicode="N" horiz-adv-x="736" 
d="M537 738h124v-738h-140l-322 527v-527h-124v738h139l323 -528v528z" />
    <glyph glyph-name="Nacute" unicode="&#x143;" horiz-adv-x="736" 
d="M537 738h124v-738h-140l-322 527v-527h-124v738h139l323 -528v528zM317 775l60 109h155l-98 -109h-117z" />
    <glyph glyph-name="Ncaron" unicode="&#x147;" horiz-adv-x="736" 
d="M537 738h124v-738h-140l-322 527v-527h-124v738h139l323 -528v528zM424 883h105l-79 -110h-150l-80 110h105l50 -50z" />
    <glyph glyph-name="Ncommaaccent" unicode="&#x145;" horiz-adv-x="736" 
d="M537 738h124v-738h-140l-322 527v-527h-124v738h139l323 -528v528zM418.5 -57.5q19.5 -19.5 19.5 -54.5q0 -45 -27 -77.5t-87 -32.5q-9 0 -29 2l-2 44q16 -2 22 -2q19 0 28.5 6t12.5 19h-4q-26 0 -40 15.5t-14 37.5q0 26 18.5 44t49.5 18q33 0 52.5 -19.5z" />
    <glyph glyph-name="Eng" unicode="&#x14a;" horiz-adv-x="743" 
d="M668 738v-752q0 -91 -54 -144.5t-159 -53.5q-62 0 -103 14l-11 115q43 -17 96 -17q45 0 71 21t26 67v12l-335 530v-530h-124v738h139l330 -522v522h124z" />
    <glyph glyph-name="Ntilde" unicode="&#xd1;" horiz-adv-x="736" 
d="M537 738h124v-738h-140l-322 527v-527h-124v738h139l323 -528v528zM230 815q2 15 8 30q20 50 73 50q23 0 39 -6t34 -17q9 -5 19.5 -9.5t19.5 -4.5q22 0 22 37h77q0 -32 -6 -58q-9 -31 -30 -45.5t-48 -14.5q-22 0 -38 5.5t-35 16.5q-9 5 -19.5 9.5t-19.5 4.5
q-21 0 -21 -36h-77q0 23 2 38z" />
    <glyph glyph-name="O" unicode="O" horiz-adv-x="749" 
d="M197 39q-74 50 -113 136t-39 193q0 108 39 194.5t113.5 136.5t178.5 50q101 0 175 -50t113 -137t39 -194t-39 -193.5t-113.5 -136t-178.5 -49.5q-101 0 -175 50zM514.5 180.5q49.5 70.5 49.5 187.5q0 118 -49.5 189t-139.5 71q-92 0 -141 -70.5t-49 -189.5
q0 -117 49 -187.5t139 -70.5q92 0 141.5 70.5z" />
    <glyph glyph-name="Oacute" unicode="&#xd3;" horiz-adv-x="749" 
d="M197 39q-74 50 -113 136t-39 193q0 108 39 194.5t113.5 136.5t178.5 50q101 0 175 -50t113 -137t39 -194t-39 -193.5t-113.5 -136t-178.5 -49.5q-101 0 -175 50zM514.5 180.5q49.5 70.5 49.5 187.5q0 118 -49.5 189t-139.5 71q-92 0 -141 -70.5t-49 -189.5
q0 -117 49 -187.5t139 -70.5q92 0 141.5 70.5zM317 775l60 109h155l-98 -109h-117z" />
    <glyph glyph-name="Obreve" unicode="&#x14e;" horiz-adv-x="749" 
d="M197 39q-74 50 -113 136t-39 193q0 108 39 194.5t113.5 136.5t178.5 50q101 0 175 -50t113 -137t39 -194t-39 -193.5t-113.5 -136t-178.5 -49.5q-101 0 -175 50zM514.5 180.5q49.5 70.5 49.5 187.5q0 118 -49.5 189t-139.5 71q-92 0 -141 -70.5t-49 -189.5
q0 -117 49 -187.5t139 -70.5q92 0 141.5 70.5zM281 801.5q-34 28.5 -37 81.5h78q9 -38 53 -38q43 0 52 38h78q-3 -53 -36.5 -81.5t-93.5 -28.5t-94 28.5z" />
    <glyph glyph-name="Ocircumflex" unicode="&#xd4;" horiz-adv-x="749" 
d="M197 39q-74 50 -113 136t-39 193q0 108 39 194.5t113.5 136.5t178.5 50q101 0 175 -50t113 -137t39 -194t-39 -193.5t-113.5 -136t-178.5 -49.5q-101 0 -175 50zM514.5 180.5q49.5 70.5 49.5 187.5q0 118 -49.5 189t-139.5 71q-92 0 -141 -70.5t-49 -189.5
q0 -117 49 -187.5t139 -70.5q92 0 141.5 70.5zM529 774h-105l-49 50l-50 -50h-105l80 110h150z" />
    <glyph glyph-name="Odieresis" unicode="&#xd6;" horiz-adv-x="749" 
d="M197 39q-74 50 -113 136t-39 193q0 108 39 194.5t113.5 136.5t178.5 50q101 0 175 -50t113 -137t39 -194t-39 -193.5t-113.5 -136t-178.5 -49.5q-101 0 -175 50zM514.5 180.5q49.5 70.5 49.5 187.5q0 118 -49.5 189t-139.5 71q-92 0 -141 -70.5t-49 -189.5
q0 -117 49 -187.5t139 -70.5q92 0 141.5 70.5zM248.5 789.5q-15.5 14.5 -15.5 36.5t15.5 36.5t43.5 14.5q29 0 45 -14t16 -37q0 -22 -16 -36.5t-45 -14.5q-28 0 -43.5 14.5zM413 789.5q-16 14.5 -16 36.5t16 36.5t44 14.5t44 -14t16 -37q0 -22 -16 -36.5t-44 -14.5t-44 14.5
z" />
    <glyph glyph-name="Ograve" unicode="&#xd2;" horiz-adv-x="749" 
d="M197 39q-74 50 -113 136t-39 193q0 108 39 194.5t113.5 136.5t178.5 50q101 0 175 -50t113 -137t39 -194t-39 -193.5t-113.5 -136t-178.5 -49.5q-101 0 -175 50zM514.5 180.5q49.5 70.5 49.5 187.5q0 118 -49.5 189t-139.5 71q-92 0 -141 -70.5t-49 -189.5
q0 -117 49 -187.5t139 -70.5q92 0 141.5 70.5zM432 775h-116l-99 109h155z" />
    <glyph glyph-name="Ohungarumlaut" unicode="&#x150;" horiz-adv-x="749" 
d="M197 39q-74 50 -113 136t-39 193q0 108 39 194.5t113.5 136.5t178.5 50q101 0 175 -50t113 -137t39 -194t-39 -193.5t-113.5 -136t-178.5 -49.5q-101 0 -175 50zM514.5 180.5q49.5 70.5 49.5 187.5q0 118 -49.5 189t-139.5 71q-92 0 -141 -70.5t-49 -189.5
q0 -117 49 -187.5t139 -70.5q92 0 141.5 70.5zM247 773l27 110h127l-63 -110h-91zM404 773l52 110h127l-88 -110h-91z" />
    <glyph glyph-name="Omacron" unicode="&#x14c;" horiz-adv-x="749" 
d="M197 39q-74 50 -113 136t-39 193q0 108 39 194.5t113.5 136.5t178.5 50q101 0 175 -50t113 -137t39 -194t-39 -193.5t-113.5 -136t-178.5 -49.5q-101 0 -175 50zM514.5 180.5q49.5 70.5 49.5 187.5q0 118 -49.5 189t-139.5 71q-92 0 -141 -70.5t-49 -189.5
q0 -117 49 -187.5t139 -70.5q92 0 141.5 70.5zM252 869h245v-79h-245v79z" />
    <glyph glyph-name="Oslash" unicode="&#xd8;" horiz-adv-x="749" 
d="M685.5 502q17.5 -63 17.5 -134q0 -107 -39 -193.5t-113.5 -136t-178.5 -49.5q-121 0 -205 73l-52 -62l-63 52l61 71q-33 50 -50.5 112.5t-17.5 132.5q0 108 39 194.5t113.5 136.5t178.5 50q123 0 206 -74l53 63l62 -52l-62 -73q33 -48 50.5 -111zM202 229l300 352
q-49 51 -127 51q-95 0 -145.5 -71.5t-50.5 -192.5q0 -79 23 -139zM519 177q51 71 51 191q0 80 -23 141l-299 -353q48 -50 125 -50q95 0 146 71z" />
    <glyph glyph-name="Otilde" unicode="&#xd5;" horiz-adv-x="749" 
d="M197 39q-74 50 -113 136t-39 193q0 108 39 194.5t113.5 136.5t178.5 50q101 0 175 -50t113 -137t39 -194t-39 -193.5t-113.5 -136t-178.5 -49.5q-101 0 -175 50zM514.5 180.5q49.5 70.5 49.5 187.5q0 118 -49.5 189t-139.5 71q-92 0 -141 -70.5t-49 -189.5
q0 -117 49 -187.5t139 -70.5q92 0 141.5 70.5zM230 815q2 15 8 30q20 50 73 50q23 0 39 -6t34 -17q9 -5 19.5 -9.5t19.5 -4.5q22 0 22 37h77q0 -32 -6 -58q-9 -31 -30 -45.5t-48 -14.5q-22 0 -38 5.5t-35 16.5q-9 5 -19.5 9.5t-19.5 4.5q-21 0 -21 -36h-77q0 23 2 38z" />
    <glyph glyph-name="OE" unicode="&#x152;" horiz-adv-x="1044" 
d="M1007 119v-119h-441v95q-33 -50 -85 -78t-123 -28q-94 0 -165 50t-109.5 136.5t-38.5 192.5q0 107 38 194t110 137t168 50q69 0 120.5 -28.5t84.5 -79.5v97h433v-119h-299v-186h265v-119h-265v-195h307zM517 180q49 70 49 188q0 119 -49 189.5t-140 70.5
q-93 0 -142.5 -70.5t-49.5 -189.5q0 -117 49.5 -187.5t140.5 -70.5q93 0 142 70z" />
    <glyph glyph-name="P" unicode="P" horiz-adv-x="627" 
d="M465.5 705.5q63.5 -32.5 96.5 -91t33 -136.5q0 -119 -74.5 -189t-209.5 -70h-101v-219h-135v738h239q88 0 151.5 -32.5zM417.5 370.5q37.5 36.5 37.5 107.5t-37.5 108t-108.5 37h-99v-289h97q73 0 110.5 36.5z" />
    <glyph glyph-name="Thorn" unicode="&#xde;" horiz-adv-x="634" 
d="M470.5 600.5q64.5 -32.5 98 -91t33.5 -136.5t-33.5 -136.5t-98.5 -91t-156 -32.5h-104v-113h-135v738h135v-105h107q89 0 153.5 -32.5zM423.5 265.5q38.5 36.5 38.5 107.5t-38.5 108t-111.5 37h-102v-289h100q75 0 113.5 36.5z" />
    <glyph glyph-name="Q" unicode="Q" horiz-adv-x="749" 
d="M681 218q-22 -69 -65 -121l62 -72l-92 -76l-63 74q-66 -34 -151 -34q-101 0 -175 50t-113 136t-39 193q0 108 39 194.5t113.5 136.5t178.5 50q101 0 175 -50t113 -137t39 -194q0 -81 -22 -150zM438 121l-71 83l92 77l69 -80q36 66 36 167q0 118 -49.5 189t-139.5 71
q-92 0 -141 -70.5t-49 -189.5q0 -117 49 -187.5t139 -70.5q35 0 65 11z" />
    <glyph glyph-name="R" unicode="R" horiz-adv-x="654" 
d="M292 261h-82v-261h-135v738h263q87 0 149 -30.5t94 -85.5t32 -126q0 -84 -46 -143t-132 -81l187 -272h-164zM210 373h121q71 0 106.5 32t35.5 90q0 61 -35.5 94.5t-105.5 33.5h-122v-250z" />
    <glyph glyph-name="Racute" unicode="&#x154;" horiz-adv-x="654" 
d="M292 261h-82v-261h-135v738h263q87 0 149 -30.5t94 -85.5t32 -126q0 -84 -46 -143t-132 -81l187 -272h-164zM210 373h121q71 0 106.5 32t35.5 90q0 61 -35.5 94.5t-105.5 33.5h-122v-250zM238 775l60 109h155l-98 -109h-117z" />
    <glyph glyph-name="Rcaron" unicode="&#x158;" horiz-adv-x="654" 
d="M292 261h-82v-261h-135v738h263q87 0 149 -30.5t94 -85.5t32 -126q0 -84 -46 -143t-132 -81l187 -272h-164zM210 373h121q71 0 106.5 32t35.5 90q0 61 -35.5 94.5t-105.5 33.5h-122v-250zM345 883h105l-79 -110h-150l-80 110h105l50 -50z" />
    <glyph glyph-name="Rcommaaccent" unicode="&#x156;" horiz-adv-x="654" 
d="M292 261h-82v-261h-135v738h263q87 0 149 -30.5t94 -85.5t32 -126q0 -84 -46 -143t-132 -81l187 -272h-164zM210 373h121q71 0 106.5 32t35.5 90q0 61 -35.5 94.5t-105.5 33.5h-122v-250zM380.5 -57.5q19.5 -19.5 19.5 -54.5q0 -45 -27 -77.5t-87 -32.5q-9 0 -29 2l-2 44
q16 -2 22 -2q19 0 28.5 6t12.5 19h-4q-26 0 -40 15.5t-14 37.5q0 26 18.5 44t49.5 18q33 0 52.5 -19.5z" />
    <glyph glyph-name="S" unicode="S" horiz-adv-x="533" 
d="M37 165q107 -52 206 -52q121 0 121 94q0 36 -29.5 61t-108.5 51q-106 37 -150.5 86t-44.5 126q0 64 30.5 113.5t88 77t135.5 27.5q92 0 167 -35l19 -136q-44 24 -89.5 37t-88.5 13q-51 0 -82 -24.5t-31 -68.5q0 -38 30 -63.5t108 -51.5q107 -36 152 -85t45 -127
q0 -68 -32.5 -117.5t-89.5 -75.5t-128 -26q-120 0 -217 41z" />
    <glyph glyph-name="Sacute" unicode="&#x15a;" horiz-adv-x="533" 
d="M37 165q107 -52 206 -52q121 0 121 94q0 36 -29.5 61t-108.5 51q-106 37 -150.5 86t-44.5 126q0 64 30.5 113.5t88 77t135.5 27.5q92 0 167 -35l19 -136q-44 24 -89.5 37t-88.5 13q-51 0 -82 -24.5t-31 -68.5q0 -38 30 -63.5t108 -51.5q107 -36 152 -85t45 -127
q0 -68 -32.5 -117.5t-89.5 -75.5t-128 -26q-120 0 -217 41zM216 775l60 109h155l-98 -109h-117z" />
    <glyph glyph-name="Scaron" unicode="&#x160;" horiz-adv-x="533" 
d="M37 165q107 -52 206 -52q121 0 121 94q0 36 -29.5 61t-108.5 51q-106 37 -150.5 86t-44.5 126q0 64 30.5 113.5t88 77t135.5 27.5q92 0 167 -35l19 -136q-44 24 -89.5 37t-88.5 13q-51 0 -82 -24.5t-31 -68.5q0 -38 30 -63.5t108 -51.5q107 -36 152 -85t45 -127
q0 -68 -32.5 -117.5t-89.5 -75.5t-128 -26q-120 0 -217 41zM323 883h105l-79 -110h-150l-80 110h105l50 -50z" />
    <glyph glyph-name="Scedilla" unicode="&#x15e;" horiz-adv-x="533" 
d="M37 165q107 -52 206 -52q121 0 121 94q0 36 -29.5 61t-108.5 51q-106 37 -150.5 86t-44.5 126q0 64 30.5 113.5t88 77t135.5 27.5q92 0 167 -35l19 -136q-44 24 -89.5 37t-88.5 13q-51 0 -82 -24.5t-31 -68.5q0 -38 30 -63.5t108 -51.5q107 -36 152 -85t45 -127
q0 -68 -32.5 -117.5t-89.5 -75.5t-128 -26q-120 0 -217 41zM182 -187l21 147h119l-51 -147h-89z" />
    <glyph glyph-name="Scircumflex" unicode="&#x15c;" horiz-adv-x="533" 
d="M37 165q107 -52 206 -52q121 0 121 94q0 36 -29.5 61t-108.5 51q-106 37 -150.5 86t-44.5 126q0 64 30.5 113.5t88 77t135.5 27.5q92 0 167 -35l19 -136q-44 24 -89.5 37t-88.5 13q-51 0 -82 -24.5t-31 -68.5q0 -38 30 -63.5t108 -51.5q107 -36 152 -85t45 -127
q0 -68 -32.5 -117.5t-89.5 -75.5t-128 -26q-120 0 -217 41zM428 774h-105l-49 50l-50 -50h-105l80 110h150z" />
    <glyph glyph-name="Scommaaccent" unicode="&#x218;" horiz-adv-x="533" 
d="M37 165q107 -52 206 -52q121 0 121 94q0 36 -29.5 61t-108.5 51q-106 37 -150.5 86t-44.5 126q0 64 30.5 113.5t88 77t135.5 27.5q92 0 167 -35l19 -136q-44 24 -89.5 37t-88.5 13q-51 0 -82 -24.5t-31 -68.5q0 -38 30 -63.5t108 -51.5q107 -36 152 -85t45 -127
q0 -68 -32.5 -117.5t-89.5 -75.5t-128 -26q-120 0 -217 41zM318.5 -57.5q19.5 -19.5 19.5 -54.5q0 -45 -27 -77.5t-87 -32.5q-9 0 -29 2l-2 44q16 -2 22 -2q19 0 28.5 6t12.5 19h-4q-26 0 -40 15.5t-14 37.5q0 26 18.5 44t49.5 18q33 0 52.5 -19.5z" />
    <glyph glyph-name="Germandbls" unicode="&#x1e9e;" horiz-adv-x="727" 
d="M657.5 329q50.5 -54 50.5 -139q0 -56 -30 -102t-82 -72.5t-116 -26.5q-91 0 -167 33l-12 132q80 -41 157 -41q44 0 71.5 22.5t27.5 65.5q0 36 -20 63.5t-64.5 53.5t-122.5 58l145 198q-48 55 -125 55q-78 0 -119 -50t-41 -149v-430h-135v430q0 104 36 175.5t100 107.5
t149 36q104 0 172 -43.5t117 -116.5l-134 -170q92 -36 142.5 -90z" />
    <glyph glyph-name="T" unicode="T" horiz-adv-x="579" 
d="M557 738v-119h-200v-619h-135v619h-200v119h535z" />
    <glyph glyph-name="Tbar" unicode="&#x166;" horiz-adv-x="579" 
d="M557 619h-200v-217h99v-102h-99v-300h-135v300h-100v102h100v217h-200v119h535v-119z" />
    <glyph glyph-name="Tcaron" unicode="&#x164;" horiz-adv-x="579" 
d="M557 738v-119h-200v-619h-135v619h-200v119h535zM338 883h105l-79 -110h-150l-80 110h105l50 -50z" />
    <glyph glyph-name="uni0162" unicode="&#x162;" horiz-adv-x="579" 
d="M557 738v-119h-200v-619h-135v619h-200v119h535zM339.5 -57.5q19.5 -19.5 19.5 -54.5q0 -45 -27 -77.5t-87 -32.5q-9 0 -29 2l-2 44q16 -2 22 -2q19 0 28.5 6t12.5 19h-4q-26 0 -40 15.5t-14 37.5q0 26 18.5 44t49.5 18q33 0 52.5 -19.5z" />
    <glyph glyph-name="uni021A" unicode="&#x21a;" horiz-adv-x="579" 
d="M557 738v-119h-200v-619h-135v619h-200v119h535zM339.5 -57.5q19.5 -19.5 19.5 -54.5q0 -45 -27 -77.5t-87 -32.5q-9 0 -29 2l-2 44q16 -2 22 -2q19 0 28.5 6t12.5 19h-4q-26 0 -40 15.5t-14 37.5q0 26 18.5 44t49.5 18q33 0 52.5 -19.5z" />
    <glyph glyph-name="U" unicode="U" horiz-adv-x="693" 
d="M131 76.5q-67 87.5 -67 233.5v428h135v-428q0 -103 34.5 -152t111.5 -49q80 0 114.5 48.5t34.5 152.5v428h135v-428q0 -146 -67.5 -233.5t-216.5 -87.5q-147 0 -214 87.5z" />
    <glyph glyph-name="Uacute" unicode="&#xda;" horiz-adv-x="693" 
d="M131 76.5q-67 87.5 -67 233.5v428h135v-428q0 -103 34.5 -152t111.5 -49q80 0 114.5 48.5t34.5 152.5v428h135v-428q0 -146 -67.5 -233.5t-216.5 -87.5q-147 0 -214 87.5zM289 775l60 109h155l-98 -109h-117z" />
    <glyph glyph-name="Ubreve" unicode="&#x16c;" horiz-adv-x="693" 
d="M131 76.5q-67 87.5 -67 233.5v428h135v-428q0 -103 34.5 -152t111.5 -49q80 0 114.5 48.5t34.5 152.5v428h135v-428q0 -146 -67.5 -233.5t-216.5 -87.5q-147 0 -214 87.5zM253 801.5q-34 28.5 -37 81.5h78q9 -38 53 -38q43 0 52 38h78q-3 -53 -36.5 -81.5t-93.5 -28.5
t-94 28.5z" />
    <glyph glyph-name="Ucircumflex" unicode="&#xdb;" horiz-adv-x="693" 
d="M131 76.5q-67 87.5 -67 233.5v428h135v-428q0 -103 34.5 -152t111.5 -49q80 0 114.5 48.5t34.5 152.5v428h135v-428q0 -146 -67.5 -233.5t-216.5 -87.5q-147 0 -214 87.5zM501 774h-105l-49 50l-50 -50h-105l80 110h150z" />
    <glyph glyph-name="Udieresis" unicode="&#xdc;" horiz-adv-x="693" 
d="M131 76.5q-67 87.5 -67 233.5v428h135v-428q0 -103 34.5 -152t111.5 -49q80 0 114.5 48.5t34.5 152.5v428h135v-428q0 -146 -67.5 -233.5t-216.5 -87.5q-147 0 -214 87.5zM220.5 789.5q-15.5 14.5 -15.5 36.5t15.5 36.5t43.5 14.5q29 0 45 -14t16 -37q0 -22 -16 -36.5
t-45 -14.5q-28 0 -43.5 14.5zM385 789.5q-16 14.5 -16 36.5t16 36.5t44 14.5t44 -14t16 -37q0 -22 -16 -36.5t-44 -14.5t-44 14.5z" />
    <glyph glyph-name="Ugrave" unicode="&#xd9;" horiz-adv-x="693" 
d="M131 76.5q-67 87.5 -67 233.5v428h135v-428q0 -103 34.5 -152t111.5 -49q80 0 114.5 48.5t34.5 152.5v428h135v-428q0 -146 -67.5 -233.5t-216.5 -87.5q-147 0 -214 87.5zM404 775h-116l-99 109h155z" />
    <glyph glyph-name="Uhungarumlaut" unicode="&#x170;" horiz-adv-x="693" 
d="M131 76.5q-67 87.5 -67 233.5v428h135v-428q0 -103 34.5 -152t111.5 -49q80 0 114.5 48.5t34.5 152.5v428h135v-428q0 -146 -67.5 -233.5t-216.5 -87.5q-147 0 -214 87.5zM219 773l27 110h127l-63 -110h-91zM376 773l52 110h127l-88 -110h-91z" />
    <glyph glyph-name="Umacron" unicode="&#x16a;" horiz-adv-x="693" 
d="M131 76.5q-67 87.5 -67 233.5v428h135v-428q0 -103 34.5 -152t111.5 -49q80 0 114.5 48.5t34.5 152.5v428h135v-428q0 -146 -67.5 -233.5t-216.5 -87.5q-147 0 -214 87.5zM224 869h245v-79h-245v79z" />
    <glyph glyph-name="Uogonek" unicode="&#x172;" horiz-adv-x="693" 
d="M629 738v-428q0 -126 -50 -209.5t-159 -104.5q-27 -21 -38 -36t-11 -29q0 -16 10 -22.5t32 -6.5q38 0 72 15l-10 -75q-42 -17 -83 -17q-52 0 -80 20.5t-28 56.5q0 24 13.5 44.5t45.5 42.5q-146 1 -212.5 88.5t-66.5 232.5v428h135v-428q0 -103 34.5 -152t111.5 -49
q80 0 114.5 48.5t34.5 152.5v428h135z" />
    <glyph glyph-name="Uring" unicode="&#x16e;" horiz-adv-x="693" 
d="M131 76.5q-67 87.5 -67 233.5v428h135v-428q0 -103 34.5 -152t111.5 -49q80 0 114.5 48.5t34.5 152.5v428h135v-428q0 -146 -67.5 -233.5t-216.5 -87.5q-147 0 -214 87.5zM275.5 781q-27.5 24 -27.5 61q0 36 28 59.5t71 23.5q42 0 69.5 -23.5t27.5 -59.5q0 -37 -27.5 -61
t-69.5 -24q-44 0 -71.5 24zM376 815.5q11 10.5 11 26.5q0 15 -11 25.5t-29 10.5q-19 0 -30 -10t-11 -26t11 -26.5t30 -10.5q18 0 29 10.5z" />
    <glyph glyph-name="Utilde" unicode="&#x168;" horiz-adv-x="693" 
d="M131 76.5q-67 87.5 -67 233.5v428h135v-428q0 -103 34.5 -152t111.5 -49q80 0 114.5 48.5t34.5 152.5v428h135v-428q0 -146 -67.5 -233.5t-216.5 -87.5q-147 0 -214 87.5zM202 815q2 15 8 30q20 50 73 50q23 0 39 -6t34 -17q9 -5 19.5 -9.5t19.5 -4.5q22 0 22 37h77
q0 -32 -6 -58q-9 -31 -30 -45.5t-48 -14.5q-22 0 -38 5.5t-35 16.5q-9 5 -19.5 9.5t-19.5 4.5q-21 0 -21 -36h-77q0 23 2 38z" />
    <glyph glyph-name="V" unicode="V" horiz-adv-x="671" 
d="M510 738h144l-238 -739h-159l-240 739h146l174 -600z" />
    <glyph glyph-name="W" unicode="W" horiz-adv-x="978" 
d="M813 738h140l-182 -739h-151l-130 518l-129 -518h-151l-185 739h143l124 -580l132 580h134l134 -580z" />
    <glyph glyph-name="Wacute" unicode="&#x1e82;" horiz-adv-x="978" 
d="M813 738h140l-182 -739h-151l-130 518l-129 -518h-151l-185 739h143l124 -580l132 580h134l134 -580zM432 775l60 109h155l-98 -109h-117z" />
    <glyph glyph-name="Wcircumflex" unicode="&#x174;" horiz-adv-x="978" 
d="M813 738h140l-182 -739h-151l-130 518l-129 -518h-151l-185 739h143l124 -580l132 580h134l134 -580zM644 774h-105l-49 50l-50 -50h-105l80 110h150z" />
    <glyph glyph-name="Wdieresis" unicode="&#x1e84;" horiz-adv-x="978" 
d="M813 738h140l-182 -739h-151l-130 518l-129 -518h-151l-185 739h143l124 -580l132 580h134l134 -580zM363.5 789.5q-15.5 14.5 -15.5 36.5t15.5 36.5t43.5 14.5q29 0 45 -14t16 -37q0 -22 -16 -36.5t-45 -14.5q-28 0 -43.5 14.5zM528 789.5q-16 14.5 -16 36.5t16 36.5
t44 14.5t44 -14t16 -37q0 -22 -16 -36.5t-44 -14.5t-44 14.5z" />
    <glyph glyph-name="Wgrave" unicode="&#x1e80;" horiz-adv-x="978" 
d="M813 738h140l-182 -739h-151l-130 518l-129 -518h-151l-185 739h143l124 -580l132 580h134l134 -580zM547 775h-116l-99 109h155z" />
    <glyph glyph-name="X" unicode="X" horiz-adv-x="637" 
d="M632 0h-160l-158 282l-156 -282h-153l234 381l-218 357h160l138 -249l136 249h153l-213 -349z" />
    <glyph glyph-name="Y" unicode="Y" horiz-adv-x="591" 
d="M582 738l-216 -454v-284h-135v279l-222 459h140l153 -344l140 344h140z" />
    <glyph glyph-name="Yacute" unicode="&#xdd;" horiz-adv-x="591" 
d="M582 738l-216 -454v-284h-135v279l-222 459h140l153 -344l140 344h140zM238 775l60 109h155l-98 -109h-117z" />
    <glyph glyph-name="Ycircumflex" unicode="&#x176;" horiz-adv-x="591" 
d="M582 738l-216 -454v-284h-135v279l-222 459h140l153 -344l140 344h140zM450 774h-105l-49 50l-50 -50h-105l80 110h150z" />
    <glyph glyph-name="Ydieresis" unicode="&#x178;" horiz-adv-x="591" 
d="M582 738l-216 -454v-284h-135v279l-222 459h140l153 -344l140 344h140zM169.5 789.5q-15.5 14.5 -15.5 36.5t15.5 36.5t43.5 14.5q29 0 45 -14t16 -37q0 -22 -16 -36.5t-45 -14.5q-28 0 -43.5 14.5zM334 789.5q-16 14.5 -16 36.5t16 36.5t44 14.5t44 -14t16 -37
q0 -22 -16 -36.5t-44 -14.5t-44 14.5z" />
    <glyph glyph-name="Ygrave" unicode="&#x1ef2;" horiz-adv-x="591" 
d="M582 738l-216 -454v-284h-135v279l-222 459h140l153 -344l140 344h140zM353 775h-116l-99 109h155z" />
    <glyph glyph-name="Z" unicode="Z" horiz-adv-x="562" 
d="M524 738v-98l-320 -521h320v-119h-483v96l322 523h-325l16 119h470z" />
    <glyph glyph-name="Zacute" unicode="&#x179;" horiz-adv-x="562" 
d="M524 738v-98l-320 -521h320v-119h-483v96l322 523h-325l16 119h470zM224 775l60 109h155l-98 -109h-117z" />
    <glyph glyph-name="Zcaron" unicode="&#x17d;" horiz-adv-x="562" 
d="M524 738v-98l-320 -521h320v-119h-483v96l322 523h-325l16 119h470zM331 883h105l-79 -110h-150l-80 110h105l50 -50z" />
    <glyph glyph-name="Zdotaccent" unicode="&#x17b;" horiz-adv-x="562" 
d="M524 738v-98l-320 -521h320v-119h-483v96l322 523h-325l16 119h470zM229.5 799.5q-19.5 19.5 -19.5 47.5t19 47t52 19q34 0 53 -19t19 -47t-19 -47.5t-53 -19.5q-32 0 -51.5 19.5z" />
    <glyph glyph-name="a" unicode="a" horiz-adv-x="539" 
d="M422.5 514q58.5 -54 58.5 -148v-366h-124v67q-42 -73 -147 -73q-86 0 -132 40.5t-46 120.5q0 164 228 175l91 3v33q0 94 -110 94q-43 0 -89.5 -13t-89.5 -40l17 119q81 42 177 42q108 0 166.5 -54zM322 106.5q29 23.5 29 67.5v72l-69 -4q-66 -4 -93.5 -24.5t-27.5 -59.5
q0 -36 22 -55.5t66 -19.5t73 23.5z" />
    <glyph glyph-name="aacute" unicode="&#xe1;" horiz-adv-x="539" 
d="M422.5 514q58.5 -54 58.5 -148v-366h-124v67q-42 -73 -147 -73q-86 0 -132 40.5t-46 120.5q0 164 228 175l91 3v33q0 94 -110 94q-43 0 -89.5 -13t-89.5 -40l17 119q81 42 177 42q108 0 166.5 -54zM322 106.5q29 23.5 29 67.5v72l-69 -4q-66 -4 -93.5 -24.5t-27.5 -59.5
q0 -36 22 -55.5t66 -19.5t73 23.5zM195 608l72 130h152l-111 -130h-113z" />
    <glyph glyph-name="abreve" unicode="&#x103;" horiz-adv-x="539" 
d="M422.5 514q58.5 -54 58.5 -148v-366h-124v67q-42 -73 -147 -73q-86 0 -132 40.5t-46 120.5q0 164 228 175l91 3v33q0 94 -110 94q-43 0 -89.5 -13t-89.5 -40l17 119q81 42 177 42q108 0 166.5 -54zM322 106.5q29 23.5 29 67.5v72l-69 -4q-66 -4 -93.5 -24.5t-27.5 -59.5
q0 -36 22 -55.5t66 -19.5t73 23.5zM167.5 638.5q-34.5 31.5 -35.5 99.5h76q1 -25 13.5 -36t37.5 -11t37.5 11t13.5 36h76q-1 -68 -35.5 -99.5t-91.5 -31.5t-91.5 31.5z" />
    <glyph glyph-name="acircumflex" unicode="&#xe2;" horiz-adv-x="539" 
d="M422.5 514q58.5 -54 58.5 -148v-366h-124v67q-42 -73 -147 -73q-86 0 -132 40.5t-46 120.5q0 164 228 175l91 3v33q0 94 -110 94q-43 0 -89.5 -13t-89.5 -40l17 119q81 42 177 42q108 0 166.5 -54zM322 106.5q29 23.5 29 67.5v72l-69 -4q-66 -4 -93.5 -24.5t-27.5 -59.5
q0 -36 22 -55.5t66 -19.5t73 23.5zM421 608h-105l-57 62l-57 -62h-105l87 130h150z" />
    <glyph glyph-name="adieresis" unicode="&#xe4;" horiz-adv-x="539" 
d="M422.5 514q58.5 -54 58.5 -148v-366h-124v67q-42 -73 -147 -73q-86 0 -132 40.5t-46 120.5q0 164 228 175l91 3v33q0 94 -110 94q-43 0 -89.5 -13t-89.5 -40l17 119q81 42 177 42q108 0 166.5 -54zM322 106.5q29 23.5 29 67.5v72l-69 -4q-66 -4 -93.5 -24.5t-27.5 -59.5
q0 -36 22 -55.5t66 -19.5t73 23.5zM131 629q-17 19 -17 47t17 46.5t44 18.5t44 -18.5t17 -46.5t-17 -47t-44 -19t-44 19zM298 629q-17 19 -17 47t17 46.5t44 18.5t44 -18.5t17 -46.5t-17 -47t-44 -19t-44 19z" />
    <glyph glyph-name="agrave" unicode="&#xe0;" horiz-adv-x="539" 
d="M422.5 514q58.5 -54 58.5 -148v-366h-124v67q-42 -73 -147 -73q-86 0 -132 40.5t-46 120.5q0 164 228 175l91 3v33q0 94 -110 94q-43 0 -89.5 -13t-89.5 -40l17 119q81 42 177 42q108 0 166.5 -54zM322 106.5q29 23.5 29 67.5v72l-69 -4q-66 -4 -93.5 -24.5t-27.5 -59.5
q0 -36 22 -55.5t66 -19.5t73 23.5zM323 608h-113l-111 130h151z" />
    <glyph glyph-name="amacron" unicode="&#x101;" horiz-adv-x="539" 
d="M422.5 514q58.5 -54 58.5 -148v-366h-124v67q-42 -73 -147 -73q-86 0 -132 40.5t-46 120.5q0 164 228 175l91 3v33q0 94 -110 94q-43 0 -89.5 -13t-89.5 -40l17 119q81 42 177 42q108 0 166.5 -54zM322 106.5q29 23.5 29 67.5v72l-69 -4q-66 -4 -93.5 -24.5t-27.5 -59.5
q0 -36 22 -55.5t66 -19.5t73 23.5zM151 726h215v-93h-215v93z" />
    <glyph glyph-name="aogonek" unicode="&#x105;" horiz-adv-x="539" 
d="M514 -83l-10 -75q-42 -17 -83 -17q-52 0 -80 20.5t-28 56.5q0 27 17 49t58 49h-31v67q-42 -73 -147 -73q-86 0 -132 40.5t-46 120.5q0 164 228 175l91 3v33q0 94 -110 94q-43 0 -89.5 -13t-89.5 -40l17 119q81 42 177 42q108 0 166.5 -54t58.5 -148v-366h-27
q-30 -22 -42 -38t-12 -31q0 -16 10 -22.5t32 -6.5q38 0 72 15zM322 106.5q29 23.5 29 67.5v72l-69 -4q-66 -4 -93.5 -24.5t-27.5 -59.5q0 -36 22 -55.5t66 -19.5t73 23.5z" />
    <glyph glyph-name="aring" unicode="&#xe5;" horiz-adv-x="539" 
d="M422.5 514q58.5 -54 58.5 -148v-366h-124v67q-42 -73 -147 -73q-86 0 -132 40.5t-46 120.5q0 164 228 175l91 3v33q0 94 -110 94q-43 0 -89.5 -13t-89.5 -40l17 119q81 42 177 42q108 0 166.5 -54zM322 106.5q29 23.5 29 67.5v72l-69 -4q-66 -4 -93.5 -24.5t-27.5 -59.5
q0 -36 22 -55.5t66 -19.5t73 23.5zM183.5 633.5q-29.5 28.5 -29.5 72.5t29.5 72t75.5 28t75.5 -28t29.5 -72t-29.5 -72.5t-75.5 -28.5t-75.5 28.5zM287.5 674.5q10.5 12.5 10.5 31.5t-10.5 31t-28.5 12t-28.5 -12t-10.5 -31t10.5 -31.5t28.5 -12.5t28.5 12.5z" />
    <glyph glyph-name="atilde" unicode="&#xe3;" horiz-adv-x="539" 
d="M422.5 514q58.5 -54 58.5 -148v-366h-124v67q-42 -73 -147 -73q-86 0 -132 40.5t-46 120.5q0 164 228 175l91 3v33q0 94 -110 94q-43 0 -89.5 -13t-89.5 -40l17 119q81 42 177 42q108 0 166.5 -54zM322 106.5q29 23.5 29 67.5v72l-69 -4q-66 -4 -93.5 -24.5t-27.5 -59.5
q0 -36 22 -55.5t66 -19.5t73 23.5zM132 676q8 29 28 43.5t44 14.5q19 0 32.5 -7t31.5 -20q22 -18 35 -18q21 0 21 45h69q0 -42 -7 -69q-8 -32 -28.5 -47.5t-44.5 -15.5q-19 0 -32.5 7t-31.5 20q-22 18 -35 18q-21 0 -21 -45h-69q0 45 8 74z" />
    <glyph glyph-name="ae" unicode="&#xe6;" horiz-adv-x="860" 
d="M824 242h-347q7 -72 46.5 -106t119.5 -34q79 0 155 41l-12 -114q-36 -18 -72.5 -27t-85.5 -9q-74 0 -129 25t-88 73q-54 -101 -194 -101q-87 0 -136 42.5t-49 122.5q0 164 221 175l94 3v33q0 94 -113 94q-87 0 -171 -52l17 119q41 21 81.5 31t87.5 10q62 0 107 -20.5
t71 -59.5q31 38 74 59t97 21q112 0 169.5 -76.5t57.5 -219.5q0 -20 -1 -30zM478 327h215q-3 69 -27 101.5t-72 32.5q-102 0 -116 -134zM316.5 117.5q30.5 26.5 30.5 79.5v49l-72 -4q-62 -4 -88 -24.5t-26 -59.5q0 -67 76 -67q49 0 79.5 26.5z" />
    <glyph glyph-name="b" unicode="b" horiz-adv-x="623" 
d="M478 530.5q51 -37.5 78.5 -103.5t27.5 -149q0 -82 -27 -147.5t-79 -103.5t-123 -38q-62 0 -105.5 30.5t-65.5 87.5v-107h-119v778h128v-307q50 97 165 97q69 0 120 -37.5zM421.5 142.5q33.5 49.5 33.5 135.5q0 87 -34 136.5t-99 49.5q-64 0 -96.5 -48t-32.5 -137
q0 -90 33 -138t95 -48q67 0 100.5 49.5z" />
    <glyph glyph-name="c" unicode="c" horiz-adv-x="477" 
d="M168.5 26.5q-61.5 37.5 -92.5 103.5t-31 149t29 148.5t88 103t144 37.5q66 0 121 -21l11 -120q-51 31 -122 31q-141 0 -141 -179q0 -87 38.5 -133.5t114.5 -46.5q66 0 117 24v-110q-62 -24 -128 -24q-87 0 -148.5 37.5z" />
    <glyph glyph-name="cacute" unicode="&#x107;" horiz-adv-x="477" 
d="M168.5 26.5q-61.5 37.5 -92.5 103.5t-31 149t29 148.5t88 103t144 37.5q66 0 121 -21l11 -120q-51 31 -122 31q-141 0 -141 -179q0 -87 38.5 -133.5t114.5 -46.5q66 0 117 24v-110q-62 -24 -128 -24q-87 0 -148.5 37.5zM223 608l72 130h152l-111 -130h-113z" />
    <glyph glyph-name="ccaron" unicode="&#x10d;" horiz-adv-x="477" 
d="M168.5 26.5q-61.5 37.5 -92.5 103.5t-31 149t29 148.5t88 103t144 37.5q66 0 121 -21l11 -120q-51 31 -122 31q-141 0 -141 -179q0 -87 38.5 -133.5t114.5 -46.5q66 0 117 24v-110q-62 -24 -128 -24q-87 0 -148.5 37.5zM344 738h105l-87 -130h-150l-87 130h105l57 -62z
" />
    <glyph glyph-name="ccedilla" unicode="&#xe7;" horiz-adv-x="477" 
d="M168.5 26.5q-61.5 37.5 -92.5 103.5t-31 149t29 148.5t88 103t144 37.5q66 0 121 -21l11 -120q-51 31 -122 31q-141 0 -141 -179q0 -87 38.5 -133.5t114.5 -46.5q66 0 117 24v-110q-62 -24 -128 -24q-87 0 -148.5 37.5zM231 -187l21 147h119l-51 -147h-89z" />
    <glyph glyph-name="ccircumflex" unicode="&#x109;" horiz-adv-x="477" 
d="M168.5 26.5q-61.5 37.5 -92.5 103.5t-31 149t29 148.5t88 103t144 37.5q66 0 121 -21l11 -120q-51 31 -122 31q-141 0 -141 -179q0 -87 38.5 -133.5t114.5 -46.5q66 0 117 24v-110q-62 -24 -128 -24q-87 0 -148.5 37.5zM449 608h-105l-57 62l-57 -62h-105l87 130h150z
" />
    <glyph glyph-name="cdotaccent" unicode="&#x10b;" horiz-adv-x="477" 
d="M168.5 26.5q-61.5 37.5 -92.5 103.5t-31 149t29 148.5t88 103t144 37.5q66 0 121 -21l11 -120q-51 31 -122 31q-141 0 -141 -179q0 -87 38.5 -133.5t114.5 -46.5q66 0 117 24v-110q-62 -24 -128 -24q-87 0 -148.5 37.5zM234.5 628q-19.5 20 -19.5 48q0 29 19.5 48
t51.5 19q33 0 52.5 -19t19.5 -48t-19.5 -48.5t-52.5 -19.5q-32 0 -51.5 20z" />
    <glyph glyph-name="d" unicode="d" horiz-adv-x="623" 
d="M558 778v-778h-119v107q-22 -57 -66 -87.5t-108 -30.5q-69 0 -120 37.5t-78.5 103.5t-27.5 149q0 82 27 147.5t78.5 103.5t122.5 38q56 0 97.5 -25t65.5 -72v307h128zM398 141q32 48 32 138q0 89 -33 137t-95 48q-67 0 -100 -49.5t-33 -135.5q0 -87 34 -136.5t99 -49.5
q64 0 96 48z" />
    <glyph glyph-name="eth" unicode="&#xf0;" horiz-adv-x="581" 
d="M542 294q0 -141 -67 -222.5t-192 -81.5q-73 0 -128.5 34.5t-85.5 95.5t-30 138q0 78 30.5 135t82 87t114.5 30q72 0 117 -42q-39 80 -109 155l-145 -57v78l89 35q-44 42 -120 99h170q20 -17 60 -55l125 49v-78l-71 -28q160 -183 160 -372zM376 145q30 44 30 112
q0 70 -30.5 111.5t-82.5 41.5q-54 0 -84 -42t-30 -109q0 -74 28.5 -116t83.5 -42t85 44z" />
    <glyph glyph-name="dcaron" unicode="&#x10f;" horiz-adv-x="623" 
d="M558 778v-778h-119v107q-22 -57 -66 -87.5t-108 -30.5q-69 0 -120 37.5t-78.5 103.5t-27.5 149q0 82 27 147.5t78.5 103.5t122.5 38q56 0 97.5 -25t65.5 -72v307h128zM398 141q32 48 32 138q0 89 -33 137t-95 48q-67 0 -100 -49.5t-33 -135.5q0 -87 34 -136.5t99 -49.5
q64 0 96 48zM612 630v148h111l-32 -148h-79z" />
    <glyph glyph-name="dcroat" unicode="&#x111;" horiz-adv-x="623" 
d="M621 618h-63v-618h-119v107q-22 -57 -66 -87.5t-108 -30.5q-69 0 -120 37.5t-78.5 103.5t-27.5 149q0 82 27 147.5t78.5 103.5t122.5 38q56 0 97.5 -25t65.5 -72v147h-163v72h163v88h128v-88h63v-72zM398 141q32 48 32 138q0 89 -33 137t-95 48q-67 0 -100 -49.5
t-33 -135.5q0 -87 34 -136.5t99 -49.5q64 0 96 48z" />
    <glyph glyph-name="e" unicode="e" horiz-adv-x="557" 
d="M521 242h-351q7 -72 46 -106t117 -34q84 0 163 41l-12 -114q-72 -36 -166 -36q-135 0 -207 73t-72 212q0 83 30 149t86.5 103.5t133.5 37.5q115 0 174 -76.5t59 -219.5q0 -20 -1 -30zM172 327h218q-3 69 -29 101.5t-77 32.5q-98 0 -112 -134z" />
    <glyph glyph-name="eacute" unicode="&#xe9;" horiz-adv-x="557" 
d="M521 242h-351q7 -72 46 -106t117 -34q84 0 163 41l-12 -114q-72 -36 -166 -36q-135 0 -207 73t-72 212q0 83 30 149t86.5 103.5t133.5 37.5q115 0 174 -76.5t59 -219.5q0 -20 -1 -30zM172 327h218q-3 69 -29 101.5t-77 32.5q-98 0 -112 -134zM225 608l72 130h152
l-111 -130h-113z" />
    <glyph glyph-name="ebreve" unicode="&#x115;" horiz-adv-x="557" 
d="M521 242h-351q7 -72 46 -106t117 -34q84 0 163 41l-12 -114q-72 -36 -166 -36q-135 0 -207 73t-72 212q0 83 30 149t86.5 103.5t133.5 37.5q115 0 174 -76.5t59 -219.5q0 -20 -1 -30zM172 327h218q-3 69 -29 101.5t-77 32.5q-98 0 -112 -134zM197.5 638.5
q-34.5 31.5 -35.5 99.5h76q1 -25 13.5 -36t37.5 -11t37.5 11t13.5 36h76q-1 -68 -35.5 -99.5t-91.5 -31.5t-91.5 31.5z" />
    <glyph glyph-name="ecaron" unicode="&#x11b;" horiz-adv-x="557" 
d="M521 242h-351q7 -72 46 -106t117 -34q84 0 163 41l-12 -114q-72 -36 -166 -36q-135 0 -207 73t-72 212q0 83 30 149t86.5 103.5t133.5 37.5q115 0 174 -76.5t59 -219.5q0 -20 -1 -30zM172 327h218q-3 69 -29 101.5t-77 32.5q-98 0 -112 -134zM346 738h105l-87 -130h-150
l-87 130h105l57 -62z" />
    <glyph glyph-name="ecircumflex" unicode="&#xea;" horiz-adv-x="557" 
d="M521 242h-351q7 -72 46 -106t117 -34q84 0 163 41l-12 -114q-72 -36 -166 -36q-135 0 -207 73t-72 212q0 83 30 149t86.5 103.5t133.5 37.5q115 0 174 -76.5t59 -219.5q0 -20 -1 -30zM172 327h218q-3 69 -29 101.5t-77 32.5q-98 0 -112 -134zM451 608h-105l-57 62
l-57 -62h-105l87 130h150z" />
    <glyph glyph-name="edieresis" unicode="&#xeb;" horiz-adv-x="557" 
d="M521 242h-351q7 -72 46 -106t117 -34q84 0 163 41l-12 -114q-72 -36 -166 -36q-135 0 -207 73t-72 212q0 83 30 149t86.5 103.5t133.5 37.5q115 0 174 -76.5t59 -219.5q0 -20 -1 -30zM172 327h218q-3 69 -29 101.5t-77 32.5q-98 0 -112 -134zM161 629q-17 19 -17 47
t17 46.5t44 18.5t44 -18.5t17 -46.5t-17 -47t-44 -19t-44 19zM328 629q-17 19 -17 47t17 46.5t44 18.5t44 -18.5t17 -46.5t-17 -47t-44 -19t-44 19z" />
    <glyph glyph-name="edotaccent" unicode="&#x117;" horiz-adv-x="557" 
d="M521 242h-351q7 -72 46 -106t117 -34q84 0 163 41l-12 -114q-72 -36 -166 -36q-135 0 -207 73t-72 212q0 83 30 149t86.5 103.5t133.5 37.5q115 0 174 -76.5t59 -219.5q0 -20 -1 -30zM172 327h218q-3 69 -29 101.5t-77 32.5q-98 0 -112 -134zM236.5 628
q-19.5 20 -19.5 48q0 29 19.5 48t51.5 19q33 0 52.5 -19t19.5 -48t-19.5 -48.5t-52.5 -19.5q-32 0 -51.5 20z" />
    <glyph glyph-name="egrave" unicode="&#xe8;" horiz-adv-x="557" 
d="M521 242h-351q7 -72 46 -106t117 -34q84 0 163 41l-12 -114q-72 -36 -166 -36q-135 0 -207 73t-72 212q0 83 30 149t86.5 103.5t133.5 37.5q115 0 174 -76.5t59 -219.5q0 -20 -1 -30zM172 327h218q-3 69 -29 101.5t-77 32.5q-98 0 -112 -134zM353 608h-113l-111 130h151z
" />
    <glyph glyph-name="emacron" unicode="&#x113;" horiz-adv-x="557" 
d="M521 242h-351q7 -72 46 -106t117 -34q84 0 163 41l-12 -114q-72 -36 -166 -36q-135 0 -207 73t-72 212q0 83 30 149t86.5 103.5t133.5 37.5q115 0 174 -76.5t59 -219.5q0 -20 -1 -30zM172 327h218q-3 69 -29 101.5t-77 32.5q-98 0 -112 -134zM181 726h215v-93h-215v93z
" />
    <glyph glyph-name="eogonek" unicode="&#x119;" horiz-adv-x="557" 
d="M521 242h-351q7 -72 46 -106t117 -34q84 0 163 41l-12 -114q-53 -26 -106 -32q-27 -21 -38.5 -36t-11.5 -30q0 -16 10 -22.5t32 -6.5q38 0 72 15l-10 -75q-42 -17 -83 -17q-52 0 -80 20.5t-28 56.5q0 25 15 46t50 45q-130 4 -198.5 76.5t-68.5 208.5q0 83 30 149
t86.5 103.5t133.5 37.5q115 0 174 -76.5t59 -219.5q0 -20 -1 -30zM172 327h218q-3 69 -29 101.5t-77 32.5q-98 0 -112 -134z" />
    <glyph glyph-name="f" unicode="f" horiz-adv-x="405" 
d="M231 557h154v-103h-154v-454h-128v454h-84v103h84v44q0 81 44 134.5t145 53.5q38 0 78 -10l15 -99q-38 12 -74 12q-44 0 -62 -21t-18 -63v-51z" />
    <glyph glyph-name="g" unicode="g" horiz-adv-x="615" 
d="M550 557v-515q0 -119 -67.5 -182t-203.5 -63q-95 0 -168 32l-9 115q75 -44 176 -44q69 0 106.5 32t37.5 110v57q-23 -44 -62.5 -67.5t-94.5 -23.5q-68 0 -119.5 36t-79 99.5t-27.5 142.5q0 80 27 144t78.5 101t122.5 37q59 0 100.5 -28.5t63.5 -83.5v101h119zM391.5 155
q30.5 46 30.5 131q0 87 -31 134t-90 47q-66 0 -99 -48t-33 -133q0 -83 33.5 -130t98.5 -47q60 0 90.5 46z" />
    <glyph glyph-name="gbreve" unicode="&#x11f;" horiz-adv-x="615" 
d="M550 557v-515q0 -119 -67.5 -182t-203.5 -63q-95 0 -168 32l-9 115q75 -44 176 -44q69 0 106.5 32t37.5 110v57q-23 -44 -62.5 -67.5t-94.5 -23.5q-68 0 -119.5 36t-79 99.5t-27.5 142.5q0 80 27 144t78.5 101t122.5 37q59 0 100.5 -28.5t63.5 -83.5v101h119zM391.5 155
q30.5 46 30.5 131q0 87 -31 134t-90 47q-66 0 -99 -48t-33 -133q0 -83 33.5 -130t98.5 -47q60 0 90.5 46zM209.5 638.5q-34.5 31.5 -35.5 99.5h76q1 -25 13.5 -36t37.5 -11t37.5 11t13.5 36h76q-1 -68 -35.5 -99.5t-91.5 -31.5t-91.5 31.5z" />
    <glyph glyph-name="gcircumflex" unicode="&#x11d;" horiz-adv-x="615" 
d="M550 557v-515q0 -119 -67.5 -182t-203.5 -63q-95 0 -168 32l-9 115q75 -44 176 -44q69 0 106.5 32t37.5 110v57q-23 -44 -62.5 -67.5t-94.5 -23.5q-68 0 -119.5 36t-79 99.5t-27.5 142.5q0 80 27 144t78.5 101t122.5 37q59 0 100.5 -28.5t63.5 -83.5v101h119zM391.5 155
q30.5 46 30.5 131q0 87 -31 134t-90 47q-66 0 -99 -48t-33 -133q0 -83 33.5 -130t98.5 -47q60 0 90.5 46zM463 608h-105l-57 62l-57 -62h-105l87 130h150z" />
    <glyph glyph-name="gcommaaccent" unicode="&#x123;" horiz-adv-x="615" 
d="M550 557v-515q0 -119 -67.5 -182t-203.5 -63q-95 0 -168 32l-9 115q75 -44 176 -44q69 0 106.5 32t37.5 110v57q-23 -44 -62.5 -67.5t-94.5 -23.5q-68 0 -119.5 36t-79 99.5t-27.5 142.5q0 80 27 144t78.5 101t122.5 37q59 0 100.5 -28.5t63.5 -83.5v101h119zM391.5 155
q30.5 46 30.5 131q0 87 -31 134t-90 47q-66 0 -99 -48t-33 -133q0 -83 33.5 -130t98.5 -47q60 0 90.5 46zM357 693.5q14 -15.5 14 -37.5q0 -25 -18.5 -43.5t-49.5 -18.5q-33 0 -52.5 19.5t-19.5 54.5q0 46 27 78t87 32q19 0 29 -2l2 -43q-16 2 -22 2q-19 0 -28.5 -6
t-12.5 -20h4q26 0 40 -15.5z" />
    <glyph glyph-name="gdotaccent" unicode="&#x121;" horiz-adv-x="615" 
d="M550 557v-515q0 -119 -67.5 -182t-203.5 -63q-95 0 -168 32l-9 115q75 -44 176 -44q69 0 106.5 32t37.5 110v57q-23 -44 -62.5 -67.5t-94.5 -23.5q-68 0 -119.5 36t-79 99.5t-27.5 142.5q0 80 27 144t78.5 101t122.5 37q59 0 100.5 -28.5t63.5 -83.5v101h119zM391.5 155
q30.5 46 30.5 131q0 87 -31 134t-90 47q-66 0 -99 -48t-33 -133q0 -83 33.5 -130t98.5 -47q60 0 90.5 46zM248.5 628q-19.5 20 -19.5 48q0 29 19.5 48t51.5 19q33 0 52.5 -19t19.5 -48t-19.5 -48.5t-52.5 -19.5q-32 0 -51.5 20z" />
    <glyph glyph-name="h" unicode="h" horiz-adv-x="613" 
d="M507.5 508.5q46.5 -59.5 46.5 -158.5v-350h-128v319q0 71 -25.5 110t-83.5 39q-61 0 -92.5 -42t-31.5 -107v-319h-128v778h128v-298q27 44 71.5 66t102.5 22q94 0 140.5 -59.5z" />
    <glyph glyph-name="hbar" unicode="&#x127;" horiz-adv-x="613" 
d="M507.5 508.5q46.5 -59.5 46.5 -158.5v-350h-128v319q0 71 -25.5 110t-83.5 39q-61 0 -92.5 -42t-31.5 -107v-319h-128v618h-63v72h63v88h128v-88h163v-72h-163v-138q27 44 71.5 66t102.5 22q94 0 140.5 -59.5z" />
    <glyph glyph-name="hcircumflex" unicode="&#x125;" horiz-adv-x="613" 
d="M507.5 508.5q46.5 -59.5 46.5 -158.5v-350h-128v319q0 71 -25.5 110t-83.5 39q-61 0 -92.5 -42t-31.5 -107v-319h-128v778h128v-298q27 44 71.5 66t102.5 22q94 0 140.5 -59.5zM464 814h-105l-49 50l-50 -50h-105l80 110h150z" />
    <glyph glyph-name="i" unicode="i" horiz-adv-x="262" 
d="M73.5 669q-20.5 19 -20.5 50q0 32 20.5 50.5t57.5 18.5t57.5 -18.5t20.5 -50.5q0 -31 -20.5 -50t-57.5 -19t-57.5 19zM65 0v557h128v-557h-128z" />
    <glyph glyph-name="dotlessi" unicode="&#x131;" horiz-adv-x="258" 
d="M65 0v557h128v-557h-128z" />
    <glyph glyph-name="iacute" unicode="&#xed;" horiz-adv-x="258" 
d="M65 0v557h128v-557h-128zM65 608l72 130h152l-111 -130h-113z" />
    <glyph glyph-name="ibreve" unicode="&#x12d;" horiz-adv-x="258" 
d="M65 0v557h128v-557h-128zM37.5 638.5q-34.5 31.5 -35.5 99.5h76q1 -25 13.5 -36t37.5 -11t37.5 11t13.5 36h76q-1 -68 -35.5 -99.5t-91.5 -31.5t-91.5 31.5z" />
    <glyph glyph-name="icircumflex" unicode="&#xee;" horiz-adv-x="258" 
d="M65 0v557h128v-557h-128zM291 608h-105l-57 62l-57 -62h-105l87 130h150z" />
    <glyph glyph-name="idieresis" unicode="&#xef;" horiz-adv-x="258" 
d="M65 0v557h128v-557h-128zM1 629q-17 19 -17 47t17 46.5t44 18.5t44 -18.5t17 -46.5t-17 -47t-44 -19t-44 19zM168 629q-17 19 -17 47t17 46.5t44 18.5t44 -18.5t17 -46.5t-17 -47t-44 -19t-44 19z" />
    <glyph glyph-name="igrave" unicode="&#xec;" horiz-adv-x="258" 
d="M65 0v557h128v-557h-128zM193 608h-113l-111 130h151z" />
    <glyph glyph-name="ij" unicode="&#x133;" horiz-adv-x="524" 
d="M73.5 669q-20.5 19 -20.5 50q0 32 20.5 50.5t57.5 18.5t57.5 -18.5t20.5 -50.5q0 -31 -20.5 -50t-57.5 -19t-57.5 19zM65 0v557h128v-557h-128zM455 557v-588q0 -77 -41.5 -123.5t-135.5 -46.5q-33 0 -63 5l-11 97q24 -6 53 -6q39 0 54.5 16.5t15.5 55.5v590h128z
M335.5 669q-20.5 19 -20.5 50q0 32 20.5 50.5t57.5 18.5t57.5 -18.5t20.5 -50.5q0 -31 -20.5 -50t-57.5 -19t-57.5 19z" />
    <glyph glyph-name="imacron" unicode="&#x12b;" horiz-adv-x="258" 
d="M65 0v557h128v-557h-128zM21 726h215v-93h-215v93z" />
    <glyph glyph-name="iogonek" unicode="&#x12f;" horiz-adv-x="262" 
d="M73.5 669q-20.5 19 -20.5 50q0 32 20.5 50.5t57.5 18.5t57.5 -18.5t20.5 -50.5q0 -31 -20.5 -50t-57.5 -19t-57.5 19zM65 0v557h128v-557h-128zM129.5 -32q-17.5 -19 -17.5 -37q0 -16 10 -22.5t32 -6.5q38 0 72 15l-10 -75q-43 -17 -83 -17q-52 0 -80 20.5t-28 56.5
q0 35 30 64t111 72l25 -20q-44 -31 -61.5 -50z" />
    <glyph glyph-name="itilde" unicode="&#x129;" horiz-adv-x="258" 
d="M65 0v557h128v-557h-128zM2 676q8 29 28 43.5t44 14.5q19 0 32.5 -7t31.5 -20q22 -18 35 -18q21 0 21 45h69q0 -42 -7 -69q-8 -32 -28.5 -47.5t-44.5 -15.5q-19 0 -32.5 7t-31.5 20q-22 18 -35 18q-21 0 -21 -45h-69q0 45 8 74z" />
    <glyph glyph-name="j" unicode="j" horiz-adv-x="262" 
d="M193 557v-588q0 -77 -41.5 -123.5t-135.5 -46.5q-33 0 -63 5l-11 97q24 -6 53 -6q39 0 54.5 16.5t15.5 55.5v590h128zM73.5 669q-20.5 19 -20.5 50q0 32 20.5 50.5t57.5 18.5t57.5 -18.5t20.5 -50.5q0 -31 -20.5 -50t-57.5 -19t-57.5 19z" />
    <glyph glyph-name="dotlessj" unicode="&#x237;" horiz-adv-x="258" 
d="M193 557v-588q0 -77 -41.5 -123.5t-135.5 -46.5q-33 0 -63 5l-11 97q24 -6 53 -6q39 0 54.5 16.5t15.5 55.5v590h128z" />
    <glyph glyph-name="jcircumflex" unicode="&#x135;" horiz-adv-x="258" 
d="M193 557v-588q0 -77 -41.5 -123.5t-135.5 -46.5q-33 0 -63 5l-11 97q24 -6 53 -6q39 0 54.5 16.5t15.5 55.5v590h128zM291 608h-105l-57 62l-57 -62h-105l87 130h150z" />
    <glyph glyph-name="k" unicode="k" horiz-adv-x="525" 
d="M519 0h-157l-169 256v-256h-128v778h128v-450l167 229h148l-201 -258z" />
    <glyph glyph-name="kcommaaccent" unicode="&#x137;" horiz-adv-x="525" 
d="M519 0h-157l-169 256v-256h-128v778h128v-450l167 229h148l-201 -258zM314.5 -57.5q19.5 -19.5 19.5 -54.5q0 -45 -27 -77.5t-87 -32.5q-9 0 -29 2l-2 44q16 -2 22 -2q19 0 28.5 6t12.5 19h-4q-26 0 -40 15.5t-14 37.5q0 26 18.5 44t49.5 18q33 0 52.5 -19.5z" />
    <glyph glyph-name="kgreenlandic" unicode="&#x138;" horiz-adv-x="529" 
d="M523 0h-157l-174 257v-257h-128v557h128v-229l171 229h149l-206 -258z" />
    <glyph glyph-name="l" unicode="l" horiz-adv-x="258" 
d="M65 0v778h128v-778h-128z" />
    <glyph glyph-name="lacute" unicode="&#x13a;" horiz-adv-x="258" 
d="M65 0v778h128v-778h-128zM71 815l60 109h155l-98 -109h-117z" />
    <glyph glyph-name="lcaron" unicode="&#x13e;" horiz-adv-x="258" 
d="M65 0v778h128v-778h-128zM247 630v148h111l-32 -148h-79z" />
    <glyph glyph-name="lcommaaccent" unicode="&#x13c;" horiz-adv-x="258" 
d="M65 0v778h128v-778h-128zM179.5 -57.5q19.5 -19.5 19.5 -54.5q0 -45 -27 -77.5t-87 -32.5q-9 0 -29 2l-2 44q16 -2 22 -2q19 0 28.5 6t12.5 19h-4q-26 0 -40 15.5t-14 37.5q0 26 18.5 44t49.5 18q33 0 52.5 -19.5z" />
    <glyph glyph-name="ldot" unicode="&#x140;" horiz-adv-x="393" 
d="M65 0v778h128v-778h-128zM268.5 255.5q-21.5 21.5 -21.5 54.5t21.5 54.5t57.5 21.5t57.5 -21.5t21.5 -54.5t-21.5 -54.5t-57.5 -21.5t-57.5 21.5z" />
    <glyph glyph-name="lslash" unicode="&#x142;" horiz-adv-x="298" 
d="M279 515v-104l-66 -51v-360h-128v270l-67 -51v104l67 51v404h128v-314z" />
    <glyph glyph-name="m" unicode="m" horiz-adv-x="928" 
d="M826.5 511.5q43.5 -56.5 43.5 -151.5v-360h-128v330q0 67 -22.5 102.5t-75.5 35.5q-55 0 -83.5 -40t-28.5 -101v-327h-128v330q0 67 -22.5 102.5t-75.5 35.5q-55 0 -84 -40t-29 -101v-327h-128v557h119v-86q25 49 68.5 73t102.5 24q118 0 159 -101q26 51 72 76t107 25
q90 0 133.5 -56.5z" />
    <glyph glyph-name="n" unicode="n" horiz-adv-x="613" 
d="M507.5 508.5q46.5 -59.5 46.5 -158.5v-350h-128v319q0 71 -25.5 110t-83.5 39q-61 0 -92.5 -42t-31.5 -107v-319h-128v557h119v-93q26 52 73.5 78t109.5 26q94 0 140.5 -59.5z" />
    <glyph glyph-name="nacute" unicode="&#x144;" horiz-adv-x="613" 
d="M507.5 508.5q46.5 -59.5 46.5 -158.5v-350h-128v319q0 71 -25.5 110t-83.5 39q-61 0 -92.5 -42t-31.5 -107v-319h-128v557h119v-93q26 52 73.5 78t109.5 26q94 0 140.5 -59.5zM243 608l72 130h152l-111 -130h-113z" />
    <glyph glyph-name="napostrophe" unicode="&#x149;" horiz-adv-x="883" 
d="M198 725q22 -24 22 -64q0 -61 -38 -110.5t-106 -64.5l-27 48q62 22 75 69q-28 1 -45 21.5t-17 49.5q0 32 21 53.5t57 21.5t58 -24zM777.5 508.5q46.5 -59.5 46.5 -158.5v-350h-128v319q0 71 -25.5 110t-83.5 39q-61 0 -92.5 -42t-31.5 -107v-319h-128v557h119v-93
q26 52 73.5 78t109.5 26q94 0 140.5 -59.5z" />
    <glyph glyph-name="ncaron" unicode="&#x148;" horiz-adv-x="613" 
d="M507.5 508.5q46.5 -59.5 46.5 -158.5v-350h-128v319q0 71 -25.5 110t-83.5 39q-61 0 -92.5 -42t-31.5 -107v-319h-128v557h119v-93q26 52 73.5 78t109.5 26q94 0 140.5 -59.5zM364 738h105l-87 -130h-150l-87 130h105l57 -62z" />
    <glyph glyph-name="ncommaaccent" unicode="&#x146;" horiz-adv-x="613" 
d="M507.5 508.5q46.5 -59.5 46.5 -158.5v-350h-128v319q0 71 -25.5 110t-83.5 39q-61 0 -92.5 -42t-31.5 -107v-319h-128v557h119v-93q26 52 73.5 78t109.5 26q94 0 140.5 -59.5zM357.5 -57.5q19.5 -19.5 19.5 -54.5q0 -45 -27 -77.5t-87 -32.5q-9 0 -29 2l-2 44
q16 -2 22 -2q19 0 28.5 6t12.5 19h-4q-26 0 -40 15.5t-14 37.5q0 26 18.5 44t49.5 18q33 0 52.5 -19.5z" />
    <glyph glyph-name="eng" unicode="&#x14b;" horiz-adv-x="607" 
d="M507.5 508.5q46.5 -59.5 46.5 -158.5v-363q0 -77 -41.5 -123.5t-135.5 -46.5q-32 0 -62 5l-12 97q24 -6 53 -6q39 0 54.5 16.5t15.5 55.5v334q0 71 -25.5 110t-83.5 39q-61 0 -92.5 -42t-31.5 -107v-319h-128v557h119v-93q26 52 73.5 78t109.5 26q94 0 140.5 -59.5z" />
    <glyph glyph-name="ntilde" unicode="&#xf1;" horiz-adv-x="613" 
d="M507.5 508.5q46.5 -59.5 46.5 -158.5v-350h-128v319q0 71 -25.5 110t-83.5 39q-61 0 -92.5 -42t-31.5 -107v-319h-128v557h119v-93q26 52 73.5 78t109.5 26q94 0 140.5 -59.5zM180 676q8 29 28 43.5t44 14.5q19 0 32.5 -7t31.5 -20q22 -18 35 -18q21 0 21 45h69
q0 -42 -7 -69q-8 -32 -28.5 -47.5t-44.5 -15.5q-19 0 -32.5 7t-31.5 20q-22 18 -35 18q-21 0 -21 -45h-69q0 45 8 74z" />
    <glyph glyph-name="o" unicode="o" horiz-adv-x="602" 
d="M159.5 26.5q-58.5 37.5 -89.5 103.5t-31 149q0 82 30.5 147.5t89.5 103.5t143 38q81 0 140 -37.5t90 -103.5t31 -149q0 -82 -30.5 -147.5t-90 -103.5t-143.5 -38q-81 0 -139.5 37.5zM400 142.5q34 49.5 34 135.5q0 87 -34.5 136.5t-98.5 49.5q-66 0 -99 -49.5t-33 -135.5
q0 -87 33.5 -136.5t97.5 -49.5q66 0 100 49.5z" />
    <glyph glyph-name="oacute" unicode="&#xf3;" horiz-adv-x="602" 
d="M159.5 26.5q-58.5 37.5 -89.5 103.5t-31 149q0 82 30.5 147.5t89.5 103.5t143 38q81 0 140 -37.5t90 -103.5t31 -149q0 -82 -30.5 -147.5t-90 -103.5t-143.5 -38q-81 0 -139.5 37.5zM400 142.5q34 49.5 34 135.5q0 87 -34.5 136.5t-98.5 49.5q-66 0 -99 -49.5t-33 -135.5
q0 -87 33.5 -136.5t97.5 -49.5q66 0 100 49.5zM237 608l72 130h152l-111 -130h-113z" />
    <glyph glyph-name="obreve" unicode="&#x14f;" horiz-adv-x="602" 
d="M159.5 26.5q-58.5 37.5 -89.5 103.5t-31 149q0 82 30.5 147.5t89.5 103.5t143 38q81 0 140 -37.5t90 -103.5t31 -149q0 -82 -30.5 -147.5t-90 -103.5t-143.5 -38q-81 0 -139.5 37.5zM400 142.5q34 49.5 34 135.5q0 87 -34.5 136.5t-98.5 49.5q-66 0 -99 -49.5t-33 -135.5
q0 -87 33.5 -136.5t97.5 -49.5q66 0 100 49.5zM209.5 638.5q-34.5 31.5 -35.5 99.5h76q1 -25 13.5 -36t37.5 -11t37.5 11t13.5 36h76q-1 -68 -35.5 -99.5t-91.5 -31.5t-91.5 31.5z" />
    <glyph glyph-name="ocircumflex" unicode="&#xf4;" horiz-adv-x="602" 
d="M159.5 26.5q-58.5 37.5 -89.5 103.5t-31 149q0 82 30.5 147.5t89.5 103.5t143 38q81 0 140 -37.5t90 -103.5t31 -149q0 -82 -30.5 -147.5t-90 -103.5t-143.5 -38q-81 0 -139.5 37.5zM400 142.5q34 49.5 34 135.5q0 87 -34.5 136.5t-98.5 49.5q-66 0 -99 -49.5t-33 -135.5
q0 -87 33.5 -136.5t97.5 -49.5q66 0 100 49.5zM463 608h-105l-57 62l-57 -62h-105l87 130h150z" />
    <glyph glyph-name="odieresis" unicode="&#xf6;" horiz-adv-x="602" 
d="M159.5 26.5q-58.5 37.5 -89.5 103.5t-31 149q0 82 30.5 147.5t89.5 103.5t143 38q81 0 140 -37.5t90 -103.5t31 -149q0 -82 -30.5 -147.5t-90 -103.5t-143.5 -38q-81 0 -139.5 37.5zM400 142.5q34 49.5 34 135.5q0 87 -34.5 136.5t-98.5 49.5q-66 0 -99 -49.5t-33 -135.5
q0 -87 33.5 -136.5t97.5 -49.5q66 0 100 49.5zM173 629q-17 19 -17 47t17 46.5t44 18.5t44 -18.5t17 -46.5t-17 -47t-44 -19t-44 19zM340 629q-17 19 -17 47t17 46.5t44 18.5t44 -18.5t17 -46.5t-17 -47t-44 -19t-44 19z" />
    <glyph glyph-name="ograve" unicode="&#xf2;" horiz-adv-x="602" 
d="M159.5 26.5q-58.5 37.5 -89.5 103.5t-31 149q0 82 30.5 147.5t89.5 103.5t143 38q81 0 140 -37.5t90 -103.5t31 -149q0 -82 -30.5 -147.5t-90 -103.5t-143.5 -38q-81 0 -139.5 37.5zM400 142.5q34 49.5 34 135.5q0 87 -34.5 136.5t-98.5 49.5q-66 0 -99 -49.5t-33 -135.5
q0 -87 33.5 -136.5t97.5 -49.5q66 0 100 49.5zM365 608h-113l-111 130h151z" />
    <glyph glyph-name="ohungarumlaut" unicode="&#x151;" horiz-adv-x="602" 
d="M159.5 26.5q-58.5 37.5 -89.5 103.5t-31 149q0 82 30.5 147.5t89.5 103.5t143 38q81 0 140 -37.5t90 -103.5t31 -149q0 -82 -30.5 -147.5t-90 -103.5t-143.5 -38q-81 0 -139.5 37.5zM400 142.5q34 49.5 34 135.5q0 87 -34.5 136.5t-98.5 49.5q-66 0 -99 -49.5t-33 -135.5
q0 -87 33.5 -136.5t97.5 -49.5q66 0 100 49.5zM169 601l29 137h128l-67 -137h-90zM329 601l51 137h128l-89 -137h-90z" />
    <glyph glyph-name="omacron" unicode="&#x14d;" horiz-adv-x="602" 
d="M159.5 26.5q-58.5 37.5 -89.5 103.5t-31 149q0 82 30.5 147.5t89.5 103.5t143 38q81 0 140 -37.5t90 -103.5t31 -149q0 -82 -30.5 -147.5t-90 -103.5t-143.5 -38q-81 0 -139.5 37.5zM400 142.5q34 49.5 34 135.5q0 87 -34.5 136.5t-98.5 49.5q-66 0 -99 -49.5t-33 -135.5
q0 -87 33.5 -136.5t97.5 -49.5q66 0 100 49.5zM193 726h215v-93h-215v93z" />
    <glyph glyph-name="oslash" unicode="&#xf8;" horiz-adv-x="602" 
d="M563 278q0 -82 -30.5 -147.5t-90 -103.5t-143.5 -38q-91 0 -156 49l-35 -41l-56 47l40 47q-53 76 -53 188q0 82 30.5 147.5t89.5 103.5t143 38q94 0 158 -50l35 40l55 -47l-40 -46q53 -76 53 -187zM175 187l214 248q-35 33 -88 33q-69 0 -103.5 -50.5t-34.5 -138.5
q0 -53 12 -92zM405 139.5q35 50.5 35 138.5q0 52 -12 91l-214 -248q34 -32 86 -32q70 0 105 50.5z" />
    <glyph glyph-name="otilde" unicode="&#xf5;" horiz-adv-x="602" 
d="M159.5 26.5q-58.5 37.5 -89.5 103.5t-31 149q0 82 30.5 147.5t89.5 103.5t143 38q81 0 140 -37.5t90 -103.5t31 -149q0 -82 -30.5 -147.5t-90 -103.5t-143.5 -38q-81 0 -139.5 37.5zM400 142.5q34 49.5 34 135.5q0 87 -34.5 136.5t-98.5 49.5q-66 0 -99 -49.5t-33 -135.5
q0 -87 33.5 -136.5t97.5 -49.5q66 0 100 49.5zM174 676q8 29 28 43.5t44 14.5q19 0 32.5 -7t31.5 -20q22 -18 35 -18q21 0 21 45h69q0 -42 -7 -69q-8 -32 -28.5 -47.5t-44.5 -15.5q-19 0 -32.5 7t-31.5 20q-22 18 -35 18q-21 0 -21 -45h-69q0 45 8 74z" />
    <glyph glyph-name="oe" unicode="&#x153;" horiz-adv-x="940" 
d="M904 242h-345q7 -72 46.5 -106t118.5 -34q80 0 156 41l-7 -111q-70 -39 -164 -39q-150 0 -217 99q-31 -49 -81 -76t-116 -27q-80 0 -137.5 37.5t-88 103.5t-30.5 149q0 82 30 147.5t88.5 103.5t139.5 38q65 0 114.5 -27t80.5 -76q31 49 78 76t108 27q112 0 169.5 -76
t57.5 -219q0 -20 -1 -31zM395 142.5q33 49.5 33 135.5q0 87 -33.5 136.5t-98.5 49.5q-63 0 -95 -49.5t-32 -135.5q0 -87 33 -136.5t94 -49.5q66 0 99 49.5zM561 327h213q-4 69 -28 101.5t-72 32.5q-99 0 -113 -134z" />
    <glyph glyph-name="p" unicode="p" horiz-adv-x="623" 
d="M478 530.5q51 -37.5 78.5 -103.5t27.5 -149q0 -82 -27 -147.5t-79 -103.5t-123 -38q-56 0 -97 25t-65 72v-278h-128v749h119v-106q22 56 66 86.5t108 30.5q69 0 120 -37.5zM421.5 142.5q33.5 49.5 33.5 135.5q0 87 -34 136.5t-99 49.5q-64 0 -96.5 -48t-32.5 -137
q0 -90 33 -138t95 -48q67 0 100.5 49.5z" />
    <glyph glyph-name="thorn" unicode="&#xfe;" horiz-adv-x="630" 
d="M483 530.5q52 -37.5 80 -103.5t28 -149q0 -82 -27.5 -147.5t-80 -103.5t-124.5 -38q-57 0 -99.5 25.5t-66.5 73.5v-256h-128v946h128v-308q24 47 67 72.5t102 25.5q69 0 121 -37.5zM427 142.5q34 49.5 34 135.5q0 87 -34.5 136.5t-101.5 49.5q-65 0 -98.5 -48t-33.5 -137
q0 -90 34 -138t98 -48q68 0 102 49.5z" />
    <glyph glyph-name="q" unicode="q" horiz-adv-x="623" 
d="M558 557v-749h-128v279q-24 -47 -66 -72.5t-99 -25.5q-69 0 -120 37.5t-78.5 103.5t-27.5 149q0 82 27 147.5t78.5 103.5t122.5 38q62 0 105.5 -30t66.5 -87v106h119zM398 141q32 48 32 138q0 89 -33 137t-95 48q-67 0 -100 -49.5t-33 -135.5q0 -87 34 -136.5t99 -49.5
q64 0 96 48z" />
    <glyph glyph-name="r" unicode="r" horiz-adv-x="420" 
d="M401 431q-25 5 -45 5q-68 0 -115.5 -34.5t-47.5 -91.5v-310h-128v557h119v-125q23 61 72.5 95.5t124.5 37.5z" />
    <glyph glyph-name="racute" unicode="&#x155;" horiz-adv-x="420" 
d="M401 431q-25 5 -45 5q-68 0 -115.5 -34.5t-47.5 -91.5v-310h-128v557h119v-125q23 61 72.5 95.5t124.5 37.5zM160 608l72 130h152l-111 -130h-113z" />
    <glyph glyph-name="rcaron" unicode="&#x159;" horiz-adv-x="420" 
d="M401 431q-25 5 -45 5q-68 0 -115.5 -34.5t-47.5 -91.5v-310h-128v557h119v-125q23 61 72.5 95.5t124.5 37.5zM281 738h105l-87 -130h-150l-87 130h105l57 -62z" />
    <glyph glyph-name="rcommaaccent" unicode="&#x157;" horiz-adv-x="420" 
d="M401 431q-25 5 -45 5q-68 0 -115.5 -34.5t-47.5 -91.5v-310h-128v557h119v-125q23 61 72.5 95.5t124.5 37.5zM200.5 -57.5q19.5 -19.5 19.5 -54.5q0 -45 -27 -77.5t-87 -32.5q-9 0 -29 2l-2 44q16 -2 22 -2q19 0 28.5 6t12.5 19h-4q-26 0 -40 15.5t-14 37.5q0 26 18.5 44
t49.5 18q33 0 52.5 -19.5z" />
    <glyph glyph-name="s" unicode="s" horiz-adv-x="437" 
d="M41 21l-11 114q83 -43 162 -43q93 0 93 65q0 24 -21.5 41.5t-77.5 36.5q-87 30 -124 69t-37 99q0 48 25.5 85.5t72 58.5t107.5 21q85 0 142 -30l16 -114q-34 20 -72.5 31.5t-73.5 11.5q-39 0 -63 -16.5t-24 -46.5q0 -26 22.5 -43t79.5 -36q88 -29 124 -67t36 -97
q0 -53 -26.5 -92t-72 -59.5t-102.5 -20.5q-95 0 -175 32z" />
    <glyph glyph-name="sacute" unicode="&#x15b;" horiz-adv-x="437" 
d="M41 21l-11 114q83 -43 162 -43q93 0 93 65q0 24 -21.5 41.5t-77.5 36.5q-87 30 -124 69t-37 99q0 48 25.5 85.5t72 58.5t107.5 21q85 0 142 -30l16 -114q-34 20 -72.5 31.5t-73.5 11.5q-39 0 -63 -16.5t-24 -46.5q0 -26 22.5 -43t79.5 -36q88 -29 124 -67t36 -97
q0 -53 -26.5 -92t-72 -59.5t-102.5 -20.5q-95 0 -175 32zM153 608l72 130h152l-111 -130h-113z" />
    <glyph glyph-name="scaron" unicode="&#x161;" horiz-adv-x="437" 
d="M41 21l-11 114q83 -43 162 -43q93 0 93 65q0 24 -21.5 41.5t-77.5 36.5q-87 30 -124 69t-37 99q0 48 25.5 85.5t72 58.5t107.5 21q85 0 142 -30l16 -114q-34 20 -72.5 31.5t-73.5 11.5q-39 0 -63 -16.5t-24 -46.5q0 -26 22.5 -43t79.5 -36q88 -29 124 -67t36 -97
q0 -53 -26.5 -92t-72 -59.5t-102.5 -20.5q-95 0 -175 32zM274 738h105l-87 -130h-150l-87 130h105l57 -62z" />
    <glyph glyph-name="scedilla" unicode="&#x15f;" horiz-adv-x="437" 
d="M41 21l-11 114q83 -43 162 -43q93 0 93 65q0 24 -21.5 41.5t-77.5 36.5q-87 30 -124 69t-37 99q0 48 25.5 85.5t72 58.5t107.5 21q85 0 142 -30l16 -114q-34 20 -72.5 31.5t-73.5 11.5q-39 0 -63 -16.5t-24 -46.5q0 -26 22.5 -43t79.5 -36q88 -29 124 -67t36 -97
q0 -53 -26.5 -92t-72 -59.5t-102.5 -20.5q-95 0 -175 32zM131 -187l21 147h119l-51 -147h-89z" />
    <glyph glyph-name="scircumflex" unicode="&#x15d;" horiz-adv-x="437" 
d="M41 21l-11 114q83 -43 162 -43q93 0 93 65q0 24 -21.5 41.5t-77.5 36.5q-87 30 -124 69t-37 99q0 48 25.5 85.5t72 58.5t107.5 21q85 0 142 -30l16 -114q-34 20 -72.5 31.5t-73.5 11.5q-39 0 -63 -16.5t-24 -46.5q0 -26 22.5 -43t79.5 -36q88 -29 124 -67t36 -97
q0 -53 -26.5 -92t-72 -59.5t-102.5 -20.5q-95 0 -175 32zM379 608h-105l-57 62l-57 -62h-105l87 130h150z" />
    <glyph glyph-name="scommaaccent" unicode="&#x219;" horiz-adv-x="437" 
d="M41 21l-11 114q83 -43 162 -43q93 0 93 65q0 24 -21.5 41.5t-77.5 36.5q-87 30 -124 69t-37 99q0 48 25.5 85.5t72 58.5t107.5 21q85 0 142 -30l16 -114q-34 20 -72.5 31.5t-73.5 11.5q-39 0 -63 -16.5t-24 -46.5q0 -26 22.5 -43t79.5 -36q88 -29 124 -67t36 -97
q0 -53 -26.5 -92t-72 -59.5t-102.5 -20.5q-95 0 -175 32zM267.5 -57.5q19.5 -19.5 19.5 -54.5q0 -45 -27 -77.5t-87 -32.5q-9 0 -29 2l-2 44q16 -2 22 -2q19 0 28.5 6t12.5 19h-4q-26 0 -40 15.5t-14 37.5q0 26 18.5 44t49.5 18q33 0 52.5 -19.5z" />
    <glyph glyph-name="germandbls" unicode="&#xdf;" horiz-adv-x="664" 
d="M580 317q45 -57 45 -130q0 -56 -26 -101t-73.5 -71t-110.5 -26q-67 0 -124 26l-11 110q55 -33 111 -33q50 0 75.5 25.5t25.5 70.5q0 55 -44.5 99t-122.5 60v86q59 17 86.5 47t27.5 80q0 62 -30 91.5t-82 29.5q-60 0 -97 -47.5t-37 -129.5v-504h-128v507q0 85 32.5 148.5
t91 98.5t135.5 35q117 0 182.5 -59t65.5 -159q0 -58 -30.5 -101.5t-84.5 -69.5q78 -26 123 -83z" />
    <glyph glyph-name="t" unicode="t" horiz-adv-x="433" 
d="M407 115l-12 -112q-54 -14 -101 -14q-102 0 -146.5 53t-44.5 139v273h-84v103h84v104l128 36v-140h174v-103h-174v-267q0 -46 18.5 -67.5t63.5 -21.5q46 0 94 17z" />
    <glyph glyph-name="tbar" unicode="&#x167;" horiz-adv-x="433" 
d="M407 115l-12 -112q-54 -14 -101 -14q-102 0 -146.5 53t-44.5 139v73h-69v71h69v129h-84v103h84v104l128 36v-140h174v-103h-174v-129h136v-71h-136v-67q0 -46 18.5 -67.5t63.5 -21.5q46 0 94 17z" />
    <glyph glyph-name="tcaron" unicode="&#x165;" horiz-adv-x="433" 
d="M407 115l-12 -112q-54 -14 -101 -14q-102 0 -146.5 53t-44.5 139v273h-84v103h84v104l128 36v-140h174v-103h-174v-267q0 -46 18.5 -67.5t63.5 -21.5q46 0 94 17zM284 600v148h111l-32 -148h-79z" />
    <glyph glyph-name="uni0163" unicode="&#x163;" horiz-adv-x="433" 
d="M407 115l-12 -112q-54 -14 -101 -14q-102 0 -146.5 53t-44.5 139v273h-84v103h84v104l128 36v-140h174v-103h-174v-267q0 -46 18.5 -67.5t63.5 -21.5q46 0 94 17zM336.5 -57.5q19.5 -19.5 19.5 -54.5q0 -45 -27 -77.5t-87 -32.5q-9 0 -29 2l-2 44q16 -2 22 -2
q19 0 28.5 6t12.5 19h-4q-26 0 -40 15.5t-14 37.5q0 26 18.5 44t49.5 18q33 0 52.5 -19.5z" />
    <glyph glyph-name="uni021B" unicode="&#x21b;" horiz-adv-x="433" 
d="M407 115l-12 -112q-54 -14 -101 -14q-102 0 -146.5 53t-44.5 139v273h-84v103h84v104l128 36v-140h174v-103h-174v-267q0 -46 18.5 -67.5t63.5 -21.5q46 0 94 17zM336.5 -57.5q19.5 -19.5 19.5 -54.5q0 -45 -27 -77.5t-87 -32.5q-9 0 -29 2l-2 44q16 -2 22 -2
q19 0 28.5 6t12.5 19h-4q-26 0 -40 15.5t-14 37.5q0 26 18.5 44t49.5 18q33 0 52.5 -19.5z" />
    <glyph glyph-name="u" unicode="u" horiz-adv-x="613" 
d="M548 557v-557h-120v93q-26 -52 -73 -78t-109 -26q-95 0 -141.5 60t-46.5 159v349h128v-319q0 -71 25.5 -110t83.5 -39q61 0 93 42.5t32 107.5v318h128z" />
    <glyph glyph-name="uacute" unicode="&#xfa;" horiz-adv-x="613" 
d="M548 557v-557h-120v93q-26 -52 -73 -78t-109 -26q-95 0 -141.5 60t-46.5 159v349h128v-319q0 -71 25.5 -110t83.5 -39q61 0 93 42.5t32 107.5v318h128zM240 608l72 130h152l-111 -130h-113z" />
    <glyph glyph-name="ubreve" unicode="&#x16d;" horiz-adv-x="613" 
d="M548 557v-557h-120v93q-26 -52 -73 -78t-109 -26q-95 0 -141.5 60t-46.5 159v349h128v-319q0 -71 25.5 -110t83.5 -39q61 0 93 42.5t32 107.5v318h128zM212.5 638.5q-34.5 31.5 -35.5 99.5h76q1 -25 13.5 -36t37.5 -11t37.5 11t13.5 36h76q-1 -68 -35.5 -99.5
t-91.5 -31.5t-91.5 31.5z" />
    <glyph glyph-name="ucircumflex" unicode="&#xfb;" horiz-adv-x="613" 
d="M548 557v-557h-120v93q-26 -52 -73 -78t-109 -26q-95 0 -141.5 60t-46.5 159v349h128v-319q0 -71 25.5 -110t83.5 -39q61 0 93 42.5t32 107.5v318h128zM466 608h-105l-57 62l-57 -62h-105l87 130h150z" />
    <glyph glyph-name="udieresis" unicode="&#xfc;" horiz-adv-x="613" 
d="M548 557v-557h-120v93q-26 -52 -73 -78t-109 -26q-95 0 -141.5 60t-46.5 159v349h128v-319q0 -71 25.5 -110t83.5 -39q61 0 93 42.5t32 107.5v318h128zM176 629q-17 19 -17 47t17 46.5t44 18.5t44 -18.5t17 -46.5t-17 -47t-44 -19t-44 19zM343 629q-17 19 -17 47t17 46.5
t44 18.5t44 -18.5t17 -46.5t-17 -47t-44 -19t-44 19z" />
    <glyph glyph-name="ugrave" unicode="&#xf9;" horiz-adv-x="613" 
d="M548 557v-557h-120v93q-26 -52 -73 -78t-109 -26q-95 0 -141.5 60t-46.5 159v349h128v-319q0 -71 25.5 -110t83.5 -39q61 0 93 42.5t32 107.5v318h128zM368 608h-113l-111 130h151z" />
    <glyph glyph-name="uhungarumlaut" unicode="&#x171;" horiz-adv-x="613" 
d="M548 557v-557h-120v93q-26 -52 -73 -78t-109 -26q-95 0 -141.5 60t-46.5 159v349h128v-319q0 -71 25.5 -110t83.5 -39q61 0 93 42.5t32 107.5v318h128zM172 601l29 137h128l-67 -137h-90zM332 601l51 137h128l-89 -137h-90z" />
    <glyph glyph-name="umacron" unicode="&#x16b;" horiz-adv-x="613" 
d="M548 557v-557h-120v93q-26 -52 -73 -78t-109 -26q-95 0 -141.5 60t-46.5 159v349h128v-319q0 -71 25.5 -110t83.5 -39q61 0 93 42.5t32 107.5v318h128zM196 726h215v-93h-215v93z" />
    <glyph glyph-name="uogonek" unicode="&#x173;" horiz-adv-x="613" 
d="M579 -83l-10 -75q-42 -17 -83 -17q-52 0 -80 20.5t-28 56.5q0 27 17 49t58 49h-25v93q-26 -52 -73 -78t-109 -26q-95 0 -141.5 60t-46.5 159v349h128v-319q0 -71 25.5 -110t83.5 -39q61 0 93 42.5t32 107.5v318h128v-557h-29q-30 -22 -42 -38t-12 -31q0 -16 10 -22.5
t32 -6.5q38 0 72 15z" />
    <glyph glyph-name="uring" unicode="&#x16f;" horiz-adv-x="613" 
d="M548 557v-557h-120v93q-26 -52 -73 -78t-109 -26q-95 0 -141.5 60t-46.5 159v349h128v-319q0 -71 25.5 -110t83.5 -39q61 0 93 42.5t32 107.5v318h128zM228.5 633.5q-29.5 28.5 -29.5 72.5t29.5 72t75.5 28t75.5 -28t29.5 -72t-29.5 -72.5t-75.5 -28.5t-75.5 28.5z
M332.5 674.5q10.5 12.5 10.5 31.5t-10.5 31t-28.5 12t-28.5 -12t-10.5 -31t10.5 -31.5t28.5 -12.5t28.5 12.5z" />
    <glyph glyph-name="utilde" unicode="&#x169;" horiz-adv-x="613" 
d="M548 557v-557h-120v93q-26 -52 -73 -78t-109 -26q-95 0 -141.5 60t-46.5 159v349h128v-319q0 -71 25.5 -110t83.5 -39q61 0 93 42.5t32 107.5v318h128zM177 676q8 29 28 43.5t44 14.5q19 0 32.5 -7t31.5 -20q22 -18 35 -18q21 0 21 45h69q0 -42 -7 -69
q-8 -32 -28.5 -47.5t-44.5 -15.5q-19 0 -32.5 7t-31.5 20q-22 18 -35 18q-21 0 -21 -45h-69q0 45 8 74z" />
    <glyph glyph-name="v" unicode="v" horiz-adv-x="556" 
d="M410 557h133l-187 -557h-155l-188 557h139l129 -443z" />
    <glyph glyph-name="w" unicode="w" horiz-adv-x="802" 
d="M648 557h132l-141 -557h-146l-93 367l-92 -367h-145l-141 557h136l85 -423l105 423h111l105 -423z" />
    <glyph glyph-name="wacute" unicode="&#x1e83;" horiz-adv-x="802" 
d="M648 557h132l-141 -557h-146l-93 367l-92 -367h-145l-141 557h136l85 -423l105 423h111l105 -423zM337 608l72 130h152l-111 -130h-113z" />
    <glyph glyph-name="wcircumflex" unicode="&#x175;" horiz-adv-x="802" 
d="M648 557h132l-141 -557h-146l-93 367l-92 -367h-145l-141 557h136l85 -423l105 423h111l105 -423zM563 608h-105l-57 62l-57 -62h-105l87 130h150z" />
    <glyph glyph-name="wdieresis" unicode="&#x1e85;" horiz-adv-x="802" 
d="M648 557h132l-141 -557h-146l-93 367l-92 -367h-145l-141 557h136l85 -423l105 423h111l105 -423zM273 629q-17 19 -17 47t17 46.5t44 18.5t44 -18.5t17 -46.5t-17 -47t-44 -19t-44 19zM440 629q-17 19 -17 47t17 46.5t44 18.5t44 -18.5t17 -46.5t-17 -47t-44 -19t-44 19
z" />
    <glyph glyph-name="wgrave" unicode="&#x1e81;" horiz-adv-x="802" 
d="M648 557h132l-141 -557h-146l-93 367l-92 -367h-145l-141 557h136l85 -423l105 423h111l105 -423zM465 608h-113l-111 130h151z" />
    <glyph glyph-name="x" unicode="x" horiz-adv-x="545" 
d="M538 0h-149l-121 203l-117 -203h-144l194 289l-178 268h149l103 -175l102 175h143l-177 -264z" />
    <glyph glyph-name="y" unicode="y" horiz-adv-x="547" 
d="M534 557l-185 -587q-28 -87 -73.5 -126.5t-114.5 -39.5q-35 0 -76 9l-12 100q33 -11 61 -11q39 0 62 19.5t41 78.5h-35l-189 557h139l130 -439l117 439h135z" />
    <glyph glyph-name="yacute" unicode="&#xfd;" horiz-adv-x="547" 
d="M534 557l-185 -587q-28 -87 -73.5 -126.5t-114.5 -39.5q-35 0 -76 9l-12 100q33 -11 61 -11q39 0 62 19.5t41 78.5h-35l-189 557h139l130 -439l117 439h135zM212 608l72 130h152l-111 -130h-113z" />
    <glyph glyph-name="ycircumflex" unicode="&#x177;" horiz-adv-x="547" 
d="M534 557l-185 -587q-28 -87 -73.5 -126.5t-114.5 -39.5q-35 0 -76 9l-12 100q33 -11 61 -11q39 0 62 19.5t41 78.5h-35l-189 557h139l130 -439l117 439h135zM438 608h-105l-57 62l-57 -62h-105l87 130h150z" />
    <glyph glyph-name="ydieresis" unicode="&#xff;" horiz-adv-x="547" 
d="M534 557l-185 -587q-28 -87 -73.5 -126.5t-114.5 -39.5q-35 0 -76 9l-12 100q33 -11 61 -11q39 0 62 19.5t41 78.5h-35l-189 557h139l130 -439l117 439h135zM148 629q-17 19 -17 47t17 46.5t44 18.5t44 -18.5t17 -46.5t-17 -47t-44 -19t-44 19zM315 629q-17 19 -17 47
t17 46.5t44 18.5t44 -18.5t17 -46.5t-17 -47t-44 -19t-44 19z" />
    <glyph glyph-name="ygrave" unicode="&#x1ef3;" horiz-adv-x="547" 
d="M534 557l-185 -587q-28 -87 -73.5 -126.5t-114.5 -39.5q-35 0 -76 9l-12 100q33 -11 61 -11q39 0 62 19.5t41 78.5h-35l-189 557h139l130 -439l117 439h135zM340 608h-113l-111 130h151z" />
    <glyph glyph-name="z" unicode="z" horiz-adv-x="462" 
d="M433 557v-83l-246 -366h246v-108h-402v83l247 368h-252l20 106h387z" />
    <glyph glyph-name="zacute" unicode="&#x17a;" horiz-adv-x="462" 
d="M433 557v-83l-246 -366h246v-108h-402v83l247 368h-252l20 106h387zM164 608l72 130h152l-111 -130h-113z" />
    <glyph glyph-name="zcaron" unicode="&#x17e;" horiz-adv-x="462" 
d="M433 557v-83l-246 -366h246v-108h-402v83l247 368h-252l20 106h387zM285 738h105l-87 -130h-150l-87 130h105l57 -62z" />
    <glyph glyph-name="zdotaccent" unicode="&#x17c;" horiz-adv-x="462" 
d="M433 557v-83l-246 -366h246v-108h-402v83l247 368h-252l20 106h387zM175.5 628q-19.5 20 -19.5 48q0 29 19.5 48t51.5 19q33 0 52.5 -19t19.5 -48t-19.5 -48.5t-52.5 -19.5q-32 0 -51.5 20z" />
    <glyph glyph-name="f_i" horiz-adv-x="667" 
d="M231 557h154v-103h-154v-454h-128v454h-84v103h84v44q0 81 44 134.5t145 53.5q38 0 78 -10l15 -99q-38 12 -74 12q-44 0 -62 -21t-18 -63v-51zM478.5 669q-20.5 19 -20.5 50q0 32 20.5 50.5t57.5 18.5t57.5 -18.5t20.5 -50.5q0 -31 -20.5 -50t-57.5 -19t-57.5 19zM470 0
v557h128v-557h-128z" />
    <glyph glyph-name="f_l" horiz-adv-x="663" 
d="M231 557h154v-103h-154v-454h-128v454h-84v103h84v44q0 81 44 134.5t145 53.5q38 0 78 -10l15 -99q-38 12 -74 12q-44 0 -62 -21t-18 -63v-51zM470 0v778h128v-778h-128z" />
    <glyph glyph-name="ordfeminine" unicode="&#xaa;" horiz-adv-x="414" 
d="M271 349v47q-31 -51 -111 -51q-65 0 -100.5 28.5t-35.5 85.5q0 119 175 124l67 3v17q0 57 -82 57q-74 0 -137 -35l14 95q64 29 135 29q84 0 129 -40t45 -107l1 -253h-100zM245 430q21 14 21 41v44l-49 -2q-48 -3 -68 -15.5t-20 -36.5q0 -45 64 -45q31 0 52 14z" />
    <glyph glyph-name="ordmasculine" unicode="&#xba;" horiz-adv-x="460" 
d="M82 398q-53 57 -53 147q0 89 53 146t149 57q62 0 107.5 -26.5t69 -72.5t23.5 -104q0 -90 -53 -147t-149 -57q-94 0 -147 57zM301.5 456q24.5 32 24.5 89t-24.5 88t-71.5 31q-48 0 -71.5 -31t-23.5 -88t24 -89t70 -32q48 0 72.5 32z" />
    <glyph glyph-name="uni0394" unicode="&#x394;" horiz-adv-x="680" 
d="M418 739l245 -739h-646l242 739h159zM192 105h293l-147 497z" />
    <glyph glyph-name="uni03A9" unicode="&#x3a9;" horiz-adv-x="760" 
d="M678.5 251.5q-32.5 -77.5 -95.5 -132.5h122v-119h-274v108q140 108 140 293q0 109 -48.5 168t-142.5 59t-143 -59t-49 -168q0 -185 141 -293v-108h-275v119h122q-63 55 -95 132.5t-32 168.5q0 93 39.5 168t114.5 118t177 43t177 -43t114.5 -118t39.5 -168
q0 -91 -32.5 -168.5z" />
    <glyph glyph-name="uni03BC" unicode="&#x3bc;" horiz-adv-x="625" 
d="M560 557v-557h-119v84q-22 -47 -57.5 -71t-78.5 -24q-68 0 -112 39v-220h-128v749h128v-319q0 -71 26 -110t86 -39q62 0 94.5 42.5t32.5 107.5v318h128z" />
    <glyph glyph-name="zero" unicode="0" horiz-adv-x="706" 
d="M191.5 39q-69.5 50 -108 136.5t-38.5 192.5q0 107 38.5 194t108.5 137t162 50q89 0 159 -50t108.5 -137t38.5 -194t-38.5 -193.5t-109 -136t-162.5 -49.5q-89 0 -158.5 50zM439.5 141.5q38.5 32.5 60 91.5t21.5 135q0 77 -21.5 136t-59.5 92t-87 33q-50 0 -88 -32.5
t-59 -92t-21 -136.5q0 -76 21 -135t59 -91.5t86 -32.5q50 0 88.5 32.5z" />
    <glyph glyph-name="one" unicode="1" horiz-adv-x="365" 
d="M192 738h98v-738h-134v595l-134 -57v129z" />
    <glyph glyph-name="two" unicode="2" horiz-adv-x="521" 
d="M489 119v-119h-448l-1 91l161 189q72 85 102.5 137.5t30.5 99.5q0 52 -32.5 79t-88.5 27q-45 0 -93 -17.5t-90 -52.5l13 143q88 53 197 53q115 0 178 -58t63 -154q0 -69 -33 -132t-110 -155l-110 -131h261z" />
    <glyph glyph-name="three" unicode="3" horiz-adv-x="506" 
d="M448 315q35 -46 35 -108q0 -58 -29.5 -108t-85.5 -80t-132 -30q-110 0 -194 48v136q42 -28 88.5 -43t89.5 -15q57 0 90.5 28t33.5 75q0 49 -31.5 75.5t-96.5 26.5h-77v111h69q57 0 86.5 24.5t29.5 68.5q0 48 -34 73.5t-90 25.5q-43 0 -87 -14t-83 -43l12 139
q83 44 185 44q112 0 174.5 -54t62.5 -145q0 -56 -29 -101t-89 -67q67 -21 102 -67z" />
    <glyph glyph-name="four" unicode="4" horiz-adv-x="621" 
d="M598 251v-113h-111v-138h-135v138h-330v98l284 502h181v-487h111zM166 251h186v343z" />
    <glyph glyph-name="five" unicode="5" horiz-adv-x="524" 
d="M429.5 402q62.5 -62 62.5 -168q0 -69 -29.5 -125t-85 -88t-131.5 -32q-99 0 -181 42l-13 142q43 -29 89.5 -43.5t88.5 -14.5q58 0 90.5 30.5t32.5 88.5q0 59 -42 91.5t-123 32.5q-56 0 -118 -14v394h385l9 -119h-264v-158q21 3 42 3q125 0 187.5 -62z" />
    <glyph glyph-name="six" unicode="6" horiz-adv-x="585" 
d="M445.5 447q50.5 -28 79 -82t28.5 -127q0 -71 -30 -128t-85 -89t-129 -32q-54 0 -99 16.5t-76 47.5q-44 42 -66.5 112t-22.5 177q0 187 76 297t230 110q70 0 131 -24l11 -130q-34 18 -65.5 26t-67.5 8q-162 0 -177 -210q54 56 148 56q64 0 114.5 -28zM385 136q28 35 28 97
q0 59 -30 94.5t-84 35.5q-52 0 -82.5 -33.5t-30.5 -86.5q0 -62 31 -102t84 -40q56 0 84 35z" />
    <glyph glyph-name="seven" unicode="7" horiz-adv-x="507" 
d="M31 738h454v-98l-238 -640h-148l241 619h-318z" />
    <glyph glyph-name="eight" unicode="8" horiz-adv-x="584" 
d="M525 317q36 -47 36 -111q0 -103 -72 -158.5t-197 -55.5q-126 0 -197.5 55.5t-71.5 158.5q0 63 36.5 110t102.5 65q-60 20 -90.5 63.5t-30.5 103.5q0 95 68.5 146.5t182.5 51.5q115 0 183 -52t68 -146q0 -61 -30.5 -104.5t-90.5 -62.5q67 -17 103 -64zM210 614
q-29 -27 -29 -77q0 -48 29.5 -75.5t81.5 -27.5q53 0 82.5 27.5t29.5 75.5q0 49 -29.5 76.5t-82.5 27.5t-82 -27zM385.5 127q32.5 31 32.5 89q0 54 -32.5 81t-93.5 27q-62 0 -94 -27.5t-32 -83.5q0 -57 33 -87t93 -30q61 0 93.5 31z" />
    <glyph glyph-name="nine" unicode="9" horiz-adv-x="585" 
d="M517.5 573q22.5 -70 22.5 -177q0 -187 -76 -297t-230 -110q-70 0 -131 24l-11 129q35 -18 66 -25.5t67 -7.5q162 0 177 210q-54 -56 -148 -56q-64 0 -114.5 28t-79 82t-28.5 127q0 71 30 128t85 89t129 32q54 0 99 -16.5t76 -47.5q44 -42 66.5 -112zM368.5 408.5
q30.5 33.5 30.5 86.5q0 62 -31 102t-84 40q-56 0 -84 -35t-28 -97q0 -59 29.5 -94.5t84.5 -35.5q52 0 82.5 33.5z" />
    <glyph glyph-name="zero.inferior" unicode="&#x2080;" horiz-adv-x="497" 
d="M141.5 -127.5q-45.5 30.5 -71 82.5t-25.5 116t25 116.5t71.5 82.5t107.5 30q60 0 106 -30.5t71.5 -82.5t25.5 -116t-25.5 -116.5t-72 -82.5t-108.5 -30q-59 0 -104.5 30.5zM316.5 -27.5q26.5 37.5 26.5 98.5q0 62 -26 99.5t-69 37.5t-69 -37.5t-26 -99.5q0 -61 26 -98.5
t68 -37.5q43 0 69.5 37.5z" />
    <glyph glyph-name="one.inferior" unicode="&#x2081;" horiz-adv-x="280" 
d="M128 293h77v-443h-105v336l-78 -27v99z" />
    <glyph glyph-name="two.inferior" unicode="&#x2082;" horiz-adv-x="362" 
d="M330 -58v-92h-293l-1 69l101 112q38 41 55.5 70t17.5 52q0 50 -68 50q-61 0 -112 -38l9 106q60 29 126 29q76 0 118.5 -36t42.5 -95q0 -36 -19 -72t-61 -84l-62 -71h146z" />
    <glyph glyph-name="three.inferior" unicode="&#x2083;" horiz-adv-x="345" 
d="M301 40.5q21 -27.5 21 -63.5q0 -60 -43 -97.5t-118 -37.5q-67 0 -122 26v103q52 -31 108 -31q33 0 50 12.5t17 34.5q0 24 -17 35t-54 11h-48v85h42q65 0 65 40q0 22 -18.5 33.5t-50.5 11.5q-57 0 -103 -31l9 105q54 23 117 23q74 0 114.5 -32.5t40.5 -87.5
q0 -33 -17.5 -59t-54.5 -40q41 -13 62 -40.5z" />
    <glyph glyph-name="four.inferior" unicode="&#x2084;" horiz-adv-x="423" 
d="M400 14v-87h-68v-77h-105v77h-205v75l169 291h141v-279h68zM234 210l-107 -196h107v196z" />
    <glyph glyph-name="five.inferior" unicode="&#x2085;" horiz-adv-x="370" 
d="M297.5 94q40.5 -38 40.5 -101q0 -41 -19 -75.5t-55 -55t-87 -20.5q-61 0 -114 23l-10 109q26 -16 55 -25t55 -9q32 0 49.5 13.5t17.5 39.5q0 58 -99 58q-36 0 -67 -9v251h252l6 -92h-156v-69h9q82 0 122.5 -38z" />
    <glyph glyph-name="six.inferior" unicode="&#x2086;" horiz-adv-x="412" 
d="M340.5 97q39.5 -37 39.5 -103q0 -67 -43.5 -109.5t-116.5 -42.5q-85 0 -125 46q-50 56 -50 170q0 110 50.5 176t153.5 66q43 0 82 -13l7 -96q-41 17 -81 17q-50 0 -75 -24.5t-30 -73.5q34 24 88 24q61 0 100.5 -37zM272 -11q0 27 -15 44t-43 17t-44 -15.5t-16 -40.5
q0 -30 16 -48t44 -18q58 0 58 61z" />
    <glyph glyph-name="seven.inferior" unicode="&#x2087;" horiz-adv-x="344" 
d="M29 293h293v-74l-146 -369h-115l148 351h-187z" />
    <glyph glyph-name="eight.inferior" unicode="&#x2088;" horiz-adv-x="401" 
d="M356 40q22 -28 22 -64q0 -65 -47 -98t-130 -33q-84 0 -131 33.5t-47 97.5q0 36 21.5 64t63.5 40q-74 26 -74 97q0 59 45 90t121 31t121 -31.5t45 -89.5q0 -72 -73 -97q41 -12 63 -40zM157 206q-15 -13 -15 -37q0 -23 15.5 -36t42.5 -13q28 0 43.5 13t15.5 36q0 24 -15 37
t-44 13q-28 0 -43 -13zM267 -15q0 26 -17.5 39t-49.5 13t-49 -13.5t-17 -40.5q0 -59 67 -59q66 0 66 61z" />
    <glyph glyph-name="nine.inferior" unicode="&#x2089;" horiz-adv-x="412" 
d="M367 85q0 -111 -50 -176.5t-154 -65.5q-43 0 -82 13l-7 96q41 -17 81 -17q50 0 75 24.5t30 73.5q-34 -24 -88 -24q-61 0 -100.5 37t-39.5 103q0 67 44 109.5t117 42.5q83 0 125 -46q49 -55 49 -170zM242.5 108.5q16.5 15.5 16.5 40.5q0 29 -17 48q-16 18 -43 18
q-59 0 -59 -61q0 -27 15 -44t44 -17q27 0 43.5 15.5z" />
    <glyph glyph-name="zero.dnom" horiz-adv-x="497" 
d="M141.5 22.5q-45.5 30.5 -71 82.5t-25.5 116t25 116.5t71.5 82.5t107.5 30q60 0 106 -30.5t71.5 -82.5t25.5 -116t-25.5 -116.5t-72 -82.5t-108.5 -30q-59 0 -104.5 30.5zM316.5 122.5q26.5 37.5 26.5 98.5q0 62 -26 99.5t-69 37.5t-69 -37.5t-26 -99.5q0 -61 26 -98.5
t68 -37.5q43 0 69.5 37.5z" />
    <glyph glyph-name="one.dnom" horiz-adv-x="280" 
d="M128 443h77v-443h-105v336l-78 -27v99z" />
    <glyph glyph-name="two.dnom" horiz-adv-x="362" 
d="M330 92v-92h-293l-1 69l101 112q38 41 55.5 70t17.5 52q0 50 -68 50q-61 0 -112 -38l9 106q60 29 126 29q76 0 118.5 -36t42.5 -95q0 -36 -19 -72t-61 -84l-62 -71h146z" />
    <glyph glyph-name="three.dnom" horiz-adv-x="345" 
d="M301 190.5q21 -27.5 21 -63.5q0 -60 -43 -97.5t-118 -37.5q-67 0 -122 26v103q52 -31 108 -31q33 0 50 12.5t17 34.5q0 24 -17 35t-54 11h-48v85h42q65 0 65 40q0 22 -18.5 33.5t-50.5 11.5q-57 0 -103 -31l9 105q54 23 117 23q74 0 114.5 -32.5t40.5 -87.5
q0 -33 -17.5 -59t-54.5 -40q41 -13 62 -40.5z" />
    <glyph glyph-name="four.dnom" horiz-adv-x="423" 
d="M400 164v-87h-68v-77h-105v77h-205v75l169 291h141v-279h68zM234 360l-107 -196h107v196z" />
    <glyph glyph-name="five.dnom" horiz-adv-x="370" 
d="M297.5 244q40.5 -38 40.5 -101q0 -41 -19 -75.5t-55 -55t-87 -20.5q-61 0 -114 23l-10 109q26 -16 55 -25t55 -9q32 0 49.5 13.5t17.5 39.5q0 58 -99 58q-36 0 -67 -9v251h252l6 -92h-156v-69h9q82 0 122.5 -38z" />
    <glyph glyph-name="six.dnom" horiz-adv-x="412" 
d="M340.5 247q39.5 -37 39.5 -103q0 -67 -43.5 -109.5t-116.5 -42.5q-85 0 -125 46q-50 56 -50 170q0 110 50.5 176t153.5 66q43 0 82 -13l7 -96q-41 17 -81 17q-50 0 -75 -24.5t-30 -73.5q34 24 88 24q61 0 100.5 -37zM272 139q0 27 -15 44t-43 17t-44 -15.5t-16 -40.5
q0 -30 16 -48t44 -18q58 0 58 61z" />
    <glyph glyph-name="seven.dnom" horiz-adv-x="344" 
d="M29 443h293v-74l-146 -369h-115l148 351h-187z" />
    <glyph glyph-name="eight.dnom" horiz-adv-x="401" 
d="M356 190q22 -28 22 -64q0 -65 -47 -98t-130 -33q-84 0 -131 33.5t-47 97.5q0 36 21.5 64t63.5 40q-74 26 -74 97q0 59 45 90t121 31t121 -31.5t45 -89.5q0 -72 -73 -97q41 -12 63 -40zM157 356q-15 -13 -15 -37q0 -23 15.5 -36t42.5 -13q28 0 43.5 13t15.5 36
q0 24 -15 37t-44 13q-28 0 -43 -13zM267 135q0 26 -17.5 39t-49.5 13t-49 -13.5t-17 -40.5q0 -59 67 -59q66 0 66 61z" />
    <glyph glyph-name="nine.dnom" horiz-adv-x="412" 
d="M367 235q0 -111 -50 -176.5t-154 -65.5q-43 0 -82 13l-7 96q41 -17 81 -17q50 0 75 24.5t30 73.5q-34 -24 -88 -24q-61 0 -100.5 37t-39.5 103q0 67 44 109.5t117 42.5q83 0 125 -46q49 -55 49 -170zM242.5 258.5q16.5 15.5 16.5 40.5q0 29 -17 48q-16 18 -43 18
q-59 0 -59 -61q0 -27 15 -44t44 -17q27 0 43.5 15.5z" />
    <glyph glyph-name="zero.numr" horiz-adv-x="497" 
d="M141.5 317.5q-45.5 30.5 -71 82.5t-25.5 116t25 116.5t71.5 82.5t107.5 30q60 0 106 -30.5t71.5 -82.5t25.5 -116t-25.5 -116.5t-72 -82.5t-108.5 -30q-59 0 -104.5 30.5zM316.5 417.5q26.5 37.5 26.5 98.5q0 62 -26 99.5t-69 37.5t-69 -37.5t-26 -99.5q0 -61 26 -98.5
t68 -37.5q43 0 69.5 37.5z" />
    <glyph glyph-name="one.numr" horiz-adv-x="280" 
d="M128 738h77v-443h-105v336l-78 -27v99z" />
    <glyph glyph-name="two.numr" horiz-adv-x="362" 
d="M330 387v-92h-293l-1 69l101 112q38 41 55.5 70t17.5 52q0 50 -68 50q-61 0 -112 -38l9 106q60 29 126 29q76 0 118.5 -36t42.5 -95q0 -36 -19 -72t-61 -84l-62 -71h146z" />
    <glyph glyph-name="three.numr" horiz-adv-x="345" 
d="M301 485.5q21 -27.5 21 -63.5q0 -60 -43 -97.5t-118 -37.5q-67 0 -122 26v103q52 -31 108 -31q33 0 50 12.5t17 34.5q0 24 -17 35t-54 11h-48v85h42q65 0 65 40q0 22 -18.5 33.5t-50.5 11.5q-57 0 -103 -31l9 105q54 23 117 23q74 0 114.5 -32.5t40.5 -87.5
q0 -33 -17.5 -59t-54.5 -40q41 -13 62 -40.5z" />
    <glyph glyph-name="four.numr" horiz-adv-x="423" 
d="M400 459v-87h-68v-77h-105v77h-205v75l169 291h141v-279h68zM234 655l-107 -196h107v196z" />
    <glyph glyph-name="five.numr" horiz-adv-x="370" 
d="M297.5 539q40.5 -38 40.5 -101q0 -41 -19 -75.5t-55 -55t-87 -20.5q-61 0 -114 23l-10 109q26 -16 55 -25t55 -9q32 0 49.5 13.5t17.5 39.5q0 58 -99 58q-36 0 -67 -9v251h252l6 -92h-156v-69h9q82 0 122.5 -38z" />
    <glyph glyph-name="six.numr" horiz-adv-x="412" 
d="M340.5 542q39.5 -37 39.5 -103q0 -67 -43.5 -109.5t-116.5 -42.5q-85 0 -125 46q-50 56 -50 170q0 110 50.5 176t153.5 66q43 0 82 -13l7 -96q-41 17 -81 17q-50 0 -75 -24.5t-30 -73.5q34 24 88 24q61 0 100.5 -37zM272 434q0 27 -15 44t-43 17t-44 -15.5t-16 -40.5
q0 -30 16 -48t44 -18q58 0 58 61z" />
    <glyph glyph-name="seven.numr" horiz-adv-x="344" 
d="M29 738h293v-74l-146 -369h-115l148 351h-187z" />
    <glyph glyph-name="eight.numr" horiz-adv-x="401" 
d="M356 485q22 -28 22 -64q0 -65 -47 -98t-130 -33q-84 0 -131 33.5t-47 97.5q0 36 21.5 64t63.5 40q-74 26 -74 97q0 59 45 90t121 31t121 -31.5t45 -89.5q0 -72 -73 -97q41 -12 63 -40zM157 651q-15 -13 -15 -37q0 -23 15.5 -36t42.5 -13q28 0 43.5 13t15.5 36
q0 24 -15 37t-44 13q-28 0 -43 -13zM267 430q0 26 -17.5 39t-49.5 13t-49 -13.5t-17 -40.5q0 -59 67 -59q66 0 66 61z" />
    <glyph glyph-name="nine.numr" horiz-adv-x="412" 
d="M367 530q0 -111 -50 -176.5t-154 -65.5q-43 0 -82 13l-7 96q41 -17 81 -17q50 0 75 24.5t30 73.5q-34 -24 -88 -24q-61 0 -100.5 37t-39.5 103q0 67 44 109.5t117 42.5q83 0 125 -46q49 -55 49 -170zM242.5 553.5q16.5 15.5 16.5 40.5q0 29 -17 48q-16 18 -43 18
q-59 0 -59 -61q0 -27 15 -44t44 -17q27 0 43.5 15.5z" />
    <glyph glyph-name="zero.superior" unicode="&#x2070;" horiz-adv-x="497" 
d="M141.5 507.5q-45.5 30.5 -71 82.5t-25.5 116t25 116.5t71.5 82.5t107.5 30q60 0 106 -30.5t71.5 -82.5t25.5 -116t-25.5 -116.5t-72 -82.5t-108.5 -30q-59 0 -104.5 30.5zM316.5 607.5q26.5 37.5 26.5 98.5q0 62 -26 99.5t-69 37.5t-69 -37.5t-26 -99.5q0 -61 26 -98.5
t68 -37.5q43 0 69.5 37.5z" />
    <glyph glyph-name="onesuperior" unicode="&#xb9;" horiz-adv-x="280" 
d="M128 928h77v-443h-105v336l-78 -27v99z" />
    <glyph glyph-name="twosuperior" unicode="&#xb2;" horiz-adv-x="362" 
d="M330 577v-92h-293l-1 69l101 112q38 41 55.5 70t17.5 52q0 50 -68 50q-61 0 -112 -38l9 106q60 29 126 29q76 0 118.5 -36t42.5 -95q0 -36 -19 -72t-61 -84l-62 -71h146z" />
    <glyph glyph-name="threesuperior" unicode="&#xb3;" horiz-adv-x="345" 
d="M301 675.5q21 -27.5 21 -63.5q0 -60 -43 -97.5t-118 -37.5q-67 0 -122 26v103q52 -31 108 -31q33 0 50 12.5t17 34.5q0 24 -17 35t-54 11h-48v85h42q65 0 65 40q0 22 -18.5 33.5t-50.5 11.5q-57 0 -103 -31l9 105q54 23 117 23q74 0 114.5 -32.5t40.5 -87.5
q0 -33 -17.5 -59t-54.5 -40q41 -13 62 -40.5z" />
    <glyph glyph-name="four.superior" unicode="&#x2074;" horiz-adv-x="423" 
d="M400 649v-87h-68v-77h-105v77h-205v75l169 291h141v-279h68zM234 845l-107 -196h107v196z" />
    <glyph glyph-name="five.superior" unicode="&#x2075;" horiz-adv-x="370" 
d="M297.5 729q40.5 -38 40.5 -101q0 -41 -19 -75.5t-55 -55t-87 -20.5q-61 0 -114 23l-10 109q26 -16 55 -25t55 -9q32 0 49.5 13.5t17.5 39.5q0 58 -99 58q-36 0 -67 -9v251h252l6 -92h-156v-69h9q82 0 122.5 -38z" />
    <glyph glyph-name="six.superior" unicode="&#x2076;" horiz-adv-x="412" 
d="M340.5 732q39.5 -37 39.5 -103q0 -67 -43.5 -109.5t-116.5 -42.5q-85 0 -125 46q-50 56 -50 170q0 110 50.5 176t153.5 66q43 0 82 -13l7 -96q-41 17 -81 17q-50 0 -75 -24.5t-30 -73.5q34 24 88 24q61 0 100.5 -37zM272 624q0 27 -15 44t-43 17t-44 -15.5t-16 -40.5
q0 -30 16 -48t44 -18q58 0 58 61z" />
    <glyph glyph-name="seven.superior" unicode="&#x2077;" horiz-adv-x="344" 
d="M29 928h293v-74l-146 -369h-115l148 351h-187z" />
    <glyph glyph-name="eight.superior" unicode="&#x2078;" horiz-adv-x="401" 
d="M356 675q22 -28 22 -64q0 -65 -47 -98t-130 -33q-84 0 -131 33.5t-47 97.5q0 36 21.5 64t63.5 40q-74 26 -74 97q0 59 45 90t121 31t121 -31.5t45 -89.5q0 -72 -73 -97q41 -12 63 -40zM157 841q-15 -13 -15 -37q0 -23 15.5 -36t42.5 -13q28 0 43.5 13t15.5 36
q0 24 -15 37t-44 13q-28 0 -43 -13zM267 620q0 26 -17.5 39t-49.5 13t-49 -13.5t-17 -40.5q0 -59 67 -59q66 0 66 61z" />
    <glyph glyph-name="nine.superior" unicode="&#x2079;" horiz-adv-x="412" 
d="M367 720q0 -111 -50 -176.5t-154 -65.5q-43 0 -82 13l-7 96q41 -17 81 -17q50 0 75 24.5t30 73.5q-34 -24 -88 -24q-61 0 -100.5 37t-39.5 103q0 67 44 109.5t117 42.5q83 0 125 -46q49 -55 49 -170zM242.5 743.5q16.5 15.5 16.5 40.5q0 29 -17 48q-16 18 -43 18
q-59 0 -59 -61q0 -27 15 -44t44 -17q27 0 43.5 15.5z" />
    <glyph glyph-name="fraction" unicode="&#x2044;" horiz-adv-x="195" 
d="M-178 0l464 738h102l-464 -738h-102z" />
    <glyph glyph-name="onehalf" unicode="&#xbd;" horiz-adv-x="837" 
d="M128 738h77v-443h-105v336l-78 -27v99zM102 0l464 738h102l-464 -738h-102zM805 92v-92h-293l-1 69l101 112q38 41 55.5 70t17.5 52q0 50 -68 50q-61 0 -112 -38l9 106q60 29 126 29q76 0 118.5 -36t42.5 -95q0 -36 -19 -72t-61 -84l-62 -71h146z" />
    <glyph glyph-name="onequarter" unicode="&#xbc;" horiz-adv-x="855" 
d="M128 738h77v-443h-105v336l-78 -27v99zM102 0l464 738h102l-464 -738h-102zM832 164v-87h-68v-77h-105v77h-205v75l169 291h141v-279h68zM666 360l-107 -196h107v196z" />
    <glyph glyph-name="threequarters" unicode="&#xbe;" horiz-adv-x="920" 
d="M301 485.5q21 -27.5 21 -63.5q0 -60 -43 -97.5t-118 -37.5q-67 0 -122 26v103q52 -31 108 -31q33 0 50 12.5t17 34.5q0 24 -17 35t-54 11h-48v85h42q65 0 65 40q0 22 -18.5 33.5t-50.5 11.5q-57 0 -103 -31l9 105q54 23 117 23q74 0 114.5 -32.5t40.5 -87.5
q0 -33 -17.5 -59t-54.5 -40q41 -13 62 -40.5zM167 0l464 738h102l-464 -738h-102zM897 164v-87h-68v-77h-105v77h-205v75l169 291h141v-279h68zM731 360l-107 -196h107v196z" />
    <glyph glyph-name="oneeighth" unicode="&#x215b;" horiz-adv-x="876" 
d="M128 738h77v-443h-105v336l-78 -27v99zM102 0l464 738h102l-464 -738h-102zM831 190q22 -28 22 -64q0 -65 -47 -98t-130 -33q-84 0 -131 33.5t-47 97.5q0 36 21.5 64t63.5 40q-74 26 -74 97q0 59 45 90t121 31t121 -31.5t45 -89.5q0 -72 -73 -97q41 -12 63 -40zM632 356
q-15 -13 -15 -37q0 -23 15.5 -36t42.5 -13q28 0 43.5 13t15.5 36q0 24 -15 37t-44 13q-28 0 -43 -13zM742 135q0 26 -17.5 39t-49.5 13t-49 -13.5t-17 -40.5q0 -59 67 -59q66 0 66 61z" />
    <glyph glyph-name="threeeighths" unicode="&#x215c;" horiz-adv-x="941" 
d="M301 485.5q21 -27.5 21 -63.5q0 -60 -43 -97.5t-118 -37.5q-67 0 -122 26v103q52 -31 108 -31q33 0 50 12.5t17 34.5q0 24 -17 35t-54 11h-48v85h42q65 0 65 40q0 22 -18.5 33.5t-50.5 11.5q-57 0 -103 -31l9 105q54 23 117 23q74 0 114.5 -32.5t40.5 -87.5
q0 -33 -17.5 -59t-54.5 -40q41 -13 62 -40.5zM167 0l464 738h102l-464 -738h-102zM896 190q22 -28 22 -64q0 -65 -47 -98t-130 -33q-84 0 -131 33.5t-47 97.5q0 36 21.5 64t63.5 40q-74 26 -74 97q0 59 45 90t121 31t121 -31.5t45 -89.5q0 -72 -73 -97q41 -12 63 -40z
M697 356q-15 -13 -15 -37q0 -23 15.5 -36t42.5 -13q28 0 43.5 13t15.5 36q0 24 -15 37t-44 13q-28 0 -43 -13zM807 135q0 26 -17.5 39t-49.5 13t-49 -13.5t-17 -40.5q0 -59 67 -59q66 0 66 61z" />
    <glyph glyph-name="fiveeighths" unicode="&#x215d;" horiz-adv-x="966" 
d="M297.5 539q40.5 -38 40.5 -101q0 -41 -19 -75.5t-55 -55t-87 -20.5q-61 0 -114 23l-10 109q26 -16 55 -25t55 -9q32 0 49.5 13.5t17.5 39.5q0 58 -99 58q-36 0 -67 -9v251h252l6 -92h-156v-69h9q82 0 122.5 -38zM192 0l464 738h102l-464 -738h-102zM921 190
q22 -28 22 -64q0 -65 -47 -98t-130 -33q-84 0 -131 33.5t-47 97.5q0 36 21.5 64t63.5 40q-74 26 -74 97q0 59 45 90t121 31t121 -31.5t45 -89.5q0 -72 -73 -97q41 -12 63 -40zM722 356q-15 -13 -15 -37q0 -23 15.5 -36t42.5 -13q28 0 43.5 13t15.5 36q0 24 -15 37t-44 13
q-28 0 -43 -13zM832 135q0 26 -17.5 39t-49.5 13t-49 -13.5t-17 -40.5q0 -59 67 -59q66 0 66 61z" />
    <glyph glyph-name="seveneighths" unicode="&#x215e;" horiz-adv-x="940" 
d="M29 738h293v-74l-146 -369h-115l148 351h-187zM166 0l464 738h102l-464 -738h-102zM895 190q22 -28 22 -64q0 -65 -47 -98t-130 -33q-84 0 -131 33.5t-47 97.5q0 36 21.5 64t63.5 40q-74 26 -74 97q0 59 45 90t121 31t121 -31.5t45 -89.5q0 -72 -73 -97q41 -12 63 -40z
M696 356q-15 -13 -15 -37q0 -23 15.5 -36t42.5 -13q28 0 43.5 13t15.5 36q0 24 -15 37t-44 13q-28 0 -43 -13zM806 135q0 26 -17.5 39t-49.5 13t-49 -13.5t-17 -40.5q0 -59 67 -59q66 0 66 61z" />
    <glyph glyph-name="asterisk" unicode="*" horiz-adv-x="483" 
d="M444 636l-148 -21l108 -104l-97 -69l-65 133l-65 -134l-96 71l107 104l-149 21l38 112l132 -70l-27 147h120l-27 -147l133 71z" />
    <glyph glyph-name="backslash" unicode="\" horiz-adv-x="377" 
d="M377 -100h-108l-261 908h108z" />
    <glyph glyph-name="periodcentered" unicode="&#xb7;" horiz-adv-x="236" 
d="M60.5 243.5q-21.5 21.5 -21.5 54.5t21.5 54t57.5 21t57.5 -21t21.5 -54t-21.5 -54.5t-57.5 -21.5t-57.5 21.5z" />
    <glyph glyph-name="bullet" unicode="&#x2022;" horiz-adv-x="384" 
d="M112 288.5q-33 33.5 -33 80.5t33 80.5t80 33.5t80.5 -33.5t33.5 -80.5t-33.5 -80.5t-80.5 -33.5t-80 33.5z" />
    <glyph glyph-name="colon" unicode=":" horiz-adv-x="236" 
d="M60.5 10.5q-21.5 21.5 -21.5 54.5t21.5 54t57.5 21t57.5 -21t21.5 -54t-21.5 -54.5t-57.5 -21.5t-57.5 21.5zM60.5 424.5q-21.5 21.5 -21.5 54.5t21.5 54t57.5 21t57.5 -21t21.5 -54t-21.5 -54.5t-57.5 -21.5t-57.5 21.5z" />
    <glyph glyph-name="comma" unicode="," horiz-adv-x="241" 
d="M180 116.5q22 -23.5 22 -63.5q0 -61 -38 -111t-106 -65l-27 48q63 22 75 70q-28 0 -45 20.5t-17 50.5q0 31 21 52.5t57 21.5t58 -23.5z" />
    <glyph glyph-name="ellipsis" unicode="&#x2026;" horiz-adv-x="737" 
d="M310.5 10.5q-21.5 21.5 -21.5 54.5t21.5 54t57.5 21t57.5 -21t21.5 -54t-21.5 -54.5t-57.5 -21.5t-57.5 21.5zM560.5 10.5q-21.5 21.5 -21.5 54.5t21.5 54t57.5 21t57.5 -21t21.5 -54t-21.5 -54.5t-57.5 -21.5t-57.5 21.5zM60.5 10.5q-21.5 21.5 -21.5 54.5t21.5 54
t57.5 21t57.5 -21t21.5 -54t-21.5 -54.5t-57.5 -21.5t-57.5 21.5z" />
    <glyph glyph-name="exclam" unicode="!" horiz-adv-x="308" 
d="M98 191l-17 547h146l-16 -547h-113zM96.5 10.5q-21.5 21.5 -21.5 54.5t21.5 54t57.5 21t57.5 -21t21.5 -54t-21.5 -54.5t-57.5 -21.5t-57.5 21.5z" />
    <glyph glyph-name="exclamdown" unicode="&#xa1;" horiz-adv-x="308" 
d="M211.5 727.5q21.5 -21.5 21.5 -54.5t-21.5 -54t-57.5 -21t-57.5 21t-21.5 54t21.5 54.5t57.5 21.5t57.5 -21.5zM211 547l16 -547h-146l17 547h113z" />
    <glyph glyph-name="numbersign" unicode="#" horiz-adv-x="784" 
d="M744 427h-151l-22 -118h150l-19 -104h-150l-39 -205h-115l39 205h-151l-39 -205h-115l39 205h-149l19 104h149l22 118h-148l18 103h150l39 208h115l-39 -208h151l39 208h115l-39 -208h149zM456 309l22 118h-151l-22 -118h151z" />
    <glyph glyph-name="period" unicode="." horiz-adv-x="236" 
d="M60.5 10.5q-21.5 21.5 -21.5 54.5t21.5 54t57.5 21t57.5 -21t21.5 -54t-21.5 -54.5t-57.5 -21.5t-57.5 21.5z" />
    <glyph glyph-name="question" unicode="?" horiz-adv-x="508" 
d="M454.5 444q-21.5 -39 -76.5 -84q-50 -39 -70 -73t-20 -79v-13h-111q-3 20 -3 37q0 55 19.5 95t69.5 83q38 33 52 57.5t14 55.5q0 49 -33.5 74.5t-90.5 25.5q-45 0 -93 -17.5t-90 -53.5l13 144q90 53 197 53q115 0 179.5 -58t64.5 -154q0 -54 -21.5 -93zM179.5 10.5
q-21.5 21.5 -21.5 54.5t21.5 54t57.5 21t57.5 -21t21.5 -54t-21.5 -54.5t-57.5 -21.5t-57.5 21.5z" />
    <glyph glyph-name="questiondown" unicode="&#xbf;" horiz-adv-x="508" 
d="M328.5 724.5q21.5 -21.5 21.5 -54.5t-21.5 -54t-56.5 -21q-36 0 -57.5 21t-21.5 54t21.5 54.5t57.5 21.5q35 0 56.5 -21.5zM53.5 291q21.5 39 77.5 84q50 39 69.5 73t19.5 79v13h112q2 -26 2 -37q0 -55 -19.5 -95t-69.5 -83q-37 -32 -51 -56.5t-14 -56.5q0 -49 33 -74.5
t90 -25.5q45 0 93 17.5t90 52.5l-13 -143q-90 -53 -197 -53q-76 0 -131.5 26.5t-84 74.5t-28.5 111q0 54 21.5 93z" />
    <glyph glyph-name="quotedbl" unicode="&#x22;" horiz-adv-x="392" 
d="M62 485l-24 253h132l-25 -253h-83zM246 485l-24 253h132l-25 -253h-83z" />
    <glyph glyph-name="quotesingle" unicode="'" horiz-adv-x="207" 
d="M62 485l-24 253h132l-25 -253h-83z" />
    <glyph glyph-name="semicolon" unicode=";" horiz-adv-x="241" 
d="M180 116.5q22 -23.5 22 -63.5q0 -61 -38 -111t-106 -65l-27 48q63 22 75 70q-28 0 -45 20.5t-17 50.5q0 31 21 52.5t57 21.5t58 -23.5zM60.5 438.5q-21.5 21.5 -21.5 54.5t21.5 54t57.5 21t57.5 -21t21.5 -54t-21.5 -54.5t-57.5 -21.5t-57.5 21.5z" />
    <glyph glyph-name="slash" unicode="/" horiz-adv-x="377" 
d="M0 -100l261 908h108l-261 -908h-108z" />
    <glyph glyph-name="underscore" unicode="_" horiz-adv-x="512" 
d="M19 -40h473v-99h-473v99z" />
    <glyph glyph-name="uni208D" unicode="&#x208d;" horiz-adv-x="305" 
d="M116 279q48 92 145 154l39 -71q-65 -55 -95 -126t-30 -163q0 -93 30 -163.5t95 -125.5l-39 -70q-97 61 -145 153t-48 206t48 206z" />
    <glyph glyph-name="uni208E" unicode="&#x208e;" horiz-adv-x="305" 
d="M189.5 -133.5q-47.5 -91.5 -144.5 -152.5l-40 70q65 55 95 125.5t30 163.5t-30 163t-95 126l40 71q97 -62 144.5 -154t47.5 -206q0 -115 -47.5 -206.5z" />
    <glyph glyph-name="braceleft" unicode="{" horiz-adv-x="352" 
d="M246.5 -48.5q21.5 -21.5 83.5 -31.5l-13 -80q-107 10 -161.5 55.5t-54.5 122.5q0 25 4 52t9 51q11 51 11 82q0 46 -21.5 65t-65.5 19h-16v100h16q44 0 65.5 19t21.5 64q0 31 -11 82q-5 24 -9 51t-4 52q0 76 54.5 121.5t161.5 55.5l13 -80q-43 -7 -65.5 -18.5t-31 -30
t-8.5 -48.5q0 -28 11 -78q5 -25 9 -53t4 -54q0 -54 -24.5 -86t-72.5 -47q48 -15 72.5 -47.5t24.5 -86.5q0 -26 -4 -54t-9 -53q-11 -49 -11 -78q0 -45 21.5 -66.5z" />
    <glyph glyph-name="braceright" unicode="}" horiz-adv-x="352" 
d="M330 387v-100h-16q-44 0 -65.5 -19t-21.5 -65q0 -31 11 -82q5 -24 9 -51t4 -52q0 -77 -54.5 -122.5t-161.5 -55.5l-13 80q62 10 83.5 31.5t21.5 66.5q0 29 -11 78q-5 25 -9 53t-4 54q0 54 24.5 86.5t72.5 47.5q-48 15 -72.5 47t-24.5 86q0 26 4 54t9 53q11 50 11 78
q0 44 -21.5 65.5t-82.5 31.5l12 80q107 -10 161.5 -55.5t54.5 -121.5q0 -25 -4 -52t-9 -51q-11 -51 -11 -82q0 -45 21.5 -64t65.5 -19h16z" />
    <glyph glyph-name="bracketleft" unicode="[" horiz-adv-x="331" 
d="M75 -158v989h234v-100h-103v-788h103v-101h-234z" />
    <glyph glyph-name="bracketright" unicode="]" horiz-adv-x="331" 
d="M256 -158h-234v101h103v788h-103v100h234v-989z" />
    <glyph glyph-name="parenleft" unicode="(" horiz-adv-x="383" 
d="M133 615.5q65 129.5 197 217.5l48 -84q-96 -81 -140 -184.5t-44 -238.5t44 -238.5t140 -184.5l-48 -84q-132 88 -197 217.5t-65 289.5t65 289.5z" />
    <glyph glyph-name="parenright" unicode=")" horiz-adv-x="383" 
d="M250 36.5q-65 -129.5 -197 -217.5l-48 84q96 81 140 184.5t44 238.5t-44 238.5t-140 184.5l48 84q132 -88 197 -217.5t65 -289.5t-65 -289.5z" />
    <glyph glyph-name="uni207D" unicode="&#x207d;" horiz-adv-x="305" 
d="M116 913q48 92 145 154l39 -71q-65 -55 -95 -126t-30 -163q0 -93 30 -163.5t95 -125.5l-39 -70q-97 61 -145 153t-48 206t48 206z" />
    <glyph glyph-name="uni207E" unicode="&#x207e;" horiz-adv-x="305" 
d="M189.5 500.5q-47.5 -91.5 -144.5 -152.5l-40 70q65 55 95 125.5t30 163.5t-30 163t-95 126l40 71q97 -62 144.5 -154t47.5 -206q0 -115 -47.5 -206.5z" />
    <glyph glyph-name="emdash" unicode="&#x2014;" horiz-adv-x="658" 
d="M0 369h658v-99h-658v99z" />
    <glyph glyph-name="endash" unicode="&#x2013;" horiz-adv-x="512" 
d="M19 369h473v-99h-473v99z" />
    <glyph glyph-name="hyphen" unicode="-" horiz-adv-x="354" 
d="M19 369h316v-99h-316v99z" />
    <glyph glyph-name="uni00AD" unicode="&#xad;" horiz-adv-x="354" 
d="M19 369h316v-99h-316v99z" />
    <glyph glyph-name="guillemotleft" unicode="&#xab;" horiz-adv-x="553" 
d="M198 78l-185 220l185 221l81 -69l-119 -152l119 -152zM456 78l-185 220l185 221l81 -69l-119 -152l119 -152z" />
    <glyph glyph-name="guillemotright" unicode="&#xbb;" horiz-adv-x="553" 
d="M98 78l-81 68l118 152l-118 152l81 69l184 -221zM356 78l-82 68l119 152l-119 152l82 69l184 -221z" />
    <glyph glyph-name="guilsinglleft" unicode="&#x2039;" horiz-adv-x="296" 
d="M198 78l-185 220l185 221l81 -69l-119 -152l119 -152z" />
    <glyph glyph-name="guilsinglright" unicode="&#x203a;" horiz-adv-x="296" 
d="M98 78l-81 68l118 152l-118 152l81 69l184 -221z" />
    <glyph glyph-name="quotedblbase" unicode="&#x201e;" horiz-adv-x="442" 
d="M381 116.5q22 -23.5 22 -63.5q0 -61 -38 -111t-106 -65l-27 48q63 22 75 70q-28 0 -45 20.5t-17 50.5q0 31 21 52.5t57 21.5t58 -23.5zM180 116.5q22 -23.5 22 -63.5q0 -61 -38 -111t-106 -65l-27 48q63 22 75 70q-28 0 -45 20.5t-17 50.5q0 31 21 52.5t57 21.5t58 -23.5
z" />
    <glyph glyph-name="quotedblleft" unicode="&#x201c;" horiz-adv-x="442" 
d="M135 626q28 0 45.5 -20.5t17.5 -49.5q0 -32 -21.5 -53.5t-56.5 -21.5q-37 0 -59 24t-22 64q0 61 38 110.5t106 64.5l27 -48q-63 -22 -75 -70zM381 606q17 -20 17 -50q0 -32 -21 -53.5t-57 -21.5t-58 24t-22 64q0 61 38 110.5t106 64.5l27 -48q-63 -22 -75 -70
q28 0 45 -20z" />
    <glyph glyph-name="quotedblright" unicode="&#x201d;" horiz-adv-x="442" 
d="M381 725.5q22 -23.5 22 -63.5q0 -61 -38 -111t-106 -65l-27 48q63 22 75 70q-28 0 -45 20.5t-17 50.5q0 31 21 52.5t57 21.5t58 -23.5zM180 725.5q22 -23.5 22 -63.5q0 -61 -38 -111t-106 -65l-27 48q63 22 75 70q-28 0 -45 20.5t-17 50.5q0 31 21 52.5t57 21.5t58 -23.5
z" />
    <glyph glyph-name="quoteleft" unicode="&#x2018;" horiz-adv-x="241" 
d="M180.5 605.5q17.5 -20.5 17.5 -49.5q0 -32 -21.5 -53.5t-56.5 -21.5q-37 0 -59 24t-22 64q0 61 38 110.5t106 64.5l27 -48q-63 -22 -75 -70q28 0 45.5 -20.5z" />
    <glyph glyph-name="quoteright" unicode="&#x2019;" horiz-adv-x="241" 
d="M180 725.5q22 -23.5 22 -63.5q0 -61 -38 -111t-106 -65l-27 48q63 22 75 70q-28 0 -45 20.5t-17 50.5q0 31 21 52.5t57 21.5t58 -23.5z" />
    <glyph glyph-name="quotesinglbase" unicode="&#x201a;" horiz-adv-x="241" 
d="M180 116.5q22 -23.5 22 -63.5q0 -61 -38 -111t-106 -65l-27 48q63 22 75 70q-28 0 -45 20.5t-17 50.5q0 31 21 52.5t57 21.5t58 -23.5z" />
    <glyph glyph-name="uni00A0" unicode="&#xa0;" horiz-adv-x="250" 
 />
    <glyph glyph-name="uniFEFF" unicode="&#xfeff;" 
 />
    <glyph glyph-name="cent" unicode="&#xa2;" horiz-adv-x="471" 
d="M439 105q-49 -19 -94 -22v-83h-96v86q-101 19 -155.5 96.5t-54.5 188.5q0 114 54 191.5t156 93.5v82h96v-81q40 -4 76 -18l11 -120q-51 31 -122 31q-141 0 -141 -179q0 -87 38.5 -133.5t114.5 -46.5q66 0 117 24v-110z" />
    <glyph glyph-name="currency" unicode="&#xa4;" horiz-adv-x="553" 
d="M456 241l75 -75l-77 -75l-76 75q-48 -24 -101 -24q-55 0 -102 25l-76 -76l-77 75l76 76q-26 44 -26 103q0 57 25 102l-75 75l77 75l75 -75q47 25 103 25q55 0 102 -25l75 75l77 -75l-75 -75q26 -44 26 -102q0 -55 -26 -104zM202 267.5q29 -29.5 75 -29.5q47 0 75 28.5
t28 75.5q0 49 -28 78.5t-75 29.5t-75.5 -29t-28.5 -77q0 -47 29 -76.5z" />
    <glyph glyph-name="dollar" unicode="$" horiz-adv-x="533" 
d="M467.5 71q-47.5 -55 -126.5 -74v-98h-96v90q-108 4 -197 41l-11 135q107 -52 206 -52q121 0 121 94q0 36 -29.5 61t-108.5 51q-106 37 -150.5 86t-44.5 126q0 89 57 147.5t157 68.5v92h96v-93q61 -8 111 -32l19 -136q-44 24 -89.5 37t-88.5 13q-51 0 -82 -24.5t-31 -68.5
q0 -38 30 -63.5t108 -51.5q107 -36 152 -85t45 -127q0 -82 -47.5 -137z" />
    <glyph glyph-name="Euro" unicode="&#x20ac;" horiz-adv-x="613" 
d="M583 138v-121q-66 -28 -146 -28q-137 0 -218.5 69t-105.5 196h-91l17 77h65q-1 12 -1 37q0 29 1 43h-82l17 77h76q26 120 104.5 190.5t206.5 70.5q71 0 133 -28l17 -130q-68 38 -141 38q-141 0 -179 -141h219v-77h-231q-1 -14 -1 -43q0 -25 1 -37h231v-77h-219
q19 -72 67 -108.5t128 -36.5q73 0 132 29z" />
    <glyph glyph-name="florin" unicode="&#x192;" horiz-adv-x="492" 
d="M309 462h145v-88h-145v-201q0 -80 -44.5 -132t-146.5 -52q-32 0 -80 10l-16 114q41 -12 76 -12q46 0 64.5 20t18.5 61v192h-85v88h85v110q0 80 44.5 132t146.5 52q40 0 80 -10l16 -114q-37 13 -76 13q-46 0 -64.5 -20t-18.5 -61v-102z" />
    <glyph glyph-name="uni20BA" unicode="&#x20ba;" horiz-adv-x="636" 
d="M612 211q-45 -211 -303 -211h-199v266l-88 -33v81l88 33v95l-88 -33v81l88 33v215h134v-166l184 68v-81l-184 -68v-95l184 68v-81l-184 -68v-195h65q86 0 130 35t61 115z" />
    <glyph glyph-name="uni20B9" unicode="&#x20b9;" horiz-adv-x="545" 
d="M523 661h-149q58 -37 75 -97h74v-77h-64q-2 -76 -46 -128t-127 -78l184 -281h-168l-196 342l61 17q76 20 110.5 48.5t40.5 79.5h-296v77h292q-11 44 -43 70t-84 27h-165v77h501v-77z" />
    <glyph glyph-name="sterling" unicode="&#xa3;" horiz-adv-x="554" 
d="M516 119l-15 -119h-450v94q50 38 73 79t23 81q0 35 -15 75h-94v89h60q-19 55 -19 119q0 57 27 105.5t83 77.5t139 29q73 0 139 -29l18 -130q-70 39 -139 39q-62 0 -94.5 -31t-32.5 -90q0 -31 19 -90h193v-89h-162q12 -39 12 -69q0 -36 -15.5 -72.5t-50.5 -68.5h301z" />
    <glyph glyph-name="yen" unicode="&#xa5;" horiz-adv-x="628" 
d="M605 738l-188 -380h139v-77h-172v-80h172v-77h-172v-124h-134v124h-174v77h174v80h-174v77h138l-192 380h141l157 -337l145 337h140z" />
    <glyph glyph-name="uni2219" unicode="&#x2219;" horiz-adv-x="429" 
d="M146 289.5q-26 25.5 -26 64.5q0 40 26 65.5t68 25.5q43 0 69 -25.5t26 -65.5t-26 -65t-69 -25q-42 0 -68 25.5z" />
    <glyph glyph-name="uni2215" unicode="&#x2215;" horiz-adv-x="539" 
d="M50 0l331 738h108l-331 -738h-108z" />
    <glyph glyph-name="uni208C" unicode="&#x208c;" horiz-adv-x="403" 
d="M50 119v85h303v-85h-303zM50 -19v84h303v-84h-303z" />
    <glyph glyph-name="uni207C" unicode="&#x207c;" horiz-adv-x="403" 
d="M50 753v85h303v-85h-303zM50 615v84h303v-84h-303z" />
    <glyph glyph-name="uni208B" unicode="&#x208b;" horiz-adv-x="403" 
d="M50 48v90h303v-90h-303z" />
    <glyph glyph-name="uni207B" unicode="&#x207b;" horiz-adv-x="403" 
d="M50 682v90h303v-90h-303z" />
    <glyph glyph-name="plus" unicode="+" horiz-adv-x="566" 
d="M516 408v-106h-179v-183h-109v183h-178v106h178v181h109v-181h179z" />
    <glyph glyph-name="minus" unicode="&#x2212;" horiz-adv-x="526" 
d="M50 301v106h426v-106h-426z" />
    <glyph glyph-name="multiply" unicode="&#xd7;" horiz-adv-x="554" 
d="M504 507l-154 -153l154 -152l-74 -74l-153 153l-154 -153l-73 74l153 152l-153 153l73 73l154 -152l153 152z" />
    <glyph glyph-name="divide" unicode="&#xf7;" horiz-adv-x="526" 
d="M211 489.5q-21 21.5 -21 52.5t21 51.5t52 20.5t52 -21t21 -52q0 -30 -21 -51.5t-52 -21.5t-52 21.5zM50 300v106h426v-106h-426zM211 115q-21 21 -21 52q0 30 21 51t52 21t52 -21t21 -51q0 -31 -21 -52t-52 -21t-52 21z" />
    <glyph glyph-name="equal" unicode="=" horiz-adv-x="526" 
d="M50 402v100h426v-100h-426zM50 206v100h426v-100h-426z" />
    <glyph glyph-name="notequal" unicode="&#x2260;" horiz-adv-x="526" 
d="M476 402h-136l-54 -96h190v-100h-247l-61 -108l-69 41l38 67h-87v100h143l55 96h-198v100h254l62 109l70 -40l-39 -69h79v-100z" />
    <glyph glyph-name="greater" unicode="&#x3e;" horiz-adv-x="526" 
d="M50 120v112l302 123v1l-302 122v111l426 -170v-129z" />
    <glyph glyph-name="less" unicode="&#x3c;" horiz-adv-x="526" 
d="M476 120l-426 170v129l426 170v-111l-302 -122v-1l302 -123v-112z" />
    <glyph glyph-name="greaterequal" unicode="&#x2265;" horiz-adv-x="526" 
d="M50 199v99l302 108v2l-302 108v97l426 -148v-115zM50 68v94h426v-94h-426z" />
    <glyph glyph-name="lessequal" unicode="&#x2264;" horiz-adv-x="526" 
d="M476 199l-426 151v115l426 148v-97l-302 -108v-2l302 -108v-99zM476 68h-426v94h426v-94z" />
    <glyph glyph-name="plusminus" unicode="&#xb1;" horiz-adv-x="526" 
d="M209 227v136h-159v103h159v135h107v-135h160v-103h-160v-136h-107zM50 68v104h426v-104h-426z" />
    <glyph glyph-name="approxequal" unicode="&#x2248;" horiz-adv-x="529" 
d="M306 377.5q-22 9.5 -53 32.5q-25 18 -40.5 25.5t-30.5 7.5q-24 0 -38.5 -17t-14.5 -44h-79q0 70 35 113.5t94 43.5q22 0 44.5 -9.5t52.5 -32.5q25 -19 40 -26t29 -7q25 0 39.5 17.5t14.5 45.5h80q0 -71 -35.5 -115t-93.5 -44q-22 0 -44 9.5zM306 178.5q-22 9.5 -53 32.5
q-25 18 -40.5 25t-30.5 7q-25 0 -39 -17t-14 -45h-79q0 72 35 115t94 43q22 0 44 -9.5t53 -32.5q43 -32 69 -32q25 0 39.5 16.5t14.5 45.5h80q0 -71 -35.5 -114.5t-93.5 -43.5q-22 0 -44 9.5z" />
    <glyph glyph-name="asciitilde" unicode="~" horiz-adv-x="623" 
d="M359.5 267.5q-26.5 10.5 -67.5 40.5q-33 24 -50.5 32t-35.5 8q-31 0 -49 -22.5t-18 -60.5h-89q0 57 20.5 99.5t57 66t82.5 23.5q28 0 56 -11.5t66 -40.5q32 -23 49.5 -31.5t35.5 -8.5q30 0 48.5 23.5t18.5 61.5h89q0 -86 -44 -138t-114 -52q-29 0 -55.5 10.5z" />
    <glyph glyph-name="logicalnot" unicode="&#xac;" horiz-adv-x="526" 
d="M372 176v211h-322v107h426v-318h-104z" />
    <glyph glyph-name="infinity" unicode="&#x221e;" horiz-adv-x="823" 
d="M725.5 491q47.5 -51 47.5 -136q0 -86 -47.5 -137.5t-125.5 -51.5q-64 0 -108 30t-83 83q-39 -53 -82 -83t-103 -30q-79 0 -126.5 51.5t-47.5 137.5q0 85 47 136t127 51q58 0 102 -30.5t86 -84.5q42 54 86.5 84.5t101.5 30.5q78 0 125.5 -51zM296.5 290.5
q28.5 22.5 60.5 64.5q-29 41 -57 63t-64 22q-37 0 -59.5 -23.5t-22.5 -61.5q0 -39 22.5 -63t59.5 -24q32 0 60.5 22.5zM646 292q22 24 22 63t-22 62t-59 23q-36 0 -64 -21.5t-58 -61.5q33 -43 61 -66t61 -23q37 0 59 24z" />
    <glyph glyph-name="integral" unicode="&#x222b;" horiz-adv-x="510" 
d="M33 -100l-15 114q43 -13 76 -13q45 0 63 20t20 61l28 490q10 184 192 184q39 0 79 -10l16 -114q-37 13 -76 13q-45 0 -63 -20t-20 -61l-28 -490q-5 -83 -47.5 -133.5t-144.5 -50.5q-38 0 -80 10z" />
    <glyph glyph-name="Omega" unicode="&#x2126;" horiz-adv-x="760" 
d="M678.5 251.5q-32.5 -77.5 -95.5 -132.5h122v-119h-274v108q140 108 140 293q0 109 -48.5 168t-142.5 59t-143 -59t-49 -168q0 -185 141 -293v-108h-275v119h122q-63 55 -95 132.5t-32 168.5q0 93 39.5 168t114.5 118t177 43t177 -43t114.5 -118t39.5 -168
q0 -91 -32.5 -168.5z" />
    <glyph glyph-name="Delta" unicode="&#x2206;" horiz-adv-x="680" 
d="M418 739l245 -739h-646l242 739h159zM192 105h293l-147 497z" />
    <glyph glyph-name="product" unicode="&#x220f;" horiz-adv-x="702" 
d="M680 738v-119h-102v-719h-134v719h-186v-719h-134v719h-102v119h658z" />
    <glyph glyph-name="summation" unicode="&#x2211;" horiz-adv-x="505" 
d="M195 19h288v-119h-445v98l172 331l-166 311v98h433l2 -119h-277l146 -290z" />
    <glyph glyph-name="radical" unicode="&#x221a;" horiz-adv-x="594" 
d="M651 619h-128l-194 -719h-155l-161 557h139l102 -429l168 710h212z" />
    <glyph glyph-name="partialdiff" unicode="&#x2202;" horiz-adv-x="585" 
d="M464 639q76 -110 76 -297q0 -107 -22.5 -177t-66.5 -112q-31 -31 -76 -47.5t-99 -16.5q-74 0 -129 32t-85 89t-30 128q0 73 28.5 127t79 82t114.5 28q94 0 148 -56q-15 210 -177 210q-36 0 -67 -7.5t-66 -25.5l11 129q61 24 131 24q154 0 230 -110zM390 182.5
q9 27.5 9 60.5q0 53 -30.5 86.5t-82.5 33.5q-55 0 -84.5 -35.5t-29.5 -94.5q0 -62 28 -97t84 -35q50 0 80 36q17 18 26 45.5z" />
    <glyph glyph-name="mu" unicode="&#xb5;" horiz-adv-x="625" 
d="M560 557v-557h-119v84q-22 -47 -57.5 -71t-78.5 -24q-68 0 -112 39v-220h-128v749h128v-319q0 -71 26 -110t86 -39q62 0 94.5 42.5t32.5 107.5v318h128z" />
    <glyph glyph-name="percent" unicode="%" horiz-adv-x="921" 
d="M129 392q-40 25 -62 68.5t-22 95.5q0 53 22 96t62.5 68t93.5 25q52 0 92 -25t62 -68t22 -96t-22 -96t-62.5 -68t-94.5 -25q-51 0 -91 25zM178 0l463 738h102l-463 -738h-102zM277 483.5q21 27.5 21 72.5q0 46 -21 73.5t-55 27.5q-35 0 -55.5 -27.5t-20.5 -73.5
q0 -45 20.5 -72.5t54.5 -27.5q35 0 56 27.5zM792 346q40 -25 62 -68.5t22 -95.5q0 -53 -22 -96t-62.5 -68t-93.5 -25q-52 0 -92 25t-62 68t-22 96t22 96t62.5 68t94.5 25q51 0 91 -25zM644 254.5q-21 -27.5 -21 -72.5q0 -46 21 -73.5t55 -27.5t55 27.5t21 73.5
q0 45 -20.5 72.5t-54.5 27.5q-35 0 -56 -27.5z" />
    <glyph glyph-name="perthousand" unicode="&#x2030;" horiz-adv-x="1323" 
d="M129 392q-40 25 -62 68.5t-22 95.5q0 53 22 96t62.5 68t93.5 25q52 0 92 -25t62 -68t22 -96t-22 -96t-62.5 -68t-94.5 -25q-51 0 -91 25zM178 0l463 738h102l-463 -738h-102zM277 483.5q21 27.5 21 72.5q0 46 -21 73.5t-55 27.5q-35 0 -55.5 -27.5t-20.5 -73.5
q0 -45 20.5 -72.5t54.5 -27.5q35 0 56 27.5zM792 346q40 -25 62 -68.5t22 -95.5q0 -53 -22 -96t-62.5 -68t-93.5 -25q-52 0 -92 25t-62 68t-22 96t22 96t62.5 68t94.5 25q51 0 91 -25zM1194.5 346q39.5 -25 61.5 -68.5t22 -95.5q0 -53 -22 -96t-62 -68t-94 -25q-52 0 -92 25
t-62 68t-22 96t22 96t63 68t94 25q52 0 91.5 -25zM644 254.5q-21 -27.5 -21 -72.5q0 -46 21 -73.5t55 -27.5t55 27.5t21 73.5q0 45 -20.5 72.5t-54.5 27.5q-35 0 -56 -27.5zM1046 254.5q-21 -27.5 -21 -72.5q0 -46 21 -73.5t55 -27.5q35 0 56 27.5t21 73.5q0 45 -21 72.5
t-55 27.5q-35 0 -56 -27.5z" />
    <glyph glyph-name="uni208A" unicode="&#x208a;" horiz-adv-x="431" 
d="M381 138v-90h-120v-123h-92v123h-119v90h119v123h92v-123h120z" />
    <glyph glyph-name="uni207A" unicode="&#x207a;" horiz-adv-x="431" 
d="M381 772v-90h-120v-123h-92v123h-119v90h119v123h92v-123h120z" />
    <glyph glyph-name="lozenge" unicode="&#x25ca;" horiz-adv-x="563" 
d="M359 778l191 -438l-191 -440h-155l-191 440l191 438h155zM284 -11l127 351l-132 348l-127 -348z" />
    <glyph glyph-name="at" unicode="@" horiz-adv-x="906" 
d="M678.5 707q90.5 -49 139.5 -137.5t49 -204.5q0 -84 -22.5 -142.5t-62.5 -88t-91 -29.5q-41 0 -70 18t-40 50q-24 -34 -63.5 -51t-85.5 -17q-74 0 -116.5 34.5t-42.5 100.5q0 136 195 144l77 3v29q0 34 -25 50.5t-69 16.5q-37 0 -76.5 -10.5t-76.5 -32.5l15 107
q71 34 152 34q90 0 140 -44.5t50 -121.5v-161q0 -61 49 -61q38 0 60.5 41t22.5 131q0 152 -83 235t-238 83q-103 0 -180 -42t-119 -121t-42 -185t40 -182.5t112.5 -116.5t169.5 -40q99 0 189 45l30 -62q-97 -54 -219 -54t-212.5 48.5t-140 140.5t-49.5 221q0 126 53.5 221.5
t149 147.5t218.5 52q122 0 212.5 -49zM519.5 213q25.5 20 25.5 61v41l-59 -3q-55 -4 -78.5 -20t-23.5 -44q0 -55 67 -55q43 0 68.5 20z" />
    <glyph glyph-name="ampersand" unicode="&#x26;" horiz-adv-x="761" 
d="M571 0l-48 53q-83 -65 -212 -65q-84 0 -144 25t-91 70t-31 104q0 82 44.5 128t123.5 78q-39 47 -56.5 85.5t-17.5 83.5q0 52 25 95t72 67.5t111 24.5q159 0 212 -139l-112 -42q-12 36 -36 56t-60 20q-40 0 -62 -22.5t-22 -57.5q0 -23 7.5 -42t27.5 -44.5t62 -70.5
l148 -162q22 72 20 185h201v-116h-89q-6 -94 -43 -165l137 -149h-167zM446 137l-168 183q-43 -23 -66.5 -51t-23.5 -70q0 -48 35.5 -75t96.5 -27q78 0 126 40z" />
    <glyph glyph-name="paragraph" unicode="&#xb6;" horiz-adv-x="832" 
d="M757 -192h-124v807h-113v-807h-125v807h-53q-85 0 -128 -38t-43 -106q0 -60 35.5 -93t97.5 -33v-127q-84 -1 -145.5 29t-94 87.5t-32.5 135.5t35 138.5t105 95t172 34.5h413v-930z" />
    <glyph glyph-name="section" unicode="&#xa7;" horiz-adv-x="456" 
d="M303 340q0 25 -21 42t-77 35q-86 28 -123 67t-37 98q0 49 26 86.5t73.5 58.5t109.5 21q46 0 80 -7.5t64 -22.5l16 -115q-34 21 -73.5 32t-75.5 11q-39 0 -64 -16t-25 -46q0 -25 22 -42.5t78 -34.5q87 -27 123.5 -64t36.5 -97q0 -33 -11.5 -60.5t-29.5 -43.5l-111 55
q19 19 19 43zM157 292q0 -25 22 -43t79 -35q86 -27 122.5 -65t36.5 -97q0 -53 -27 -91.5t-73.5 -59t-103.5 -20.5q-100 0 -178 33l-11 112q83 -42 165 -42q95 0 95 65q0 24 -21.5 41t-76.5 34q-86 27 -123 65t-37 98q0 31 11.5 57.5t31.5 44.5l106 -56q-18 -22 -18 -41z" />
    <glyph glyph-name="copyright" unicode="&#xa9;" horiz-adv-x="830" 
d="M223.5 40q-84.5 51 -131.5 138t-47 192q0 104 47 190.5t131.5 137.5t191.5 51t191.5 -51t131.5 -137.5t47 -190.5q0 -105 -47 -192t-131.5 -138t-191.5 -51t-191.5 51zM566.5 105.5q65.5 40.5 101.5 110.5t36 154q0 83 -36 152.5t-101.5 110t-151.5 40.5t-151.5 -40.5
t-101 -110t-35.5 -152.5q0 -84 35.5 -154t101 -110.5t151.5 -40.5t151.5 40.5zM322.5 193q-44.5 27 -67.5 73t-23 104q0 90 53 147t150 57q53 0 96 -21l6 -86q-40 27 -95 27q-54 0 -81 -32t-27 -92q0 -59 28.5 -92t83.5 -33q53 0 96 25l1 -79q-47 -25 -113 -25
q-63 0 -107.5 27z" />
    <glyph glyph-name="registered" unicode="&#xae;" horiz-adv-x="568" 
d="M411 717.5q56 -33.5 87 -91t31 -126.5q0 -70 -31 -127.5t-87 -91.5t-127 -34t-127 34t-87 91.5t-31 127.5q0 69 31 126.5t87 91t127 33.5t127 -33.5zM378.5 333.5q40.5 25.5 62.5 69t22 97.5q0 52 -22 95.5t-62.5 68.5t-94.5 25q-53 0 -93.5 -25t-62.5 -68.5t-22 -95.5
q0 -54 22 -97.5t62.5 -69t93.5 -25.5q54 0 94.5 25.5zM378 491.5q-14 -21.5 -40 -31.5l58 -94h-70l-46 85h-24v-85h-62v267h93q49 0 77 -25t28 -66q0 -29 -14 -50.5zM256 503h29q43 0 43 39q0 41 -43 41h-29v-80z" />
    <glyph glyph-name="uni2117" unicode="&#x2117;" horiz-adv-x="830" 
d="M606.5 698q84.5 -51 131.5 -137.5t47 -190.5q0 -105 -47 -192t-131.5 -138t-191.5 -51t-191.5 51t-131.5 138t-47 192q0 104 47 190.5t131.5 137.5t191.5 51t191.5 -51zM566.5 105.5q65.5 40.5 101.5 110.5t36 154q0 83 -36 152.5t-101.5 110t-151.5 40.5t-151.5 -40.5
t-101 -110t-35.5 -152.5q0 -84 35.5 -154t101 -110.5t151.5 -40.5t151.5 40.5zM547.5 533.5q41.5 -37.5 41.5 -99.5t-41.5 -99t-116.5 -37h-54v-131h-77v404h133q73 0 114.5 -37.5zM509 434q0 36 -20.5 54.5t-59.5 18.5h-52v-145h52q80 0 80 72z" />
    <glyph glyph-name="trademark" unicode="&#x2122;" horiz-adv-x="982" 
d="M386 738v-97h-126v-346h-111v346h-127v97h364zM945 295h-101l-28 264l-96 -264h-72l-96 265l-28 -265h-102l49 443h117l96 -281l96 281h116z" />
    <glyph glyph-name="degree" unicode="&#xb0;" horiz-adv-x="393" 
d="M117 455q-36 21 -57 57.5t-21 79.5t21 79t57 57t79 21t79.5 -21t57.5 -57t21 -79t-21 -79.5t-57.5 -57.5t-79.5 -21t-79 21zM238.5 546q16.5 17 16.5 46t-16.5 46t-42.5 17q-25 0 -42 -17t-17 -46t17 -46t42 -17q26 0 42.5 17z" />
    <glyph glyph-name="bar" unicode="|" horiz-adv-x="294" 
d="M90 -100v908h113v-908h-113z" />
    <glyph glyph-name="brokenbar" unicode="&#xa6;" horiz-adv-x="294" 
d="M90 495v313h113v-313h-113zM90 -100v313h113v-313h-113z" />
    <glyph glyph-name="dagger" unicode="&#x2020;" horiz-adv-x="563" 
d="M349 557h177v-118h-177v-631h-135v631h-176v118h176v181h135v-181z" />
    <glyph glyph-name="uni2113" unicode="&#x2113;" horiz-adv-x="482" 
d="M433 87q-24 -50 -62.5 -74.5t-93.5 -24.5q-64 0 -105.5 33.5t-63.5 108.5q-52 -18 -54 -19l-32 102q40 13 66 25q-6 59 -6 134q0 192 44.5 284.5t143.5 92.5q78 0 119 -57t41 -151q0 -228 -208 -355q10 -50 26 -70t39 -20q19 0 34 11t28 37zM211 314q47 43 69.5 100.5
t22.5 133.5q0 48 -9 70t-28 22q-29 0 -42.5 -61t-13.5 -207q0 -40 1 -58z" />
    <glyph glyph-name="daggerdbl" unicode="&#x2021;" horiz-adv-x="563" 
d="M526 439h-177v-320h177v-119h-177v-192h-135v192h-176v119h176v320h-176v118h176v181h135v-181h177v-118z" />
    <glyph glyph-name="estimated" unicode="&#x212e;" horiz-adv-x="933" 
d="M688.5 692q94.5 -53 144 -142t49.5 -196h-663q-6 0 -10 -4t-4 -9v-181q0 -17 3.5 -27.5t12.5 -19.5q101 -99 246 -99q78 0 146.5 32.5t112.5 86.5h74q-42 -60 -127 -103t-206 -43q-124 0 -218.5 48.5t-146 134.5t-51.5 195q0 107 50.5 193.5t145 136.5t220.5 50
q127 0 221.5 -53zM221 617q-9 -9 -12.5 -19t-3.5 -26v-180q0 -7 4 -10.5t10 -3.5h493q15 0 15 14v180q0 16 -3.5 26t-13.5 19q-102 101 -243 101q-143 0 -246 -101z" />
    <glyph glyph-name="asciicircum" unicode="^" horiz-adv-x="565" 
d="M50 225l160 268h138l167 -268h-121l-113 164h-2l-107 -164h-122z" />
    <glyph glyph-name="dieresiscomb" unicode="&#x308;" 
d="M-322 629q-17 19 -17 47t17 46.5t44 18.5t44 -18.5t17 -46.5t-17 -47t-44 -19t-44 19zM-155 629q-17 19 -17 47t17 46.5t44 18.5t44 -18.5t17 -46.5t-17 -47t-44 -19t-44 19z" />
    <glyph glyph-name="dotaccentcomb" unicode="&#x307;" 
d="M-173.5 628q-19.5 20 -19.5 48q0 29 19.5 48t51.5 19q33 0 52.5 -19t19.5 -48t-19.5 -48.5t-52.5 -19.5q-32 0 -51.5 20z" />
    <glyph glyph-name="gravecomb" unicode="&#x300;" 
d="M-50 608h-113l-111 130h151z" />
    <glyph glyph-name="acutecomb" unicode="&#x301;" 
d="M-274 608l72 130h152l-111 -130h-113z" />
    <glyph glyph-name="hungarumlautcomb" unicode="&#x30b;" 
d="M-389 601l29 137h128l-67 -137h-90zM-229 601l51 137h128l-89 -137h-90z" />
    <glyph glyph-name="caroncomb.alt" 
d="M-161 590v148h111l-32 -148h-79z" />
    <glyph glyph-name="circumflexcomb" unicode="&#x302;" 
d="M-50 608h-105l-57 62l-57 -62h-105l87 130h150z" />
    <glyph glyph-name="caroncomb" unicode="&#x30c;" 
d="M-155 738h105l-87 -130h-150l-87 130h105l57 -62z" />
    <glyph glyph-name="brevecomb" unicode="&#x306;" 
d="M-268.5 638.5q-34.5 31.5 -35.5 99.5h76q1 -25 13.5 -36t37.5 -11t37.5 11t13.5 36h76q-1 -68 -35.5 -99.5t-91.5 -31.5t-91.5 31.5z" />
    <glyph glyph-name="ringcomb" unicode="&#x30a;" 
d="M-230.5 633.5q-29.5 28.5 -29.5 72.5t29.5 72t75.5 28t75.5 -28t29.5 -72t-29.5 -72.5t-75.5 -28.5t-75.5 28.5zM-126.5 674.5q10.5 12.5 10.5 31.5t-10.5 31t-28.5 12t-28.5 -12t-10.5 -31t10.5 -31.5t28.5 -12.5t28.5 12.5z" />
    <glyph glyph-name="tildecomb" unicode="&#x303;" 
d="M-311 676q8 29 28 43.5t44 14.5q19 0 32.5 -7t31.5 -20q22 -18 35 -18q21 0 21 45h69q0 -42 -7 -69q-8 -32 -28.5 -47.5t-44.5 -15.5q-19 0 -32.5 7t-31.5 20q-22 18 -35 18q-21 0 -21 -45h-69q0 45 8 74z" />
    <glyph glyph-name="macroncomb" unicode="&#x304;" 
d="M-265 726h215v-93h-215v93z" />
    <glyph glyph-name="commaturnedabovecomb" unicode="&#x312;" 
d="M-69 696.5q14 -15.5 14 -37.5q0 -25 -18.5 -43.5t-49.5 -18.5q-33 0 -52.5 19.5t-19.5 54.5q0 46 27 78t87 32q19 0 29 -2l2 -43q-16 2 -22 2q-19 0 -28.5 -6t-12.5 -20h4q26 0 40 -15.5z" />
    <glyph glyph-name="uni0313" unicode="&#x313;" 
d="M-69.5 763.5q19.5 -19.5 19.5 -54.5q0 -45 -27 -77.5t-87 -32.5q-9 0 -29 2l-2 44q8 -2 22 -2q19 0 28.5 6t12.5 19h-4q-26 0 -40 15.5t-14 37.5q0 26 18.5 44t49.5 18q33 0 52.5 -19.5z" />
    <glyph glyph-name="commaaccent" unicode="&#x326;" 
d="M-69.5 -57.5q19.5 -19.5 19.5 -54.5q0 -45 -27 -77.5t-87 -32.5q-9 0 -29 2l-2 44q16 -2 22 -2q19 0 28.5 6t12.5 19h-4q-26 0 -40 15.5t-14 37.5q0 26 18.5 44t49.5 18q33 0 52.5 -19.5z" />
    <glyph glyph-name="cedillacomb" unicode="&#x327;" 
d="M-190 -187l21 147h119l-51 -147h-89z" />
    <glyph glyph-name="ogonekcomb" unicode="&#x328;" 
d="M-146.5 -32q-17.5 -19 -17.5 -37q0 -16 10 -22.5t32 -6.5q38 0 72 15l-10 -75q-43 -17 -83 -17q-52 0 -80 20.5t-28 56.5q0 35 30 64t111 72l25 -20q-44 -31 -61.5 -50z" />
    <glyph glyph-name="uni0335" unicode="&#x335;" 
d="M-404 344h354v-72h-354v72z" />
    <glyph glyph-name="uni0337" unicode="&#x337;" 
d="M-180 376l130 100v-104l-130 -101v9l-131 -100v104l131 100v-8z" />
    <glyph glyph-name="uni0338" unicode="&#x338;" 
d="M-493 -2l-55 47l442 514l56 -47z" />
    <glyph glyph-name="uni0308.case" 
d="M-318.5 789.5q-15.5 14.5 -15.5 36.5t15.5 36.5t43.5 14.5q29 0 45 -14t16 -37q0 -22 -16 -36.5t-45 -14.5q-28 0 -43.5 14.5zM-154 789.5q-16 14.5 -16 36.5t16 36.5t44 14.5t44 -14t16 -37q0 -22 -16 -36.5t-44 -14.5t-44 14.5z" />
    <glyph glyph-name="uni0307.case" 
d="M-173.5 799.5q-19.5 19.5 -19.5 47.5t19 47t52 19q34 0 53 -19t19 -47t-19 -47.5t-53 -19.5q-32 0 -51.5 19.5z" />
    <glyph glyph-name="gravecomb.case" 
d="M-50 775h-116l-99 109h155z" />
    <glyph glyph-name="acutecomb.case" 
d="M-265 775l60 109h155l-98 -109h-117z" />
    <glyph glyph-name="uni030B.case" 
d="M-386 773l27 110h127l-63 -110h-91zM-229 773l52 110h127l-88 -110h-91z" />
    <glyph glyph-name="uni0302.case" 
d="M-50 774h-105l-49 50l-50 -50h-105l80 110h150z" />
    <glyph glyph-name="uni030C.case" 
d="M-155 883h105l-79 -110h-150l-80 110h105l50 -50z" />
    <glyph glyph-name="uni0306.case" 
d="M-274 801.5q-34 28.5 -37 81.5h78q9 -38 53 -38q43 0 52 38h78q-3 -53 -36.5 -81.5t-93.5 -28.5t-94 28.5z" />
    <glyph glyph-name="uni030A.case" 
d="M-218.5 781q-27.5 24 -27.5 61q0 36 28 59.5t71 23.5q42 0 69.5 -23.5t27.5 -59.5q0 -37 -27.5 -61t-69.5 -24q-44 0 -71.5 24zM-118 815.5q11 10.5 11 26.5q0 15 -11 25.5t-29 10.5q-19 0 -30 -10t-11 -26t11 -26.5t30 -10.5q18 0 29 10.5z" />
    <glyph glyph-name="tildecomb.case" 
d="M-342 815q2 15 8 30q20 50 73 50q23 0 39 -6t34 -17q9 -5 19.5 -9.5t19.5 -4.5q22 0 22 37h77q0 -32 -6 -58q-9 -31 -30 -45.5t-48 -14.5q-22 0 -38 5.5t-35 16.5q-9 5 -19.5 9.5t-19.5 4.5q-21 0 -21 -36h-77q0 23 2 38z" />
    <glyph glyph-name="uni0304.case" 
d="M-295 869h245v-79h-245v79z" />
    <glyph glyph-name="uni0335.case" 
d="M-384 359h334v-102h-334v102z" />
    <glyph glyph-name="uni0336.case" 
d="M-484 352h434v-88h-434v88z" />
    <glyph glyph-name="uni0337.case" 
d="M-254 363l204 168v-120l-204 -168v120z" />
    <glyph glyph-name="uni0338.case" 
d="M-632 0l-63 52l582 686l63 -52z" />
    <glyph glyph-name="uni0307.i" 
d="M-186.5 669q-20.5 19 -20.5 50q0 32 20.5 50.5t58.5 18.5q37 0 57.5 -18.5t20.5 -50.5q0 -31 -20.5 -50t-57.5 -19q-38 0 -58.5 19z" />
    <glyph glyph-name="uni02BC" unicode="&#x2bc;" horiz-adv-x="270" 
d="M198 725q22 -24 22 -64q0 -61 -38 -110.5t-106 -64.5l-27 48q62 22 75 69q-28 1 -45 21.5t-17 49.5q0 32 21 53.5t57 21.5t58 -24z" />
    <glyph glyph-name="uni02C9" unicode="&#x2c9;" horiz-adv-x="315" 
d="M50 726h215v-93h-215v93z" />
    <glyph glyph-name="acute" unicode="&#xb4;" horiz-adv-x="324" 
d="M50 608l72 130h152l-111 -130h-113z" />
    <glyph glyph-name="breve" unicode="&#x2d8;" horiz-adv-x="354" 
d="M85.5 638.5q-34.5 31.5 -35.5 99.5h76q1 -25 13.5 -36t37.5 -11t37.5 11t13.5 36h76q-1 -68 -35.5 -99.5t-91.5 -31.5t-91.5 31.5z" />
    <glyph glyph-name="caron" unicode="&#x2c7;" horiz-adv-x="424" 
d="M269 738h105l-87 -130h-150l-87 130h105l57 -62z" />
    <glyph glyph-name="cedilla" unicode="&#xb8;" horiz-adv-x="240" 
d="M50 -187l21 147h119l-51 -147h-89z" />
    <glyph glyph-name="circumflex" unicode="&#x2c6;" horiz-adv-x="424" 
d="M374 608h-105l-57 62l-57 -62h-105l87 130h150z" />
    <glyph glyph-name="dieresis" unicode="&#xa8;" horiz-adv-x="389" 
d="M67 629q-17 19 -17 47t17 46.5t44 18.5t44 -18.5t17 -46.5t-17 -47t-44 -19t-44 19zM234 629q-17 19 -17 47t17 46.5t44 18.5t44 -18.5t17 -46.5t-17 -47t-44 -19t-44 19z" />
    <glyph glyph-name="dotaccent" unicode="&#x2d9;" horiz-adv-x="243" 
d="M70 628q-20 20 -20 48q0 29 19.5 48t51.5 19q33 0 52.5 -19t19.5 -48t-19.5 -48.5t-52.5 -19.5q-31 0 -51 20z" />
    <glyph glyph-name="grave" unicode="`" horiz-adv-x="324" 
d="M274 608h-113l-111 130h151z" />
    <glyph glyph-name="hungarumlaut" unicode="&#x2dd;" horiz-adv-x="439" 
d="M50 601l29 137h128l-67 -137h-90zM210 601l51 137h128l-89 -137h-90z" />
    <glyph glyph-name="macron" unicode="&#xaf;" horiz-adv-x="315" 
d="M50 726h215v-93h-215v93z" />
    <glyph glyph-name="ogonek" unicode="&#x2db;" horiz-adv-x="301" 
d="M154.5 -32q-17.5 -19 -17.5 -37q0 -16 10 -22.5t32 -6.5q38 0 72 15l-10 -75q-42 -17 -83 -17q-52 0 -80 20.5t-28 56.5q0 35 30 64t111 72l25 -20q-44 -31 -61.5 -50z" />
    <glyph glyph-name="ring" unicode="&#x2da;" horiz-adv-x="310" 
d="M79.5 633.5q-29.5 28.5 -29.5 72.5t29.5 72t75.5 28t75.5 -28t29.5 -72t-29.5 -72.5t-75.5 -28.5t-75.5 28.5zM183.5 674.5q10.5 12.5 10.5 31.5t-10.5 31t-28.5 12t-28.5 -12t-10.5 -31t10.5 -31.5t28.5 -12.5t28.5 12.5z" />
    <glyph glyph-name="tilde" unicode="&#x2dc;" horiz-adv-x="369" 
d="M71.5 702q24.5 32 58.5 32q19 0 32.5 -7t31.5 -20q22 -18 35 -18q21 0 21 45h69q3 -68 -21 -100t-59 -32q-19 0 -32.5 7t-31.5 20q-22 18 -35 18q-21 0 -21 -45h-69q-3 68 21.5 100z" />
    <glyph glyph-name="caron.alt" horiz-adv-x="424" 
d="M269 738h105l-87 -130h-150l-87 130h105l57 -62z" />
    <glyph glyph-name="acute.case" horiz-adv-x="315" 
d="M50 775l60 109h155l-98 -109h-117z" />
    <glyph glyph-name="breve.case" horiz-adv-x="361" 
d="M87 801.5q-34 28.5 -37 81.5h78q9 -38 53 -38q43 0 52 38h78q-3 -53 -36.5 -81.5t-93.5 -28.5t-94 28.5z" />
    <glyph glyph-name="caron.case" horiz-adv-x="409" 
d="M254 883h105l-79 -110h-150l-80 110h105l50 -50z" />
    <glyph glyph-name="circumflex.case" horiz-adv-x="409" 
d="M359 774h-105l-49 50l-50 -50h-105l80 110h150z" />
    <glyph glyph-name="dieresis.case" horiz-adv-x="384" 
d="M65.5 789.5q-15.5 14.5 -15.5 36.5t15.5 36.5t43.5 14.5q29 0 45 -14t16 -37q0 -22 -16 -36.5t-45 -14.5q-28 0 -43.5 14.5zM230 789.5q-16 14.5 -16 36.5t16 36.5t44 14.5t44 -14t16 -37q0 -22 -16 -36.5t-44 -14.5t-44 14.5z" />
    <glyph glyph-name="dotaccent.case" horiz-adv-x="243" 
d="M69.5 799.5q-19.5 19.5 -19.5 47.5t19 47t52 19q34 0 53 -19t19 -47t-19 -47.5t-53 -19.5q-32 0 -51.5 19.5z" />
    <glyph glyph-name="grave.case" horiz-adv-x="315" 
d="M265 775h-116l-99 109h155z" />
    <glyph glyph-name="hungarumlaut.case" horiz-adv-x="436" 
d="M50 773l27 110h127l-63 -110h-91zM207 773l52 110h127l-88 -110h-91z" />
    <glyph glyph-name="macron.case" horiz-adv-x="345" 
d="M50 869h245v-79h-245v79z" />
    <glyph glyph-name="ring.case" horiz-adv-x="296" 
d="M77.5 781q-27.5 24 -27.5 61q0 36 28 59.5t71 23.5q42 0 69.5 -23.5t27.5 -59.5q0 -37 -27.5 -61t-69.5 -24q-44 0 -71.5 24zM178 815.5q11 10.5 11 26.5q0 15 -11 25.5t-29 10.5q-19 0 -30 -10t-11 -26t11 -26.5t30 -10.5q18 0 29 10.5z" />
    <glyph glyph-name="tilde.case" horiz-adv-x="394" 
d="M72 866.5q25 28.5 61 28.5q23 0 39 -6t34 -17q9 -5 19.5 -9.5t19.5 -4.5q22 0 22 37h77q3 -61 -22 -89.5t-62 -28.5q-22 0 -38 5.5t-35 16.5q-9 5 -19.5 9.5t-19.5 4.5q-21 0 -21 -36h-77q-3 61 22 89.5z" />
    <glyph glyph-name="tonos.case" horiz-adv-x="211" 
d="M50 590v148h111l-32 -148h-79z" />
    <glyph glyph-name="brevecy.case" horiz-adv-x="361" 
d="M87 801.5q-34 28.5 -37 81.5h78q9 -38 53 -38q43 0 52 38h78q-3 -53 -36.5 -81.5t-93.5 -28.5t-94 28.5z" />
    <glyph glyph-name="brevecy" horiz-adv-x="354" 
d="M85.5 638.5q-34.5 31.5 -35.5 99.5h76q1 -25 13.5 -36t37.5 -11t37.5 11t13.5 36h76q-1 -68 -35.5 -99.5t-91.5 -31.5t-91.5 31.5z" />
    <glyph glyph-name="uni2011" unicode="&#x2011;" horiz-adv-x="354" 
d="M19 369h316v-99h-316v99z" />
    </font>
</defs>
</svg>
