<svg width="60" height="53" viewBox="0 0 60 53" xmlns="http://www.w3.org/2000/svg">
  <title>
    Love_Heart
  </title>
  <path d="M27.637 50.033c-1.292-1.422-4.516-4.194-7.166-6.16-7.851-5.824-8.92-6.667-12.107-9.551C2.487 29.006-.01 23.664 0 16.422c.004-3.535.25-4.897 1.257-6.981 1.71-3.536 4.228-6.163 7.448-7.77C10.985.533 12.111.028 15.92.007c3.984-.022 4.822.435 7.166 1.7 2.852 1.539 5.788 4.829 6.395 7.166l.374 1.444.925-1.988c5.223-11.235 21.9-11.067 27.703.279 1.841 3.6 2.043 11.284.41 15.613-2.129 5.647-6.129 9.952-15.375 16.55-6.064 4.326-12.927 10.872-13.404 11.791-.555 1.068-.027.167-2.476-2.529z" fill="#eb1701" fill-rule="nonzero"/>
</svg>
