<?xml version="1.0" encoding="utf-8"?>
<!-- Generator: Adobe Illustrator 23.0.2, SVG Export Plug-In . SVG Version: 6.00 Build 0)  -->
<svg version="1.1" id="Layer_1" xmlns="http://www.w3.org/2000/svg" xmlns:xlink="http://www.w3.org/1999/xlink" x="0px" y="0px"
	 viewBox="0 0 160 160" style="enable-background:new 0 0 160 160;" xml:space="preserve">
<style type="text/css">
	.st0{fill:none;}
	.st1{fill:#FFFFFF;}
</style>
<g>
	<circle class="st0" cx="80" cy="80" r="71.5"/>
	<path class="st1" d="M80,158.5c-43.3,0-78.5-35.2-78.5-78.5S36.7,1.5,80,1.5s78.5,35.2,78.5,78.5S123.3,158.5,80,158.5z M80,8.5
		C40.6,8.5,8.5,40.6,8.5,80c0,39.4,32.1,71.5,71.5,71.5c39.4,0,71.5-32.1,71.5-71.5C151.5,40.6,119.4,8.5,80,8.5z"/>
	<g>
		<polygon class="st1" points="101.6,111.8 94.5,104.7 119.2,80 94.5,55.3 101.6,48.2 133.4,80 		"/>
		<polygon class="st1" points="58.4,111.8 26.6,80 58.4,48.2 65.5,55.3 40.8,80 65.5,104.7 		"/>
	</g>
</g>
</svg>
