<?xml version="1.0" encoding="utf-8"?>
<!-- Generator: Adobe Illustrator 21.1.0, SVG Export Plug-In . SVG Version: 6.00 Build 0)  -->
<svg version="1.1" id="Layer_1" xmlns="http://www.w3.org/2000/svg" xmlns:xlink="http://www.w3.org/1999/xlink" x="0px" y="0px"
	 viewBox="0 0 32 32" style="enable-background:new 0 0 32 32;" xml:space="preserve">
<path d="M30.7,2H1.4C0.6,2,0,2.5,0,3.2v20c0,0.7,0.6,1.2,1.3,1.2h2.9l4.3,5.2C8.9,29.9,9.1,30,9.4,30c0.3,0,0.5-0.1,0.7-0.4l4.4-5.2
	h16.2c0.7,0,1.3-0.5,1.3-1.2v-20C32,2.5,31.4,2,30.7,2z M25,14.2H7c-0.5,0-1-0.5-1-1s0.5-1,1-1h18c0.5,0,1,0.5,1,1
	S25.5,14.2,25,14.2z M25,19.2H7c-0.5,0-1-0.5-1-1s0.5-1,1-1h18c0.5,0,1,0.5,1,1S25.5,19.2,25,19.2z M25,9.2H7c-0.5,0-1-0.5-1-1
	s0.5-1,1-1h18c0.5,0,1,0.5,1,1S25.5,9.2,25,9.2z"/>
</svg>
