<?xml version="1.0" encoding="utf-8"?>
<!-- Generator: Adobe Illustrator 21.0.2, SVG Export Plug-In . SVG Version: 6.00 Build 0)  -->
<svg version="1.1" id="Layer_1" xmlns="http://www.w3.org/2000/svg" xmlns:xlink="http://www.w3.org/1999/xlink" x="0px" y="0px"
	 viewBox="0 0 256 256" style="enable-background:new 0 0 256 256;" xml:space="preserve">
<path d="M128,0C57.3,0,0,57.3,0,128s57.3,128,128,128s128-57.3,128-128S198.7,0,128,0z M172.7,61.1c0,0-20.2-3.5-24.9,2.2
	c-6.9,3.5-4.7,25.9-4.7,25.9h25.2v22.7H143v100.6h-30V111.9H94.5V89.2h18.9c-1.7,0,0.9-22.2,1.1-24.3c1.1-11.2,9.3-21,19.9-24.6
	c14.5-5,27.7-2.2,42.1,1.3C175.2,48.1,173.9,54.6,172.7,61.1z"/>
</svg>
