<?xml version="1.0" encoding="utf-8"?>
<!-- Generator: Adobe Illustrator 21.1.0, SVG Export Plug-In . SVG Version: 6.00 Build 0)  -->
<svg version="1.1" id="Layer_1" xmlns="http://www.w3.org/2000/svg" xmlns:xlink="http://www.w3.org/1999/xlink" x="0px" y="0px"
	 viewBox="0 0 32 32" style="enable-background:new 0 0 32 32;" xml:space="preserve">
<title>Icon/Gallery</title>
<desc>Created with Sketch.</desc>
<g id="Icon_x2F_Gallery">
	<path id="Fill-1" d="M16.1,24.8c-4,0-7.2-3.2-7.2-7.2s3.2-7.2,7.2-7.2s7.2,3.2,7.2,7.2C23.2,21.4,20.1,24.8,16.1,24.8 M29.8,7.4
		h-8.1L20.9,5c0-0.5-0.3-1-0.8-1h-7.5c-0.5,0-1,0.5-1,1l-0.5,2.4H2.4c-1.3,0-2.2,0.8-2.2,2.1v16c0,1.3,1,2.6,2.2,2.6h27.3
		c1.3,0,2.2-1.3,2.2-2.6v-16C32,8.2,31.1,7.4,29.8,7.4 M16.1,13c-2.4,0-4.5,2.1-4.5,4.5s1.9,4.5,4.5,4.5s4.5-1.9,4.5-4.5
		C20.5,15,18.5,13,16.1,13"/>
</g>
</svg>
