<?xml version="1.0" encoding="utf-8"?>
<!-- Generator: Adobe Illustrator 21.1.0, SVG Export Plug-In . SVG Version: 6.00 Build 0)  -->
<svg version="1.1" id="Layer_1" xmlns="http://www.w3.org/2000/svg" xmlns:xlink="http://www.w3.org/1999/xlink" x="0px" y="0px"
	 viewBox="0 0 32 32" style="enable-background:new 0 0 32 32;" xml:space="preserve">
<title>Icon/Share/Mail</title>
<desc>Created with Sketch.</desc>
<path d="M16,0C7.1,0,0,7.1,0,16s7.1,16,16,16s16-7.1,16-16S24.8,0,16,0z M9.6,11h12.7c0.2,0,0.5,0,0.7,0.1l-7,5.3l-7-5.3
	C9.2,11,9.4,11,9.6,11z M8.4,21.1C8.2,20.8,8,20.5,8,20v-7.4c0-0.4,0.2-0.8,0.4-1.1c0,0,0,0,0,0.1l6.2,4.7L8.4,21.1
	C8.5,21.1,8.4,21.1,8.4,21.1z M22.4,21.7H9.6c-0.2,0-0.4,0-0.6-0.1l6.2-4.8l0.5,0.4c0.1,0,0.1,0.1,0.2,0.1s0.1,0,0.2-0.1l0.5-0.4
	l6.2,4.8C22.8,21.6,22.6,21.7,22.4,21.7z M24,20c0,0.4-0.2,0.8-0.4,1.1l0,0l-6.2-4.7l6.2-4.7c0,0,0,0,0-0.1c0.3,0.3,0.4,0.7,0.4,1.1
	C24,12.7,24,20,24,20z"/>
</svg>
