<?xml version="1.0" encoding="utf-8"?>
<!-- Generator: Adobe Illustrator 21.1.0, SVG Export Plug-In . SVG Version: 6.00 Build 0)  -->
<svg version="1.1" id="Layer_1" xmlns="http://www.w3.org/2000/svg" xmlns:xlink="http://www.w3.org/1999/xlink" x="0px" y="0px"
	 viewBox="0 0 32 32" style="enable-background:new 0 0 32 32;" xml:space="preserve">
<title>Icon/Search</title>
<desc>Created with Sketch.</desc>
<g id="Symbols">
	<g id="Icon_x2F_Search">
		<g id="Search" transform="translate(6.000000, 6.000000)">
			<g id="Layer_1_1_">
				<path id="Shape" d="M25.1,21l-8.5-8.3c1.3-1.9,2-4.1,2-6.6c0-6.5-5.5-11.8-12.3-11.8S-5.8-0.4-5.8,6.1s5.5,11.8,12.1,11.8
					c2,0,3.9-0.5,5.7-1.3l8.8,8.5c0,0,1.4,1.4,2.8,0l1.4-1.4C26.5,22.3,25.1,21,25.1,21L25.1,21z M6.4,13.9c-4.6,0-8.2-3.5-8.2-7.9
					s3.6-7.9,8.2-7.9s8.2,3.5,8.2,7.9S10.9,13.9,6.4,13.9L6.4,13.9z"/>
			</g>
		</g>
	</g>
</g>
</svg>
