<?xml version="1.0" encoding="utf-8"?>
<!-- Generator: Adobe Illustrator 21.0.2, SVG Export Plug-In . SVG Version: 6.00 Build 0)  -->
<svg version="1.1" id="Layer_1" xmlns="http://www.w3.org/2000/svg" xmlns:xlink="http://www.w3.org/1999/xlink" x="0px" y="0px"
	 viewBox="0 0 256 256" style="enable-background:new 0 0 256 256;" xml:space="preserve">
<path d="M128,0C57.3,0,0,57.3,0,128s57.3,128,128,128s128-57.3,128-128S198.7,0,128,0z M198.8,91.6c0,1.6,0,3.2,0,4.8
	c0,48-36.8,104-104,104c-20.8,0-40-6.4-56-16c3.2,0,5.6,0.8,8.8,0.8c16.8,0,32.8-5.6,45.6-16c-16,0-29.6-11.2-34.4-25.6
	c2.4,0.8,4.8,0.8,7.2,0.8c3.2,0,6.4-0.8,9.6-1.6c-16.8-3.2-29.6-18.4-29.6-36V106c4.8,2.4,10.4,4,16.8,4.8c-9.6-6.4-16-17.6-16-30.4
	c0-6.4,1.6-12.8,4.8-18.4c17.6,22.4,44.8,36.8,75.2,38.4c-0.8-2.4-0.8-5.6-0.8-8c0-20,16-36.8,36.8-36.8c10.4,0,20,4.8,26.4,11.2
	c8-1.6,16-4.8,23.2-8.8c-2.4,8.8-8.8,16-16,20c7.2-0.8,14.4-3.2,20.8-5.6C212.4,79.6,206,86,198.8,91.6z"/>
</svg>
