<?xml version="1.0" encoding="utf-8"?>
<!-- Generator: Adobe Illustrator 21.0.2, SVG Export Plug-In . SVG Version: 6.00 Build 0)  -->
<svg version="1.1" id="Layer_1" xmlns="http://www.w3.org/2000/svg" xmlns:xlink="http://www.w3.org/1999/xlink" x="0px" y="0px"
	 viewBox="0 0 256 256" style="enable-background:new 0 0 256 256;" xml:space="preserve">
<g>
	<g>
		<path d="M128,0C57.3,0,0,57.3,0,128s57.3,128,128,128s128-57.3,128-128S198.7,0,128,0z M128.3,209.1
			C128.3,209.1,128.3,209.1,128.3,209.1L128.3,209.1c-13.7,0-27.2-3.4-39.1-10l-43.3,11.4l11.6-42.4c-7.2-12.4-10.9-26.5-10.9-40.9
			c0-45.1,36.7-81.8,81.8-81.8c21.9,0,42.4,8.5,57.8,24c15.4,15.5,23.9,36,23.9,57.8C210.1,172.4,173.4,209.1,128.3,209.1z"/>
	</g>
	<g>
		<path d="M128.4,62.3c-35.8,0-65,29.1-65,65c0,12.3,3.4,24.2,9.9,34.6l1.5,2.5l-6.6,24l24.6-6.5l2.4,1.4c10,5.9,21.4,9.1,33.1,9.1
			h0c35.8,0,65-29.1,65-65c0-17.4-6.7-33.7-19-46C162.1,69,145.7,62.3,128.4,62.3z M166.6,155.2c-1.6,4.6-9.4,8.7-13.2,9.3
			c-3.4,0.5-7.6,0.7-12.3-0.8c-2.8-0.9-6.5-2.1-11.1-4.1c-19.6-8.5-32.4-28.2-33.4-29.5c-1-1.3-8-10.6-8-20.2c0-9.6,5-14.3,6.8-16.3
			c1.8-2,3.9-2.4,5.2-2.4c1.3,0,2.6,0,3.7,0.1c1.2,0.1,2.8-0.5,4.4,3.4c1.6,3.9,5.5,13.5,6,14.5c0.5,1,0.8,2.1,0.2,3.4
			c-0.7,1.3-1,2.1-2,3.3c-1,1.1-2.1,2.5-2.9,3.4c-1,1-2,2-0.9,4c1.1,2,5.1,8.4,10.9,13.5c7.5,6.7,13.8,8.7,15.7,9.7
			c2,1,3.1,0.8,4.2-0.5c1.1-1.3,4.9-5.7,6.2-7.7c1.3-2,2.6-1.6,4.4-1c1.8,0.7,11.4,5.4,13.3,6.4c2,1,3.3,1.5,3.7,2.3
			C168.2,146.7,168.2,150.6,166.6,155.2z"/>
	</g>
</g>
</svg>
