<?xml version="1.0" standalone="no"?>
<!DOCTYPE svg PUBLIC "-//W3C//DTD SVG 1.1//EN" "http://www.w3.org/Graphics/SVG/1.1/DTD/svg11.dtd" >
<svg>
<metadata>
Created by FontForge 20090622 at Wed Aug 30 12:42:37 2017
 By deploy user
Copyright &#194;&#169; 2016 News UK &#38; Ireland Ltd. All rights reserved.
</metadata>
<defs>
<font id="TheSun-Bold" horiz-adv-x="0" >
  <font-face 
    font-family="The Sun"
    font-weight="700"
    font-stretch="normal"
    units-per-em="1000"
    panose-1="2 11 8 4 2 2 4 2 2 4"
    ascent="800"
    descent="-200"
    x-height="559"
    cap-height="738"
    bbox="-705 -289 1302 1072"
    underline-thickness="50"
    underline-position="-50"
    unicode-range="U+000D-U+FEFF"
  />
<missing-glyph horiz-adv-x="489" 
d="M0 778h489v-778h-489v778zM117 114h255v550h-255v-550z" />
    <glyph glyph-name="ff" unicode="ff" horiz-adv-x="812" 
d="M246 559h140v-118h-140v-441h-148v441h-80v118h80v39q0 83 45 137.5t150 54.5q38 0 78 -10l17 -113q-38 12 -72 12q-39 0 -54.5 -17.5t-15.5 -54.5v-48zM652 559h140v-118h-140v-441h-148v441h-80v118h80v39q0 83 45 137.5t150 54.5q38 0 78 -10l17 -113q-38 12 -72 12
q-39 0 -54.5 -17.5t-15.5 -54.5v-48z" />
    <glyph glyph-name="ffi" unicode="ffi" horiz-adv-x="1085" 
d="M246 559h140v-118h-140v-441h-148v441h-80v118h80v39q0 83 45 137.5t150 54.5q38 0 78 -10l17 -113q-38 12 -72 12q-39 0 -54.5 -17.5t-15.5 -54.5v-48zM652 559h140v-118h-140v-441h-148v441h-80v118h80v39q0 83 45 137.5t150 54.5q38 0 78 -10l17 -113q-38 12 -72 12
q-39 0 -54.5 -17.5t-15.5 -54.5v-48zM884 657q-23 21 -23 56t23 55.5t65 20.5t64.5 -20.5t22.5 -55.5t-22.5 -56t-64.5 -21t-65 21zM872 0v559h148v-559h-148z" />
    <glyph glyph-name="ffl" unicode="ffl" horiz-adv-x="1081" 
d="M246 559h140v-118h-140v-441h-148v441h-80v118h80v39q0 83 45 137.5t150 54.5q38 0 78 -10l17 -113q-38 12 -72 12q-39 0 -54.5 -17.5t-15.5 -54.5v-48zM652 559h140v-118h-140v-441h-148v441h-80v118h80v39q0 83 45 137.5t150 54.5q38 0 78 -10l17 -113q-38 12 -72 12
q-39 0 -54.5 -17.5t-15.5 -54.5v-48zM872 0v778h148v-778h-148z" />
    <glyph glyph-name="fi" unicode="fi" horiz-adv-x="679" 
d="M246 559h140v-118h-140v-441h-148v441h-80v118h80v39q0 83 45 137.5t150 54.5q38 0 78 -10l17 -113q-38 12 -72 12q-39 0 -54.5 -17.5t-15.5 -54.5v-48zM478 657q-23 21 -23 56t23 55.5t65 20.5t64.5 -20.5t22.5 -55.5t-22.5 -56t-64.5 -21t-65 21zM466 0v559h148v-559
h-148z" />
    <glyph glyph-name="fl" unicode="fl" horiz-adv-x="675" 
d="M246 559h140v-118h-140v-441h-148v441h-80v118h80v39q0 83 45 137.5t150 54.5q38 0 78 -10l17 -113q-38 12 -72 12q-39 0 -54.5 -17.5t-15.5 -54.5v-48zM466 0v778h148v-778h-148z" />
    <glyph glyph-name=".notdef" horiz-adv-x="489" 
d="M0 778h489v-778h-489v778zM117 114h255v550h-255v-550z" />
    <glyph glyph-name="NULL" 
 />
    <glyph glyph-name="NULL" 
 />
    <glyph glyph-name="CR" unicode="&#xd;" horiz-adv-x="250" 
 />
    <glyph glyph-name="space" unicode=" " horiz-adv-x="250" 
 />
    <glyph glyph-name="A" unicode="A" horiz-adv-x="678" 
d="M494 0l-42 154h-230l-42 -154h-166l233 738h184l232 -738h-169zM255 274h164l-82 301z" />
    <glyph glyph-name="Aacute" unicode="&#xc1;" horiz-adv-x="678" 
d="M494 0l-42 154h-230l-42 -154h-166l233 738h184l232 -738h-169zM255 274h164l-82 301zM272 774l58 109h178l-102 -109h-134z" />
    <glyph glyph-name="Abreve" unicode="&#x102;" horiz-adv-x="678" 
d="M494 0l-42 154h-230l-42 -154h-166l233 738h184l232 -738h-169zM255 274h164l-82 301zM240.5 800q-35.5 29 -38.5 83h89q7 -31 47 -31q39 0 46 31h89q-3 -54 -38 -83t-97 -29t-97.5 29z" />
    <glyph glyph-name="Acircumflex" unicode="&#xc2;" horiz-adv-x="678" 
d="M494 0l-42 154h-230l-42 -154h-166l233 738h184l232 -738h-169zM255 274h164l-82 301zM500 773h-120l-43 43l-43 -43h-120l78 110h171z" />
    <glyph glyph-name="Adieresis" unicode="&#xc4;" horiz-adv-x="678" 
d="M494 0l-42 154h-230l-42 -154h-166l233 738h184l232 -738h-169zM255 274h164l-82 301zM207 784q-17 15 -17 39t17 39.5t47 15.5q32 0 49.5 -15.5t17.5 -39.5t-17.5 -39t-49.5 -15q-30 0 -47 15zM372.5 784.5q-17.5 15.5 -17.5 38.5q0 24 17 39.5t48 15.5q32 0 48.5 -15.5
t16.5 -39.5t-16.5 -39t-48.5 -15q-30 0 -47.5 15.5z" />
    <glyph glyph-name="Agrave" unicode="&#xc0;" horiz-adv-x="678" 
d="M494 0l-42 154h-230l-42 -154h-166l233 738h184l232 -738h-169zM255 274h164l-82 301zM404 774h-134l-102 109h178z" />
    <glyph glyph-name="Amacron" unicode="&#x100;" horiz-adv-x="678" 
d="M494 0l-42 154h-230l-42 -154h-166l233 738h184l232 -738h-169zM255 274h164l-82 301zM212 874h252v-90h-252v90z" />
    <glyph glyph-name="Aogonek" unicode="&#x104;" horiz-adv-x="678" 
d="M671 -77l-11 -83q-39 -17 -84 -17q-54 0 -83 21t-29 59q0 26 16.5 48.5t58.5 48.5h-45l-42 154h-230l-42 -154h-166l233 738h184l232 -738h-52q-27 -21 -38 -35t-11 -29q0 -14 9 -20.5t31 -6.5q37 0 69 14zM255 274h164l-82 301z" />
    <glyph glyph-name="Aring" unicode="&#xc5;" horiz-adv-x="678" 
d="M494 0l-42 154h-230l-42 -154h-166l233 738h184l232 -738h-169zM255 274h164l-82 301zM265.5 779q-28.5 24 -28.5 62q0 36 28.5 60t72.5 24q43 0 71.5 -24t28.5 -60q0 -37 -28 -61.5t-72 -24.5t-72.5 24zM365 816q10 10 10 25q0 14 -10 23.5t-27 9.5t-27.5 -9.5
t-10.5 -23.5q0 -15 10.5 -25t27.5 -10t27 10z" />
    <glyph glyph-name="Atilde" unicode="&#xc3;" horiz-adv-x="678" 
d="M494 0l-42 154h-230l-42 -154h-166l233 738h184l232 -738h-169zM255 274h164l-82 301zM186 816q2 15 9 30q22 52 78 52q22 0 38 -5t35 -15q3 -1 15 -6.5t24 -5.5q20 0 20 32h87q0 -40 -6 -60q-9 -33 -31.5 -48.5t-52.5 -15.5q-22 0 -38 5t-35 15q-10 5 -19.5 8.5
t-18.5 3.5q-11 0 -15.5 -7.5t-4.5 -24.5h-87q0 27 2 42z" />
    <glyph glyph-name="AE" unicode="&#xc6;" horiz-adv-x="939" 
d="M610 137h294v-137h-450v154h-220l-70 -154h-171l361 738h544v-137h-288v-159h253v-137h-253v-168zM289 274h165v327h-16z" />
    <glyph glyph-name="B" unicode="B" horiz-adv-x="638" 
d="M584 313.5q32 -46.5 32 -114.5q0 -92 -67.5 -145.5t-195.5 -53.5h-283v738h264q126 0 193.5 -51.5t67.5 -140.5q0 -60 -27.5 -102.5t-94.5 -63.5q79 -20 111 -66.5zM226 618v-178h99q109 0 109 91q0 87 -111 87h-97zM426.5 148q28.5 21 28.5 67q0 97 -112 97h-117v-185
h115q57 0 85.5 21z" />
    <glyph glyph-name="C" unicode="C" horiz-adv-x="556" 
d="M383 -12q-172 0 -262.5 101.5t-90.5 278.5q0 109 38 195.5t114 136.5t187 50q69 0 133 -25l20 -149q-73 35 -142 35q-97 0 -143 -61.5t-46 -181.5q0 -119 52 -180.5t157 -61.5q70 0 128 27v-139q-70 -26 -145 -26z" />
    <glyph glyph-name="Cacute" unicode="&#x106;" horiz-adv-x="556" 
d="M383 -12q-172 0 -262.5 101.5t-90.5 278.5q0 109 38 195.5t114 136.5t187 50q69 0 133 -25l20 -149q-73 35 -142 35q-97 0 -143 -61.5t-46 -181.5q0 -119 52 -180.5t157 -61.5q70 0 128 27v-139q-70 -26 -145 -26zM288 774l58 109h178l-102 -109h-134z" />
    <glyph glyph-name="Ccaron" unicode="&#x10c;" horiz-adv-x="556" 
d="M383 -12q-172 0 -262.5 101.5t-90.5 278.5q0 109 38 195.5t114 136.5t187 50q69 0 133 -25l20 -149q-73 35 -142 35q-97 0 -143 -61.5t-46 -181.5q0 -119 52 -180.5t157 -61.5q70 0 128 27v-139q-70 -26 -145 -26zM396 883h120l-77 -110h-171l-78 110h120l43 -42z" />
    <glyph glyph-name="Ccedilla" unicode="&#xc7;" horiz-adv-x="556" 
d="M383 -12q-172 0 -262.5 101.5t-90.5 278.5q0 109 38 195.5t114 136.5t187 50q69 0 133 -25l20 -149q-73 35 -142 35q-97 0 -143 -61.5t-46 -181.5q0 -119 52 -180.5t157 -61.5q70 0 128 27v-139q-70 -26 -145 -26zM277 -189l18 149h136l-52 -149h-102z" />
    <glyph glyph-name="Ccircumflex" unicode="&#x108;" horiz-adv-x="556" 
d="M383 -12q-172 0 -262.5 101.5t-90.5 278.5q0 109 38 195.5t114 136.5t187 50q69 0 133 -25l20 -149q-73 35 -142 35q-97 0 -143 -61.5t-46 -181.5q0 -119 52 -180.5t157 -61.5q70 0 128 27v-139q-70 -26 -145 -26zM516 773h-120l-43 43l-43 -43h-120l78 110h171z" />
    <glyph glyph-name="Cdotaccent" unicode="&#x10a;" horiz-adv-x="556" 
d="M383 -12q-172 0 -262.5 101.5t-90.5 278.5q0 109 38 195.5t114 136.5t187 50q69 0 133 -25l20 -149q-73 35 -142 35q-97 0 -143 -61.5t-46 -181.5q0 -119 52 -180.5t157 -61.5q70 0 128 27v-139q-70 -26 -145 -26zM296.5 794q-20.5 21 -20.5 51t20.5 50.5t56.5 20.5
q37 0 57.5 -20.5t20.5 -50.5t-20.5 -51t-57.5 -21q-36 0 -56.5 21z" />
    <glyph glyph-name="D" unicode="D" horiz-adv-x="680" 
d="M480.5 691q77.5 -47 117 -130.5t39.5 -192.5q0 -108 -39 -191t-117.5 -130t-192.5 -47h-218v738h221q112 0 189.5 -47zM476 368q0 231 -186 231h-64v-460h62q188 0 188 229z" />
    <glyph glyph-name="Eth" unicode="&#xd0;" horiz-adv-x="680" 
d="M480.5 691q77.5 -47 117 -130.5t39.5 -192.5q0 -108 -39 -191t-117.5 -130t-192.5 -47h-218v311h-52v116h52v311h221q112 0 189.5 -47zM476 368q0 231 -186 231h-64v-172h126v-116h-126v-172h62q188 0 188 229z" />
    <glyph glyph-name="Dcaron" unicode="&#x10e;" horiz-adv-x="680" 
d="M480.5 691q77.5 -47 117 -130.5t39.5 -192.5q0 -108 -39 -191t-117.5 -130t-192.5 -47h-218v738h221q112 0 189.5 -47zM476 368q0 231 -186 231h-64v-460h62q188 0 188 229zM334 883h120l-77 -110h-171l-78 110h120l43 -42z" />
    <glyph glyph-name="Dcroat" unicode="&#x110;" horiz-adv-x="680" 
d="M480.5 691q77.5 -47 117 -130.5t39.5 -192.5q0 -108 -39 -191t-117.5 -130t-192.5 -47h-218v311h-52v116h52v311h221q112 0 189.5 -47zM476 368q0 231 -186 231h-64v-172h126v-116h-126v-172h62q188 0 188 229z" />
    <glyph glyph-name="E" unicode="E" horiz-adv-x="568" 
d="M226 137h307v-137h-463v738h457v-137h-301v-159h267v-137h-267v-168z" />
    <glyph glyph-name="Eacute" unicode="&#xc9;" horiz-adv-x="568" 
d="M226 137h307v-137h-463v738h457v-137h-301v-159h267v-137h-267v-168zM231 774l58 109h178l-102 -109h-134z" />
    <glyph glyph-name="Ebreve" unicode="&#x114;" horiz-adv-x="568" 
d="M226 137h307v-137h-463v738h457v-137h-301v-159h267v-137h-267v-168zM199.5 800q-35.5 29 -38.5 83h89q7 -31 47 -31q39 0 46 31h89q-3 -54 -38 -83t-97 -29t-97.5 29z" />
    <glyph glyph-name="Ecaron" unicode="&#x11a;" horiz-adv-x="568" 
d="M226 137h307v-137h-463v738h457v-137h-301v-159h267v-137h-267v-168zM339 883h120l-77 -110h-171l-78 110h120l43 -42z" />
    <glyph glyph-name="Ecircumflex" unicode="&#xca;" horiz-adv-x="568" 
d="M226 137h307v-137h-463v738h457v-137h-301v-159h267v-137h-267v-168zM459 773h-120l-43 43l-43 -43h-120l78 110h171z" />
    <glyph glyph-name="Edieresis" unicode="&#xcb;" horiz-adv-x="568" 
d="M226 137h307v-137h-463v738h457v-137h-301v-159h267v-137h-267v-168zM166 784q-17 15 -17 39t17 39.5t47 15.5q32 0 49.5 -15.5t17.5 -39.5t-17.5 -39t-49.5 -15q-30 0 -47 15zM331.5 784.5q-17.5 15.5 -17.5 38.5q0 24 17 39.5t48 15.5q32 0 48.5 -15.5t16.5 -39.5
t-16.5 -39t-48.5 -15q-30 0 -47.5 15.5z" />
    <glyph glyph-name="Edotaccent" unicode="&#x116;" horiz-adv-x="568" 
d="M226 137h307v-137h-463v738h457v-137h-301v-159h267v-137h-267v-168zM239.5 794q-20.5 21 -20.5 51t20.5 50.5t56.5 20.5q37 0 57.5 -20.5t20.5 -50.5t-20.5 -51t-57.5 -21q-36 0 -56.5 21z" />
    <glyph glyph-name="Egrave" unicode="&#xc8;" horiz-adv-x="568" 
d="M226 137h307v-137h-463v738h457v-137h-301v-159h267v-137h-267v-168zM363 774h-134l-102 109h178z" />
    <glyph glyph-name="Emacron" unicode="&#x112;" horiz-adv-x="568" 
d="M226 137h307v-137h-463v738h457v-137h-301v-159h267v-137h-267v-168zM171 874h252v-90h-252v90z" />
    <glyph glyph-name="Eogonek" unicode="&#x118;" horiz-adv-x="568" 
d="M226 137h307v-137h-463v738h457v-137h-301v-159h267v-137h-267v-168zM394.5 -28q-17.5 -19 -17.5 -36q0 -14 9 -20.5t31 -6.5q37 0 69 14l-11 -83q-39 -17 -84 -17q-54 0 -83 21t-29 59q0 35 32.5 65t121.5 76l24 -22q-45 -31 -62.5 -50z" />
    <glyph glyph-name="F" unicode="F" horiz-adv-x="536" 
d="M508 601h-282v-159h252v-137h-252v-305h-156v738h438v-137z" />
    <glyph glyph-name="G" unicode="G" horiz-adv-x="665" 
d="M615 417v-393q-67 -20 -113 -28t-108 -8q-178 0 -265 97.5t-87 276.5q0 109 39.5 197t119 139.5t194.5 51.5q100 0 183 -37l20 -151q-44 23 -95 36t-98 13q-102 0 -151.5 -64.5t-49.5 -184.5q0 -238 205 -238q22 0 52 5v158h-112v130h266z" />
    <glyph glyph-name="Gbreve" unicode="&#x11e;" horiz-adv-x="665" 
d="M615 417v-393q-67 -20 -113 -28t-108 -8q-178 0 -265 97.5t-87 276.5q0 109 39.5 197t119 139.5t194.5 51.5q100 0 183 -37l20 -151q-44 23 -95 36t-98 13q-102 0 -151.5 -64.5t-49.5 -184.5q0 -238 205 -238q22 0 52 5v158h-112v130h266zM290.5 801q-35.5 29 -38.5 83
h89q7 -31 47 -31q39 0 46 31h89q-3 -54 -38 -83t-97 -29t-97.5 29z" />
    <glyph glyph-name="Gcircumflex" unicode="&#x11c;" horiz-adv-x="665" 
d="M615 417v-393q-67 -20 -113 -28t-108 -8q-178 0 -265 97.5t-87 276.5q0 109 39.5 197t119 139.5t194.5 51.5q100 0 183 -37l20 -151q-44 23 -95 36t-98 13q-102 0 -151.5 -64.5t-49.5 -184.5q0 -238 205 -238q22 0 52 5v158h-112v130h266zM550 774h-120l-43 43l-43 -43
h-120l78 110h171z" />
    <glyph glyph-name="Gcommaaccent" unicode="&#x122;" horiz-adv-x="665" 
d="M615 417v-393q-67 -20 -113 -28t-108 -8q-178 0 -265 97.5t-87 276.5q0 109 39.5 197t119 139.5t194.5 51.5q100 0 183 -37l20 -151q-44 23 -95 36t-98 13q-102 0 -151.5 -64.5t-49.5 -184.5q0 -238 205 -238q22 0 52 5v158h-112v130h266zM460.5 -58q21.5 -21 21.5 -59
q0 -46 -27.5 -80.5t-91.5 -34.5q-17 0 -35 3l-1 48q15 -3 26 -3q32 0 36 22h-2q-28 0 -43 16.5t-15 40.5q0 28 20 48t54 20q36 0 57.5 -21z" />
    <glyph glyph-name="Gdotaccent" unicode="&#x120;" horiz-adv-x="665" 
d="M615 417v-393q-67 -20 -113 -28t-108 -8q-178 0 -265 97.5t-87 276.5q0 109 39.5 197t119 139.5t194.5 51.5q100 0 183 -37l20 -151q-44 23 -95 36t-98 13q-102 0 -151.5 -64.5t-49.5 -184.5q0 -238 205 -238q22 0 52 5v158h-112v130h266zM330.5 795q-20.5 21 -20.5 51
t20.5 50.5t56.5 20.5q37 0 57.5 -20.5t20.5 -50.5t-20.5 -51t-57.5 -21q-36 0 -56.5 21z" />
    <glyph glyph-name="H" unicode="H" horiz-adv-x="715" 
d="M489 738h156v-738h-156v305h-263v-305h-156v738h156v-296h263v296z" />
    <glyph glyph-name="Hbar" unicode="&#x126;" horiz-adv-x="715" 
d="M489 738h156v-738h-156v305h-263v-305h-156v738h156v-101h263v101zM226 442h263v97h-263v-97z" />
    <glyph glyph-name="Hcircumflex" unicode="&#x124;" horiz-adv-x="715" 
d="M489 738h156v-738h-156v305h-263v-305h-156v738h156v-296h263v296zM519 773h-120l-43 43l-43 -43h-120l78 110h171z" />
    <glyph glyph-name="I" unicode="I" horiz-adv-x="296" 
d="M70 0v738h156v-738h-156z" />
    <glyph glyph-name="IJ" unicode="&#x132;" horiz-adv-x="712" 
d="M70 0v738h156v-738h-156zM330 0l-13 141q42 -14 90 -14q42 0 65.5 24.5t23.5 77.5v509h156v-509q0 -111 -56 -176t-167 -65q-58 0 -99 12z" />
    <glyph glyph-name="Iacute" unicode="&#xcd;" horiz-adv-x="296" 
d="M70 0v738h156v-738h-156zM82 774l58 109h178l-102 -109h-134z" />
    <glyph glyph-name="Ibreve" unicode="&#x12c;" horiz-adv-x="296" 
d="M70 0v738h156v-738h-156zM50.5 800q-35.5 29 -38.5 83h89q7 -31 47 -31q39 0 46 31h89q-3 -54 -38 -83t-97 -29t-97.5 29z" />
    <glyph glyph-name="Icircumflex" unicode="&#xce;" horiz-adv-x="296" 
d="M70 0v738h156v-738h-156zM310 773h-120l-43 43l-43 -43h-120l78 110h171z" />
    <glyph glyph-name="Idieresis" unicode="&#xcf;" horiz-adv-x="296" 
d="M70 0v738h156v-738h-156zM17 784q-17 15 -17 39t17 39.5t47 15.5q32 0 49.5 -15.5t17.5 -39.5t-17.5 -39t-49.5 -15q-30 0 -47 15zM182.5 784.5q-17.5 15.5 -17.5 38.5q0 24 17 39.5t48 15.5q32 0 48.5 -15.5t16.5 -39.5t-16.5 -39t-48.5 -15q-30 0 -47.5 15.5z" />
    <glyph glyph-name="Idotaccent" unicode="&#x130;" horiz-adv-x="296" 
d="M70 0v738h156v-738h-156zM90.5 794q-20.5 21 -20.5 51t20.5 50.5t56.5 20.5q37 0 57.5 -20.5t20.5 -50.5t-20.5 -51t-57.5 -21q-36 0 -56.5 21z" />
    <glyph glyph-name="Igrave" unicode="&#xcc;" horiz-adv-x="296" 
d="M70 0v738h156v-738h-156zM214 774h-134l-102 109h178z" />
    <glyph glyph-name="Imacron" unicode="&#x12a;" horiz-adv-x="296" 
d="M70 0v738h156v-738h-156zM22 874h252v-90h-252v90z" />
    <glyph glyph-name="Iogonek" unicode="&#x12e;" horiz-adv-x="296" 
d="M246 -76l-11 -83q-39 -17 -84 -17q-54 0 -83 21t-29 59q0 26 16.5 48t57.5 48h-43v738h156v-738h-41q-27 -21 -37.5 -35t-10.5 -28t9 -20.5t31 -6.5q37 0 69 14z" />
    <glyph glyph-name="Itilde" unicode="&#x128;" horiz-adv-x="296" 
d="M70 0v738h156v-738h-156zM-4 816q2 15 9 30q22 52 78 52q22 0 38 -5t35 -15q3 -1 15 -6.5t24 -5.5q20 0 20 32h87q0 -40 -6 -60q-9 -33 -31.5 -48.5t-52.5 -15.5q-22 0 -38 5t-35 15q-10 5 -19.5 8.5t-18.5 3.5q-11 0 -15.5 -7.5t-4.5 -24.5h-87q0 27 2 42z" />
    <glyph glyph-name="J" unicode="J" horiz-adv-x="416" 
d="M34 0l-13 141q42 -14 90 -14q42 0 65.5 24.5t23.5 77.5v509h156v-509q0 -111 -56 -176t-167 -65q-58 0 -99 12z" />
    <glyph glyph-name="Jcircumflex" unicode="&#x134;" horiz-adv-x="416" 
d="M34 0l-13 141q42 -14 90 -14q42 0 65.5 24.5t23.5 77.5v509h156v-509q0 -111 -56 -176t-167 -65q-58 0 -99 12zM440 773h-120l-43 43l-43 -43h-120l78 110h171z" />
    <glyph glyph-name="K" unicode="K" horiz-adv-x="629" 
d="M624 0h-180l-218 373v-373h-156v738h156v-339l220 339h166l-233 -341z" />
    <glyph glyph-name="Kcommaaccent" unicode="&#x136;" horiz-adv-x="629" 
d="M624 0h-180l-218 373v-373h-156v738h156v-339l220 339h166l-233 -341zM388.5 -58q21.5 -21 21.5 -59q0 -46 -27.5 -80.5t-91.5 -34.5q-17 0 -35 3l-1 48q15 -3 26 -3q32 0 36 22h-2q-28 0 -43 16.5t-15 40.5q0 28 20 48t54 20q36 0 57.5 -21z" />
    <glyph glyph-name="L" unicode="L" horiz-adv-x="489" 
d="M226 137h243v-137h-399v738h156v-601z" />
    <glyph glyph-name="Lacute" unicode="&#x139;" horiz-adv-x="489" 
d="M226 137h243v-137h-399v738h156v-601zM82 774l58 109h178l-102 -109h-134z" />
    <glyph glyph-name="Lcaron" unicode="&#x13d;" horiz-adv-x="489" 
d="M226 137h243v-137h-399v738h156v-601zM278 590v148h125l-35 -148h-90z" />
    <glyph glyph-name="Lcommaaccent" unicode="&#x13b;" horiz-adv-x="489" 
d="M226 137h243v-137h-399v738h156v-601zM342.5 -58q21.5 -21 21.5 -59q0 -46 -27.5 -80.5t-91.5 -34.5q-17 0 -35 3l-1 48q15 -3 26 -3q32 0 36 22h-2q-28 0 -43 16.5t-15 40.5q0 28 20 48t54 20q36 0 57.5 -21z" />
    <glyph glyph-name="Ldot" unicode="&#x13f;" horiz-adv-x="489" 
d="M226 137h243v-137h-399v738h156v-601zM330 348.5q-24 23.5 -24 60.5t24 60.5t63 23.5q40 0 64.5 -23.5t24.5 -60.5t-24.5 -60.5t-64.5 -23.5q-39 0 -63 23.5z" />
    <glyph glyph-name="Lslash" unicode="&#x141;" horiz-adv-x="489" 
d="M226 137h243v-137h-399v738h156v-299l158 131v-136l-158 -131v-166z" />
    <glyph glyph-name="M" unicode="M" horiz-adv-x="812" 
d="M779 0h-141l-42 479l-138 -479h-103l-140 478l-42 -478h-141l71 738h164l139 -489l138 489h165z" />
    <glyph glyph-name="N" unicode="N" horiz-adv-x="736" 
d="M523 738h143v-738h-161l-292 492v-492h-143v738h161l292 -492v492z" />
    <glyph glyph-name="Nacute" unicode="&#x143;" horiz-adv-x="736" 
d="M523 738h143v-738h-161l-292 492v-492h-143v738h161l292 -492v492zM311 774l58 109h178l-102 -109h-134z" />
    <glyph glyph-name="Ncaron" unicode="&#x147;" horiz-adv-x="736" 
d="M523 738h143v-738h-161l-292 492v-492h-143v738h161l292 -492v492zM419 883h120l-77 -110h-171l-78 110h120l43 -42z" />
    <glyph glyph-name="Ncommaaccent" unicode="&#x145;" horiz-adv-x="736" 
d="M523 738h143v-738h-161l-292 492v-492h-143v738h161l292 -492v492zM423.5 -58q21.5 -21 21.5 -59q0 -46 -27.5 -80.5t-91.5 -34.5q-17 0 -35 3l-1 48q15 -3 26 -3q32 0 36 22h-2q-28 0 -43 16.5t-15 40.5q0 28 20 48t54 20q36 0 57.5 -21z" />
    <glyph glyph-name="Eng" unicode="&#x14a;" horiz-adv-x="745" 
d="M675 738v-748q0 -92 -57.5 -148.5t-167.5 -56.5q-64 0 -101 12l-13 131q42 -14 92 -14q42 0 66.5 19t24.5 60v7l-306 495v-495h-143v738h161l301 -487v487h143z" />
    <glyph glyph-name="Ntilde" unicode="&#xd1;" horiz-adv-x="736" 
d="M523 738h143v-738h-161l-292 492v-492h-143v738h161l292 -492v492zM225 816q2 15 9 30q22 52 78 52q22 0 38 -5t35 -15q3 -1 15 -6.5t24 -5.5q20 0 20 32h87q0 -40 -6 -60q-9 -33 -31.5 -48.5t-52.5 -15.5q-22 0 -38 5t-35 15q-10 5 -19.5 8.5t-18.5 3.5
q-11 0 -15.5 -7.5t-4.5 -24.5h-87q0 27 2 42z" />
    <glyph glyph-name="O" unicode="O" horiz-adv-x="747" 
d="M195.5 38q-74.5 50 -114 136.5t-39.5 193.5q0 108 39 195t114.5 137t179.5 50q102 0 176.5 -50t113.5 -137t39 -195t-39 -194t-114 -136t-180 -50q-101 0 -175.5 50zM499 192q44 65 44 176t-44 177t-125 66q-83 0 -126.5 -65.5t-43.5 -177.5q0 -110 43.5 -175.5
t124.5 -65.5q83 0 127 65z" />
    <glyph glyph-name="Oacute" unicode="&#xd3;" horiz-adv-x="747" 
d="M195.5 38q-74.5 50 -114 136.5t-39.5 193.5q0 108 39 195t114.5 137t179.5 50q102 0 176.5 -50t113.5 -137t39 -195t-39 -194t-114 -136t-180 -50q-101 0 -175.5 50zM499 192q44 65 44 176t-44 177t-125 66q-83 0 -126.5 -65.5t-43.5 -177.5q0 -110 43.5 -175.5
t124.5 -65.5q83 0 127 65zM308 774l58 109h178l-102 -109h-134z" />
    <glyph glyph-name="Obreve" unicode="&#x14e;" horiz-adv-x="747" 
d="M195.5 38q-74.5 50 -114 136.5t-39.5 193.5q0 108 39 195t114.5 137t179.5 50q102 0 176.5 -50t113.5 -137t39 -195t-39 -194t-114 -136t-180 -50q-101 0 -175.5 50zM499 192q44 65 44 176t-44 177t-125 66q-83 0 -126.5 -65.5t-43.5 -177.5q0 -110 43.5 -175.5
t124.5 -65.5q83 0 127 65zM276.5 800q-35.5 29 -38.5 83h89q7 -31 47 -31q39 0 46 31h89q-3 -54 -38 -83t-97 -29t-97.5 29z" />
    <glyph glyph-name="Ocircumflex" unicode="&#xd4;" horiz-adv-x="747" 
d="M195.5 38q-74.5 50 -114 136.5t-39.5 193.5q0 108 39 195t114.5 137t179.5 50q102 0 176.5 -50t113.5 -137t39 -195t-39 -194t-114 -136t-180 -50q-101 0 -175.5 50zM499 192q44 65 44 176t-44 177t-125 66q-83 0 -126.5 -65.5t-43.5 -177.5q0 -110 43.5 -175.5
t124.5 -65.5q83 0 127 65zM536 773h-120l-43 43l-43 -43h-120l78 110h171z" />
    <glyph glyph-name="Odieresis" unicode="&#xd6;" horiz-adv-x="747" 
d="M195.5 38q-74.5 50 -114 136.5t-39.5 193.5q0 108 39 195t114.5 137t179.5 50q102 0 176.5 -50t113.5 -137t39 -195t-39 -194t-114 -136t-180 -50q-101 0 -175.5 50zM499 192q44 65 44 176t-44 177t-125 66q-83 0 -126.5 -65.5t-43.5 -177.5q0 -110 43.5 -175.5
t124.5 -65.5q83 0 127 65zM243 784q-17 15 -17 39t17 39.5t47 15.5q32 0 49.5 -15.5t17.5 -39.5t-17.5 -39t-49.5 -15q-30 0 -47 15zM408.5 784.5q-17.5 15.5 -17.5 38.5q0 24 17 39.5t48 15.5q32 0 48.5 -15.5t16.5 -39.5t-16.5 -39t-48.5 -15q-30 0 -47.5 15.5z" />
    <glyph glyph-name="Ograve" unicode="&#xd2;" horiz-adv-x="747" 
d="M195.5 38q-74.5 50 -114 136.5t-39.5 193.5q0 108 39 195t114.5 137t179.5 50q102 0 176.5 -50t113.5 -137t39 -195t-39 -194t-114 -136t-180 -50q-101 0 -175.5 50zM499 192q44 65 44 176t-44 177t-125 66q-83 0 -126.5 -65.5t-43.5 -177.5q0 -110 43.5 -175.5
t124.5 -65.5q83 0 127 65zM440 774h-134l-102 109h178z" />
    <glyph glyph-name="Ohungarumlaut" unicode="&#x150;" horiz-adv-x="747" 
d="M195.5 38q-74.5 50 -114 136.5t-39.5 193.5q0 108 39 195t114.5 137t179.5 50q102 0 176.5 -50t113.5 -137t39 -195t-39 -194t-114 -136t-180 -50q-101 0 -175.5 50zM499 192q44 65 44 176t-44 177t-125 66q-83 0 -126.5 -65.5t-43.5 -177.5q0 -110 43.5 -175.5
t124.5 -65.5q83 0 127 65zM233 773l20 110h145l-63 -110h-102zM399 773l48 110h145l-91 -110h-102z" />
    <glyph glyph-name="Omacron" unicode="&#x14c;" horiz-adv-x="747" 
d="M195.5 38q-74.5 50 -114 136.5t-39.5 193.5q0 108 39 195t114.5 137t179.5 50q102 0 176.5 -50t113.5 -137t39 -195t-39 -194t-114 -136t-180 -50q-101 0 -175.5 50zM499 192q44 65 44 176t-44 177t-125 66q-83 0 -126.5 -65.5t-43.5 -177.5q0 -110 43.5 -175.5
t124.5 -65.5q83 0 127 65zM248 874h252v-90h-252v90z" />
    <glyph glyph-name="Oslash" unicode="&#xd8;" horiz-adv-x="747" 
d="M704 368q0 -108 -39 -194t-114 -136t-180 -50q-120 0 -204 71l-50 -59l-70 59l60 69q-65 98 -65 240q0 108 39 195t114.5 137t179.5 50q120 0 205 -72l52 60l70 -59l-61 -71q63 -100 63 -240zM212 251l275 319q-43 45 -113 45q-86 0 -132 -66.5t-46 -180.5q0 -68 16 -117
zM505 189q46 66 46 179q0 68 -16 117l-274 -318q44 -44 111 -44q87 0 133 66z" />
    <glyph glyph-name="Otilde" unicode="&#xd5;" horiz-adv-x="747" 
d="M195.5 38q-74.5 50 -114 136.5t-39.5 193.5q0 108 39 195t114.5 137t179.5 50q102 0 176.5 -50t113.5 -137t39 -195t-39 -194t-114 -136t-180 -50q-101 0 -175.5 50zM499 192q44 65 44 176t-44 177t-125 66q-83 0 -126.5 -65.5t-43.5 -177.5q0 -110 43.5 -175.5
t124.5 -65.5q83 0 127 65zM222 816q2 15 9 30q22 52 78 52q22 0 38 -5t35 -15q3 -1 15 -6.5t24 -5.5q20 0 20 32h87q0 -40 -6 -60q-9 -33 -31.5 -48.5t-52.5 -15.5q-22 0 -38 5t-35 15q-10 5 -19.5 8.5t-18.5 3.5q-11 0 -15.5 -7.5t-4.5 -24.5h-87q0 27 2 42z" />
    <glyph glyph-name="OE" unicode="&#x152;" horiz-adv-x="1037" 
d="M1002 137v-137h-449v82q-68 -94 -197 -94q-93 0 -164.5 50t-110.5 137t-39 193q0 107 38.5 194.5t110.5 137.5t168 50q126 0 194 -96v84h443v-137h-288v-159h254v-137h-254v-168h294zM508 192.5q45 65.5 45 175.5q0 111 -45 177t-129 66q-86 0 -130.5 -65.5t-44.5 -177.5
q0 -110 45 -175.5t128 -65.5q86 0 131 65.5z" />
    <glyph glyph-name="P" unicode="P" horiz-adv-x="631" 
d="M470 705q64 -33 97.5 -92.5t33.5 -137.5q0 -79 -33.5 -138t-98 -92t-155.5 -33h-88v-212h-156v738h247q89 0 153 -33zM440 475q0 64 -33 97.5t-96 33.5h-85v-261h84q130 0 130 130z" />
    <glyph glyph-name="Thorn" unicode="&#xde;" horiz-adv-x="639" 
d="M476 603q65 -33 99 -92.5t34 -137.5t-34 -137.5t-99.5 -92.5t-157.5 -33h-92v-110h-156v738h156v-102h95q90 0 155 -33zM414 276q34 33 34 97t-34 97.5t-99 33.5h-89v-261h87q67 0 101 33z" />
    <glyph glyph-name="Q" unicode="Q" horiz-adv-x="747" 
d="M683 221.5q-21 -68.5 -61 -119.5l57 -67l-106 -86l-59 69q-65 -30 -143 -30q-101 0 -175.5 50t-114 136.5t-39.5 193.5q0 108 39 195t114.5 137t179.5 50q102 0 176.5 -50t113.5 -137t39 -195q0 -78 -21 -146.5zM416 133l-64 75l106 87l59 -70q26 60 26 143
q0 111 -44 177t-125 66q-83 0 -126.5 -65.5t-43.5 -177.5q0 -110 43.5 -175.5t124.5 -65.5q25 0 44 6z" />
    <glyph glyph-name="R" unicode="R" horiz-adv-x="658" 
d="M287 250h-61v-250h-156v738h272q87 0 149.5 -32t94.5 -88t32 -129q0 -82 -43.5 -141t-125.5 -83l179 -265h-189zM226 378h108q62 0 92.5 29t30.5 81q0 56 -30.5 87t-91.5 31h-109v-228z" />
    <glyph glyph-name="Racute" unicode="&#x154;" horiz-adv-x="658" 
d="M287 250h-61v-250h-156v738h272q87 0 149.5 -32t94.5 -88t32 -129q0 -82 -43.5 -141t-125.5 -83l179 -265h-189zM226 378h108q62 0 92.5 29t30.5 81q0 56 -30.5 87t-91.5 31h-109v-228zM227 774l58 109h178l-102 -109h-134z" />
    <glyph glyph-name="Rcaron" unicode="&#x158;" horiz-adv-x="658" 
d="M287 250h-61v-250h-156v738h272q87 0 149.5 -32t94.5 -88t32 -129q0 -82 -43.5 -141t-125.5 -83l179 -265h-189zM226 378h108q62 0 92.5 29t30.5 81q0 56 -30.5 87t-91.5 31h-109v-228zM335 883h120l-77 -110h-171l-78 110h120l43 -42z" />
    <glyph glyph-name="Rcommaaccent" unicode="&#x156;" horiz-adv-x="658" 
d="M287 250h-61v-250h-156v738h272q87 0 149.5 -32t94.5 -88t32 -129q0 -82 -43.5 -141t-125.5 -83l179 -265h-189zM226 378h108q62 0 92.5 29t30.5 81q0 56 -30.5 87t-91.5 31h-109v-228zM386.5 -58q21.5 -21 21.5 -59q0 -46 -27.5 -80.5t-91.5 -34.5q-17 0 -35 3l-1 48
q15 -3 26 -3q32 0 36 22h-2q-28 0 -43 16.5t-15 40.5q0 28 20 48t54 20q36 0 57.5 -21z" />
    <glyph glyph-name="S" unicode="S" horiz-adv-x="533" 
d="M36 178q106 -47 199 -47q54 0 80 19.5t26 61.5q0 30 -26.5 52t-97.5 47q-102 36 -146 86.5t-44 127.5q0 66 31.5 117t90.5 79.5t139 28.5q93 0 161 -33l22 -155q-90 49 -174 49q-44 0 -71 -21.5t-27 -59.5q0 -34 27.5 -57.5t98.5 -47.5q103 -35 147 -84.5t44 -127.5
q0 -69 -33.5 -120t-91.5 -78t-130 -27q-115 0 -209 36z" />
    <glyph glyph-name="Sacute" unicode="&#x15a;" horiz-adv-x="533" 
d="M36 178q106 -47 199 -47q54 0 80 19.5t26 61.5q0 30 -26.5 52t-97.5 47q-102 36 -146 86.5t-44 127.5q0 66 31.5 117t90.5 79.5t139 28.5q93 0 161 -33l22 -155q-90 49 -174 49q-44 0 -71 -21.5t-27 -59.5q0 -34 27.5 -57.5t98.5 -47.5q103 -35 147 -84.5t44 -127.5
q0 -69 -33.5 -120t-91.5 -78t-130 -27q-115 0 -209 36zM209 774l58 109h178l-102 -109h-134z" />
    <glyph glyph-name="Scaron" unicode="&#x160;" horiz-adv-x="533" 
d="M36 178q106 -47 199 -47q54 0 80 19.5t26 61.5q0 30 -26.5 52t-97.5 47q-102 36 -146 86.5t-44 127.5q0 66 31.5 117t90.5 79.5t139 28.5q93 0 161 -33l22 -155q-90 49 -174 49q-44 0 -71 -21.5t-27 -59.5q0 -34 27.5 -57.5t98.5 -47.5q103 -35 147 -84.5t44 -127.5
q0 -69 -33.5 -120t-91.5 -78t-130 -27q-115 0 -209 36zM317 883h120l-77 -110h-171l-78 110h120l43 -42z" />
    <glyph glyph-name="Scedilla" unicode="&#x15e;" horiz-adv-x="533" 
d="M36 178q106 -47 199 -47q54 0 80 19.5t26 61.5q0 30 -26.5 52t-97.5 47q-102 36 -146 86.5t-44 127.5q0 66 31.5 117t90.5 79.5t139 28.5q93 0 161 -33l22 -155q-90 49 -174 49q-44 0 -71 -21.5t-27 -59.5q0 -34 27.5 -57.5t98.5 -47.5q103 -35 147 -84.5t44 -127.5
q0 -69 -33.5 -120t-91.5 -78t-130 -27q-115 0 -209 36zM175 -189l18 149h136l-52 -149h-102z" />
    <glyph glyph-name="Scircumflex" unicode="&#x15c;" horiz-adv-x="533" 
d="M36 178q106 -47 199 -47q54 0 80 19.5t26 61.5q0 30 -26.5 52t-97.5 47q-102 36 -146 86.5t-44 127.5q0 66 31.5 117t90.5 79.5t139 28.5q93 0 161 -33l22 -155q-90 49 -174 49q-44 0 -71 -21.5t-27 -59.5q0 -34 27.5 -57.5t98.5 -47.5q103 -35 147 -84.5t44 -127.5
q0 -69 -33.5 -120t-91.5 -78t-130 -27q-115 0 -209 36zM437 773h-120l-43 43l-43 -43h-120l78 110h171z" />
    <glyph glyph-name="Scommaaccent" unicode="&#x218;" horiz-adv-x="533" 
d="M36 178q106 -47 199 -47q54 0 80 19.5t26 61.5q0 30 -26.5 52t-97.5 47q-102 36 -146 86.5t-44 127.5q0 66 31.5 117t90.5 79.5t139 28.5q93 0 161 -33l22 -155q-90 49 -174 49q-44 0 -71 -21.5t-27 -59.5q0 -34 27.5 -57.5t98.5 -47.5q103 -35 147 -84.5t44 -127.5
q0 -69 -33.5 -120t-91.5 -78t-130 -27q-115 0 -209 36zM323.5 -58q21.5 -21 21.5 -59q0 -46 -27.5 -80.5t-91.5 -34.5q-17 0 -35 3l-1 48q15 -3 26 -3q32 0 36 22h-2q-28 0 -43 16.5t-15 40.5q0 28 20 48t54 20q36 0 57.5 -21z" />
    <glyph glyph-name="Germandbls" unicode="&#x1e9e;" horiz-adv-x="736" 
d="M671 331.5q47 -53.5 47 -136.5q0 -56 -31.5 -103.5t-85.5 -75.5t-120 -28q-82 0 -156 27l-15 151q76 -35 145 -35q39 0 63 20t24 59q0 30 -17 54.5t-59 49.5t-119 57l138 191q-44 49 -114 49q-69 0 -107 -46t-38 -136v-429h-156v429q0 105 37.5 177.5t103 108t148.5 35.5
q109 0 179 -45.5t124 -124.5l-128 -160q90 -35 137 -88.5z" />
    <glyph glyph-name="T" unicode="T" horiz-adv-x="564" 
d="M543 738v-137h-183v-601h-156v601h-183v137h522z" />
    <glyph glyph-name="Tbar" unicode="&#x166;" horiz-adv-x="564" 
d="M543 601h-183v-196h89v-116h-89v-289h-156v289h-89v116h89v196h-183v137h522v-137z" />
    <glyph glyph-name="Tcaron" unicode="&#x164;" horiz-adv-x="564" 
d="M543 738v-137h-183v-601h-156v601h-183v137h522zM324 883h120l-77 -110h-171l-78 110h120l43 -42z" />
    <glyph glyph-name="uni0162" unicode="&#x162;" horiz-adv-x="564" 
d="M543 738v-137h-183v-601h-156v601h-183v137h522zM337.5 -58q21.5 -21 21.5 -59q0 -46 -27.5 -80.5t-91.5 -34.5q-17 0 -35 3l-1 48q15 -3 26 -3q32 0 36 22h-2q-28 0 -43 16.5t-15 40.5q0 28 20 48t54 20q36 0 57.5 -21z" />
    <glyph glyph-name="uni021A" unicode="&#x21a;" horiz-adv-x="564" 
d="M543 738v-137h-183v-601h-156v601h-183v137h522zM337.5 -58q21.5 -21 21.5 -59q0 -46 -27.5 -80.5t-91.5 -34.5q-17 0 -35 3l-1 48q15 -3 26 -3q32 0 36 22h-2q-28 0 -43 16.5t-15 40.5q0 28 20 48t54 20q36 0 57.5 -21z" />
    <glyph glyph-name="U" unicode="U" horiz-adv-x="692" 
d="M127.5 77.5q-67.5 89.5 -67.5 233.5v427h156v-427q0 -96 29.5 -140t99.5 -44q72 0 102 44t30 140v427h155v-427q0 -145 -68 -234t-220 -89q-149 0 -216.5 89.5z" />
    <glyph glyph-name="Uacute" unicode="&#xda;" horiz-adv-x="692" 
d="M127.5 77.5q-67.5 89.5 -67.5 233.5v427h156v-427q0 -96 29.5 -140t99.5 -44q72 0 102 44t30 140v427h155v-427q0 -145 -68 -234t-220 -89q-149 0 -216.5 89.5zM280 774l58 109h178l-102 -109h-134z" />
    <glyph glyph-name="Ubreve" unicode="&#x16c;" horiz-adv-x="692" 
d="M127.5 77.5q-67.5 89.5 -67.5 233.5v427h156v-427q0 -96 29.5 -140t99.5 -44q72 0 102 44t30 140v427h155v-427q0 -145 -68 -234t-220 -89q-149 0 -216.5 89.5zM248.5 800q-35.5 29 -38.5 83h89q7 -31 47 -31q39 0 46 31h89q-3 -54 -38 -83t-97 -29t-97.5 29z" />
    <glyph glyph-name="Ucircumflex" unicode="&#xdb;" horiz-adv-x="692" 
d="M127.5 77.5q-67.5 89.5 -67.5 233.5v427h156v-427q0 -96 29.5 -140t99.5 -44q72 0 102 44t30 140v427h155v-427q0 -145 -68 -234t-220 -89q-149 0 -216.5 89.5zM508 773h-120l-43 43l-43 -43h-120l78 110h171z" />
    <glyph glyph-name="Udieresis" unicode="&#xdc;" horiz-adv-x="692" 
d="M127.5 77.5q-67.5 89.5 -67.5 233.5v427h156v-427q0 -96 29.5 -140t99.5 -44q72 0 102 44t30 140v427h155v-427q0 -145 -68 -234t-220 -89q-149 0 -216.5 89.5zM215 784q-17 15 -17 39t17 39.5t47 15.5q32 0 49.5 -15.5t17.5 -39.5t-17.5 -39t-49.5 -15q-30 0 -47 15z
M380.5 784.5q-17.5 15.5 -17.5 38.5q0 24 17 39.5t48 15.5q32 0 48.5 -15.5t16.5 -39.5t-16.5 -39t-48.5 -15q-30 0 -47.5 15.5z" />
    <glyph glyph-name="Ugrave" unicode="&#xd9;" horiz-adv-x="692" 
d="M127.5 77.5q-67.5 89.5 -67.5 233.5v427h156v-427q0 -96 29.5 -140t99.5 -44q72 0 102 44t30 140v427h155v-427q0 -145 -68 -234t-220 -89q-149 0 -216.5 89.5zM412 774h-134l-102 109h178z" />
    <glyph glyph-name="Uhungarumlaut" unicode="&#x170;" horiz-adv-x="692" 
d="M127.5 77.5q-67.5 89.5 -67.5 233.5v427h156v-427q0 -96 29.5 -140t99.5 -44q72 0 102 44t30 140v427h155v-427q0 -145 -68 -234t-220 -89q-149 0 -216.5 89.5zM205 773l20 110h145l-63 -110h-102zM371 773l48 110h145l-91 -110h-102z" />
    <glyph glyph-name="Umacron" unicode="&#x16a;" horiz-adv-x="692" 
d="M127.5 77.5q-67.5 89.5 -67.5 233.5v427h156v-427q0 -96 29.5 -140t99.5 -44q72 0 102 44t30 140v427h155v-427q0 -145 -68 -234t-220 -89q-149 0 -216.5 89.5zM220 874h252v-90h-252v90z" />
    <glyph glyph-name="Uogonek" unicode="&#x172;" horiz-adv-x="692" 
d="M632 738v-427q0 -124 -50 -208.5t-161 -107.5q-24 -19 -33.5 -32t-9.5 -27t9 -20.5t31 -6.5q37 0 69 14l-11 -83q-39 -17 -84 -17q-54 0 -83 21t-29 59q0 23 13 42.5t44 42.5q-146 2 -211.5 91t-65.5 232v427h156v-427q0 -96 29.5 -140t99.5 -44q72 0 102 44t30 140v427
h155z" />
    <glyph glyph-name="Uring" unicode="&#x16e;" horiz-adv-x="692" 
d="M127.5 77.5q-67.5 89.5 -67.5 233.5v427h156v-427q0 -96 29.5 -140t99.5 -44q72 0 102 44t30 140v427h155v-427q0 -145 -68 -234t-220 -89q-149 0 -216.5 89.5zM273.5 779q-28.5 24 -28.5 62q0 36 28.5 60t72.5 24q43 0 71.5 -24t28.5 -60q0 -37 -28 -61.5t-72 -24.5
t-72.5 24zM373 816q10 10 10 25q0 14 -10 23.5t-27 9.5t-27.5 -9.5t-10.5 -23.5q0 -15 10.5 -25t27.5 -10t27 10z" />
    <glyph glyph-name="Utilde" unicode="&#x168;" horiz-adv-x="692" 
d="M127.5 77.5q-67.5 89.5 -67.5 233.5v427h156v-427q0 -96 29.5 -140t99.5 -44q72 0 102 44t30 140v427h155v-427q0 -145 -68 -234t-220 -89q-149 0 -216.5 89.5zM194 816q2 15 9 30q22 52 78 52q22 0 38 -5t35 -15q3 -1 15 -6.5t24 -5.5q20 0 20 32h87q0 -40 -6 -60
q-9 -33 -31.5 -48.5t-52.5 -15.5q-22 0 -38 5t-35 15q-10 5 -19.5 8.5t-18.5 3.5q-11 0 -15.5 -7.5t-4.5 -24.5h-87q0 27 2 42z" />
    <glyph glyph-name="V" unicode="V" horiz-adv-x="678" 
d="M497 738h166l-232 -738h-184l-233 738h170l157 -575z" />
    <glyph glyph-name="W" unicode="W" horiz-adv-x="971" 
d="M788 738h161l-177 -738h-175l-111 476l-112 -476h-174l-178 738h165l108 -548l116 548h153l117 -546z" />
    <glyph glyph-name="Wacute" unicode="&#x1e82;" horiz-adv-x="971" 
d="M788 738h161l-177 -738h-175l-111 476l-112 -476h-174l-178 738h165l108 -548l116 548h153l117 -546zM420 774l58 109h178l-102 -109h-134z" />
    <glyph glyph-name="Wcircumflex" unicode="&#x174;" horiz-adv-x="971" 
d="M788 738h161l-177 -738h-175l-111 476l-112 -476h-174l-178 738h165l108 -548l116 548h153l117 -546zM648 773h-120l-43 43l-43 -43h-120l78 110h171z" />
    <glyph glyph-name="Wdieresis" unicode="&#x1e84;" horiz-adv-x="971" 
d="M788 738h161l-177 -738h-175l-111 476l-112 -476h-174l-178 738h165l108 -548l116 548h153l117 -546zM355 784q-17 15 -17 39t17 39.5t47 15.5q32 0 49.5 -15.5t17.5 -39.5t-17.5 -39t-49.5 -15q-30 0 -47 15zM520.5 784.5q-17.5 15.5 -17.5 38.5q0 24 17 39.5t48 15.5
q32 0 48.5 -15.5t16.5 -39.5t-16.5 -39t-48.5 -15q-30 0 -47.5 15.5z" />
    <glyph glyph-name="Wgrave" unicode="&#x1e80;" horiz-adv-x="971" 
d="M788 738h161l-177 -738h-175l-111 476l-112 -476h-174l-178 738h165l108 -548l116 548h153l117 -546zM552 774h-134l-102 109h178z" />
    <glyph glyph-name="X" unicode="X" horiz-adv-x="642" 
d="M638 0h-183l-139 267l-135 -267h-177l227 380l-211 358h183l119 -229l117 229h176l-207 -347z" />
    <glyph glyph-name="Y" unicode="Y" horiz-adv-x="586" 
d="M578 738l-205 -455v-283h-155v276l-210 462h160l132 -330l118 330h160z" />
    <glyph glyph-name="Yacute" unicode="&#xdd;" horiz-adv-x="586" 
d="M578 738l-205 -455v-283h-155v276l-210 462h160l132 -330l118 330h160zM227 774l58 109h178l-102 -109h-134z" />
    <glyph glyph-name="Ycircumflex" unicode="&#x176;" horiz-adv-x="586" 
d="M578 738l-205 -455v-283h-155v276l-210 462h160l132 -330l118 330h160zM455 773h-120l-43 43l-43 -43h-120l78 110h171z" />
    <glyph glyph-name="Ydieresis" unicode="&#x178;" horiz-adv-x="586" 
d="M578 738l-205 -455v-283h-155v276l-210 462h160l132 -330l118 330h160zM162 784q-17 15 -17 39t17 39.5t47 15.5q32 0 49.5 -15.5t17.5 -39.5t-17.5 -39t-49.5 -15q-30 0 -47 15zM327.5 784.5q-17.5 15.5 -17.5 38.5q0 24 17 39.5t48 15.5q32 0 48.5 -15.5t16.5 -39.5
t-16.5 -39t-48.5 -15q-30 0 -47.5 15.5z" />
    <glyph glyph-name="Ygrave" unicode="&#x1ef2;" horiz-adv-x="586" 
d="M578 738l-205 -455v-283h-155v276l-210 462h160l132 -330l118 330h160zM359 774h-134l-102 109h178z" />
    <glyph glyph-name="Z" unicode="Z" horiz-adv-x="553" 
d="M518 738v-112l-294 -489h294v-137h-480v110l295 491h-298l19 137h464z" />
    <glyph glyph-name="Zacute" unicode="&#x179;" horiz-adv-x="553" 
d="M518 738v-112l-294 -489h294v-137h-480v110l295 491h-298l19 137h464zM212 774l58 109h178l-102 -109h-134z" />
    <glyph glyph-name="Zcaron" unicode="&#x17d;" horiz-adv-x="553" 
d="M518 738v-112l-294 -489h294v-137h-480v110l295 491h-298l19 137h464zM320 883h120l-77 -110h-171l-78 110h120l43 -42z" />
    <glyph glyph-name="Zdotaccent" unicode="&#x17b;" horiz-adv-x="553" 
d="M518 738v-112l-294 -489h294v-137h-480v110l295 491h-298l19 137h464zM220.5 794q-20.5 21 -20.5 51t20.5 50.5t56.5 20.5q37 0 57.5 -20.5t20.5 -50.5t-20.5 -51t-57.5 -21q-36 0 -56.5 21z" />
    <glyph glyph-name="a" unicode="a" horiz-adv-x="546" 
d="M431.5 514q60.5 -57 60.5 -152v-362h-143v62q-42 -68 -142 -68q-85 0 -131.5 40.5t-46.5 122.5q0 167 232 178l81 3v25q0 44 -26 63.5t-76 19.5q-44 0 -90.5 -12.5t-88.5 -38.5l19 135q42 21 85 31t93 10q113 0 173.5 -57zM317 115.5q25 19.5 25 59.5v63l-55 -3
q-60 -4 -84 -22t-24 -52q0 -65 76 -65q37 0 62 19.5z" />
    <glyph glyph-name="aacute" unicode="&#xe1;" horiz-adv-x="546" 
d="M431.5 514q60.5 -57 60.5 -152v-362h-143v62q-42 -68 -142 -68q-85 0 -131.5 40.5t-46.5 122.5q0 167 232 178l81 3v25q0 44 -26 63.5t-76 19.5q-44 0 -90.5 -12.5t-88.5 -38.5l19 135q42 21 85 31t93 10q113 0 173.5 -57zM317 115.5q25 19.5 25 59.5v63l-55 -3
q-60 -4 -84 -22t-24 -52q0 -65 76 -65q37 0 62 19.5zM194 608l69 130h173l-112 -130h-130z" />
    <glyph glyph-name="abreve" unicode="&#x103;" horiz-adv-x="546" 
d="M431.5 514q60.5 -57 60.5 -152v-362h-143v62q-42 -68 -142 -68q-85 0 -131.5 40.5t-46.5 122.5q0 167 232 178l81 3v25q0 44 -26 63.5t-76 19.5q-44 0 -90.5 -12.5t-88.5 -38.5l19 135q42 21 85 31t93 10q113 0 173.5 -57zM317 115.5q25 19.5 25 59.5v63l-55 -3
q-60 -4 -84 -22t-24 -52q0 -65 76 -65q37 0 62 19.5zM169 634q-36 32 -37 104h86q1 -22 12 -31.5t33 -9.5t33 9.5t12 31.5h86q-1 -72 -37 -104t-94 -32t-94 32z" />
    <glyph glyph-name="acircumflex" unicode="&#xe2;" horiz-adv-x="546" 
d="M431.5 514q60.5 -57 60.5 -152v-362h-143v62q-42 -68 -142 -68q-85 0 -131.5 40.5t-46.5 122.5q0 167 232 178l81 3v25q0 44 -26 63.5t-76 19.5q-44 0 -90.5 -12.5t-88.5 -38.5l19 135q42 21 85 31t93 10q113 0 173.5 -57zM317 115.5q25 19.5 25 59.5v63l-55 -3
q-60 -4 -84 -22t-24 -52q0 -65 76 -65q37 0 62 19.5zM435 608h-121l-52 54l-52 -54h-120l87 130h171z" />
    <glyph glyph-name="adieresis" unicode="&#xe4;" horiz-adv-x="546" 
d="M431.5 514q60.5 -57 60.5 -152v-362h-143v62q-42 -68 -142 -68q-85 0 -131.5 40.5t-46.5 122.5q0 167 232 178l81 3v25q0 44 -26 63.5t-76 19.5q-44 0 -90.5 -12.5t-88.5 -38.5l19 135q42 21 85 31t93 10q113 0 173.5 -57zM317 115.5q25 19.5 25 59.5v63l-55 -3
q-60 -4 -84 -22t-24 -52q0 -65 76 -65q37 0 62 19.5zM130 623.5q-18 20.5 -18 51.5t18 51.5t48 20.5t48.5 -20.5t18.5 -51.5t-18.5 -51.5t-48.5 -20.5t-48 20.5zM298.5 623.5q-18.5 20.5 -18.5 51.5t18.5 51.5t48.5 20.5t48.5 -20.5t18.5 -51.5t-18.5 -51.5t-48.5 -20.5
t-48.5 20.5z" />
    <glyph glyph-name="agrave" unicode="&#xe0;" horiz-adv-x="546" 
d="M431.5 514q60.5 -57 60.5 -152v-362h-143v62q-42 -68 -142 -68q-85 0 -131.5 40.5t-46.5 122.5q0 167 232 178l81 3v25q0 44 -26 63.5t-76 19.5q-44 0 -90.5 -12.5t-88.5 -38.5l19 135q42 21 85 31t93 10q113 0 173.5 -57zM317 115.5q25 19.5 25 59.5v63l-55 -3
q-60 -4 -84 -22t-24 -52q0 -65 76 -65q37 0 62 19.5zM332 608h-130l-112 130h173z" />
    <glyph glyph-name="amacron" unicode="&#x101;" horiz-adv-x="546" 
d="M431.5 514q60.5 -57 60.5 -152v-362h-143v62q-42 -68 -142 -68q-85 0 -131.5 40.5t-46.5 122.5q0 167 232 178l81 3v25q0 44 -26 63.5t-76 19.5q-44 0 -90.5 -12.5t-88.5 -38.5l19 135q42 21 85 31t93 10q113 0 173.5 -57zM317 115.5q25 19.5 25 59.5v63l-55 -3
q-60 -4 -84 -22t-24 -52q0 -65 76 -65q37 0 62 19.5zM155 734h215v-106h-215v106z" />
    <glyph glyph-name="aogonek" unicode="&#x105;" horiz-adv-x="546" 
d="M519 -77l-11 -83q-39 -17 -84 -17q-54 0 -83 21t-29 59q0 26 16.5 48.5t58.5 48.5h-38v62q-42 -68 -142 -68q-85 0 -131.5 40.5t-46.5 122.5q0 167 232 178l81 3v25q0 44 -26 63.5t-76 19.5q-44 0 -90.5 -12.5t-88.5 -38.5l19 135q42 21 85 31t93 10q113 0 173.5 -57
t60.5 -152v-362h-33q-27 -21 -38 -35t-11 -29q0 -14 9 -20.5t31 -6.5q37 0 69 14zM317 115.5q25 19.5 25 59.5v63l-55 -3q-60 -4 -84 -22t-24 -52q0 -65 76 -65q37 0 62 19.5z" />
    <glyph glyph-name="aring" unicode="&#xe5;" horiz-adv-x="546" 
d="M431.5 514q60.5 -57 60.5 -152v-362h-143v62q-42 -68 -142 -68q-85 0 -131.5 40.5t-46.5 122.5q0 167 232 178l81 3v25q0 44 -26 63.5t-76 19.5q-44 0 -90.5 -12.5t-88.5 -38.5l19 135q42 21 85 31t93 10q113 0 173.5 -57zM317 115.5q25 19.5 25 59.5v63l-55 -3
q-60 -4 -84 -22t-24 -52q0 -65 76 -65q37 0 62 19.5zM183.5 633.5q-30.5 29.5 -30.5 75.5q0 45 31 74.5t79 29.5t78.5 -29.5t30.5 -74.5q0 -46 -30.5 -75.5t-78.5 -29.5q-49 0 -79.5 29.5zM289.5 679q9.5 12 9.5 30t-9.5 29.5t-26.5 11.5t-27 -11.5t-10 -29.5t10 -30t27 -12
t26.5 12z" />
    <glyph glyph-name="atilde" unicode="&#xe3;" horiz-adv-x="546" 
d="M431.5 514q60.5 -57 60.5 -152v-362h-143v62q-42 -68 -142 -68q-85 0 -131.5 40.5t-46.5 122.5q0 167 232 178l81 3v25q0 44 -26 63.5t-76 19.5q-44 0 -90.5 -12.5t-88.5 -38.5l19 135q42 21 85 31t93 10q113 0 173.5 -57zM317 115.5q25 19.5 25 59.5v63l-55 -3
q-60 -4 -84 -22t-24 -52q0 -65 76 -65q37 0 62 19.5zM133 675q8 31 29.5 46.5t46.5 15.5q19 0 32.5 -7t30.5 -19q11 -8 18.5 -12t14.5 -4q20 0 20 42h77q0 -47 -8 -75q-9 -33 -30.5 -49t-47.5 -16q-18 0 -31.5 6.5t-31.5 18.5q-20 16 -32 16q-20 0 -20 -41h-77q0 49 9 78z
" />
    <glyph glyph-name="ae" unicode="&#xe6;" horiz-adv-x="858" 
d="M825 235h-334q8 -60 44.5 -88t108.5 -28q78 0 154 40l-14 -131q-36 -17 -72.5 -26t-84.5 -9q-148 0 -216 91q-55 -95 -193 -95q-88 0 -138.5 43t-50.5 125q0 167 226 178l85 3v25q0 83 -106 83q-42 0 -86.5 -12.5t-85.5 -37.5l19 135q41 21 82 30.5t89 9.5q119 0 176 -74
q30 36 72.5 55t94.5 19q113 0 172 -77t59 -223q0 -24 -1 -36zM521 419.5q-24 -28.5 -30 -87.5h183q-4 61 -24 88.5t-61 27.5q-44 0 -68 -28.5zM312 127.5q28 22.5 28 70.5v40l-60 -3q-56 -4 -78.5 -22t-22.5 -52q0 -56 63 -56q42 0 70 22.5z" />
    <glyph glyph-name="b" unicode="b" horiz-adv-x="626" 
d="M484 533q51 -38 78 -104.5t27 -149.5q0 -82 -27 -148.5t-79 -104.5t-123 -38q-59 0 -100 28.5t-62 83.5v-100h-138v778h148v-298q23 44 62 67.5t93 23.5q70 0 121 -38zM410.5 152.5q29.5 44.5 29.5 126.5t-29.5 127t-89.5 45q-113 0 -113 -171q0 -85 28 -128.5t84 -43.5
q61 0 90.5 44.5z" />
    <glyph glyph-name="c" unicode="c" horiz-adv-x="472" 
d="M167.5 26q-62.5 38 -94 104.5t-31.5 149.5q0 84 29.5 149.5t89 103.5t146.5 38q63 0 118 -20l12 -137q-51 30 -119 30q-66 0 -96 -41.5t-30 -122.5q0 -80 35 -122.5t104 -42.5q61 0 111 22v-127q-61 -22 -124 -22q-88 0 -150.5 38z" />
    <glyph glyph-name="cacute" unicode="&#x107;" horiz-adv-x="472" 
d="M167.5 26q-62.5 38 -94 104.5t-31.5 149.5q0 84 29.5 149.5t89 103.5t146.5 38q63 0 118 -20l12 -137q-51 30 -119 30q-66 0 -96 -41.5t-30 -122.5q0 -80 35 -122.5t104 -42.5q61 0 111 22v-127q-61 -22 -124 -22q-88 0 -150.5 38zM215 608l69 130h173l-112 -130h-130z
" />
    <glyph glyph-name="ccaron" unicode="&#x10d;" horiz-adv-x="472" 
d="M167.5 26q-62.5 38 -94 104.5t-31.5 149.5q0 84 29.5 149.5t89 103.5t146.5 38q63 0 118 -20l12 -137q-51 30 -119 30q-66 0 -96 -41.5t-30 -122.5q0 -80 35 -122.5t104 -42.5q61 0 111 22v-127q-61 -22 -124 -22q-88 0 -150.5 38zM335 738h121l-87 -130h-171l-87 130
h120l52 -54z" />
    <glyph glyph-name="ccedilla" unicode="&#xe7;" horiz-adv-x="472" 
d="M167.5 26q-62.5 38 -94 104.5t-31.5 149.5q0 84 29.5 149.5t89 103.5t146.5 38q63 0 118 -20l12 -137q-51 30 -119 30q-66 0 -96 -41.5t-30 -122.5q0 -80 35 -122.5t104 -42.5q61 0 111 22v-127q-61 -22 -124 -22q-88 0 -150.5 38zM225 -189l18 149h136l-52 -149h-102z
" />
    <glyph glyph-name="ccircumflex" unicode="&#x109;" horiz-adv-x="472" 
d="M167.5 26q-62.5 38 -94 104.5t-31.5 149.5q0 84 29.5 149.5t89 103.5t146.5 38q63 0 118 -20l12 -137q-51 30 -119 30q-66 0 -96 -41.5t-30 -122.5q0 -80 35 -122.5t104 -42.5q61 0 111 22v-127q-61 -22 -124 -22q-88 0 -150.5 38zM456 608h-121l-52 54l-52 -54h-120
l87 130h171z" />
    <glyph glyph-name="cdotaccent" unicode="&#x10b;" horiz-adv-x="472" 
d="M167.5 26q-62.5 38 -94 104.5t-31.5 149.5q0 84 29.5 149.5t89 103.5t146.5 38q63 0 118 -20l12 -137q-51 30 -119 30q-66 0 -96 -41.5t-30 -122.5q0 -80 35 -122.5t104 -42.5q61 0 111 22v-127q-61 -22 -124 -22q-88 0 -150.5 38zM227 624q-21 21 -21 52t21 51.5
t56 20.5q37 0 57.5 -20t20.5 -52q0 -31 -21 -52t-57 -21q-35 0 -56 21z" />
    <glyph glyph-name="d" unicode="d" horiz-adv-x="626" 
d="M565 778v-778h-137v103q-21 -56 -63 -85.5t-103 -29.5q-69 0 -120.5 38t-78.5 104.5t-27 149.5q0 82 27 148.5t78.5 104.5t122.5 38q106 0 153 -90v297h148zM417 280q0 84 -28 127.5t-84 43.5q-61 0 -90 -44.5t-29 -126.5t29.5 -127t89.5 -45q112 0 112 172z" />
    <glyph glyph-name="eth" unicode="&#xf0;" horiz-adv-x="582" 
d="M546 301q0 -145 -68.5 -228.5t-194.5 -83.5q-74 0 -130 34.5t-86.5 96t-30.5 139.5q0 79 30.5 136t81.5 87t113 30q66 0 105 -34q-34 66 -97 137l-141 -56v86l79 31q-50 48 -122 102h194q29 -26 55 -52l123 49v-86l-65 -26q154 -180 154 -362zM363.5 156.5
q25.5 40.5 25.5 101.5q0 63 -24.5 101.5t-70.5 38.5t-71 -38.5t-25 -101.5q0 -68 23.5 -105t71.5 -37q45 0 70.5 40.5z" />
    <glyph glyph-name="dcaron" unicode="&#x10f;" horiz-adv-x="626" 
d="M565 778v-778h-137v103q-21 -56 -63 -85.5t-103 -29.5q-69 0 -120.5 38t-78.5 104.5t-27 149.5q0 82 27 148.5t78.5 104.5t122.5 38q106 0 153 -90v297h148zM417 280q0 84 -28 127.5t-84 43.5q-61 0 -90 -44.5t-29 -126.5t29.5 -127t89.5 -45q112 0 112 172zM615 630v148
h125l-35 -148h-90z" />
    <glyph glyph-name="dcroat" unicode="&#x111;" horiz-adv-x="626" 
d="M623 607h-58v-607h-137v103q-21 -56 -63 -85.5t-103 -29.5q-69 0 -120.5 38t-78.5 104.5t-27 149.5q0 82 27 148.5t78.5 104.5t122.5 38q106 0 153 -90v126h-148v80h148v91h148v-91h58v-80zM417 280q0 84 -28 127.5t-84 43.5q-61 0 -90 -44.5t-29 -126.5t29.5 -127
t89.5 -45q112 0 112 172z" />
    <glyph glyph-name="e" unicode="e" horiz-adv-x="558" 
d="M525 235h-337q8 -61 43.5 -88.5t106.5 -27.5q84 0 161 40l-14 -131q-36 -17 -75 -26t-89 -9q-138 0 -211.5 73t-73.5 213q0 84 30 150t87.5 104t136.5 38q116 0 176 -77t60 -223q0 -24 -1 -36zM217.5 419.5q-22.5 -28.5 -28.5 -87.5h185q-3 61 -25 88.5t-66 27.5
q-43 0 -65.5 -28.5z" />
    <glyph glyph-name="eacute" unicode="&#xe9;" horiz-adv-x="558" 
d="M525 235h-337q8 -61 43.5 -88.5t106.5 -27.5q84 0 161 40l-14 -131q-36 -17 -75 -26t-89 -9q-138 0 -211.5 73t-73.5 213q0 84 30 150t87.5 104t136.5 38q116 0 176 -77t60 -223q0 -24 -1 -36zM217.5 419.5q-22.5 -28.5 -28.5 -87.5h185q-3 61 -25 88.5t-66 27.5
q-43 0 -65.5 -28.5zM221 608l69 130h173l-112 -130h-130z" />
    <glyph glyph-name="ebreve" unicode="&#x115;" horiz-adv-x="558" 
d="M525 235h-337q8 -61 43.5 -88.5t106.5 -27.5q84 0 161 40l-14 -131q-36 -17 -75 -26t-89 -9q-138 0 -211.5 73t-73.5 213q0 84 30 150t87.5 104t136.5 38q116 0 176 -77t60 -223q0 -24 -1 -36zM217.5 419.5q-22.5 -28.5 -28.5 -87.5h185q-3 61 -25 88.5t-66 27.5
q-43 0 -65.5 -28.5zM196 634q-36 32 -37 104h86q1 -22 12 -31.5t33 -9.5t33 9.5t12 31.5h86q-1 -72 -37 -104t-94 -32t-94 32z" />
    <glyph glyph-name="ecaron" unicode="&#x11b;" horiz-adv-x="558" 
d="M525 235h-337q8 -61 43.5 -88.5t106.5 -27.5q84 0 161 40l-14 -131q-36 -17 -75 -26t-89 -9q-138 0 -211.5 73t-73.5 213q0 84 30 150t87.5 104t136.5 38q116 0 176 -77t60 -223q0 -24 -1 -36zM217.5 419.5q-22.5 -28.5 -28.5 -87.5h185q-3 61 -25 88.5t-66 27.5
q-43 0 -65.5 -28.5zM341 738h121l-87 -130h-171l-87 130h120l52 -54z" />
    <glyph glyph-name="ecircumflex" unicode="&#xea;" horiz-adv-x="558" 
d="M525 235h-337q8 -61 43.5 -88.5t106.5 -27.5q84 0 161 40l-14 -131q-36 -17 -75 -26t-89 -9q-138 0 -211.5 73t-73.5 213q0 84 30 150t87.5 104t136.5 38q116 0 176 -77t60 -223q0 -24 -1 -36zM217.5 419.5q-22.5 -28.5 -28.5 -87.5h185q-3 61 -25 88.5t-66 27.5
q-43 0 -65.5 -28.5zM462 608h-121l-52 54l-52 -54h-120l87 130h171z" />
    <glyph glyph-name="edieresis" unicode="&#xeb;" horiz-adv-x="558" 
d="M525 235h-337q8 -61 43.5 -88.5t106.5 -27.5q84 0 161 40l-14 -131q-36 -17 -75 -26t-89 -9q-138 0 -211.5 73t-73.5 213q0 84 30 150t87.5 104t136.5 38q116 0 176 -77t60 -223q0 -24 -1 -36zM217.5 419.5q-22.5 -28.5 -28.5 -87.5h185q-3 61 -25 88.5t-66 27.5
q-43 0 -65.5 -28.5zM157 623.5q-18 20.5 -18 51.5t18 51.5t48 20.5t48.5 -20.5t18.5 -51.5t-18.5 -51.5t-48.5 -20.5t-48 20.5zM325.5 623.5q-18.5 20.5 -18.5 51.5t18.5 51.5t48.5 20.5t48.5 -20.5t18.5 -51.5t-18.5 -51.5t-48.5 -20.5t-48.5 20.5z" />
    <glyph glyph-name="edotaccent" unicode="&#x117;" horiz-adv-x="558" 
d="M525 235h-337q8 -61 43.5 -88.5t106.5 -27.5q84 0 161 40l-14 -131q-36 -17 -75 -26t-89 -9q-138 0 -211.5 73t-73.5 213q0 84 30 150t87.5 104t136.5 38q116 0 176 -77t60 -223q0 -24 -1 -36zM217.5 419.5q-22.5 -28.5 -28.5 -87.5h185q-3 61 -25 88.5t-66 27.5
q-43 0 -65.5 -28.5zM233 624q-21 21 -21 52t21 51.5t56 20.5q37 0 57.5 -20t20.5 -52q0 -31 -21 -52t-57 -21q-35 0 -56 21z" />
    <glyph glyph-name="egrave" unicode="&#xe8;" horiz-adv-x="558" 
d="M525 235h-337q8 -61 43.5 -88.5t106.5 -27.5q84 0 161 40l-14 -131q-36 -17 -75 -26t-89 -9q-138 0 -211.5 73t-73.5 213q0 84 30 150t87.5 104t136.5 38q116 0 176 -77t60 -223q0 -24 -1 -36zM217.5 419.5q-22.5 -28.5 -28.5 -87.5h185q-3 61 -25 88.5t-66 27.5
q-43 0 -65.5 -28.5zM359 608h-130l-112 130h173z" />
    <glyph glyph-name="emacron" unicode="&#x113;" horiz-adv-x="558" 
d="M525 235h-337q8 -61 43.5 -88.5t106.5 -27.5q84 0 161 40l-14 -131q-36 -17 -75 -26t-89 -9q-138 0 -211.5 73t-73.5 213q0 84 30 150t87.5 104t136.5 38q116 0 176 -77t60 -223q0 -24 -1 -36zM217.5 419.5q-22.5 -28.5 -28.5 -87.5h185q-3 61 -25 88.5t-66 27.5
q-43 0 -65.5 -28.5zM182 734h215v-106h-215v106z" />
    <glyph glyph-name="eogonek" unicode="&#x119;" horiz-adv-x="558" 
d="M525 235h-337q8 -61 43.5 -88.5t106.5 -27.5q84 0 161 40l-14 -131q-50 -24 -105 -31q-25 -20 -35 -33.5t-10 -27.5t9 -20.5t31 -6.5q37 0 69 14l-11 -83q-39 -17 -84 -17q-54 0 -83 21t-29 59q0 25 14.5 45.5t50.5 44.5q-129 5 -197.5 78t-68.5 208q0 84 30 150
t87.5 104t136.5 38q116 0 176 -77t60 -223q0 -24 -1 -36zM217.5 419.5q-22.5 -28.5 -28.5 -87.5h185q-3 61 -25 88.5t-66 27.5q-43 0 -65.5 -28.5z" />
    <glyph glyph-name="f" unicode="f" horiz-adv-x="406" 
d="M246 559h140v-118h-140v-441h-148v441h-80v118h80v39q0 83 45 137.5t150 54.5q38 0 78 -10l17 -113q-38 12 -72 12q-39 0 -54.5 -17.5t-15.5 -54.5v-48z" />
    <glyph glyph-name="g" unicode="g" horiz-adv-x="618" 
d="M557 559v-510q0 -122 -69 -187.5t-212 -65.5q-91 0 -163 29l-10 131q37 -20 77.5 -30.5t94.5 -10.5q63 0 98.5 29.5t35.5 104.5v40q-46 -82 -147 -82q-69 0 -120.5 36.5t-78.5 100t-27 142.5q0 81 27 145.5t78.5 102t123.5 37.5q56 0 95 -27.5t60 -79.5v95h137zM409 286
q0 83 -26 125.5t-78 42.5q-61 0 -90 -44t-29 -124q0 -77 29.5 -120t88.5 -43q105 0 105 163z" />
    <glyph glyph-name="gbreve" unicode="&#x11f;" horiz-adv-x="618" 
d="M557 559v-510q0 -122 -69 -187.5t-212 -65.5q-91 0 -163 29l-10 131q37 -20 77.5 -30.5t94.5 -10.5q63 0 98.5 29.5t35.5 104.5v40q-46 -82 -147 -82q-69 0 -120.5 36.5t-78.5 100t-27 142.5q0 81 27 145.5t78.5 102t123.5 37.5q56 0 95 -27.5t60 -79.5v95h137zM409 286
q0 83 -26 125.5t-78 42.5q-61 0 -90 -44t-29 -124q0 -77 29.5 -120t88.5 -43q105 0 105 163zM207 634q-36 32 -37 104h86q1 -22 12 -31.5t33 -9.5t33 9.5t12 31.5h86q-1 -72 -37 -104t-94 -32t-94 32z" />
    <glyph glyph-name="gcircumflex" unicode="&#x11d;" horiz-adv-x="618" 
d="M557 559v-510q0 -122 -69 -187.5t-212 -65.5q-91 0 -163 29l-10 131q37 -20 77.5 -30.5t94.5 -10.5q63 0 98.5 29.5t35.5 104.5v40q-46 -82 -147 -82q-69 0 -120.5 36.5t-78.5 100t-27 142.5q0 81 27 145.5t78.5 102t123.5 37.5q56 0 95 -27.5t60 -79.5v95h137zM409 286
q0 83 -26 125.5t-78 42.5q-61 0 -90 -44t-29 -124q0 -77 29.5 -120t88.5 -43q105 0 105 163zM473 608h-121l-52 54l-52 -54h-120l87 130h171z" />
    <glyph glyph-name="gcommaaccent" unicode="&#x123;" horiz-adv-x="618" 
d="M557 559v-510q0 -122 -69 -187.5t-212 -65.5q-91 0 -163 29l-10 131q37 -20 77.5 -30.5t94.5 -10.5q63 0 98.5 29.5t35.5 104.5v40q-46 -82 -147 -82q-69 0 -120.5 36.5t-78.5 100t-27 142.5q0 81 27 145.5t78.5 102t123.5 37.5q56 0 95 -27.5t60 -79.5v95h137zM409 286
q0 83 -26 125.5t-78 42.5q-61 0 -90 -44t-29 -124q0 -77 29.5 -120t88.5 -43q105 0 105 163zM362 703.5q15 -16.5 15 -40.5q0 -27 -20 -47t-54 -20q-36 0 -57.5 21t-21.5 58q0 47 27.5 81.5t91.5 34.5q17 0 35 -3l1 -48q-15 3 -26 3q-32 0 -36 -23h2q28 0 43 -16.5z" />
    <glyph glyph-name="gdotaccent" unicode="&#x121;" horiz-adv-x="618" 
d="M557 559v-510q0 -122 -69 -187.5t-212 -65.5q-91 0 -163 29l-10 131q37 -20 77.5 -30.5t94.5 -10.5q63 0 98.5 29.5t35.5 104.5v40q-46 -82 -147 -82q-69 0 -120.5 36.5t-78.5 100t-27 142.5q0 81 27 145.5t78.5 102t123.5 37.5q56 0 95 -27.5t60 -79.5v95h137zM409 286
q0 83 -26 125.5t-78 42.5q-61 0 -90 -44t-29 -124q0 -77 29.5 -120t88.5 -43q105 0 105 163zM244 624q-21 21 -21 52t21 51.5t56 20.5q37 0 57.5 -20t20.5 -52q0 -31 -21 -52t-57 -21q-35 0 -56 21z" />
    <glyph glyph-name="h" unicode="h" horiz-adv-x="617" 
d="M517.5 511q45.5 -60 45.5 -159v-352h-148v316q0 67 -21.5 103.5t-75.5 36.5q-55 0 -82.5 -38t-27.5 -94v-324h-148v778h148v-290q27 42 70.5 62.5t98.5 20.5q95 0 140.5 -60z" />
    <glyph glyph-name="hbar" unicode="&#x127;" horiz-adv-x="617" 
d="M517.5 511q45.5 -60 45.5 -159v-352h-148v316q0 67 -21.5 103.5t-75.5 36.5q-55 0 -82.5 -38t-27.5 -94v-324h-148v607h-57v80h57v91h148v-91h149v-80h-149v-119q27 42 70.5 62.5t98.5 20.5q95 0 140.5 -60z" />
    <glyph glyph-name="hcircumflex" unicode="&#x125;" horiz-adv-x="617" 
d="M517.5 511q45.5 -60 45.5 -159v-352h-148v316q0 67 -21.5 103.5t-75.5 36.5q-55 0 -82.5 -38t-27.5 -94v-324h-148v778h148v-290q27 42 70.5 62.5t98.5 20.5q95 0 140.5 -60zM474 813h-120l-43 43l-43 -43h-120l78 110h171z" />
    <glyph glyph-name="i" unicode="i" horiz-adv-x="273" 
d="M72 657q-23 21 -23 56t23 55.5t65 20.5t64.5 -20.5t22.5 -55.5t-22.5 -56t-64.5 -21t-65 21zM60 0v559h148v-559h-148z" />
    <glyph glyph-name="dotlessi" unicode="&#x131;" horiz-adv-x="269" 
d="M60 0v559h148v-559h-148z" />
    <glyph glyph-name="iacute" unicode="&#xed;" horiz-adv-x="269" 
d="M60 0v559h148v-559h-148zM65 608l69 130h173l-112 -130h-130z" />
    <glyph glyph-name="ibreve" unicode="&#x12d;" horiz-adv-x="269" 
d="M60 0v559h148v-559h-148zM40 634q-36 32 -37 104h86q1 -22 12 -31.5t33 -9.5t33 9.5t12 31.5h86q-1 -72 -37 -104t-94 -32t-94 32z" />
    <glyph glyph-name="icircumflex" unicode="&#xee;" horiz-adv-x="269" 
d="M60 0v559h148v-559h-148zM306 608h-121l-52 54l-52 -54h-120l87 130h171z" />
    <glyph glyph-name="idieresis" unicode="&#xef;" horiz-adv-x="269" 
d="M60 0v559h148v-559h-148zM1 623.5q-18 20.5 -18 51.5t18 51.5t48 20.5t48.5 -20.5t18.5 -51.5t-18.5 -51.5t-48.5 -20.5t-48 20.5zM169.5 623.5q-18.5 20.5 -18.5 51.5t18.5 51.5t48.5 20.5t48.5 -20.5t18.5 -51.5t-18.5 -51.5t-48.5 -20.5t-48.5 20.5z" />
    <glyph glyph-name="igrave" unicode="&#xec;" horiz-adv-x="269" 
d="M60 0v559h148v-559h-148zM203 608h-130l-112 130h173z" />
    <glyph glyph-name="ij" unicode="&#x133;" horiz-adv-x="546" 
d="M72 657q-23 21 -23 56t23 55.5t65 20.5t64.5 -20.5t22.5 -55.5t-22.5 -56t-64.5 -21t-65 21zM60 0v559h148v-559h-148zM481 559v-586q0 -79 -44 -127.5t-144 -48.5q-27 0 -63 4l-13 111q19 -5 50 -5q37 0 51.5 14t14.5 49v589h148zM345 657q-23 21 -23 56t23 55.5
t65 20.5t64.5 -20.5t22.5 -55.5t-22.5 -56t-64.5 -21t-65 21z" />
    <glyph glyph-name="imacron" unicode="&#x12b;" horiz-adv-x="269" 
d="M60 0v559h148v-559h-148zM26 734h215v-106h-215v106z" />
    <glyph glyph-name="iogonek" unicode="&#x12f;" horiz-adv-x="273" 
d="M72 657q-23 21 -23 56t23 55.5t65 20.5t64.5 -20.5t22.5 -55.5t-22.5 -56t-64.5 -21t-65 21zM235 -77l-11 -83q-39 -17 -84 -17q-54 0 -83 21t-29 59q0 26 16.5 48.5t58.5 48.5h-43v559h148v-559h-33q-27 -21 -38 -35t-11 -29q0 -14 9 -20.5t31 -6.5q37 0 69 14z" />
    <glyph glyph-name="itilde" unicode="&#x129;" horiz-adv-x="269" 
d="M60 0v559h148v-559h-148zM4 675q8 31 29.5 46.5t46.5 15.5q19 0 32.5 -7t30.5 -19q11 -8 18.5 -12t14.5 -4q20 0 20 42h77q0 -47 -8 -75q-9 -33 -30.5 -49t-47.5 -16q-18 0 -31.5 6.5t-31.5 18.5q-20 16 -32 16q-20 0 -20 -41h-77q0 49 9 78z" />
    <glyph glyph-name="j" unicode="j" horiz-adv-x="273" 
d="M208 559v-586q0 -79 -44 -127.5t-144 -48.5q-27 0 -63 4l-13 111q19 -5 50 -5q37 0 51.5 14t14.5 49v589h148zM72 657q-23 21 -23 56t23 55.5t65 20.5t64.5 -20.5t22.5 -55.5t-22.5 -56t-64.5 -21t-65 21z" />
    <glyph glyph-name="dotlessj" unicode="&#x237;" horiz-adv-x="269" 
d="M208 559v-586q0 -79 -44 -127.5t-144 -48.5q-27 0 -63 4l-13 111q19 -5 50 -5q37 0 51.5 14t14.5 49v589h148z" />
    <glyph glyph-name="jcircumflex" unicode="&#x135;" horiz-adv-x="269" 
d="M208 559v-586q0 -79 -44 -127.5t-144 -48.5q-27 0 -63 4l-13 111q19 -5 50 -5q37 0 51.5 14t14.5 49v589h148zM306 608h-121l-52 54l-52 -54h-120l87 130h171z" />
    <glyph glyph-name="k" unicode="k" horiz-adv-x="538" 
d="M532 0h-179l-145 248v-248h-148v778h148v-443l146 224h169l-185 -259z" />
    <glyph glyph-name="kcommaaccent" unicode="&#x137;" horiz-adv-x="538" 
d="M532 0h-179l-145 248v-248h-148v778h148v-443l146 224h169l-185 -259zM324.5 -58q21.5 -21 21.5 -59q0 -46 -27.5 -80.5t-91.5 -34.5q-17 0 -35 3l-1 48q15 -3 26 -3q32 0 36 22h-2q-28 0 -43 16.5t-15 40.5q0 28 20 48t54 20q36 0 57.5 -21z" />
    <glyph glyph-name="kgreenlandic" unicode="&#x138;" horiz-adv-x="546" 
d="M540 0h-180l-151 249v-249h-148v559h148v-225l151 225h170l-191 -259z" />
    <glyph glyph-name="l" unicode="l" horiz-adv-x="269" 
d="M60 0v778h148v-778h-148z" />
    <glyph glyph-name="lacute" unicode="&#x13a;" horiz-adv-x="269" 
d="M60 0v778h148v-778h-148zM68 814l58 109h178l-102 -109h-134z" />
    <glyph glyph-name="lcaron" unicode="&#x13e;" horiz-adv-x="269" 
d="M60 0v778h148v-778h-148zM258 630v148h125l-35 -148h-90z" />
    <glyph glyph-name="lcommaaccent" unicode="&#x13c;" horiz-adv-x="269" 
d="M60 0v778h148v-778h-148zM189.5 -58q21.5 -21 21.5 -59q0 -46 -27.5 -80.5t-91.5 -34.5q-17 0 -35 3l-1 48q15 -3 26 -3q32 0 36 22h-2q-28 0 -43 16.5t-15 40.5q0 28 20 48t54 20q36 0 57.5 -21z" />
    <glyph glyph-name="ldot" unicode="&#x140;" horiz-adv-x="407" 
d="M60 0v778h148v-778h-148zM274.5 249.5q-24.5 23.5 -24.5 60.5t24.5 60.5t63.5 23.5q40 0 64 -23.5t24 -60.5t-24 -60.5t-64 -23.5q-39 0 -63.5 23.5z" />
    <glyph glyph-name="lslash" unicode="&#x142;" horiz-adv-x="309" 
d="M289 516v-117l-61 -47v-352h-148v249l-62 -47v117l62 47v412h148v-309z" />
    <glyph glyph-name="m" unicode="m" horiz-adv-x="930" 
d="M833.5 514.5q42.5 -56.5 42.5 -152.5v-362h-148v327q0 63 -19 96t-68 33t-73.5 -37.5t-24.5 -92.5v-326h-148v327q0 63 -19.5 96t-68.5 33t-74 -37.5t-25 -92.5v-326h-148v559h138v-84q49 96 168 96q116 0 157 -97q26 49 71.5 73t105.5 24q91 0 133.5 -56.5z" />
    <glyph glyph-name="n" unicode="n" horiz-adv-x="617" 
d="M517.5 511q45.5 -60 45.5 -159v-352h-148v316q0 67 -21.5 103.5t-75.5 36.5q-55 0 -82.5 -38t-27.5 -94v-324h-148v559h138v-88q26 51 72 75.5t107 24.5q95 0 140.5 -60z" />
    <glyph glyph-name="nacute" unicode="&#x144;" horiz-adv-x="617" 
d="M517.5 511q45.5 -60 45.5 -159v-352h-148v316q0 67 -21.5 103.5t-75.5 36.5q-55 0 -82.5 -38t-27.5 -94v-324h-148v559h138v-88q26 51 72 75.5t107 24.5q95 0 140.5 -60zM240 608l69 130h173l-112 -130h-130z" />
    <glyph glyph-name="napostrophe" unicode="&#x149;" horiz-adv-x="902" 
d="M211 723.5q24 -26.5 24 -70.5q0 -67 -42 -119t-114 -64l-29 53q64 18 77 65q-31 1 -49.5 23.5t-18.5 55.5q0 35 24 59t63 24q41 0 65 -26.5zM802.5 511q45.5 -60 45.5 -159v-352h-148v316q0 67 -21.5 103.5t-75.5 36.5q-55 0 -82.5 -38t-27.5 -94v-324h-148v559h138v-88
q26 51 72 75.5t107 24.5q95 0 140.5 -60z" />
    <glyph glyph-name="ncaron" unicode="&#x148;" horiz-adv-x="617" 
d="M517.5 511q45.5 -60 45.5 -159v-352h-148v316q0 67 -21.5 103.5t-75.5 36.5q-55 0 -82.5 -38t-27.5 -94v-324h-148v559h138v-88q26 51 72 75.5t107 24.5q95 0 140.5 -60zM360 738h121l-87 -130h-171l-87 130h120l52 -54z" />
    <glyph glyph-name="ncommaaccent" unicode="&#x146;" horiz-adv-x="617" 
d="M517.5 511q45.5 -60 45.5 -159v-352h-148v316q0 67 -21.5 103.5t-75.5 36.5q-55 0 -82.5 -38t-27.5 -94v-324h-148v559h138v-88q26 51 72 75.5t107 24.5q95 0 140.5 -60zM364.5 -58q21.5 -21 21.5 -59q0 -46 -27.5 -80.5t-91.5 -34.5q-17 0 -35 3l-1 48q15 -3 26 -3
q32 0 36 22h-2q-28 0 -43 16.5t-15 40.5q0 28 20 48t54 20q36 0 57.5 -21z" />
    <glyph glyph-name="eng" unicode="&#x14b;" horiz-adv-x="612" 
d="M517.5 511q45.5 -60 45.5 -159v-357q0 -78 -44.5 -127t-144.5 -49q-31 0 -63 5l-13 110q27 -5 51 -5q37 0 51.5 14t14.5 49v324q0 67 -21.5 103.5t-75.5 36.5q-55 0 -82.5 -38t-27.5 -94v-324h-148v559h138v-88q26 51 72 75.5t107 24.5q95 0 140.5 -60z" />
    <glyph glyph-name="ntilde" unicode="&#xf1;" horiz-adv-x="617" 
d="M517.5 511q45.5 -60 45.5 -159v-352h-148v316q0 67 -21.5 103.5t-75.5 36.5q-55 0 -82.5 -38t-27.5 -94v-324h-148v559h138v-88q26 51 72 75.5t107 24.5q95 0 140.5 -60zM179 675q8 31 29.5 46.5t46.5 15.5q19 0 32.5 -7t30.5 -19q11 -8 18.5 -12t14.5 -4q20 0 20 42h77
q0 -47 -8 -75q-9 -33 -30.5 -49t-47.5 -16q-18 0 -31.5 6.5t-31.5 18.5q-20 16 -32 16q-20 0 -20 -41h-77q0 49 9 78z" />
    <glyph glyph-name="o" unicode="o" horiz-adv-x="605" 
d="M157.5 26q-59.5 38 -90.5 104.5t-31 149.5t31 149t91.5 104t144.5 38q83 0 143 -38t91 -104.5t31 -149.5t-31 -149t-91.5 -104t-145.5 -38q-83 0 -142.5 38zM389.5 153q29.5 45 29.5 126t-29.5 126.5t-87.5 45.5q-59 0 -87.5 -44.5t-28.5 -126.5t29 -127t86 -45
q59 0 88.5 45z" />
    <glyph glyph-name="oacute" unicode="&#xf3;" horiz-adv-x="605" 
d="M157.5 26q-59.5 38 -90.5 104.5t-31 149.5t31 149t91.5 104t144.5 38q83 0 143 -38t91 -104.5t31 -149.5t-31 -149t-91.5 -104t-145.5 -38q-83 0 -142.5 38zM389.5 153q29.5 45 29.5 126t-29.5 126.5t-87.5 45.5q-59 0 -87.5 -44.5t-28.5 -126.5t29 -127t86 -45
q59 0 88.5 45zM233 608l69 130h173l-112 -130h-130z" />
    <glyph glyph-name="obreve" unicode="&#x14f;" horiz-adv-x="605" 
d="M157.5 26q-59.5 38 -90.5 104.5t-31 149.5t31 149t91.5 104t144.5 38q83 0 143 -38t91 -104.5t31 -149.5t-31 -149t-91.5 -104t-145.5 -38q-83 0 -142.5 38zM389.5 153q29.5 45 29.5 126t-29.5 126.5t-87.5 45.5q-59 0 -87.5 -44.5t-28.5 -126.5t29 -127t86 -45
q59 0 88.5 45zM208 634q-36 32 -37 104h86q1 -22 12 -31.5t33 -9.5t33 9.5t12 31.5h86q-1 -72 -37 -104t-94 -32t-94 32z" />
    <glyph glyph-name="ocircumflex" unicode="&#xf4;" horiz-adv-x="605" 
d="M157.5 26q-59.5 38 -90.5 104.5t-31 149.5t31 149t91.5 104t144.5 38q83 0 143 -38t91 -104.5t31 -149.5t-31 -149t-91.5 -104t-145.5 -38q-83 0 -142.5 38zM389.5 153q29.5 45 29.5 126t-29.5 126.5t-87.5 45.5q-59 0 -87.5 -44.5t-28.5 -126.5t29 -127t86 -45
q59 0 88.5 45zM474 608h-121l-52 54l-52 -54h-120l87 130h171z" />
    <glyph glyph-name="odieresis" unicode="&#xf6;" horiz-adv-x="605" 
d="M157.5 26q-59.5 38 -90.5 104.5t-31 149.5t31 149t91.5 104t144.5 38q83 0 143 -38t91 -104.5t31 -149.5t-31 -149t-91.5 -104t-145.5 -38q-83 0 -142.5 38zM389.5 153q29.5 45 29.5 126t-29.5 126.5t-87.5 45.5q-59 0 -87.5 -44.5t-28.5 -126.5t29 -127t86 -45
q59 0 88.5 45zM169 623.5q-18 20.5 -18 51.5t18 51.5t48 20.5t48.5 -20.5t18.5 -51.5t-18.5 -51.5t-48.5 -20.5t-48 20.5zM337.5 623.5q-18.5 20.5 -18.5 51.5t18.5 51.5t48.5 20.5t48.5 -20.5t18.5 -51.5t-18.5 -51.5t-48.5 -20.5t-48.5 20.5z" />
    <glyph glyph-name="ograve" unicode="&#xf2;" horiz-adv-x="605" 
d="M157.5 26q-59.5 38 -90.5 104.5t-31 149.5t31 149t91.5 104t144.5 38q83 0 143 -38t91 -104.5t31 -149.5t-31 -149t-91.5 -104t-145.5 -38q-83 0 -142.5 38zM389.5 153q29.5 45 29.5 126t-29.5 126.5t-87.5 45.5q-59 0 -87.5 -44.5t-28.5 -126.5t29 -127t86 -45
q59 0 88.5 45zM371 608h-130l-112 130h173z" />
    <glyph glyph-name="ohungarumlaut" unicode="&#x151;" horiz-adv-x="605" 
d="M157.5 26q-59.5 38 -90.5 104.5t-31 149.5t31 149t91.5 104t144.5 38q83 0 143 -38t91 -104.5t31 -149.5t-31 -149t-91.5 -104t-145.5 -38q-83 0 -142.5 38zM389.5 153q29.5 45 29.5 126t-29.5 126.5t-87.5 45.5q-59 0 -87.5 -44.5t-28.5 -126.5t29 -127t86 -45
q59 0 88.5 45zM161 599l21 139h145l-64 -139h-102zM328 599l48 139h145l-91 -139h-102z" />
    <glyph glyph-name="omacron" unicode="&#x14d;" horiz-adv-x="605" 
d="M157.5 26q-59.5 38 -90.5 104.5t-31 149.5t31 149t91.5 104t144.5 38q83 0 143 -38t91 -104.5t31 -149.5t-31 -149t-91.5 -104t-145.5 -38q-83 0 -142.5 38zM389.5 153q29.5 45 29.5 126t-29.5 126.5t-87.5 45.5q-59 0 -87.5 -44.5t-28.5 -126.5t29 -127t86 -45
q59 0 88.5 45zM194 734h215v-106h-215v106z" />
    <glyph glyph-name="oslash" unicode="&#xf8;" horiz-adv-x="605" 
d="M568 279q0 -83 -31 -149t-91.5 -104t-145.5 -38q-94 0 -157 48l-32 -37l-62 52l38 44q-51 77 -51 185q0 83 31 149t91.5 104t144.5 38q93 0 159 -49l32 37l62 -52l-38 -44q50 -76 50 -184zM186 208l193 220q-31 28 -77 28q-62 0 -92.5 -46.5t-30.5 -129.5q0 -43 7 -72z
M395 149.5q31 46.5 31 129.5q0 42 -7 71l-193 -220q30 -27 75 -27q63 0 94 46.5z" />
    <glyph glyph-name="otilde" unicode="&#xf5;" horiz-adv-x="605" 
d="M157.5 26q-59.5 38 -90.5 104.5t-31 149.5t31 149t91.5 104t144.5 38q83 0 143 -38t91 -104.5t31 -149.5t-31 -149t-91.5 -104t-145.5 -38q-83 0 -142.5 38zM389.5 153q29.5 45 29.5 126t-29.5 126.5t-87.5 45.5q-59 0 -87.5 -44.5t-28.5 -126.5t29 -127t86 -45
q59 0 88.5 45zM172 675q8 31 29.5 46.5t46.5 15.5q19 0 32.5 -7t30.5 -19q11 -8 18.5 -12t14.5 -4q20 0 20 42h77q0 -47 -8 -75q-9 -33 -30.5 -49t-47.5 -16q-18 0 -31.5 6.5t-31.5 18.5q-20 16 -32 16q-20 0 -20 -41h-77q0 49 9 78z" />
    <glyph glyph-name="oe" unicode="&#x153;" horiz-adv-x="935" 
d="M902 235h-333q8 -60 44.5 -88t108.5 -28q81 0 155 40l-7 -127q-34 -19 -74 -29t-92 -10q-145 0 -213 89q-32 -45 -81 -69.5t-113 -24.5q-81 0 -140 38t-90 104.5t-31 149.5t31 149t90.5 104t142.5 38q62 0 110.5 -24.5t79.5 -68.5q31 44 77.5 68.5t104.5 24.5
q114 0 172.5 -76.5t58.5 -222.5q0 -24 -1 -37zM387 152.5q29 44.5 29 126.5t-29 127t-88 45q-56 0 -84.5 -45t-28.5 -126t28.5 -126.5t83.5 -45.5q60 0 89 44.5zM599 419.5q-24 -28.5 -30 -87.5h182q-3 61 -23.5 88.5t-60.5 27.5q-44 0 -68 -28.5z" />
    <glyph glyph-name="p" unicode="p" horiz-adv-x="626" 
d="M484 533q51 -38 78 -104.5t27 -149.5q0 -82 -27 -148.5t-79 -104.5t-123 -38q-105 0 -152 90v-270h-148v751h138v-101q21 55 63 84t102 29q70 0 121 -38zM410.5 152.5q29.5 44.5 29.5 126.5t-29.5 127t-89.5 45q-113 0 -113 -171q0 -85 28 -128.5t84 -43.5
q61 0 90.5 44.5z" />
    <glyph glyph-name="thorn" unicode="&#xfe;" horiz-adv-x="634" 
d="M490 533q52 -38 80 -104.5t28 -149.5q0 -82 -27.5 -148.5t-80.5 -104.5t-125 -38q-54 0 -93.5 23.5t-63.5 68.5v-243h-148v941h148v-299q24 45 64 68.5t96 23.5q70 0 122 -38zM418 152.5q30 44.5 30 126.5t-30.5 127t-91.5 45q-59 0 -88.5 -43.5t-29.5 -127.5t29.5 -128
t87.5 -44q63 0 93 44.5z" />
    <glyph glyph-name="q" unicode="q" horiz-adv-x="626" 
d="M565 559v-751h-148v270q-47 -90 -155 -90q-69 0 -120.5 38t-78.5 104.5t-27 149.5q0 82 27 148.5t78.5 104.5t122.5 38q60 0 101.5 -29.5t62.5 -84.5v102h137zM417 280q0 84 -28 127.5t-84 43.5q-61 0 -90 -44.5t-29 -126.5t29.5 -127t89.5 -45q112 0 112 172z" />
    <glyph glyph-name="r" unicode="r" horiz-adv-x="428" 
d="M411 411q-26 6 -52 6q-62 0 -106.5 -28.5t-44.5 -77.5v-311h-148v559h138v-119q22 58 69.5 91t120.5 37z" />
    <glyph glyph-name="racute" unicode="&#x155;" horiz-adv-x="428" 
d="M411 411q-26 6 -52 6q-62 0 -106.5 -28.5t-44.5 -77.5v-311h-148v559h138v-119q22 58 69.5 91t120.5 37zM156 608l69 130h173l-112 -130h-130z" />
    <glyph glyph-name="rcaron" unicode="&#x159;" horiz-adv-x="428" 
d="M411 411q-26 6 -52 6q-62 0 -106.5 -28.5t-44.5 -77.5v-311h-148v559h138v-119q22 58 69.5 91t120.5 37zM276 738h121l-87 -130h-171l-87 130h120l52 -54z" />
    <glyph glyph-name="rcommaaccent" unicode="&#x157;" horiz-adv-x="428" 
d="M411 411q-26 6 -52 6q-62 0 -106.5 -28.5t-44.5 -77.5v-311h-148v559h138v-119q22 58 69.5 91t120.5 37zM195.5 -58q21.5 -21 21.5 -59q0 -46 -27.5 -80.5t-91.5 -34.5q-17 0 -35 3l-1 48q15 -3 26 -3q32 0 36 22h-2q-28 0 -43 16.5t-15 40.5q0 28 20 48t54 20
q36 0 57.5 -21z" />
    <glyph glyph-name="s" unicode="s" horiz-adv-x="440" 
d="M42 18l-13 129q83 -40 157 -40q82 0 82 55q0 20 -19 34.5t-68 31.5q-86 30 -122.5 70.5t-36.5 101.5q0 50 26 88.5t74.5 60.5t111.5 22q81 0 137 -27l19 -131q-33 19 -70.5 30t-70.5 11t-54.5 -14t-21.5 -39q0 -22 20 -37.5t71 -32.5q85 -29 121 -67.5t36 -97.5
q0 -54 -27 -94.5t-74 -62t-105 -21.5q-94 0 -173 30z" />
    <glyph glyph-name="sacute" unicode="&#x15b;" horiz-adv-x="440" 
d="M42 18l-13 129q83 -40 157 -40q82 0 82 55q0 20 -19 34.5t-68 31.5q-86 30 -122.5 70.5t-36.5 101.5q0 50 26 88.5t74.5 60.5t111.5 22q81 0 137 -27l19 -131q-33 19 -70.5 30t-70.5 11t-54.5 -14t-21.5 -39q0 -22 20 -37.5t71 -32.5q85 -29 121 -67.5t36 -97.5
q0 -54 -27 -94.5t-74 -62t-105 -21.5q-94 0 -173 30zM149 608l69 130h173l-112 -130h-130z" />
    <glyph glyph-name="scaron" unicode="&#x161;" horiz-adv-x="440" 
d="M42 18l-13 129q83 -40 157 -40q82 0 82 55q0 20 -19 34.5t-68 31.5q-86 30 -122.5 70.5t-36.5 101.5q0 50 26 88.5t74.5 60.5t111.5 22q81 0 137 -27l19 -131q-33 19 -70.5 30t-70.5 11t-54.5 -14t-21.5 -39q0 -22 20 -37.5t71 -32.5q85 -29 121 -67.5t36 -97.5
q0 -54 -27 -94.5t-74 -62t-105 -21.5q-94 0 -173 30zM269 738h121l-87 -130h-171l-87 130h120l52 -54z" />
    <glyph glyph-name="scedilla" unicode="&#x15f;" horiz-adv-x="440" 
d="M42 18l-13 129q83 -40 157 -40q82 0 82 55q0 20 -19 34.5t-68 31.5q-86 30 -122.5 70.5t-36.5 101.5q0 50 26 88.5t74.5 60.5t111.5 22q81 0 137 -27l19 -131q-33 19 -70.5 30t-70.5 11t-54.5 -14t-21.5 -39q0 -22 20 -37.5t71 -32.5q85 -29 121 -67.5t36 -97.5
q0 -54 -27 -94.5t-74 -62t-105 -21.5q-94 0 -173 30zM125 -189l18 149h136l-52 -149h-102z" />
    <glyph glyph-name="scircumflex" unicode="&#x15d;" horiz-adv-x="440" 
d="M42 18l-13 129q83 -40 157 -40q82 0 82 55q0 20 -19 34.5t-68 31.5q-86 30 -122.5 70.5t-36.5 101.5q0 50 26 88.5t74.5 60.5t111.5 22q81 0 137 -27l19 -131q-33 19 -70.5 30t-70.5 11t-54.5 -14t-21.5 -39q0 -22 20 -37.5t71 -32.5q85 -29 121 -67.5t36 -97.5
q0 -54 -27 -94.5t-74 -62t-105 -21.5q-94 0 -173 30zM390 608h-121l-52 54l-52 -54h-120l87 130h171z" />
    <glyph glyph-name="scommaaccent" unicode="&#x219;" horiz-adv-x="440" 
d="M42 18l-13 129q83 -40 157 -40q82 0 82 55q0 20 -19 34.5t-68 31.5q-86 30 -122.5 70.5t-36.5 101.5q0 50 26 88.5t74.5 60.5t111.5 22q81 0 137 -27l19 -131q-33 19 -70.5 30t-70.5 11t-54.5 -14t-21.5 -39q0 -22 20 -37.5t71 -32.5q85 -29 121 -67.5t36 -97.5
q0 -54 -27 -94.5t-74 -62t-105 -21.5q-94 0 -173 30zM273.5 -58q21.5 -21 21.5 -59q0 -46 -27.5 -80.5t-91.5 -34.5q-17 0 -35 3l-1 48q15 -3 26 -3q32 0 36 22h-2q-28 0 -43 16.5t-15 40.5q0 28 20 48t54 20q36 0 57.5 -21z" />
    <glyph glyph-name="germandbls" unicode="&#xdf;" horiz-adv-x="669" 
d="M591 317q42 -56 42 -128q0 -55 -27 -101t-75.5 -73t-111.5 -27q-64 0 -115 22l-13 124q48 -27 99 -27q44 0 66.5 23t22.5 61q0 49 -38.5 90.5t-116.5 58.5v96q55 18 78.5 47t23.5 70q0 113 -98 113q-54 0 -87 -44.5t-33 -121.5v-500h-148v504q0 86 33.5 151t93 100
t136.5 35q121 0 188.5 -60.5t67.5 -163.5q0 -53 -28.5 -95.5t-79.5 -70.5q78 -27 120 -83z" />
    <glyph glyph-name="t" unicode="t" horiz-adv-x="432" 
d="M408 128l-14 -128q-50 -12 -97 -12q-106 0 -152.5 54.5t-46.5 141.5v257h-80v118h80v96l148 42v-138h160v-118h-160v-249q0 -41 16.5 -59.5t57.5 -18.5q43 0 88 14z" />
    <glyph glyph-name="tbar" unicode="&#x167;" horiz-adv-x="432" 
d="M408 128l-14 -128q-50 -12 -97 -12q-106 0 -152.5 54.5t-46.5 141.5v66h-65v80h65v111h-80v118h80v96l148 42v-138h160v-118h-160v-111h123v-80h-123v-58q0 -41 16.5 -59.5t57.5 -18.5q43 0 88 14z" />
    <glyph glyph-name="tcaron" unicode="&#x165;" horiz-adv-x="432" 
d="M408 128l-14 -128q-50 -12 -97 -12q-106 0 -152.5 54.5t-46.5 141.5v257h-80v118h80v96l148 42v-138h160v-118h-160v-249q0 -41 16.5 -59.5t57.5 -18.5q43 0 88 14zM295 593v148h125l-35 -148h-90z" />
    <glyph glyph-name="uni0163" unicode="&#x163;" horiz-adv-x="432" 
d="M408 128l-14 -128q-50 -12 -97 -12q-106 0 -152.5 54.5t-46.5 141.5v257h-80v118h80v96l148 42v-138h160v-118h-160v-249q0 -41 16.5 -59.5t57.5 -18.5q43 0 88 14zM342.5 -58q21.5 -21 21.5 -59q0 -46 -27.5 -80.5t-91.5 -34.5q-17 0 -35 3l-1 48q15 -3 26 -3
q32 0 36 22h-2q-28 0 -43 16.5t-15 40.5q0 28 20 48t54 20q36 0 57.5 -21z" />
    <glyph glyph-name="uni021B" unicode="&#x21b;" horiz-adv-x="432" 
d="M408 128l-14 -128q-50 -12 -97 -12q-106 0 -152.5 54.5t-46.5 141.5v257h-80v118h80v96l148 42v-138h160v-118h-160v-249q0 -41 16.5 -59.5t57.5 -18.5q43 0 88 14zM342.5 -58q21.5 -21 21.5 -59q0 -46 -27.5 -80.5t-91.5 -34.5q-17 0 -35 3l-1 48q15 -3 26 -3
q32 0 36 22h-2q-28 0 -43 16.5t-15 40.5q0 28 20 48t54 20q36 0 57.5 -21z" />
    <glyph glyph-name="u" unicode="u" horiz-adv-x="617" 
d="M557 559v-559h-138v88q-26 -51 -72 -75.5t-107 -24.5q-95 0 -140.5 60t-45.5 159v352h148v-316q0 -68 21.5 -104t75.5 -36q55 0 82.5 38t27.5 95v323h148z" />
    <glyph glyph-name="uacute" unicode="&#xfa;" horiz-adv-x="617" 
d="M557 559v-559h-138v88q-26 -51 -72 -75.5t-107 -24.5q-95 0 -140.5 60t-45.5 159v352h148v-316q0 -68 21.5 -104t75.5 -36q55 0 82.5 38t27.5 95v323h148zM239 608l69 130h173l-112 -130h-130z" />
    <glyph glyph-name="ubreve" unicode="&#x16d;" horiz-adv-x="617" 
d="M557 559v-559h-138v88q-26 -51 -72 -75.5t-107 -24.5q-95 0 -140.5 60t-45.5 159v352h148v-316q0 -68 21.5 -104t75.5 -36q55 0 82.5 38t27.5 95v323h148zM214 634q-36 32 -37 104h86q1 -22 12 -31.5t33 -9.5t33 9.5t12 31.5h86q-1 -72 -37 -104t-94 -32t-94 32z" />
    <glyph glyph-name="ucircumflex" unicode="&#xfb;" horiz-adv-x="617" 
d="M557 559v-559h-138v88q-26 -51 -72 -75.5t-107 -24.5q-95 0 -140.5 60t-45.5 159v352h148v-316q0 -68 21.5 -104t75.5 -36q55 0 82.5 38t27.5 95v323h148zM480 608h-121l-52 54l-52 -54h-120l87 130h171z" />
    <glyph glyph-name="udieresis" unicode="&#xfc;" horiz-adv-x="617" 
d="M557 559v-559h-138v88q-26 -51 -72 -75.5t-107 -24.5q-95 0 -140.5 60t-45.5 159v352h148v-316q0 -68 21.5 -104t75.5 -36q55 0 82.5 38t27.5 95v323h148zM175 623.5q-18 20.5 -18 51.5t18 51.5t48 20.5t48.5 -20.5t18.5 -51.5t-18.5 -51.5t-48.5 -20.5t-48 20.5z
M343.5 623.5q-18.5 20.5 -18.5 51.5t18.5 51.5t48.5 20.5t48.5 -20.5t18.5 -51.5t-18.5 -51.5t-48.5 -20.5t-48.5 20.5z" />
    <glyph glyph-name="ugrave" unicode="&#xf9;" horiz-adv-x="617" 
d="M557 559v-559h-138v88q-26 -51 -72 -75.5t-107 -24.5q-95 0 -140.5 60t-45.5 159v352h148v-316q0 -68 21.5 -104t75.5 -36q55 0 82.5 38t27.5 95v323h148zM377 608h-130l-112 130h173z" />
    <glyph glyph-name="uhungarumlaut" unicode="&#x171;" horiz-adv-x="617" 
d="M557 559v-559h-138v88q-26 -51 -72 -75.5t-107 -24.5q-95 0 -140.5 60t-45.5 159v352h148v-316q0 -68 21.5 -104t75.5 -36q55 0 82.5 38t27.5 95v323h148zM167 599l21 139h145l-64 -139h-102zM334 599l48 139h145l-91 -139h-102z" />
    <glyph glyph-name="umacron" unicode="&#x16b;" horiz-adv-x="617" 
d="M557 559v-559h-138v88q-26 -51 -72 -75.5t-107 -24.5q-95 0 -140.5 60t-45.5 159v352h148v-316q0 -68 21.5 -104t75.5 -36q55 0 82.5 38t27.5 95v323h148zM200 734h215v-106h-215v106z" />
    <glyph glyph-name="uogonek" unicode="&#x173;" horiz-adv-x="617" 
d="M584 -77l-11 -83q-39 -17 -84 -17q-54 0 -83 21t-29 59q0 26 16.5 48.5t58.5 48.5h-33v88q-26 -51 -72 -75.5t-107 -24.5q-95 0 -140.5 60t-45.5 159v352h148v-316q0 -68 21.5 -104t75.5 -36q55 0 82.5 38t27.5 95v323h148v-559h-33q-27 -21 -38 -35t-11 -29
q0 -14 9 -20.5t31 -6.5q37 0 69 14z" />
    <glyph glyph-name="uring" unicode="&#x16f;" horiz-adv-x="617" 
d="M557 559v-559h-138v88q-26 -51 -72 -75.5t-107 -24.5q-95 0 -140.5 60t-45.5 159v352h148v-316q0 -68 21.5 -104t75.5 -36q55 0 82.5 38t27.5 95v323h148zM228.5 633.5q-30.5 29.5 -30.5 75.5q0 45 31 74.5t79 29.5t78.5 -29.5t30.5 -74.5q0 -46 -30.5 -75.5t-78.5 -29.5
q-49 0 -79.5 29.5zM334.5 679q9.5 12 9.5 30t-9.5 29.5t-26.5 11.5t-27 -11.5t-10 -29.5t10 -30t27 -12t26.5 12z" />
    <glyph glyph-name="utilde" unicode="&#x169;" horiz-adv-x="617" 
d="M557 559v-559h-138v88q-26 -51 -72 -75.5t-107 -24.5q-95 0 -140.5 60t-45.5 159v352h148v-316q0 -68 21.5 -104t75.5 -36q55 0 82.5 38t27.5 95v323h148zM178 675q8 31 29.5 46.5t46.5 15.5q19 0 32.5 -7t30.5 -19q11 -8 18.5 -12t14.5 -4q20 0 20 42h77q0 -47 -8 -75
q-9 -33 -30.5 -49t-47.5 -16q-18 0 -31.5 6.5t-31.5 18.5q-20 16 -32 16q-20 0 -20 -41h-77q0 49 9 78z" />
    <glyph glyph-name="v" unicode="v" horiz-adv-x="568" 
d="M402 559h154l-181 -559h-181l-182 559h161l115 -423z" />
    <glyph glyph-name="w" unicode="w" horiz-adv-x="812" 
d="M639 559h152l-137 -559h-169l-80 332l-80 -332h-167l-137 559h156l73 -402l96 402h125l96 -401z" />
    <glyph glyph-name="wacute" unicode="&#x1e83;" horiz-adv-x="812" 
d="M639 559h152l-137 -559h-169l-80 332l-80 -332h-167l-137 559h156l73 -402l96 402h125l96 -401zM337 608l69 130h173l-112 -130h-130z" />
    <glyph glyph-name="wcircumflex" unicode="&#x175;" horiz-adv-x="812" 
d="M639 559h152l-137 -559h-169l-80 332l-80 -332h-167l-137 559h156l73 -402l96 402h125l96 -401zM578 608h-121l-52 54l-52 -54h-120l87 130h171z" />
    <glyph glyph-name="wdieresis" unicode="&#x1e85;" horiz-adv-x="812" 
d="M639 559h152l-137 -559h-169l-80 332l-80 -332h-167l-137 559h156l73 -402l96 402h125l96 -401zM273 623.5q-18 20.5 -18 51.5t18 51.5t48 20.5t48.5 -20.5t18.5 -51.5t-18.5 -51.5t-48.5 -20.5t-48 20.5zM441.5 623.5q-18.5 20.5 -18.5 51.5t18.5 51.5t48.5 20.5
t48.5 -20.5t18.5 -51.5t-18.5 -51.5t-48.5 -20.5t-48.5 20.5z" />
    <glyph glyph-name="wgrave" unicode="&#x1e81;" horiz-adv-x="812" 
d="M639 559h152l-137 -559h-169l-80 332l-80 -332h-167l-137 559h156l73 -402l96 402h125l96 -401zM475 608h-130l-112 130h173z" />
    <glyph glyph-name="x" unicode="x" horiz-adv-x="560" 
d="M554 0h-172l-107 190l-102 -190h-167l192 289l-176 270h173l88 -159l88 159h166l-175 -264z" />
    <glyph glyph-name="y" unicode="y" horiz-adv-x="558" 
d="M545 559l-181 -596q-25 -80 -71.5 -119.5t-118.5 -39.5q-37 0 -80 9l-14 113q30 -10 61 -10q38 0 59.5 17t36.5 67h-43l-182 559h161l114 -420l103 420h155z" />
    <glyph glyph-name="yacute" unicode="&#xfd;" horiz-adv-x="558" 
d="M545 559l-181 -596q-25 -80 -71.5 -119.5t-118.5 -39.5q-37 0 -80 9l-14 113q30 -10 61 -10q38 0 59.5 17t36.5 67h-43l-182 559h161l114 -420l103 420h155zM213 608l69 130h173l-112 -130h-130z" />
    <glyph glyph-name="ycircumflex" unicode="&#x177;" horiz-adv-x="558" 
d="M545 559l-181 -596q-25 -80 -71.5 -119.5t-118.5 -39.5q-37 0 -80 9l-14 113q30 -10 61 -10q38 0 59.5 17t36.5 67h-43l-182 559h161l114 -420l103 420h155zM454 608h-121l-52 54l-52 -54h-120l87 130h171z" />
    <glyph glyph-name="ydieresis" unicode="&#xff;" horiz-adv-x="558" 
d="M545 559l-181 -596q-25 -80 -71.5 -119.5t-118.5 -39.5q-37 0 -80 9l-14 113q30 -10 61 -10q38 0 59.5 17t36.5 67h-43l-182 559h161l114 -420l103 420h155zM149 623.5q-18 20.5 -18 51.5t18 51.5t48 20.5t48.5 -20.5t18.5 -51.5t-18.5 -51.5t-48.5 -20.5t-48 20.5z
M317.5 623.5q-18.5 20.5 -18.5 51.5t18.5 51.5t48.5 20.5t48.5 -20.5t18.5 -51.5t-18.5 -51.5t-48.5 -20.5t-48.5 20.5z" />
    <glyph glyph-name="ygrave" unicode="&#x1ef3;" horiz-adv-x="558" 
d="M545 559l-181 -596q-25 -80 -71.5 -119.5t-118.5 -39.5q-37 0 -80 9l-14 113q30 -10 61 -10q38 0 59.5 17t36.5 67h-43l-182 559h161l114 -420l103 420h155zM351 608h-130l-112 130h173z" />
    <glyph glyph-name="z" unicode="z" horiz-adv-x="457" 
d="M430 559v-94l-221 -341h221v-124h-400v94l221 342h-227l23 123h383z" />
    <glyph glyph-name="zacute" unicode="&#x17a;" horiz-adv-x="457" 
d="M430 559v-94l-221 -341h221v-124h-400v94l221 342h-227l23 123h383zM157 608l69 130h173l-112 -130h-130z" />
    <glyph glyph-name="zcaron" unicode="&#x17e;" horiz-adv-x="457" 
d="M430 559v-94l-221 -341h221v-124h-400v94l221 342h-227l23 123h383zM277 738h121l-87 -130h-171l-87 130h120l52 -54z" />
    <glyph glyph-name="zdotaccent" unicode="&#x17c;" horiz-adv-x="457" 
d="M430 559v-94l-221 -341h221v-124h-400v94l221 342h-227l23 123h383zM169 624q-21 21 -21 52t21 51.5t56 20.5q37 0 57.5 -20t20.5 -52q0 -31 -21 -52t-57 -21q-35 0 -56 21z" />
    <glyph glyph-name="f_i" horiz-adv-x="679" 
d="M246 559h140v-118h-140v-441h-148v441h-80v118h80v39q0 83 45 137.5t150 54.5q38 0 78 -10l17 -113q-38 12 -72 12q-39 0 -54.5 -17.5t-15.5 -54.5v-48zM478 657q-23 21 -23 56t23 55.5t65 20.5t64.5 -20.5t22.5 -55.5t-22.5 -56t-64.5 -21t-65 21zM466 0v559h148v-559
h-148z" />
    <glyph glyph-name="f_l" horiz-adv-x="675" 
d="M246 559h140v-118h-140v-441h-148v441h-80v118h80v39q0 83 45 137.5t150 54.5q38 0 78 -10l17 -113q-38 12 -72 12q-39 0 -54.5 -17.5t-15.5 -54.5v-48zM466 0v778h148v-778h-148z" />
    <glyph glyph-name="ordfeminine" unicode="&#xaa;" horiz-adv-x="421" 
d="M266 348v44q-30 -48 -108 -48q-136 0 -136 116q0 121 178 126l60 2v11q0 26 -19.5 37.5t-56.5 11.5q-33 0 -69 -8t-68 -25l16 107q64 28 136 28q88 0 134.5 -42t46.5 -110l1 -250h-115zM242 435.5q18 10.5 18 34.5v38l-39 -2q-44 -3 -60.5 -13.5t-16.5 -30.5
q0 -19 12.5 -28t41.5 -9q26 0 44 10.5z" />
    <glyph glyph-name="ordmasculine" unicode="&#xba;" horiz-adv-x="463" 
d="M121 366q-46 27 -70 73.5t-24 104.5q0 90 54 147.5t152 57.5q64 0 109.5 -27t69.5 -73.5t24 -104.5t-23.5 -104.5t-70 -73.5t-111.5 -27q-64 0 -110 27zM315 544q0 52 -20.5 80.5t-62.5 28.5q-83 0 -83 -109t82 -109q84 0 84 109z" />
    <glyph glyph-name="uni0394" unicode="&#x394;" horiz-adv-x="689" 
d="M436 738l238 -738h-659l237 738h184zM215 120h256l-128 457z" />
    <glyph glyph-name="uni03A9" unicode="&#x3a9;" horiz-adv-x="757" 
d="M601 137h103v-137h-274v123q60 53 91 117.5t31 158.5q0 102 -44 157t-129 55t-129.5 -55t-44.5 -157q0 -94 31 -158.5t92 -117.5v-123h-275v137h103q-112 105 -112 286q0 91 40 165.5t116 118t179 43.5t179 -43.5t116 -118t40 -165.5q0 -181 -113 -286z" />
    <glyph glyph-name="uni03BC" unicode="&#x3bc;" horiz-adv-x="630" 
d="M570 559v-559h-138v74q-21 -43 -53.5 -64.5t-69.5 -21.5q-61 0 -101 31v-211h-148v751h148v-316q0 -67 22.5 -103.5t78.5 -36.5t84.5 38t28.5 95v323h148z" />
    <glyph glyph-name="zero" unicode="0" horiz-adv-x="708" 
d="M190 38q-70 50 -109 137t-39 193q0 107 38.5 194t110 137.5t164.5 50.5q91 0 161.5 -50.5t109.5 -137.5t39 -194t-39 -193.5t-110 -136.5t-165 -50q-91 0 -161 50zM431.5 157q34.5 30 53.5 85t19 126q0 72 -19 127t-53 85.5t-78 30.5q-45 0 -79 -30t-52.5 -85.5
t-18.5 -127.5q0 -71 18.5 -126t52 -85t77.5 -30q45 0 79.5 30z" />
    <glyph glyph-name="one" unicode="1" horiz-adv-x="369" 
d="M185 738h114v-738h-156v574l-122 -47v147z" />
    <glyph glyph-name="two" unicode="2" horiz-adv-x="519" 
d="M489 137v-137h-450l-2 104l157 188q62 75 89.5 125.5t27.5 92.5q0 47 -29 70.5t-80 23.5q-44 0 -89 -16t-85 -49l13 161q87 50 194 50q118 0 182.5 -59t64.5 -157q0 -65 -29 -127t-97 -146l-101 -124h234z" />
    <glyph glyph-name="three" unicode="3" horiz-adv-x="501" 
d="M445 316q34 -46 34 -106q0 -59 -29.5 -109.5t-85.5 -81.5t-133 -31q-105 0 -188 44v155q41 -26 84.5 -39.5t83.5 -13.5q51 0 79 23.5t28 65.5q0 89 -113 89h-74v128h65q103 0 103 78q0 42 -30 64t-80 22q-89 0 -161 -53l14 159q82 40 180 40q113 0 175.5 -54.5
t62.5 -146.5q0 -56 -28 -100t-86 -66q65 -21 99 -67z" />
    <glyph glyph-name="four" unicode="4" horiz-adv-x="622" 
d="M601 262v-129h-107v-133h-156v133h-317v112l264 493h209v-476h107zM184 262h154v303z" />
    <glyph glyph-name="five" unicode="5" horiz-adv-x="518" 
d="M425.5 404.5q62.5 -62.5 62.5 -168.5q0 -68 -29 -124.5t-85.5 -90t-133.5 -33.5q-97 0 -177 39l-13 163q41 -27 85.5 -41.5t84.5 -14.5q51 0 79 26t28 76q0 54 -40 81.5t-116 27.5q-51 0 -104 -10v403h386l10 -137h-246v-135q7 1 20 1q126 0 188.5 -62.5z" />
    <glyph glyph-name="six" unicode="6" horiz-adv-x="587" 
d="M451.5 446.5q49.5 -27.5 77.5 -80.5t28 -127q0 -72 -30.5 -129t-86.5 -89.5t-130 -32.5q-108 0 -173 60q-95 84 -95 297q0 185 77 295t236 110q64 0 125 -22l13 -146q-33 16 -63 23t-64 7q-78 0 -117 -46t-47 -137q51 45 137 45q63 0 112.5 -27.5zM371.5 147
q23.5 30 23.5 85q0 52 -24.5 83t-70.5 31t-70.5 -29.5t-24.5 -75.5q0 -56 27 -90q26 -34 68 -34q48 0 71.5 30z" />
    <glyph glyph-name="seven" unicode="7" horiz-adv-x="503" 
d="M30 738h452v-112l-228 -626h-170l232 601h-295z" />
    <glyph glyph-name="eight" unicode="8" horiz-adv-x="588" 
d="M531.5 317q34.5 -47 34.5 -108q0 -106 -72.5 -161.5t-199.5 -55.5q-129 0 -200.5 55.5t-71.5 161.5q0 61 35 107.5t99 65.5q-59 21 -88 63.5t-29 101.5q0 96 69 147.5t186 51.5q116 0 185.5 -52t69.5 -147q0 -59 -29 -101.5t-88 -63.5q65 -18 99.5 -65zM224 602.5
q-24 -23.5 -24 -68.5q0 -42 25 -66.5t69 -24.5q43 0 68.5 25t25.5 66q0 45 -24 68.5t-70 23.5t-70 -23.5zM374 138.5q27 27.5 27 82.5q0 48 -28 72t-79 24t-79 -25t-28 -74q0 -53 27.5 -80t79.5 -27q53 0 80 27.5z" />
    <glyph glyph-name="nine" unicode="9" horiz-adv-x="587" 
d="M545 393q0 -185 -77 -295t-236 -110q-64 0 -125 22l-13 146q33 -16 63 -23t64 -7q78 0 117 46t47 137q-51 -45 -137 -45q-63 0 -112.5 27.5t-77.5 80.5t-28 127q0 72 30.5 129t86.5 89.5t130 32.5q108 0 173 -60q95 -84 95 -297zM357.5 421.5q24.5 29.5 24.5 75.5
q0 56 -27 90q-26 34 -68 34q-48 0 -71.5 -30t-23.5 -85q0 -52 24.5 -83t70.5 -31t70.5 29.5z" />
    <glyph glyph-name="zero.inferior" unicode="&#x2080;" horiz-adv-x="497" 
d="M139.5 -128.5q-46.5 30.5 -72 83.5t-25.5 116q0 64 25.5 116.5t72.5 83t109 30.5q61 0 108 -30.5t72.5 -83t25.5 -116.5t-25.5 -116.5t-73 -83t-110.5 -30.5q-60 0 -106.5 30.5zM307.5 -18.5q22.5 33.5 22.5 89.5t-22.5 90t-59.5 34q-38 0 -60 -33.5t-22 -90.5
q0 -56 22 -89.5t59 -33.5q38 0 60.5 33.5z" />
    <glyph glyph-name="one.inferior" unicode="&#x2081;" horiz-adv-x="281" 
d="M122 293h88v-443h-119v322l-70 -21v112z" />
    <glyph glyph-name="two.inferior" unicode="&#x2082;" horiz-adv-x="359" 
d="M329 -45v-105h-294l-2 78l99 111q61 68 61 109q0 42 -59 42q-56 0 -106 -35l9 119q57 27 124 27q78 0 121.5 -37t43.5 -97q0 -34 -16 -69t-52 -77l-56 -66h127z" />
    <glyph glyph-name="three.inferior" unicode="&#x2083;" horiz-adv-x="340" 
d="M299 40.5q20 -26.5 20 -61.5q0 -62 -43.5 -100t-119.5 -38q-64 0 -117 24v116q50 -28 101 -28q55 0 55 38q0 21 -14 28.5t-46 7.5h-46v97h39q30 0 42.5 7t12.5 22q0 37 -58 37q-53 0 -97 -29l9 118q50 22 115 22q75 0 115.5 -33t40.5 -89q0 -32 -16.5 -58t-52.5 -40
q40 -14 60 -40.5z" />
    <glyph glyph-name="four.inferior" unicode="&#x2084;" horiz-adv-x="423" 
d="M402 22v-99h-65v-73h-120v73h-196v85l155 285h161v-271h65zM225 196l-88 -174h88v174z" />
    <glyph glyph-name="five.inferior" unicode="&#x2085;" horiz-adv-x="365" 
d="M296 95q39 -38 39 -101q0 -40 -19 -75t-56 -56.5t-88 -21.5q-62 0 -111 22l-11 123q51 -33 105 -33q56 0 56 41q0 26 -23.5 37t-69.5 11q-30 0 -57 -7v258h252l8 -105h-144v-54q80 -1 119 -39z" />
    <glyph glyph-name="six.inferior" unicode="&#x2086;" horiz-adv-x="412" 
d="M343.5 97.5q38.5 -36.5 38.5 -102.5q0 -69 -44.5 -111.5t-117.5 -42.5q-87 0 -127 46q-51 57 -51 173q0 109 51 175t158 66q40 0 78 -12l8 -108q-41 15 -77 15q-47 0 -69 -20t-26 -60q31 18 80 18q60 0 98.5 -36.5zM259 -11q0 21 -11.5 35t-34.5 14t-35 -12.5t-12 -32.5
q0 -25 13 -40q14 -14 34 -14q46 0 46 50z" />
    <glyph glyph-name="seven.inferior" unicode="&#x2087;" horiz-adv-x="341" 
d="M28 293h292v-84l-139 -359h-131l140 338h-169z" />
    <glyph glyph-name="eight.inferior" unicode="&#x2088;" horiz-adv-x="403" 
d="M360.5 39.5q20.5 -27.5 20.5 -61.5q0 -67 -47.5 -100t-131.5 -33q-86 0 -133 33.5t-47 99.5q0 35 20.5 62t60.5 41q-71 26 -71 95q0 60 45.5 91t123.5 31t123.5 -31.5t45.5 -90.5q0 -70 -70 -95q40 -14 60.5 -41.5zM155 166q0 -18 12.5 -28.5t33.5 -10.5t34 10.5t13 28.5
q0 42 -47 42q-46 0 -46 -42zM241.5 -53q12.5 13 12.5 41q0 22 -14.5 33t-38.5 11t-38 -11.5t-14 -34.5q0 -27 13 -39.5t40 -12.5t39.5 13z" />
    <glyph glyph-name="nine.inferior" unicode="&#x2089;" horiz-adv-x="412" 
d="M370 83q0 -109 -51 -175t-158 -66q-40 0 -78 12l-8 108q40 -15 77 -15q47 0 68.5 19.5t26.5 60.5q-31 -18 -80 -18q-60 0 -98.5 36.5t-38.5 102.5q0 69 44.5 111.5t117.5 42.5q87 0 127 -46q51 -57 51 -173zM234 117.5q12 12.5 12 32.5q0 25 -13 40q-14 14 -33 14
q-47 0 -47 -50q0 -21 11.5 -35t34.5 -14t35 12.5z" />
    <glyph glyph-name="zero.dnom" horiz-adv-x="497" 
d="M139.5 21.5q-46.5 30.5 -72 83.5t-25.5 116q0 64 25.5 116.5t72.5 83t109 30.5q61 0 108 -30.5t72.5 -83t25.5 -116.5t-25.5 -116.5t-73 -83t-110.5 -30.5q-60 0 -106.5 30.5zM307.5 131.5q22.5 33.5 22.5 89.5t-22.5 90t-59.5 34q-38 0 -60 -33.5t-22 -90.5
q0 -56 22 -89.5t59 -33.5q38 0 60.5 33.5z" />
    <glyph glyph-name="one.dnom" horiz-adv-x="281" 
d="M122 443h88v-443h-119v322l-70 -21v112z" />
    <glyph glyph-name="two.dnom" horiz-adv-x="359" 
d="M329 105v-105h-294l-2 78l99 111q61 68 61 109q0 42 -59 42q-56 0 -106 -35l9 119q57 27 124 27q78 0 121.5 -37t43.5 -97q0 -34 -16 -69t-52 -77l-56 -66h127z" />
    <glyph glyph-name="three.dnom" horiz-adv-x="340" 
d="M299 190.5q20 -26.5 20 -61.5q0 -62 -43.5 -100t-119.5 -38q-64 0 -117 24v116q50 -28 101 -28q55 0 55 38q0 21 -14 28.5t-46 7.5h-46v97h39q30 0 42.5 7t12.5 22q0 37 -58 37q-53 0 -97 -29l9 118q50 22 115 22q75 0 115.5 -33t40.5 -89q0 -32 -16.5 -58t-52.5 -40
q40 -14 60 -40.5z" />
    <glyph glyph-name="four.dnom" horiz-adv-x="423" 
d="M402 172v-99h-65v-73h-120v73h-196v85l155 285h161v-271h65zM225 346l-88 -174h88v174z" />
    <glyph glyph-name="five.dnom" horiz-adv-x="365" 
d="M296 245q39 -38 39 -101q0 -40 -19 -75t-56 -56.5t-88 -21.5q-62 0 -111 22l-11 123q51 -33 105 -33q56 0 56 41q0 26 -23.5 37t-69.5 11q-30 0 -57 -7v258h252l8 -105h-144v-54q80 -1 119 -39z" />
    <glyph glyph-name="six.dnom" horiz-adv-x="412" 
d="M343.5 247.5q38.5 -36.5 38.5 -102.5q0 -69 -44.5 -111.5t-117.5 -42.5q-87 0 -127 46q-51 57 -51 173q0 109 51 175t158 66q40 0 78 -12l8 -108q-41 15 -77 15q-47 0 -69 -20t-26 -60q31 18 80 18q60 0 98.5 -36.5zM259 139q0 21 -11.5 35t-34.5 14t-35 -12.5t-12 -32.5
q0 -25 13 -40q14 -14 34 -14q46 0 46 50z" />
    <glyph glyph-name="seven.dnom" horiz-adv-x="341" 
d="M28 443h292v-84l-139 -359h-131l140 338h-169z" />
    <glyph glyph-name="eight.dnom" horiz-adv-x="403" 
d="M360.5 189.5q20.5 -27.5 20.5 -61.5q0 -67 -47.5 -100t-131.5 -33q-86 0 -133 33.5t-47 99.5q0 35 20.5 62t60.5 41q-71 26 -71 95q0 60 45.5 91t123.5 31t123.5 -31.5t45.5 -90.5q0 -70 -70 -95q40 -14 60.5 -41.5zM155 316q0 -18 12.5 -28.5t33.5 -10.5t34 10.5
t13 28.5q0 42 -47 42q-46 0 -46 -42zM241.5 97q12.5 13 12.5 41q0 22 -14.5 33t-38.5 11t-38 -11.5t-14 -34.5q0 -27 13 -39.5t40 -12.5t39.5 13z" />
    <glyph glyph-name="nine.dnom" horiz-adv-x="412" 
d="M370 233q0 -109 -51 -175t-158 -66q-40 0 -78 12l-8 108q40 -15 77 -15q47 0 68.5 19.5t26.5 60.5q-31 -18 -80 -18q-60 0 -98.5 36.5t-38.5 102.5q0 69 44.5 111.5t117.5 42.5q87 0 127 -46q51 -57 51 -173zM234 267.5q12 12.5 12 32.5q0 25 -13 40q-14 14 -33 14
q-47 0 -47 -50q0 -21 11.5 -35t34.5 -14t35 12.5z" />
    <glyph glyph-name="zero.numr" horiz-adv-x="497" 
d="M139.5 316.5q-46.5 30.5 -72 83.5t-25.5 116q0 64 25.5 116.5t72.5 83t109 30.5q61 0 108 -30.5t72.5 -83t25.5 -116.5t-25.5 -116.5t-73 -83t-110.5 -30.5q-60 0 -106.5 30.5zM307.5 426.5q22.5 33.5 22.5 89.5t-22.5 90t-59.5 34q-38 0 -60 -33.5t-22 -90.5
q0 -56 22 -89.5t59 -33.5q38 0 60.5 33.5z" />
    <glyph glyph-name="one.numr" horiz-adv-x="281" 
d="M122 738h88v-443h-119v322l-70 -21v112z" />
    <glyph glyph-name="two.numr" horiz-adv-x="359" 
d="M329 400v-105h-294l-2 78l99 111q61 68 61 109q0 42 -59 42q-56 0 -106 -35l9 119q57 27 124 27q78 0 121.5 -37t43.5 -97q0 -34 -16 -69t-52 -77l-56 -66h127z" />
    <glyph glyph-name="three.numr" horiz-adv-x="340" 
d="M299 485.5q20 -26.5 20 -61.5q0 -62 -43.5 -100t-119.5 -38q-64 0 -117 24v116q50 -28 101 -28q55 0 55 38q0 21 -14 28.5t-46 7.5h-46v97h39q30 0 42.5 7t12.5 22q0 37 -58 37q-54 0 -97 -29l9 118q50 22 115 22q75 0 115.5 -33t40.5 -89q0 -32 -16.5 -58t-52.5 -40
q40 -14 60 -40.5z" />
    <glyph glyph-name="four.numr" horiz-adv-x="423" 
d="M402 467v-99h-65v-73h-120v73h-196v85l155 285h161v-271h65zM225 641l-88 -174h88v174z" />
    <glyph glyph-name="five.numr" horiz-adv-x="365" 
d="M296 540q39 -38 39 -101q0 -40 -19 -75t-56 -56.5t-88 -21.5q-62 0 -111 22l-11 123q51 -33 105 -33q56 0 56 41q0 26 -23.5 37t-69.5 11q-30 0 -57 -7v258h252l8 -105h-144v-54q80 -1 119 -39z" />
    <glyph glyph-name="six.numr" horiz-adv-x="412" 
d="M343.5 542.5q38.5 -36.5 38.5 -102.5q0 -69 -44.5 -111.5t-117.5 -42.5q-87 0 -127 46q-51 57 -51 173q0 109 51 175t158 66q40 0 78 -12l8 -108q-41 15 -77 15q-47 0 -69 -20t-26 -60q31 18 80 18q60 0 98.5 -36.5zM259 434q0 21 -11.5 35t-34.5 14t-35 -12.5t-12 -32.5
q0 -25 13 -40q14 -14 34 -14q46 0 46 50z" />
    <glyph glyph-name="seven.numr" horiz-adv-x="341" 
d="M28 738h292v-84l-139 -359h-131l140 338h-169z" />
    <glyph glyph-name="eight.numr" horiz-adv-x="403" 
d="M360.5 484.5q20.5 -27.5 20.5 -61.5q0 -67 -47.5 -100t-131.5 -33q-86 0 -133 33.5t-47 99.5q0 35 20.5 62t60.5 41q-71 26 -71 95q0 60 45.5 91t123.5 31t123.5 -31.5t45.5 -90.5q0 -70 -70 -95q40 -14 60.5 -41.5zM155 611q0 -18 12.5 -28.5t33.5 -10.5t34 10.5
t13 28.5q0 42 -47 42q-46 0 -46 -42zM241.5 392q12.5 13 12.5 41q0 22 -14.5 33t-38.5 11t-38 -11.5t-14 -34.5q0 -27 13 -39.5t40 -12.5t39.5 13z" />
    <glyph glyph-name="nine.numr" horiz-adv-x="412" 
d="M370 528q0 -109 -51 -175t-158 -66q-40 0 -78 12l-8 108q40 -15 77 -15q47 0 68.5 19.5t26.5 60.5q-31 -18 -80 -18q-60 0 -98.5 36.5t-38.5 102.5q0 69 44.5 111.5t117.5 42.5q87 0 127 -46q51 -57 51 -173zM234 562.5q12 12.5 12 32.5q0 25 -13 40q-14 14 -33 14
q-47 0 -47 -50q0 -21 11.5 -35t34.5 -14t35 12.5z" />
    <glyph glyph-name="zero.superior" unicode="&#x2070;" horiz-adv-x="497" 
d="M139.5 506.5q-46.5 30.5 -72 83.5t-25.5 116q0 64 25.5 116.5t72.5 83t109 30.5q61 0 108 -30.5t72.5 -83t25.5 -116.5t-25.5 -116.5t-73 -83t-110.5 -30.5q-60 0 -106.5 30.5zM307.5 616.5q22.5 33.5 22.5 89.5t-22.5 90t-59.5 34q-38 0 -60 -33.5t-22 -90.5
q0 -56 22 -89.5t59 -33.5q38 0 60.5 33.5z" />
    <glyph glyph-name="onesuperior" unicode="&#xb9;" horiz-adv-x="281" 
d="M122 928h88v-443h-119v322l-70 -21v112z" />
    <glyph glyph-name="twosuperior" unicode="&#xb2;" horiz-adv-x="359" 
d="M329 590v-105h-294l-2 78l99 111q61 68 61 109q0 42 -59 42q-56 0 -106 -35l9 119q57 27 124 27q78 0 121.5 -37t43.5 -97q0 -34 -16 -69t-52 -77l-56 -66h127z" />
    <glyph glyph-name="threesuperior" unicode="&#xb3;" horiz-adv-x="340" 
d="M299 675.5q20 -26.5 20 -61.5q0 -62 -43.5 -100t-119.5 -38q-64 0 -117 24v116q50 -28 101 -28q55 0 55 38q0 21 -14 28.5t-46 7.5h-46v97h39q30 0 42.5 7t12.5 22q0 37 -58 37q-53 0 -97 -29l9 118q50 22 115 22q75 0 115.5 -33t40.5 -89q0 -32 -16.5 -58t-52.5 -40
q40 -14 60 -40.5z" />
    <glyph glyph-name="four.superior" unicode="&#x2074;" horiz-adv-x="423" 
d="M402 657v-99h-65v-73h-120v73h-196v85l155 285h161v-271h65zM225 831l-88 -174h88v174z" />
    <glyph glyph-name="five.superior" unicode="&#x2075;" horiz-adv-x="365" 
d="M296 730q39 -38 39 -101q0 -40 -19 -75t-56 -56.5t-88 -21.5q-62 0 -111 22l-11 123q51 -33 105 -33q56 0 56 41q0 26 -23.5 37t-69.5 11q-30 0 -57 -7v258h252l8 -105h-144v-54q80 -1 119 -39z" />
    <glyph glyph-name="six.superior" unicode="&#x2076;" horiz-adv-x="412" 
d="M343.5 732.5q38.5 -36.5 38.5 -102.5q0 -69 -44.5 -111.5t-117.5 -42.5q-87 0 -127 46q-51 57 -51 173q0 109 51 175t158 66q40 0 78 -12l8 -108q-41 15 -77 15q-47 0 -69 -20t-26 -60q31 18 80 18q60 0 98.5 -36.5zM259 624q0 21 -11.5 35t-34.5 14t-35 -12.5t-12 -32.5
q0 -25 13 -40q14 -14 34 -14q46 0 46 50z" />
    <glyph glyph-name="seven.superior" unicode="&#x2077;" horiz-adv-x="341" 
d="M28 928h292v-84l-139 -359h-131l140 338h-169z" />
    <glyph glyph-name="eight.superior" unicode="&#x2078;" horiz-adv-x="403" 
d="M360.5 674.5q20.5 -27.5 20.5 -61.5q0 -67 -47.5 -100t-131.5 -33q-86 0 -133 33.5t-47 99.5q0 35 20.5 62t60.5 41q-71 26 -71 95q0 60 45.5 91t123.5 31t123.5 -31.5t45.5 -90.5q0 -70 -70 -95q40 -14 60.5 -41.5zM155 801q0 -18 12.5 -28.5t33.5 -10.5t34 10.5
t13 28.5q0 42 -47 42q-46 0 -46 -42zM241.5 582q12.5 13 12.5 41q0 22 -14.5 33t-38.5 11t-38 -11.5t-14 -34.5q0 -27 13 -39.5t40 -12.5t39.5 13z" />
    <glyph glyph-name="nine.superior" unicode="&#x2079;" horiz-adv-x="412" 
d="M370 718q0 -109 -51 -175t-158 -66q-40 0 -78 12l-8 108q40 -15 77 -15q47 0 68.5 19.5t26.5 60.5q-31 -18 -80 -18q-60 0 -98.5 36.5t-38.5 102.5q0 69 44.5 111.5t117.5 42.5q87 0 127 -46q51 -57 51 -173zM234 752.5q12 12.5 12 32.5q0 25 -13 40q-14 14 -33 14
q-47 0 -47 -50q0 -21 11.5 -35t34.5 -14t35 12.5z" />
    <glyph glyph-name="fraction" unicode="&#x2044;" horiz-adv-x="212" 
d="M-173 0l462 738h114l-461 -738h-115z" />
    <glyph glyph-name="onehalf" unicode="&#xbd;" horiz-adv-x="852" 
d="M122 738h88v-443h-119v322l-70 -21v112zM108 0l462 738h114l-461 -738h-115zM822 105v-105h-294l-2 78l99 111q61 68 61 109q0 42 -59 42q-56 0 -106 -35l9 119q57 27 124 27q78 0 121.5 -37t43.5 -97q0 -34 -16 -69t-52 -77l-56 -66h127z" />
    <glyph glyph-name="onequarter" unicode="&#xbc;" horiz-adv-x="875" 
d="M122 738h88v-443h-119v322l-70 -21v112zM108 0l462 738h114l-461 -738h-115zM854 172v-99h-65v-73h-120v73h-196v85l155 285h161v-271h65zM677 346l-88 -174h88v174z" />
    <glyph glyph-name="threequarters" unicode="&#xbe;" horiz-adv-x="934" 
d="M299 485.5q20 -26.5 20 -61.5q0 -62 -43.5 -100t-119.5 -38q-64 0 -117 24v116q50 -28 101 -28q55 0 55 38q0 21 -14 28.5t-46 7.5h-46v97h39q30 0 42.5 7t12.5 22q0 37 -58 37q-54 0 -97 -29l9 118q50 22 115 22q75 0 115.5 -33t40.5 -89q0 -32 -16.5 -58t-52.5 -40
q40 -14 60 -40.5zM167 0l462 738h114l-461 -738h-115zM913 172v-99h-65v-73h-120v73h-196v85l155 285h161v-271h65zM736 346l-88 -174h88v174z" />
    <glyph glyph-name="oneeighth" unicode="&#x215b;" horiz-adv-x="896" 
d="M122 738h88v-443h-119v322l-70 -21v112zM108 0l462 738h114l-461 -738h-115zM853.5 189.5q20.5 -27.5 20.5 -61.5q0 -67 -47.5 -100t-131.5 -33q-86 0 -133 33.5t-47 99.5q0 35 20.5 62t60.5 41q-71 26 -71 95q0 60 45.5 91t123.5 31t123.5 -31.5t45.5 -90.5
q0 -70 -70 -95q40 -14 60.5 -41.5zM648 316q0 -18 12.5 -28.5t33.5 -10.5t34 10.5t13 28.5q0 42 -47 42q-46 0 -46 -42zM734.5 97q12.5 13 12.5 41q0 22 -14.5 33t-38.5 11t-38 -11.5t-14 -34.5q0 -27 13 -39.5t40 -12.5t39.5 13z" />
    <glyph glyph-name="threeeighths" unicode="&#x215c;" horiz-adv-x="955" 
d="M299 485.5q20 -26.5 20 -61.5q0 -62 -43.5 -100t-119.5 -38q-64 0 -117 24v116q50 -28 101 -28q55 0 55 38q0 21 -14 28.5t-46 7.5h-46v97h39q30 0 42.5 7t12.5 22q0 37 -58 37q-54 0 -97 -29l9 118q50 22 115 22q75 0 115.5 -33t40.5 -89q0 -32 -16.5 -58t-52.5 -40
q40 -14 60 -40.5zM167 0l462 738h114l-461 -738h-115zM912.5 189.5q20.5 -27.5 20.5 -61.5q0 -67 -47.5 -100t-131.5 -33q-86 0 -133 33.5t-47 99.5q0 35 20.5 62t60.5 41q-71 26 -71 95q0 60 45.5 91t123.5 31t123.5 -31.5t45.5 -90.5q0 -70 -70 -95q40 -14 60.5 -41.5z
M707 316q0 -18 12.5 -28.5t33.5 -10.5t34 10.5t13 28.5q0 42 -47 42q-46 0 -46 -42zM793.5 97q12.5 13 12.5 41q0 22 -14.5 33t-38.5 11t-38 -11.5t-14 -34.5q0 -27 13 -39.5t40 -12.5t39.5 13z" />
    <glyph glyph-name="fiveeighths" unicode="&#x215d;" horiz-adv-x="980" 
d="M296 540q39 -38 39 -101q0 -40 -19 -75t-56 -56.5t-88 -21.5q-62 0 -111 22l-11 123q51 -33 105 -33q56 0 56 41q0 26 -23.5 37t-69.5 11q-30 0 -57 -7v258h252l8 -105h-144v-54q80 -1 119 -39zM192 0l462 738h114l-461 -738h-115zM937.5 189.5q20.5 -27.5 20.5 -61.5
q0 -67 -47.5 -100t-131.5 -33q-86 0 -133 33.5t-47 99.5q0 35 20.5 62t60.5 41q-71 26 -71 95q0 60 45.5 91t123.5 31t123.5 -31.5t45.5 -90.5q0 -70 -70 -95q40 -14 60.5 -41.5zM732 316q0 -18 12.5 -28.5t33.5 -10.5t34 10.5t13 28.5q0 42 -47 42q-46 0 -46 -42zM818.5 97
q12.5 13 12.5 41q0 22 -14.5 33t-38.5 11t-38 -11.5t-14 -34.5q0 -27 13 -39.5t40 -12.5t39.5 13z" />
    <glyph glyph-name="seveneighths" unicode="&#x215e;" horiz-adv-x="956" 
d="M28 738h292v-84l-139 -359h-131l140 338h-169zM168 0l462 738h114l-461 -738h-115zM913.5 189.5q20.5 -27.5 20.5 -61.5q0 -67 -47.5 -100t-131.5 -33q-86 0 -133 33.5t-47 99.5q0 35 20.5 62t60.5 41q-71 26 -71 95q0 60 45.5 91t123.5 31t123.5 -31.5t45.5 -90.5
q0 -70 -70 -95q40 -14 60.5 -41.5zM708 316q0 -18 12.5 -28.5t33.5 -10.5t34 10.5t13 28.5q0 42 -47 42q-46 0 -46 -42zM794.5 97q12.5 13 12.5 41q0 22 -14.5 33t-38.5 11t-38 -11.5t-14 -34.5q0 -27 13 -39.5t40 -12.5t39.5 13z" />
    <glyph glyph-name="asterisk" unicode="*" horiz-adv-x="481" 
d="M445 620l-141 -14l105 -96l-111 -80l-57 128l-57 -128l-111 81l104 95l-141 15l44 129l121 -70l-29 138h138l-29 -138l122 71z" />
    <glyph glyph-name="backslash" unicode="\" horiz-adv-x="391" 
d="M391 -100h-123l-260 908h123z" />
    <glyph glyph-name="periodcentered" unicode="&#xb7;" horiz-adv-x="249" 
d="M60.5 244q-24.5 24 -24.5 60q0 37 24.5 60.5t63.5 23.5q40 0 64 -23.5t24 -60.5t-24 -60.5t-64 -23.5q-39 0 -63.5 24z" />
    <glyph glyph-name="bullet" unicode="&#x2022;" horiz-adv-x="388" 
d="M108.5 283.5q-35.5 35.5 -35.5 85.5t35.5 85.5t85.5 35.5t85.5 -35.5t35.5 -85.5t-35.5 -85.5t-85.5 -35.5t-85.5 35.5z" />
    <glyph glyph-name="colon" unicode=":" horiz-adv-x="249" 
d="M60.5 12q-24.5 24 -24.5 60q0 37 24.5 60.5t63.5 23.5q40 0 64 -23.5t24 -60.5t-24 -60.5t-64 -23.5q-39 0 -63.5 24zM60.5 410q-24.5 24 -24.5 60q0 37 24.5 60.5t63.5 23.5q40 0 64 -23.5t24 -60.5t-24 -60.5t-64 -23.5q-39 0 -63.5 24z" />
    <glyph glyph-name="comma" unicode="," horiz-adv-x="254" 
d="M193 130q24 -26 24 -70q0 -67 -42 -119t-114 -65l-29 53q64 18 77 65q-31 1 -49.5 23.5t-18.5 55.5q0 35 24 59t63 24q41 0 65 -26z" />
    <glyph glyph-name="ellipsis" unicode="&#x2026;" horiz-adv-x="780" 
d="M325.5 12q-24.5 24 -24.5 60q0 37 24.5 60.5t63.5 23.5q40 0 64 -23.5t24 -60.5t-24 -60.5t-64 -23.5q-39 0 -63.5 24zM591.5 12q-24.5 24 -24.5 60q0 37 24.5 60.5t63.5 23.5q40 0 64 -23.5t24 -60.5t-24 -60.5t-64 -23.5q-39 0 -63.5 24zM60.5 12q-24.5 24 -24.5 60
q0 37 24.5 60.5t63.5 23.5q40 0 64 -23.5t24 -60.5t-24 -60.5t-64 -23.5q-39 0 -63.5 24z" />
    <glyph glyph-name="exclam" unicode="!" horiz-adv-x="317" 
d="M93 202l-19 536h169l-19 -536h-131zM94.5 12q-24.5 24 -24.5 60q0 37 24.5 60.5t63.5 23.5q40 0 64 -23.5t24 -60.5t-24 -60.5t-64 -23.5q-39 0 -63.5 24z" />
    <glyph glyph-name="exclamdown" unicode="&#xa1;" horiz-adv-x="317" 
d="M222 726.5q24 -23.5 24 -60.5t-24 -60.5t-63 -23.5q-40 0 -64.5 23.5t-24.5 60.5t24.5 60.5t64.5 23.5q39 0 63 -23.5zM224 536l19 -536h-169l19 536h131z" />
    <glyph glyph-name="numbersign" unicode="#" horiz-adv-x="783" 
d="M741 416h-139l-18 -100h138l-21 -119h-140l-37 -197h-133l37 197h-138l-37 -197h-133l37 197h-136l21 119h138l18 100h-137l22 119h138l38 203h133l-38 -203h138l38 203h133l-38 -203h138zM451 316l18 100h-138l-18 -100h138z" />
    <glyph glyph-name="period" unicode="." horiz-adv-x="249" 
d="M60.5 12q-24.5 24 -24.5 60q0 37 24.5 60.5t63.5 23.5q40 0 64 -23.5t24 -60.5t-24 -60.5t-64 -23.5q-39 0 -63.5 24z" />
    <glyph glyph-name="question" unicode="?" horiz-adv-x="506" 
d="M454.5 441.5q-21.5 -39.5 -77.5 -83.5q-47 -37 -65.5 -68t-18.5 -71v-11h-129q-3 21 -3 40q0 51 18.5 88t64.5 78q34 30 47 52.5t13 50.5q0 44 -29.5 65.5t-79.5 21.5q-43 0 -88.5 -16.5t-85.5 -49.5l13 162q89 50 194 50q118 0 183 -59t65 -157q0 -53 -21.5 -92.5z
M168.5 12q-24.5 24 -24.5 60q0 37 24.5 60.5t63.5 23.5q40 0 64 -23.5t24 -60.5t-24 -60.5t-64 -23.5q-39 0 -63.5 24z" />
    <glyph glyph-name="questiondown" unicode="&#xbf;" horiz-adv-x="506" 
d="M337 723.5q24 -23.5 24 -60.5t-24 -60.5t-63 -23.5q-40 0 -64 23.5t-24 60.5t24 60.5t64 23.5q39 0 63 -23.5zM51.5 293.5q21.5 39.5 77.5 83.5q47 37 65.5 68t18.5 71v11h129q3 -21 3 -40q0 -51 -18.5 -88t-64.5 -78q-34 -30 -47 -52.5t-13 -50.5q0 -44 29.5 -65.5
t79.5 -21.5q43 0 88.5 16.5t85.5 49.5l-13 -163q-90 -49 -194 -49q-118 0 -183 59t-65 157q0 53 21.5 92.5z" />
    <glyph glyph-name="quotedbl" unicode="&#x22;" horiz-adv-x="418" 
d="M63 474l-28 264h151l-28 -264h-95zM260 474l-28 264h151l-28 -264h-95z" />
    <glyph glyph-name="quotesingle" unicode="'" horiz-adv-x="221" 
d="M63 474l-28 264h151l-28 -264h-95z" />
    <glyph glyph-name="semicolon" unicode=";" horiz-adv-x="254" 
d="M193 130q24 -26 24 -70q0 -67 -42 -119t-114 -65l-29 53q64 18 77 65q-31 1 -49.5 23.5t-18.5 55.5q0 35 24 59t63 24q41 0 65 -26zM60.5 427q-24.5 24 -24.5 60q0 37 24.5 60.5t63.5 23.5q40 0 64 -23.5t24 -60.5t-24 -60.5t-64 -23.5q-39 0 -63.5 24z" />
    <glyph glyph-name="slash" unicode="/" horiz-adv-x="391" 
d="M0 -100l260 908h123l-260 -908h-123z" />
    <glyph glyph-name="underscore" unicode="_" horiz-adv-x="511" 
d="M18 -33h475v-113h-475v113z" />
    <glyph glyph-name="uni208D" unicode="&#x208d;" horiz-adv-x="312" 
d="M113.5 283q49.5 93 150.5 155l44 -81q-64 -54 -93 -123t-29 -160t29 -160.5t93 -122.5l-44 -80q-101 61 -150.5 154t-49.5 209t49.5 209z" />
    <glyph glyph-name="uni208E" unicode="&#x208e;" horiz-adv-x="312" 
d="M198.5 -135q-49.5 -93 -149.5 -154l-45 80q63 53 92 122t29 161t-29 160.5t-92 122.5l45 81q100 -62 149.5 -155.5t49.5 -208.5q0 -116 -49.5 -209z" />
    <glyph glyph-name="braceleft" unicode="{" horiz-adv-x="357" 
d="M244.5 -23q7.5 -18 29 -29.5t62.5 -18.5l-13 -90q-116 10 -172.5 58.5t-56.5 126.5q0 25 4 51t9 48q11 50 11 80q0 45 -21 61t-66 16h-10v114h10q45 0 66 15.5t21 60.5q0 31 -11 80q-5 22 -9 48t-4 51q0 78 56.5 126.5t172.5 58.5l13 -90q-41 -7 -62.5 -18.5t-29 -29.5
t-7.5 -47q0 -27 11 -75q5 -24 9 -51t4 -53q0 -54 -24.5 -86t-74.5 -47q50 -15 74.5 -47.5t24.5 -86.5q0 -26 -4 -53t-9 -51q-11 -48 -11 -75q0 -29 7.5 -47z" />
    <glyph glyph-name="braceright" unicode="}" horiz-adv-x="357" 
d="M337 394v-114h-10q-45 0 -66 -16t-21 -61q0 -30 11 -80q5 -22 9 -48t4 -51q0 -78 -56.5 -126.5t-173.5 -58.5l-13 90q42 7 63 18.5t28.5 29.5t7.5 47q0 27 -11 75q-5 24 -9 51t-4 53q0 54 24.5 86.5t74.5 47.5q-50 15 -74.5 47t-24.5 86q0 26 4 53t9 51q11 48 11 75
q0 29 -7.5 47t-28.5 29.5t-63 18.5l13 90q117 -10 173.5 -58.5t56.5 -126.5q0 -25 -4 -51t-9 -48q-11 -49 -11 -80q0 -45 21 -60.5t66 -15.5h10z" />
    <glyph glyph-name="bracketleft" unicode="[" horiz-adv-x="334" 
d="M70 -161v995h244v-115h-93v-764h93v-116h-244z" />
    <glyph glyph-name="bracketright" unicode="]" horiz-adv-x="334" 
d="M264 -161h-243v116h92v764h-92v115h243v-995z" />
    <glyph glyph-name="parenleft" unicode="(" horiz-adv-x="393" 
d="M131 619.5q67 130.5 204 218.5l54 -96q-94 -79 -137 -181t-43 -235t43 -235t137 -181l-54 -96q-137 88 -204 218.5t-67 293.5t67 293.5z" />
    <glyph glyph-name="parenright" unicode=")" horiz-adv-x="393" 
d="M262 32.5q-67 -130.5 -204 -218.5l-54 96q94 79 137 181t43 235t-43 235t-137 181l54 96q137 -88 204 -218.5t67 -293.5t-67 -293.5z" />
    <glyph glyph-name="uni207D" unicode="&#x207d;" horiz-adv-x="312" 
d="M113.5 917q49.5 93 150.5 155l44 -81q-64 -54 -93 -123t-29 -160t29 -160.5t93 -122.5l-44 -80q-101 61 -150.5 154t-49.5 209t49.5 209z" />
    <glyph glyph-name="uni207E" unicode="&#x207e;" horiz-adv-x="312" 
d="M198.5 499q-49.5 -93 -149.5 -154l-45 80q63 53 92 122t29 161t-29 160.5t-92 122.5l45 81q100 -62 149.5 -155.5t49.5 -208.5q0 -116 -49.5 -209z" />
    <glyph glyph-name="emdash" unicode="&#x2014;" horiz-adv-x="661" 
d="M0 376h661v-113h-661v113z" />
    <glyph glyph-name="endash" unicode="&#x2013;" horiz-adv-x="511" 
d="M18 376h475v-113h-475v113z" />
    <glyph glyph-name="hyphen" unicode="-" horiz-adv-x="353" 
d="M18 376h317v-113h-317v113z" />
    <glyph glyph-name="uni00AD" unicode="&#xad;" horiz-adv-x="353" 
d="M18 376h317v-113h-317v113z" />
    <glyph glyph-name="guillemotleft" unicode="&#xab;" horiz-adv-x="570" 
d="M198 73l-186 222l186 221l93 -78l-110 -143l110 -144zM463 73l-186 222l186 221l93 -78l-110 -143l110 -144z" />
    <glyph glyph-name="guillemotright" unicode="&#xbb;" horiz-adv-x="570" 
d="M107 73l-93 78l110 144l-110 143l93 78l186 -221zM372 73l-93 78l110 144l-110 143l93 78l185 -221z" />
    <glyph glyph-name="guilsinglleft" unicode="&#x2039;" horiz-adv-x="305" 
d="M198 73l-186 222l186 221l93 -78l-110 -143l110 -144z" />
    <glyph glyph-name="guilsinglright" unicode="&#x203a;" horiz-adv-x="305" 
d="M107 73l-93 78l110 144l-110 143l93 78l186 -221z" />
    <glyph glyph-name="quotedblbase" unicode="&#x201e;" horiz-adv-x="469" 
d="M408 130q24 -26 24 -70q0 -66 -42 -118.5t-114 -65.5l-29 53q64 18 77 65q-31 1 -49.5 23.5t-18.5 55.5q0 35 24 59t63 24q41 0 65 -26zM193 130q24 -26 24 -70q0 -66 -42 -118.5t-114 -65.5l-29 53q64 18 77 65q-31 1 -49.5 23.5t-18.5 55.5q0 35 24 59t63 24
q41 0 65 -26z" />
    <glyph glyph-name="quotedblleft" unicode="&#x201c;" horiz-adv-x="469" 
d="M144 627q32 -1 50.5 -23t18.5 -55q0 -35 -24 -59t-63 -24q-41 0 -65.5 26t-24.5 70q0 66 42 118.5t115 65.5l29 -54q-65 -18 -78 -65zM409 604q18 -22 18 -55q0 -35 -23.5 -59t-62.5 -24q-41 0 -65.5 26t-24.5 70q0 67 42 119t115 65l29 -54q-65 -16 -78 -65
q32 -1 50 -23z" />
    <glyph glyph-name="quotedblright" unicode="&#x201d;" horiz-adv-x="469" 
d="M408 724q24 -26 24 -70q0 -66 -42 -118.5t-114 -65.5l-29 53q64 18 77 65q-31 1 -49.5 23.5t-18.5 55.5q0 35 24 59t63 24q41 0 65 -26zM193 724q24 -26 24 -70q0 -66 -42 -118.5t-114 -65.5l-29 53q64 18 77 65q-31 1 -49.5 23.5t-18.5 55.5q0 35 24 59t63 24
q41 0 65 -26z" />
    <glyph glyph-name="quoteleft" unicode="&#x2018;" horiz-adv-x="254" 
d="M194.5 604q18.5 -22 18.5 -55q0 -35 -24 -59t-63 -24q-41 0 -65.5 26t-24.5 70q0 66 42 118.5t115 65.5l29 -54q-65 -18 -78 -65q32 -1 50.5 -23z" />
    <glyph glyph-name="quoteright" unicode="&#x2019;" horiz-adv-x="254" 
d="M193 724q24 -26 24 -70q0 -66 -42 -118.5t-114 -65.5l-29 53q64 18 77 65q-31 1 -49.5 23.5t-18.5 55.5q0 35 24 59t63 24q41 0 65 -26z" />
    <glyph glyph-name="quotesinglbase" unicode="&#x201a;" horiz-adv-x="254" 
d="M193 130q24 -26 24 -70q0 -67 -42 -119t-114 -65l-29 53q64 18 77 65q-31 1 -49.5 23.5t-18.5 55.5q0 35 24 59t63 24q41 0 65 -26z" />
    <glyph glyph-name="uni00A0" unicode="&#xa0;" horiz-adv-x="250" 
 />
    <glyph glyph-name="uniFEFF" unicode="&#xfeff;" 
 />
    <glyph glyph-name="cent" unicode="&#xa2;" horiz-adv-x="466" 
d="M436 102q-41 -15 -83 -20v-82h-109v87q-100 20 -154 97.5t-54 187.5q0 113 53 191t155 95v80h109v-79q30 -4 66 -16l12 -137q-51 30 -119 30q-66 0 -96 -41.5t-30 -122.5q0 -80 35 -122.5t104 -42.5q61 0 111 22v-127z" />
    <glyph glyph-name="currency" unicode="&#xa4;" horiz-adv-x="557" 
d="M462 248l74 -75l-87 -85l-75 74q-42 -21 -95 -21q-50 0 -96 22l-75 -75l-87 85l75 76q-22 42 -22 96q0 51 22 95l-75 75l87 85l75 -75q46 22 96 22q49 0 96 -21l74 74l87 -85l-74 -74q22 -44 22 -96q0 -53 -22 -97zM214 277q25 -26 65 -26q41 0 65.5 24.5t24.5 65.5
q0 43 -24.5 69.5t-65.5 26.5q-40 0 -65 -25.5t-25 -67.5q0 -41 25 -67z" />
    <glyph glyph-name="dollar" unicode="$" horiz-adv-x="533" 
d="M470.5 76.5q-45.5 -55.5 -121.5 -76.5v-101h-109v89q-104 4 -188 36l-16 154q106 -47 199 -47q54 0 80 19.5t26 61.5q0 30 -26.5 52t-97.5 47q-102 36 -146 86.5t-44 127.5q0 89 56.5 149t156.5 73v92h109v-93q56 -7 100 -29l22 -155q-90 49 -174 49q-44 0 -71 -21.5
t-27 -59.5q0 -34 27.5 -57.5t98.5 -47.5q103 -35 147 -84.5t44 -127.5q0 -81 -45.5 -136.5z" />
    <glyph glyph-name="Euro" unicode="&#x20ac;" horiz-adv-x="606" 
d="M578 152v-139q-69 -25 -140 -25q-138 0 -220 68t-107 192h-90l19 86h61q-1 11 -1 34q0 26 1 39h-80l19 86h73q27 118 106 187.5t208 69.5q70 0 126 -25l19 -149q-65 35 -134 35q-65 0 -104 -29.5t-57 -88.5h197v-86h-211q-1 -12 -1 -39q0 -23 1 -34h211v-86h-197
q19 -61 62 -91.5t115 -30.5q68 0 124 26z" />
    <glyph glyph-name="florin" unicode="&#x192;" horiz-adv-x="487" 
d="M317 467h129v-100h-129v-192q0 -81 -46 -134t-152 -53q-32 0 -80 10l-18 131q39 -12 74 -12q42 0 58 16.5t16 51.5v182h-82v100h82v105q0 81 46 134t152 53q40 0 80 -10l18 -131q-39 12 -74 12q-42 0 -58 -16.5t-16 -51.5v-95z" />
    <glyph glyph-name="uni20BA" unicode="&#x20ba;" horiz-adv-x="644" 
d="M623 206q-22 -101 -97 -153.5t-204 -52.5h-209v266l-92 -34v91l92 34v85l-92 -34v91l92 34v205h156v-148l176 65v-90l-176 -65v-86l176 65v-90l-176 -65v-185h54q77 0 115.5 31t54.5 104z" />
    <glyph glyph-name="uni20B9" unicode="&#x20b9;" horiz-adv-x="549" 
d="M528 652h-144q49 -33 69 -89h75v-86h-64q-3 -73 -44.5 -123.5t-118.5 -77.5l174 -276h-192l-186 343l69 21q66 19 96.5 44t37.5 69h-279v86h276q-9 40 -36.5 64t-72.5 25h-167v86h507v-86z" />
    <glyph glyph-name="sterling" unicode="&#xa3;" horiz-adv-x="561" 
d="M526 137l-18 -137h-458v107q51 35 74.5 74.5t23.5 77.5q0 30 -14 67h-99v100h59q-15 50 -15 110q0 57 27.5 105.5t85.5 78.5t145 30q72 0 135 -26l20 -148q-65 35 -134 35q-117 0 -117 -110q0 -32 15 -75h184v-100h-148q10 -35 10 -60q0 -33 -14.5 -66.5t-46.5 -62.5h285
z" />
    <glyph glyph-name="yen" unicode="&#xa5;" horiz-adv-x="623" 
d="M602 738l-174 -375h125v-86h-161v-73h161v-86h-161v-118h-155v118h-166v86h166v73h-166v86h126l-176 375h160l138 -327l123 327h160z" />
    <glyph glyph-name="uni2219" unicode="&#x2219;" horiz-adv-x="451" 
d="M149 282q-29 28 -29 72t29 72.5t76 28.5q48 0 77 -28.5t29 -72.5t-29 -72t-77 -28q-47 0 -76 28z" />
    <glyph glyph-name="uni2215" unicode="&#x2215;" horiz-adv-x="546" 
d="M50 0l324 738h122l-323 -738h-123z" />
    <glyph glyph-name="uni208C" unicode="&#x208c;" horiz-adv-x="407" 
d="M50 114v97h307v-97h-307zM50 -24v96h307v-96h-307z" />
    <glyph glyph-name="uni207C" unicode="&#x207c;" horiz-adv-x="407" 
d="M50 748v97h307v-97h-307zM50 610v96h307v-96h-307z" />
    <glyph glyph-name="uni208B" unicode="&#x208b;" horiz-adv-x="407" 
d="M50 43v102h307v-102h-307z" />
    <glyph glyph-name="uni207B" unicode="&#x207b;" horiz-adv-x="407" 
d="M50 677v102h307v-102h-307z" />
    <glyph glyph-name="plus" unicode="+" horiz-adv-x="571" 
d="M521 416v-122h-174v-178h-124v178h-173v122h173v176h124v-176h174z" />
    <glyph glyph-name="minus" unicode="&#x2212;" horiz-adv-x="531" 
d="M50 293v122h431v-122h-431z" />
    <glyph glyph-name="multiply" unicode="&#xd7;" horiz-adv-x="566" 
d="M516 502l-148 -148l148 -147l-85 -85l-148 148l-149 -148l-84 85l148 147l-148 148l84 84l149 -148l148 148z" />
    <glyph glyph-name="divide" unicode="&#xf7;" horiz-adv-x="531" 
d="M207 490.5q-23 23.5 -23 58.5q0 34 23 57t58 23q34 0 58 -23.5t24 -57.5t-23.5 -57.5t-58.5 -23.5t-58 23.5zM50 293v122h431v-122h-431zM207 102.5q-23 23.5 -23 58.5q0 34 23 57t58 23q34 0 58 -23.5t24 -57.5t-23.5 -57.5t-58.5 -23.5t-58 23.5z" />
    <glyph glyph-name="equal" unicode="=" horiz-adv-x="531" 
d="M50 395v115h431v-115h-431zM50 198v115h431v-115h-431z" />
    <glyph glyph-name="notequal" unicode="&#x2260;" horiz-adv-x="531" 
d="M481 395h-140l-44 -82h184v-115h-247l-59 -108l-79 46l34 62h-80v115h142l45 82h-187v115h250l59 109l80 -45l-35 -64h77v-115z" />
    <glyph glyph-name="greater" unicode="&#x3e;" horiz-adv-x="531" 
d="M50 113v128l287 114v1l-287 113v127l431 -168v-147z" />
    <glyph glyph-name="less" unicode="&#x3c;" horiz-adv-x="531" 
d="M481 113l-431 168v147l431 168v-127l-288 -113v-1l288 -114v-128z" />
    <glyph glyph-name="greaterequal" unicode="&#x2265;" horiz-adv-x="531" 
d="M50 202v113l287 96v3l-287 96v111l431 -142v-132zM50 68v107h431v-107h-431z" />
    <glyph glyph-name="lessequal" unicode="&#x2264;" horiz-adv-x="531" 
d="M481 202l-431 145v132l431 142v-111l-288 -96v-3l288 -96v-113zM481 68h-431v107h431v-107z" />
    <glyph glyph-name="plusminus" unicode="&#xb1;" horiz-adv-x="531" 
d="M204 237v127h-154v119h154v126h123v-126h154v-119h-154v-127h-123zM50 68v119h431v-119h-431z" />
    <glyph glyph-name="approxequal" unicode="&#x2248;" horiz-adv-x="534" 
d="M307 377q-22 9 -53 30q-23 17 -38 23.5t-28 6.5q-22 0 -35 -15t-13 -40h-90q0 73 36.5 119t97.5 46q22 0 44 -9t52 -31q24 -17 37.5 -23.5t26.5 -6.5q23 0 36 16t13 42h91q0 -75 -37 -121t-97 -46q-21 0 -43 9zM307 170q-22 9 -53 30q-24 17 -38.5 23.5t-27.5 6.5
q-22 0 -35 -15.5t-13 -41.5h-90q0 75 36.5 120.5t97.5 45.5q22 0 43.5 -8.5t52.5 -30.5q39 -29 64 -29q24 0 36.5 14.5t12.5 41.5h91q0 -74 -37 -120t-97 -46q-21 0 -43 9z" />
    <glyph glyph-name="asciitilde" unicode="~" horiz-adv-x="628" 
d="M358 263.5q-26 9.5 -67 37.5q-31 22 -47 29t-31 7q-28 0 -44.5 -21t-16.5 -55h-102q0 59 21.5 103.5t59.5 69t86 24.5q28 0 55 -11t65 -38q30 -21 46.5 -28.5t31.5 -7.5q28 0 44.5 22t16.5 57h102q0 -91 -46 -144.5t-120 -53.5q-28 0 -54 9.5z" />
    <glyph glyph-name="logicalnot" unicode="&#xac;" horiz-adv-x="531" 
d="M361 172v204h-311v122h431v-326h-120z" />
    <glyph glyph-name="infinity" unicode="&#x221e;" horiz-adv-x="846" 
d="M746 497.5q50 -53.5 50 -142.5q0 -90 -50 -144t-132 -54q-62 0 -107 30.5t-85 83.5q-41 -54 -85 -84t-105 -30q-83 0 -132.5 53.5t-49.5 144.5q0 89 49.5 142.5t132.5 53.5q56 0 101 -30.5t90 -84.5q46 54 90.5 84.5t100.5 30.5q82 0 132 -53.5zM302.5 294.5
q26.5 21.5 58.5 62.5q-27 37 -54 57t-60 20q-36 0 -57 -21.5t-21 -57.5q0 -37 21 -59.5t57 -22.5q29 0 55.5 21.5zM655 295.5q21 22.5 21 59.5q0 36 -21 57.5t-56 21.5q-33 0 -60 -19.5t-55 -56.5q32 -41 59 -63t56 -22q35 0 56 22.5z" />
    <glyph glyph-name="integral" unicode="&#x222b;" horiz-adv-x="509" 
d="M34 -101l-17 131q39 -12 74 -12q41 0 56.5 16t17.5 52l31 486q5 83 49 135t149 52q39 0 81 -10l18 -131q-39 12 -75 12q-41 0 -56.5 -16t-17.5 -52l-31 -486q-5 -83 -49 -135t-149 -52q-39 0 -81 10z" />
    <glyph glyph-name="Omega" unicode="&#x2126;" horiz-adv-x="757" 
d="M601 137h103v-137h-274v123q60 53 91 117.5t31 158.5q0 102 -44 157t-129 55t-129.5 -55t-44.5 -157q0 -94 31 -158.5t92 -117.5v-123h-275v137h103q-112 105 -112 286q0 91 40 165.5t116 118t179 43.5t179 -43.5t116 -118t40 -165.5q0 -181 -113 -286z" />
    <glyph glyph-name="Delta" unicode="&#x2206;" horiz-adv-x="689" 
d="M436 738l238 -738h-659l237 738h184zM215 120h256l-128 457z" />
    <glyph glyph-name="product" unicode="&#x220f;" horiz-adv-x="719" 
d="M699 738v-137h-102v-701h-155v701h-165v-701h-155v701h-101v137h678z" />
    <glyph glyph-name="summation" unicode="&#x2211;" horiz-adv-x="503" 
d="M216 37h266v-137h-447v112l160 314l-154 300v112h439l1 -137h-259l131 -275z" />
    <glyph glyph-name="radical" unicode="&#x221a;" horiz-adv-x="600" 
d="M659 601h-129l-182 -701h-180l-156 559h161l89 -405l150 684h228z" />
    <glyph glyph-name="partialdiff" unicode="&#x2202;" horiz-adv-x="587" 
d="M468 640q77 -110 77 -295q0 -213 -95 -297q-64 -60 -173 -60q-74 0 -130 32.5t-86.5 89.5t-30.5 129q0 74 28 127t77.5 80.5t112.5 27.5q86 0 137 -45q-8 91 -47 137t-117 46q-34 0 -64 -7t-63 -23l13 146q61 22 125 22q159 0 236 -110zM382 241q0 46 -24.5 75.5
t-70.5 29.5t-70.5 -31t-24.5 -83q0 -55 23.5 -85t71.5 -30q40 0 64 29q31 33 31 95z" />
    <glyph glyph-name="mu" unicode="&#xb5;" horiz-adv-x="630" 
d="M570 559v-559h-138v74q-21 -43 -53.5 -64.5t-69.5 -21.5q-61 0 -101 31v-211h-148v751h148v-316q0 -67 22.5 -103.5t78.5 -36.5t84.5 38t28.5 95v323h148z" />
    <glyph glyph-name="percent" unicode="%" horiz-adv-x="937" 
d="M127 391.5q-41 25.5 -63 68.5t-22 96t22 96t63.5 68.5t96.5 25.5q53 0 94 -25.5t63.5 -68.5t22.5 -96t-22.5 -96t-64 -68.5t-96.5 -25.5q-53 0 -94 25.5zM181 0l461 738h114l-461 -738h-114zM271 492q18 24 18 64t-18 64.5t-48 24.5q-31 0 -48.5 -24t-17.5 -65
q0 -40 17.5 -64t47.5 -24q31 0 49 24zM810 346.5q41 -25.5 63 -68.5t22 -96t-22 -96t-63.5 -68.5t-96.5 -25.5q-53 0 -94 25.5t-63.5 68.5t-22.5 96t22.5 96t64 68.5t96.5 25.5q53 0 94 -25.5zM666 246q-18 -24 -18 -64t18 -64.5t48 -24.5q31 0 48.5 24t17.5 65
q0 40 -17.5 64t-47.5 24q-31 0 -49 -24z" />
    <glyph glyph-name="perthousand" unicode="&#x2030;" horiz-adv-x="1344" 
d="M127 391.5q-41 25.5 -63 68.5t-22 96t22 96t63.5 68.5t96.5 25.5q53 0 94 -25.5t63.5 -68.5t22.5 -96t-22.5 -96t-64 -68.5t-96.5 -25.5q-53 0 -94 25.5zM181 0l461 738h114l-461 -738h-114zM271 492q18 24 18 64t-18 64.5t-48 24.5q-31 0 -48.5 -24t-17.5 -65
q0 -40 17.5 -64t47.5 -24q31 0 49 24zM810 346.5q41 -25.5 63 -68.5t22 -96t-22 -96t-63.5 -68.5t-96.5 -25.5q-53 0 -94 25.5t-63.5 68.5t-22.5 96t22.5 96t64 68.5t96.5 25.5q53 0 94 -25.5zM1217.5 346.5q40.5 -25.5 62.5 -68.5t22 -96t-22 -96t-63 -68.5t-96 -25.5
q-54 0 -94.5 25.5t-63 68.5t-22.5 96t22.5 96t64 68.5t96.5 25.5q53 0 93.5 -25.5zM666 246q-18 -24 -18 -64t18 -64.5t48 -24.5q31 0 48.5 24t17.5 65q0 40 -17.5 64t-47.5 24q-31 0 -49 -24zM1074 246q-18 -24 -18 -64q0 -41 17.5 -65t48.5 -24t48.5 24t17.5 65
q0 40 -18 64t-47 24q-31 0 -49 -24z" />
    <glyph glyph-name="uni208A" unicode="&#x208a;" horiz-adv-x="435" 
d="M385 145v-102h-116v-120h-105v120h-114v102h114v120h105v-120h116z" />
    <glyph glyph-name="uni207A" unicode="&#x207a;" horiz-adv-x="435" 
d="M385 779v-102h-116v-120h-105v120h-114v102h114v120h105v-120h116z" />
    <glyph glyph-name="lozenge" unicode="&#x25ca;" horiz-adv-x="576" 
d="M378 778l186 -438l-186 -440h-180l-186 440l186 438h180zM291 6l113 334l-118 331l-113 -331z" />
    <glyph glyph-name="at" unicode="@" horiz-adv-x="908" 
d="M682.5 711q91.5 -49 140.5 -137.5t49 -203.5q0 -126 -49.5 -194.5t-130.5 -68.5q-43 0 -72 17t-41 48q-25 -34 -63.5 -49.5t-84.5 -15.5q-74 0 -117.5 34.5t-43.5 101.5q0 137 199 145l68 3v22q0 58 -87 58q-37 0 -77 -10.5t-76 -30.5l17 119q71 33 152 33
q95 0 146.5 -46.5t51.5 -123.5v-153q0 -53 43 -53q75 0 75 164q0 149 -80 229t-234 80q-102 0 -178 -41.5t-117 -119t-41 -182.5t38 -180t108.5 -113.5t165.5 -38.5q50 0 95 10.5t91 32.5l33 -68q-100 -53 -219 -53q-123 0 -213.5 47.5t-139.5 139.5t-49 223q0 127 54 223
t151 148.5t221 52.5q123 0 214.5 -49zM537 276v34l-48 -3q-51 -4 -71 -17t-20 -38q0 -24 13.5 -35t42.5 -11q83 0 83 70z" />
    <glyph glyph-name="ampersand" unicode="&#x26;" horiz-adv-x="770" 
d="M557 0l-37 42q-84 -55 -204 -55q-132 0 -203 54.5t-71 147.5q0 82 44 128t121 76q-35 45 -51.5 82.5t-16.5 80.5q0 55 26 99t74.5 69.5t113.5 25.5q163 0 220 -143l-128 -47q-26 69 -87 69q-35 0 -53.5 -19.5t-18.5 -50.5q0 -29 17 -56.5t72 -87.5l138 -153q18 65 16 174
h213v-133h-85q-7 -86 -42 -154l134 -149h-192zM432 139l-151 169q-36 -19 -55 -44t-19 -61q0 -44 30.5 -67.5t88.5 -23.5q63 0 106 27z" />
    <glyph glyph-name="paragraph" unicode="&#xb6;" horiz-adv-x="855" 
d="M785 -192h-143v786h-103v-786h-144v786h-50q-77 0 -115 -32.5t-38 -91.5q0 -52 30.5 -80t88.5 -28v-147q-88 -2 -151 28t-96.5 88.5t-33.5 137.5q0 78 35.5 139t106.5 95.5t175 34.5h438v-930z" />
    <glyph glyph-name="section" unicode="&#xa7;" horiz-adv-x="463" 
d="M290 343q0 20 -18 34.5t-68 31.5q-84 29 -120.5 68.5t-36.5 99.5q0 50 26.5 89t75.5 61t114 22q83 0 141 -28l18 -131q-32 20 -71 31t-74 11q-34 0 -56.5 -14t-22.5 -39q0 -22 19.5 -37t69.5 -30q86 -27 121.5 -64t35.5 -98q0 -37 -13.5 -68t-34.5 -48l-128 64
q22 20 22 45zM180.5 311.5q-5.5 -9.5 -5.5 -22.5q0 -21 19.5 -36.5t70.5 -31.5q84 -27 120 -65.5t36 -97.5q0 -54 -27.5 -94.5t-75.5 -61.5t-107 -21q-95 0 -176 30l-13 128q85 -40 160 -40q85 0 85 55q0 20 -19 34.5t-67 29.5q-85 27 -121 65.5t-36 99.5q0 36 13.5 66
t37.5 50l122 -65q-11 -13 -16.5 -22.5z" />
    <glyph glyph-name="copyright" unicode="&#xa9;" horiz-adv-x="826" 
d="M221 39q-85 51 -132 138.5t-47 192.5q0 104 47 191t132 138t192 51t192 -51t132 -138t47 -191q0 -105 -47 -192.5t-132 -138.5t-192 -51t-192 51zM560 112q64 40 98.5 108t34.5 150q0 81 -34.5 149t-98.5 107.5t-147 39.5t-146.5 -39.5t-98 -107.5t-34.5 -149
q0 -82 34.5 -150t98 -108t146.5 -40t147 40zM321 191q-45 27 -68 74t-23 105q0 90 54 147.5t153 57.5q51 0 94 -21l7 -96q-40 27 -93 27q-98 0 -98 -115q0 -56 26 -86t75 -30q53 0 95 25l1 -90q-51 -25 -115 -25q-63 0 -108 27z" />
    <glyph glyph-name="registered" unicode="&#xae;" horiz-adv-x="570" 
d="M413.5 718q56.5 -34 88.5 -92.5t32 -128.5q0 -71 -32 -129.5t-88.5 -93t-128.5 -34.5t-128.5 34.5t-88.5 93t-32 129.5q0 70 32 128.5t88.5 92.5t128.5 34t128.5 -34zM378 332q40 25 62 68.5t22 96.5q0 52 -22 94.5t-62 67.5t-93 25q-52 0 -92 -25t-62 -67.5t-22 -94.5
q0 -53 22 -96.5t62 -68.5t92 -25q53 0 93 25zM382.5 488.5q-13.5 -21.5 -40.5 -33.5l59 -94h-77l-44 84h-21v-84h-68v271h97q51 0 79.5 -26t28.5 -67q0 -29 -13.5 -50.5zM259 502h27q39 0 39 37q0 38 -39 38h-27v-75z" />
    <glyph glyph-name="uni2117" unicode="&#x2117;" horiz-adv-x="826" 
d="M605 699q85 -51 132 -138t47 -191q0 -105 -47 -192.5t-132 -138.5t-192 -51t-192 51t-132 138.5t-47 192.5q0 104 47 191t132 138t192 51t192 -51zM560 112q64 40 98.5 108t34.5 150q0 81 -34.5 149t-98.5 107.5t-147 39.5t-146.5 -39.5t-98 -107.5t-34.5 -149
q0 -82 34.5 -150t98 -108t146.5 -40t147 40zM548 534.5q42 -37.5 42 -99.5t-42 -99.5t-118 -37.5h-50v-130h-86v404h138q74 0 116 -37.5zM500 435q0 33 -18.5 50t-53.5 17h-48v-133h48q72 0 72 66z" />
    <glyph glyph-name="trademark" unicode="&#x2122;" horiz-adv-x="961" 
d="M375 738v-112h-113v-331h-128v331h-113v112h354zM928 295h-116l-22 235l-81 -235h-83l-82 235l-21 -235h-118l46 443h134l82 -252l82 252h134z" />
    <glyph glyph-name="degree" unicode="&#xb0;" horiz-adv-x="398" 
d="M116.5 446.5q-37.5 21.5 -59 59t-21.5 81.5q0 45 21.5 82.5t59 59t82.5 21.5q44 0 81.5 -21.5t59 -59t21.5 -82.5q0 -44 -21.5 -81.5t-59 -59t-81.5 -21.5q-45 0 -82.5 21.5zM235 546.5q14 14.5 14 40.5t-14 41t-36 15t-36.5 -15t-14.5 -41t14.5 -40.5t36.5 -14.5
t36 14.5z" />
    <glyph glyph-name="bar" unicode="|" horiz-adv-x="299" 
d="M85 -100v908h129v-908h-129z" />
    <glyph glyph-name="brokenbar" unicode="&#xa6;" horiz-adv-x="299" 
d="M85 495v313h129v-313h-129zM85 -100v313h129v-313h-129z" />
    <glyph glyph-name="dagger" unicode="&#x2020;" horiz-adv-x="558" 
d="M357 559h166v-137h-166v-614h-156v614h-166v137h166v179h156v-179z" />
    <glyph glyph-name="uni2113" unicode="&#x2113;" horiz-adv-x="491" 
d="M324.5 120q13.5 9 26.5 31l93 -69q-25 -48 -65 -71.5t-98 -23.5q-64 0 -107 31t-66 102l-51 -18l-36 119q27 8 64 23q-6 56 -6 128q0 191 46.5 284.5t150.5 93.5q83 0 126.5 -60t43.5 -157q0 -112 -50 -199.5t-156 -151.5q8 -40 22 -55.5t32 -15.5q17 0 30.5 9z
M237 566.5q-11 -56.5 -11 -194.5v-41q38 38 56 89.5t18 120.5q0 44 -7 63t-22 19q-23 0 -34 -56.5z" />
    <glyph glyph-name="daggerdbl" unicode="&#x2021;" horiz-adv-x="558" 
d="M523 422h-166v-285h166v-137h-166v-192h-156v192h-166v137h166v285h-166v137h166v179h156v-179h166v-137z" />
    <glyph glyph-name="estimated" unicode="&#x212e;" horiz-adv-x="933" 
d="M688.5 693q94.5 -53 144 -142.5t49.5 -196.5h-663q-6 0 -10 -4t-4 -9v-181q0 -17 3.5 -27.5t12.5 -19.5q101 -99 246 -99q78 0 146.5 32.5t112.5 86.5h74q-42 -60 -127 -103t-206 -43q-124 0 -218.5 48.5t-146 134.5t-51.5 195q0 107 50.5 194t145 137t220.5 50
q127 0 221.5 -53zM221 617q-9 -9 -12.5 -19t-3.5 -26v-180q0 -7 4 -10.5t10 -3.5h493q15 0 15 14v180q0 16 -3.5 26t-13.5 19q-102 101 -243 101q-143 0 -246 -101z" />
    <glyph glyph-name="asciicircum" unicode="^" horiz-adv-x="594" 
d="M50 223l163 267h158l173 -267h-139l-111 147h-2l-102 -147h-140z" />
    <glyph glyph-name="dieresiscomb" unicode="&#x308;" 
d="M-334 623.5q-18 20.5 -18 51.5t18 51.5t48 20.5t48.5 -20.5t18.5 -51.5t-18.5 -51.5t-48.5 -20.5t-48 20.5zM-165.5 623.5q-18.5 20.5 -18.5 51.5t18.5 51.5t48.5 20.5t48.5 -20.5t18.5 -51.5t-18.5 -51.5t-48.5 -20.5t-48.5 20.5z" />
    <glyph glyph-name="dotaccentcomb" unicode="&#x307;" 
d="M-184 624q-21 21 -21 52t21 51.5t56 20.5q37 0 57.5 -20t20.5 -52q0 -31 -21 -52t-57 -21q-35 0 -56 21z" />
    <glyph glyph-name="gravecomb" unicode="&#x300;" 
d="M-50 608h-130l-112 130h173z" />
    <glyph glyph-name="acutecomb" unicode="&#x301;" 
d="M-292 608l69 130h173l-112 -130h-130z" />
    <glyph glyph-name="hungarumlautcomb" unicode="&#x30b;" 
d="M-410 599l21 139h145l-64 -139h-102zM-243 599l48 139h145l-91 -139h-102z" />
    <glyph glyph-name="caroncomb.alt" 
d="M-175 590v148h125l-35 -148h-90z" />
    <glyph glyph-name="circumflexcomb" unicode="&#x302;" 
d="M-50 608h-121l-52 54l-52 -54h-120l87 130h171z" />
    <glyph glyph-name="caroncomb" unicode="&#x30c;" 
d="M-171 738h121l-87 -130h-171l-87 130h120l52 -54z" />
    <glyph glyph-name="brevecomb" unicode="&#x306;" 
d="M-275 634q-36 32 -37 104h86q1 -22 12 -31.5t33 -9.5t33 9.5t12 31.5h86q-1 -72 -37 -104t-94 -32t-94 32z" />
    <glyph glyph-name="ringcomb" unicode="&#x30a;" 
d="M-238.5 633.5q-30.5 29.5 -30.5 75.5q0 45 31 74.5t79 29.5t78.5 -29.5t30.5 -74.5q0 -46 -30.5 -75.5t-78.5 -29.5q-49 0 -79.5 29.5zM-132.5 679q9.5 12 9.5 30t-9.5 29.5t-26.5 11.5t-27 -11.5t-10 -29.5t10 -30t27 -12t26.5 12z" />
    <glyph glyph-name="tildecomb" unicode="&#x303;" 
d="M-319 675q8 31 29.5 46.5t46.5 15.5q19 0 32.5 -7t30.5 -19q11 -8 18.5 -12t14.5 -4q20 0 20 42h77q0 -47 -8 -75q-9 -33 -30.5 -49t-47.5 -16q-18 0 -31.5 6.5t-31.5 18.5q-20 16 -32 16q-20 0 -20 -41h-77q0 49 9 78z" />
    <glyph glyph-name="macroncomb" unicode="&#x304;" 
d="M-265 734h215v-106h-215v106z" />
    <glyph glyph-name="commaturnedabovecomb" unicode="&#x312;" 
d="M-67 698.5q15 -16.5 15 -40.5q0 -27 -20 -47t-54 -20q-36 0 -57.5 21t-21.5 58q0 47 27.5 81.5t91.5 34.5q17 0 35 -3l1 -48q-15 3 -26 3q-32 0 -36 -23h2q28 0 43 -16.5z" />
    <glyph glyph-name="uni0313" unicode="&#x313;" 
d="M-71.5 767q21.5 -21 21.5 -59q0 -46 -27.5 -80.5t-91.5 -34.5q-17 0 -35 3l-1 48q15 -3 26 -3q32 0 36 22h-2q-28 0 -43 16.5t-15 40.5q0 28 20 48t54 20q36 0 57.5 -21z" />
    <glyph glyph-name="commaaccent" unicode="&#x326;" 
d="M-71.5 -58q21.5 -21 21.5 -59q0 -46 -27.5 -80.5t-91.5 -34.5q-17 0 -35 3l-1 48q15 -3 26 -3q32 0 36 22h-2q-28 0 -43 16.5t-15 40.5q0 28 20 48t54 20q36 0 57.5 -21z" />
    <glyph glyph-name="cedillacomb" unicode="&#x327;" 
d="M-204 -189l18 149h136l-52 -149h-102z" />
    <glyph glyph-name="ogonekcomb" unicode="&#x328;" 
d="M-141.5 -28q-17.5 -19 -17.5 -36q0 -14 9 -20.5t31 -6.5q37 0 69 14l-11 -83q-39 -17 -84 -17q-54 0 -83 21t-29 59q0 35 32.5 65t121.5 76l24 -22q-45 -31 -62.5 -50z" />
    <glyph glyph-name="uni0335" unicode="&#x335;" 
d="M-404 348h354v-80h-354v80z" />
    <glyph glyph-name="uni0337" unicode="&#x337;" 
d="M-185 382l135 103v-117l-135 -104v10l-136 -103v117l136 103v-9z" />
    <glyph glyph-name="uni0338" unicode="&#x338;" 
d="M-495 -1l-62 53l445 508l62 -53z" />
    <glyph glyph-name="uni0308.case" 
d="M-328 784q-17 15 -17 39t17 39.5t47 15.5q32 0 49.5 -15.5t17.5 -39.5t-17.5 -39t-49.5 -15q-30 0 -47 15zM-162.5 784.5q-17.5 15.5 -17.5 38.5q0 24 17 39.5t48 15.5q32 0 48.5 -15.5t16.5 -39.5t-16.5 -39t-48.5 -15q-30 0 -47.5 15.5z" />
    <glyph glyph-name="uni0307.case" 
d="M-184.5 794q-20.5 21 -20.5 51t20.5 50.5t56.5 20.5q37 0 57.5 -20.5t20.5 -50.5t-20.5 -51t-57.5 -21q-36 0 -56.5 21z" />
    <glyph glyph-name="gravecomb.case" 
d="M-50 774h-134l-102 109h178z" />
    <glyph glyph-name="acutecomb.case" 
d="M-286 774l58 109h178l-102 -109h-134z" />
    <glyph glyph-name="uni030B.case" 
d="M-409 773l20 110h145l-63 -110h-102zM-243 773l48 110h145l-91 -110h-102z" />
    <glyph glyph-name="uni0302.case" 
d="M-50 773h-120l-43 43l-43 -43h-120l78 110h171z" />
    <glyph glyph-name="uni030C.case" 
d="M-170 883h120l-77 -110h-171l-78 110h120l43 -42z" />
    <glyph glyph-name="uni0306.case" 
d="M-282.5 800q-35.5 29 -38.5 83h89q7 -31 47 -31q39 0 46 31h89q-3 -54 -38 -83t-97 -29t-97.5 29z" />
    <glyph glyph-name="uni030A.case" 
d="M-222.5 779q-28.5 24 -28.5 62q0 36 28.5 60t72.5 24q43 0 71.5 -24t28.5 -60q0 -37 -28 -61.5t-72 -24.5t-72.5 24zM-123 816q10 10 10 25q0 14 -10 23.5t-27 9.5t-27.5 -9.5t-10.5 -23.5q0 -15 10.5 -25t27.5 -10t27 10z" />
    <glyph glyph-name="tildecomb.case" 
d="M-356 816q2 15 9 30q22 52 78 52q22 0 38 -5t35 -15q3 -1 15 -6.5t24 -5.5q20 0 20 32h87q0 -40 -6 -60q-9 -33 -31.5 -48.5t-52.5 -15.5q-22 0 -38 5t-35 15q-10 5 -19.5 8.5t-18.5 3.5q-11 0 -15.5 -7.5t-4.5 -24.5h-87q0 27 2 42z" />
    <glyph glyph-name="uni0304.case" 
d="M-302 874h252v-90h-252v90z" />
    <glyph glyph-name="uni0335.case" 
d="M-384 366h334v-116h-334v116z" />
    <glyph glyph-name="uni0336.case" 
d="M-477 357h427v-98h-427v98z" />
    <glyph glyph-name="uni0337.case" 
d="M-247 371l197 163v-136l-197 -163v136z" />
    <glyph glyph-name="uni0338.case" 
d="M-635 0l-70 59l585 679l70 -59z" />
    <glyph glyph-name="uni0307.i" 
d="M-201 657q-23 21 -23 56t23 55.5t65 20.5t65 -20.5t23 -55.5t-23 -56t-65 -21t-65 21z" />
    <glyph glyph-name="uni02BC" unicode="&#x2bc;" horiz-adv-x="285" 
d="M211 723.5q24 -26.5 24 -70.5q0 -67 -42 -119t-114 -64l-29 53q64 18 77 65q-31 1 -49.5 23.5t-18.5 55.5q0 35 24 59t63 24q41 0 65 -26.5z" />
    <glyph glyph-name="uni02C9" unicode="&#x2c9;" horiz-adv-x="315" 
d="M50 734h215v-106h-215v106z" />
    <glyph glyph-name="acute" unicode="&#xb4;" horiz-adv-x="342" 
d="M50 608l69 130h173l-112 -130h-130z" />
    <glyph glyph-name="breve" unicode="&#x2d8;" horiz-adv-x="362" 
d="M87 634q-36 32 -37 104h86q1 -22 12 -31.5t33 -9.5t33 9.5t12 31.5h86q-1 -72 -37 -104t-94 -32t-94 32z" />
    <glyph glyph-name="caron" unicode="&#x2c7;" horiz-adv-x="445" 
d="M274 738h121l-87 -130h-171l-87 130h120l52 -54z" />
    <glyph glyph-name="cedilla" unicode="&#xb8;" horiz-adv-x="254" 
d="M50 -189l18 149h136l-52 -149h-102z" />
    <glyph glyph-name="circumflex" unicode="&#x2c6;" horiz-adv-x="445" 
d="M395 608h-121l-52 54l-52 -54h-120l87 130h171z" />
    <glyph glyph-name="dieresis" unicode="&#xa8;" horiz-adv-x="402" 
d="M68 623.5q-18 20.5 -18 51.5t18 51.5t48 20.5t48.5 -20.5t18.5 -51.5t-18.5 -51.5t-48.5 -20.5t-48 20.5zM236.5 623.5q-18.5 20.5 -18.5 51.5t18.5 51.5t48.5 20.5t48.5 -20.5t18.5 -51.5t-18.5 -51.5t-48.5 -20.5t-48.5 20.5z" />
    <glyph glyph-name="dotaccent" unicode="&#x2d9;" horiz-adv-x="255" 
d="M71 624q-21 21 -21 52t21 51.5t56 20.5q37 0 57.5 -20t20.5 -52q0 -31 -21 -52t-57 -21q-35 0 -56 21z" />
    <glyph glyph-name="grave" unicode="`" horiz-adv-x="342" 
d="M292 608h-130l-112 130h173z" />
    <glyph glyph-name="hungarumlaut" unicode="&#x2dd;" horiz-adv-x="460" 
d="M50 599l21 139h145l-64 -139h-102zM217 599l48 139h145l-91 -139h-102z" />
    <glyph glyph-name="macron" unicode="&#xaf;" horiz-adv-x="315" 
d="M50 734h215v-106h-215v106z" />
    <glyph glyph-name="ogonek" unicode="&#x2db;" horiz-adv-x="307" 
d="M165.5 -28q-17.5 -19 -17.5 -36q0 -14 9 -20.5t31 -6.5q37 0 69 14l-11 -83q-39 -17 -84 -17q-54 0 -83 21t-29 59q0 35 32.5 65t121.5 76l24 -22q-45 -31 -62.5 -50z" />
    <glyph glyph-name="ring" unicode="&#x2da;" horiz-adv-x="319" 
d="M80.5 633.5q-30.5 29.5 -30.5 75.5q0 45 31 74.5t79 29.5t78.5 -29.5t30.5 -74.5q0 -46 -30.5 -75.5t-78.5 -29.5q-49 0 -79.5 29.5zM186.5 679q9.5 12 9.5 30t-9.5 29.5t-26.5 11.5t-27 -11.5t-10 -29.5t10 -30t27 -12t26.5 12z" />
    <glyph glyph-name="tilde" unicode="&#x2dc;" horiz-adv-x="378" 
d="M72.5 703q25.5 34 62.5 34q19 0 32.5 -7t30.5 -19q11 -8 18.5 -12t14.5 -4q20 0 20 42h77q3 -73 -22.5 -106.5t-63.5 -33.5q-18 0 -31.5 6.5t-31.5 18.5q-20 16 -32 16q-20 0 -20 -41h-77q-3 72 22.5 106z" />
    <glyph glyph-name="caron.alt" horiz-adv-x="445" 
d="M274 738h121l-87 -130h-171l-87 130h120l52 -54z" />
    <glyph glyph-name="acute.case" horiz-adv-x="336" 
d="M50 774l58 109h178l-102 -109h-134z" />
    <glyph glyph-name="breve.case" horiz-adv-x="371" 
d="M88.5 800q-35.5 29 -38.5 83h89q7 -31 47 -31q39 0 46 31h89q-3 -54 -38 -83t-97 -29t-97.5 29z" />
    <glyph glyph-name="caron.case" horiz-adv-x="426" 
d="M256 883h120l-77 -110h-171l-78 110h120l43 -42z" />
    <glyph glyph-name="circumflex.case" horiz-adv-x="426" 
d="M376 773h-120l-43 43l-43 -43h-120l78 110h171z" />
    <glyph glyph-name="dieresis.case" horiz-adv-x="395" 
d="M67 784q-17 15 -17 39t17 39.5t47 15.5q32 0 49.5 -15.5t17.5 -39.5t-17.5 -39t-49.5 -15q-30 0 -47 15zM232.5 784.5q-17.5 15.5 -17.5 38.5q0 24 17 39.5t48 15.5q32 0 48.5 -15.5t16.5 -39.5t-16.5 -39t-48.5 -15q-30 0 -47.5 15.5z" />
    <glyph glyph-name="dotaccent.case" horiz-adv-x="255" 
d="M70.5 794q-20.5 21 -20.5 51t20.5 50.5t56.5 20.5q37 0 57.5 -20.5t20.5 -50.5t-20.5 -51t-57.5 -21q-36 0 -56.5 21z" />
    <glyph glyph-name="grave.case" horiz-adv-x="336" 
d="M286 774h-134l-102 109h178z" />
    <glyph glyph-name="hungarumlaut.case" horiz-adv-x="459" 
d="M50 773l20 110h145l-63 -110h-102zM216 773l48 110h145l-91 -110h-102z" />
    <glyph glyph-name="macron.case" horiz-adv-x="352" 
d="M50 874h252v-90h-252v90z" />
    <glyph glyph-name="ring.case" horiz-adv-x="301" 
d="M78.5 779q-28.5 24 -28.5 62q0 36 28.5 60t72.5 24q43 0 71.5 -24t28.5 -60q0 -37 -28 -61.5t-72 -24.5t-72.5 24zM178 816q10 10 10 25q0 14 -10 23.5t-27 9.5t-27.5 -9.5t-10.5 -23.5q0 -15 10.5 -25t27.5 -10t27 10z" />
    <glyph glyph-name="tilde.case" horiz-adv-x="408" 
d="M73 868q26 30 66 30q22 0 38 -5t35 -15q3 -1 15 -6.5t24 -5.5q20 0 20 32h87q3 -64 -23.5 -94t-66.5 -30q-22 0 -38 5t-35 15q-10 5 -19.5 8.5t-18.5 3.5q-11 0 -15.5 -7.5t-4.5 -24.5h-87q-3 64 23 94z" />
    <glyph glyph-name="tonos.case" horiz-adv-x="225" 
d="M50 590v148h125l-35 -148h-90z" />
    <glyph glyph-name="brevecy.case" horiz-adv-x="371" 
d="M88.5 800q-35.5 29 -38.5 83h89q7 -31 47 -31q39 0 46 31h89q-3 -54 -38 -83t-97 -29t-97.5 29z" />
    <glyph glyph-name="brevecy" horiz-adv-x="362" 
d="M87 634q-36 32 -37 104h86q1 -22 12 -31.5t33 -9.5t33 9.5t12 31.5h86q-1 -72 -37 -104t-94 -32t-94 32z" />
    <glyph glyph-name="uni2011" unicode="&#x2011;" horiz-adv-x="353" 
d="M18 376h317v-113h-317v113z" />
    </font>
</defs>
</svg>
