<?xml version="1.0" standalone="no"?>
<!DOCTYPE svg PUBLIC "-//W3C//DTD SVG 1.1//EN" "http://www.w3.org/Graphics/SVG/1.1/DTD/svg11.dtd" >
<svg>
<metadata>
Created by FontForge 20090622 at Wed Aug 30 12:47:44 2017
 By deploy user
Copyright &#194;&#169; 2016 News UK &#38; Ireland Ltd. All rights reserved.
</metadata>
<defs>
<font id="TheSun-HeavyCondensed" horiz-adv-x="0" >
  <font-face 
    font-family="The Sun Heavy Condensed"
    font-weight="800"
    font-stretch="condensed"
    units-per-em="1000"
    panose-1="2 11 8 6 2 2 4 2 2 4"
    ascent="800"
    descent="-200"
    x-height="560"
    cap-height="738"
    bbox="-542 -294 1148 1020"
    underline-thickness="50"
    underline-position="-50"
    unicode-range="U+000D-U+FEFF"
  />
<missing-glyph horiz-adv-x="386" 
d="M0 738h386v-738h-386v738zM124 121h138v496h-138v-496z" />
    <glyph glyph-name="ff" unicode="ff" horiz-adv-x="662" 
d="M227 618q-14 -16 -14 -46v-12h99v-121h-99v-439h-148v439h-50v121h50v14q0 80 46.5 125.5t134.5 45.5q36 0 66 -6v-110q-20 5 -40 5q-31 0 -45 -16zM563 618q-14 -16 -14 -46v-12h99v-121h-99v-439h-148v439h-50v121h50v14q0 80 46.5 125.5t134.5 45.5q36 0 66 -6v-110
q-20 5 -40 5q-31 0 -45 -16z" />
    <glyph glyph-name="ffi" unicode="ffi" horiz-adv-x="910" 
d="M227 618q-14 -16 -14 -46v-12h99v-121h-99v-439h-148v439h-50v121h50v14q0 80 46.5 125.5t134.5 45.5q36 0 66 -6v-110q-20 5 -40 5q-31 0 -45 -16zM563 618q-14 -16 -14 -46v-12h99v-121h-99v-439h-148v439h-50v121h50v14q0 80 46.5 125.5t134.5 45.5q36 0 66 -6v-110
q-20 5 -40 5q-31 0 -45 -16zM722 608q-24 22 -24 60t24 60t64 22t64 -22t24 -60t-24 -60t-64 -22t-64 22zM712 0v560h148v-560h-148z" />
    <glyph glyph-name="ffl" unicode="ffl" horiz-adv-x="910" 
d="M227 618q-14 -16 -14 -46v-12h99v-121h-99v-439h-148v439h-50v121h50v14q0 80 46.5 125.5t134.5 45.5q36 0 66 -6v-110q-20 5 -40 5q-31 0 -45 -16zM563 618q-14 -16 -14 -46v-12h99v-121h-99v-439h-148v439h-50v121h50v14q0 80 46.5 125.5t134.5 45.5q36 0 66 -6v-110
q-20 5 -40 5q-31 0 -45 -16zM712 0v738h148v-738h-148z" />
    <glyph glyph-name="fi" unicode="fi" horiz-adv-x="574" 
d="M227 618q-14 -16 -14 -46v-12h99v-121h-99v-439h-148v439h-50v121h50v14q0 80 46.5 125.5t134.5 45.5q36 0 66 -6v-110q-20 5 -40 5q-31 0 -45 -16zM386 608q-24 22 -24 60t24 60t64 22t64 -22t24 -60t-24 -60t-64 -22t-64 22zM376 0v560h148v-560h-148z" />
    <glyph glyph-name="fl" unicode="fl" horiz-adv-x="574" 
d="M227 618q-14 -16 -14 -46v-12h99v-121h-99v-439h-148v439h-50v121h50v14q0 80 46.5 125.5t134.5 45.5q36 0 66 -6v-110q-20 5 -40 5q-31 0 -45 -16zM376 0v738h148v-738h-148z" />
    <glyph glyph-name=".notdef" horiz-adv-x="386" 
d="M0 738h386v-738h-386v738zM124 121h138v496h-138v-496z" />
    <glyph glyph-name="NULL" 
 />
    <glyph glyph-name="NULL" 
 />
    <glyph glyph-name="CR" unicode="&#xd;" horiz-adv-x="200" 
 />
    <glyph glyph-name="space" unicode=" " horiz-adv-x="200" 
 />
    <glyph glyph-name="A" unicode="A" horiz-adv-x="492" 
d="M341 0l-27 138h-146l-29 -138h-149l176 738h159l177 -738h-161zM195 266h94l-46 234z" />
    <glyph glyph-name="Aacute" unicode="&#xc1;" horiz-adv-x="492" 
d="M341 0l-27 138h-146l-29 -138h-149l176 738h159l177 -738h-161zM195 266h94l-46 234zM182 773l27 95h184l-73 -95h-138z" />
    <glyph glyph-name="Abreve" unicode="&#x102;" horiz-adv-x="492" 
d="M341 0l-27 138h-146l-29 -138h-149l176 738h159l177 -738h-161zM195 266h94l-46 234zM160 788.5q-33 25.5 -34 79.5h91q1 -21 29 -21q27 0 29 21h91q-1 -54 -34 -79.5t-86 -25.5t-86 25.5z" />
    <glyph glyph-name="Acircumflex" unicode="&#xc2;" horiz-adv-x="492" 
d="M341 0l-27 138h-146l-29 -138h-149l176 738h159l177 -738h-161zM195 266h94l-46 234zM380 773h-101l-33 35l-34 -35h-101l37 95h195z" />
    <glyph glyph-name="Adieresis" unicode="&#xc4;" horiz-adv-x="492" 
d="M341 0l-27 138h-146l-29 -138h-149l176 738h159l177 -738h-161zM195 266h94l-46 234zM112.5 782q-17.5 16 -17.5 40q0 25 17 40.5t50 15.5t51 -15.5t18 -40.5q0 -24 -18 -40t-51 -16q-32 0 -49.5 16zM278 782q-18 16 -18 40q0 25 18 40.5t50 15.5q33 0 50.5 -15.5
t17.5 -40.5t-17.5 -40.5t-50.5 -15.5q-32 0 -50 16z" />
    <glyph glyph-name="Agrave" unicode="&#xc0;" horiz-adv-x="492" 
d="M341 0l-27 138h-146l-29 -138h-149l176 738h159l177 -738h-161zM195 266h94l-46 234zM310 773h-138l-73 95h184z" />
    <glyph glyph-name="Amacron" unicode="&#x100;" horiz-adv-x="492" 
d="M341 0l-27 138h-146l-29 -138h-149l176 738h159l177 -738h-161zM195 266h94l-46 234zM138 868h215v-95h-215v95z" />
    <glyph glyph-name="Aogonek" unicode="&#x104;" horiz-adv-x="492" 
d="M454 -87q20 0 45 9v-88q-34 -14 -73 -14q-54 0 -81 21.5t-27 61.5q0 26 12.5 48t44.5 49h-34l-27 138h-146l-29 -138h-149l176 738h159l177 -738h-52q-18 -21 -24.5 -33.5t-6.5 -25.5q0 -28 35 -28zM195 266h94l-46 234z" />
    <glyph glyph-name="Aring" unicode="&#xc5;" horiz-adv-x="492" 
d="M341 0l-27 138h-146l-29 -138h-149l176 738h159l177 -738h-161zM195 266h94l-46 234zM172.5 778q-28.5 24 -28.5 62q0 36 28.5 60.5t73.5 24.5q44 0 72.5 -24.5t28.5 -60.5q0 -38 -28.5 -62t-72.5 -24q-45 0 -73.5 24zM271.5 816.5q9.5 9.5 9.5 23.5q0 13 -9.5 22.5
t-25.5 9.5q-17 0 -26.5 -9.5t-9.5 -22.5q0 -14 9.5 -23.5t26.5 -9.5q16 0 25.5 9.5z" />
    <glyph glyph-name="Atilde" unicode="&#xc3;" horiz-adv-x="492" 
d="M341 0l-27 138h-146l-29 -138h-149l176 738h159l177 -738h-161zM195 266h94l-46 234zM130 835q18 33 63 33q25 0 45 -6t23 -7q19 -7 27 -7q15 0 15 20h71q0 -32 -7 -52q-8 -22 -26 -32.5t-42 -10.5q-25 0 -45 6t-23 7q-19 7 -27 7q-15 0 -15 -20h-71q0 41 12 62z" />
    <glyph glyph-name="AE" unicode="&#xc6;" horiz-adv-x="621" 
d="M452 138h139v-138h-295v138h-111l-31 -138h-164l195 738h400v-138h-133v-160h120v-134h-120v-168zM213 266h83v334h-9z" />
    <glyph glyph-name="B" unicode="B" horiz-adv-x="503" 
d="M486 212q0 -106 -60 -159t-187 -53h-179v738h158q124 0 189 -50.5t65 -138.5q0 -119 -104 -166q118 -44 118 -171zM211 610v-169h18q40 0 60.5 19t20.5 67q0 83 -81 83h-18zM302.5 148q21.5 20 21.5 75q0 53 -22.5 73.5t-63.5 20.5h-27v-189h27q43 0 64.5 20z" />
    <glyph glyph-name="C" unicode="C" horiz-adv-x="387" 
d="M287 -9q-130 0 -194 97.5t-64 280.5t64 280.5t194 97.5q31 0 76 -12v-138q-34 10 -57 10q-41 0 -65.5 -20t-37 -72t-12.5 -146q0 -98 12.5 -149t37.5 -70t69 -19q28 0 53 8v-139q-35 -9 -76 -9z" />
    <glyph glyph-name="Cacute" unicode="&#x106;" horiz-adv-x="387" 
d="M287 -9q-130 0 -194 97.5t-64 280.5t64 280.5t194 97.5q31 0 76 -12v-138q-34 10 -57 10q-41 0 -65.5 -20t-37 -72t-12.5 -146q0 -98 12.5 -149t37.5 -70t69 -19q28 0 53 8v-139q-35 -9 -76 -9zM187 773l27 95h184l-73 -95h-138z" />
    <glyph glyph-name="Ccaron" unicode="&#x10c;" horiz-adv-x="387" 
d="M287 -9q-130 0 -194 97.5t-64 280.5t64 280.5t194 97.5q31 0 76 -12v-138q-34 10 -57 10q-41 0 -65.5 -20t-37 -72t-12.5 -146q0 -98 12.5 -149t37.5 -70t69 -19q28 0 53 8v-139q-35 -9 -76 -9zM284 868h101l-37 -95h-195l-37 95h101l34 -35z" />
    <glyph glyph-name="Ccedilla" unicode="&#xc7;" horiz-adv-x="387" 
d="M287 -9q-130 0 -194 97.5t-64 280.5t64 280.5t194 97.5q31 0 76 -12v-138q-34 10 -57 10q-41 0 -65.5 -20t-37 -72t-12.5 -146q0 -98 12.5 -149t37.5 -70t69 -19q28 0 53 8v-139q-35 -9 -76 -9zM165 -184l28 144h134l-54 -144h-108z" />
    <glyph glyph-name="Ccircumflex" unicode="&#x108;" horiz-adv-x="387" 
d="M287 -9q-130 0 -194 97.5t-64 280.5t64 280.5t194 97.5q31 0 76 -12v-138q-34 10 -57 10q-41 0 -65.5 -20t-37 -72t-12.5 -146q0 -98 12.5 -149t37.5 -70t69 -19q28 0 53 8v-139q-35 -9 -76 -9zM385 773h-101l-33 35l-34 -35h-101l37 95h195z" />
    <glyph glyph-name="Cdotaccent" unicode="&#x10a;" horiz-adv-x="387" 
d="M287 -9q-130 0 -194 97.5t-64 280.5t64 280.5t194 97.5q31 0 76 -12v-138q-34 10 -57 10q-41 0 -65.5 -20t-37 -72t-12.5 -146q0 -98 12.5 -149t37.5 -70t69 -19q28 0 53 8v-139q-35 -9 -76 -9zM190.5 786q-20.5 18 -20.5 46t20 45t60 17q41 0 61 -17t20 -45t-20 -46
t-61 -18q-39 0 -59.5 18z" />
    <glyph glyph-name="D" unicode="D" horiz-adv-x="541" 
d="M508 369q0 -369 -304 -369h-144v738h144q304 0 304 -369zM291 157.5q26 19.5 40.5 70t14.5 141.5t-14.5 141.5t-40.5 70t-66 19.5h-9v-462h9q40 0 66 19.5z" />
    <glyph glyph-name="Eth" unicode="&#xd0;" horiz-adv-x="541" 
d="M508 369q0 -369 -304 -369h-144v307h-44v124h44v307h144q304 0 304 -369zM291 157.5q26 19.5 40.5 70t14.5 141.5t-14.5 141.5t-40.5 70t-66 19.5h-9v-169h84v-124h-84v-169h9q40 0 66 19.5z" />
    <glyph glyph-name="Dcaron" unicode="&#x10e;" horiz-adv-x="541" 
d="M508 369q0 -369 -304 -369h-144v738h144q304 0 304 -369zM291 157.5q26 19.5 40.5 70t14.5 141.5t-14.5 141.5t-40.5 70t-66 19.5h-9v-462h9q40 0 66 19.5zM251 868h101l-37 -95h-195l-37 95h101l34 -35z" />
    <glyph glyph-name="Dcroat" unicode="&#x110;" horiz-adv-x="541" 
d="M508 369q0 -369 -304 -369h-144v307h-44v124h44v307h144q304 0 304 -369zM291 157.5q26 19.5 40.5 70t14.5 141.5t-14.5 141.5t-40.5 70t-66 19.5h-9v-169h84v-124h-84v-169h9q40 0 66 19.5z" />
    <glyph glyph-name="E" unicode="E" horiz-adv-x="405" 
d="M216 138h159v-138h-315v738h309v-138h-153v-160h140v-134h-140v-168z" />
    <glyph glyph-name="Eacute" unicode="&#xc9;" horiz-adv-x="405" 
d="M216 138h159v-138h-315v738h309v-138h-153v-160h140v-134h-140v-168zM138 773l27 95h184l-73 -95h-138z" />
    <glyph glyph-name="Ebreve" unicode="&#x114;" horiz-adv-x="405" 
d="M216 138h159v-138h-315v738h309v-138h-153v-160h140v-134h-140v-168zM116 788.5q-33 25.5 -34 79.5h91q1 -21 29 -21q27 0 29 21h91q-1 -54 -34 -79.5t-86 -25.5t-86 25.5z" />
    <glyph glyph-name="Ecaron" unicode="&#x11a;" horiz-adv-x="405" 
d="M216 138h159v-138h-315v738h309v-138h-153v-160h140v-134h-140v-168zM235 868h101l-37 -95h-195l-37 95h101l34 -35z" />
    <glyph glyph-name="Ecircumflex" unicode="&#xca;" horiz-adv-x="405" 
d="M216 138h159v-138h-315v738h309v-138h-153v-160h140v-134h-140v-168zM336 773h-101l-33 35l-34 -35h-101l37 95h195z" />
    <glyph glyph-name="Edieresis" unicode="&#xcb;" horiz-adv-x="405" 
d="M216 138h159v-138h-315v738h309v-138h-153v-160h140v-134h-140v-168zM68.5 782q-17.5 16 -17.5 40q0 25 17 40.5t50 15.5t51 -15.5t18 -40.5q0 -24 -18 -40t-51 -16q-32 0 -49.5 16zM234 782q-18 16 -18 40q0 25 18 40.5t50 15.5q33 0 50.5 -15.5t17.5 -40.5t-17.5 -40.5
t-50.5 -15.5q-32 0 -50 16z" />
    <glyph glyph-name="Edotaccent" unicode="&#x116;" horiz-adv-x="405" 
d="M216 138h159v-138h-315v738h309v-138h-153v-160h140v-134h-140v-168zM141.5 786q-20.5 18 -20.5 46t20 45t60 17q41 0 61 -17t20 -45t-20 -46t-61 -18q-39 0 -59.5 18z" />
    <glyph glyph-name="Egrave" unicode="&#xc8;" horiz-adv-x="405" 
d="M216 138h159v-138h-315v738h309v-138h-153v-160h140v-134h-140v-168zM266 773h-138l-73 95h184z" />
    <glyph glyph-name="Emacron" unicode="&#x112;" horiz-adv-x="405" 
d="M216 138h159v-138h-315v738h309v-138h-153v-160h140v-134h-140v-168zM94 868h215v-95h-215v95z" />
    <glyph glyph-name="Eogonek" unicode="&#x118;" horiz-adv-x="405" 
d="M286 0q-18 -21 -24.5 -33.5t-6.5 -25.5q0 -28 35 -28q20 0 45 9v-88q-34 -14 -73 -14q-54 0 -81 21.5t-27 61.5q0 26 12.5 48t44.5 49h-151v738h309v-138h-153v-160h140v-134h-140v-168h159v-138h-89z" />
    <glyph glyph-name="F" unicode="F" horiz-adv-x="383" 
d="M359 600h-143v-160h134v-134h-134v-306h-156v738h299v-138z" />
    <glyph glyph-name="G" unicode="G" horiz-adv-x="488" 
d="M446 431v-425q-74 -13 -130 -13q-145 0 -214 85.5t-69 277.5q0 188 72.5 289.5t207.5 101.5q59 0 115 -19v-138q-50 17 -92 17q-69 0 -105 -54.5t-36 -196.5q0 -90 11 -139t33.5 -67.5t59.5 -18.5v164h-44v136h191z" />
    <glyph glyph-name="Gbreve" unicode="&#x11e;" horiz-adv-x="488" 
d="M446 431v-425q-74 -13 -130 -13q-145 0 -214 85.5t-69 277.5q0 188 72.5 289.5t207.5 101.5q59 0 115 -19v-138q-50 17 -92 17q-69 0 -105 -54.5t-36 -196.5q0 -90 11 -139t33.5 -67.5t59.5 -18.5v164h-44v136h191zM207 788.5q-33 25.5 -34 79.5h91q1 -21 29 -21
q27 0 29 21h91q-1 -54 -34 -79.5t-86 -25.5t-86 25.5z" />
    <glyph glyph-name="Gcircumflex" unicode="&#x11c;" horiz-adv-x="488" 
d="M446 431v-425q-74 -13 -130 -13q-145 0 -214 85.5t-69 277.5q0 188 72.5 289.5t207.5 101.5q59 0 115 -19v-138q-50 17 -92 17q-69 0 -105 -54.5t-36 -196.5q0 -90 11 -139t33.5 -67.5t59.5 -18.5v164h-44v136h191zM427 773h-101l-33 35l-34 -35h-101l37 95h195z" />
    <glyph glyph-name="Gcommaaccent" unicode="&#x122;" horiz-adv-x="488" 
d="M446 431v-425q-74 -13 -130 -13q-145 0 -214 85.5t-69 277.5q0 188 72.5 289.5t207.5 101.5q59 0 115 -19v-138q-50 17 -92 17q-69 0 -105 -54.5t-36 -196.5q0 -90 11 -139t33.5 -67.5t59.5 -18.5v164h-44v136h191zM376 -58.5q22 -21.5 22 -60.5q0 -48 -28 -83t-93 -35
q-18 0 -39 3v50q16 -3 28 -3q15 0 23.5 4.5t10.5 16.5h-1q-29 0 -45 17t-16 42q0 29 21 49.5t57 20.5q38 0 60 -21.5z" />
    <glyph glyph-name="Gdotaccent" unicode="&#x120;" horiz-adv-x="488" 
d="M446 431v-425q-74 -13 -130 -13q-145 0 -214 85.5t-69 277.5q0 188 72.5 289.5t207.5 101.5q59 0 115 -19v-138q-50 17 -92 17q-69 0 -105 -54.5t-36 -196.5q0 -90 11 -139t33.5 -67.5t59.5 -18.5v164h-44v136h191zM232.5 786q-20.5 18 -20.5 46t20 45t60 17q41 0 61 -17
t20 -45t-20 -46t-61 -18q-39 0 -59.5 18z" />
    <glyph glyph-name="H" unicode="H" horiz-adv-x="570" 
d="M354 738h156v-738h-156v305h-138v-305h-156v738h156v-297h138v297z" />
    <glyph glyph-name="Hbar" unicode="&#x126;" horiz-adv-x="570" 
d="M354 738h156v-738h-156v305h-138v-305h-156v738h156v-99h138v99zM216 441h138v94h-138v-94z" />
    <glyph glyph-name="Hcircumflex" unicode="&#x124;" horiz-adv-x="570" 
d="M354 738h156v-738h-156v305h-138v-305h-156v738h156v-297h138v297zM419 773h-101l-33 35l-34 -35h-101l37 95h195z" />
    <glyph glyph-name="I" unicode="I" horiz-adv-x="276" 
d="M60 0v738h156v-738h-156z" />
    <glyph glyph-name="IJ" unicode="&#x132;" horiz-adv-x="630" 
d="M60 0v738h156v-738h-156zM304 4v139q30 -11 59 -11q31 0 45.5 16.5t14.5 53.5v536h156v-538q0 -108 -49.5 -158.5t-134.5 -50.5q-47 0 -91 13z" />
    <glyph glyph-name="Iacute" unicode="&#xcd;" horiz-adv-x="276" 
d="M60 0v738h156v-738h-156zM74 773l27 95h184l-73 -95h-138z" />
    <glyph glyph-name="Ibreve" unicode="&#x12c;" horiz-adv-x="276" 
d="M60 0v738h156v-738h-156zM52 788.5q-33 25.5 -34 79.5h91q1 -21 29 -21q27 0 29 21h91q-1 -54 -34 -79.5t-86 -25.5t-86 25.5z" />
    <glyph glyph-name="Icircumflex" unicode="&#xce;" horiz-adv-x="276" 
d="M60 0v738h156v-738h-156zM272 773h-101l-33 35l-34 -35h-101l37 95h195z" />
    <glyph glyph-name="Idieresis" unicode="&#xcf;" horiz-adv-x="276" 
d="M60 0v738h156v-738h-156zM4.5 782q-17.5 16 -17.5 40q0 25 17 40.5t50 15.5t51 -15.5t18 -40.5q0 -24 -18 -40t-51 -16q-32 0 -49.5 16zM170 782q-18 16 -18 40q0 25 18 40.5t50 15.5q33 0 50.5 -15.5t17.5 -40.5t-17.5 -40.5t-50.5 -15.5q-32 0 -50 16z" />
    <glyph glyph-name="Idotaccent" unicode="&#x130;" horiz-adv-x="276" 
d="M60 0v738h156v-738h-156zM77.5 786q-20.5 18 -20.5 46t20 45t60 17q41 0 61 -17t20 -45t-20 -46t-61 -18q-39 0 -59.5 18z" />
    <glyph glyph-name="Igrave" unicode="&#xcc;" horiz-adv-x="276" 
d="M60 0v738h156v-738h-156zM202 773h-138l-73 95h184z" />
    <glyph glyph-name="Imacron" unicode="&#x12a;" horiz-adv-x="276" 
d="M60 0v738h156v-738h-156zM30 868h215v-95h-215v95z" />
    <glyph glyph-name="Iogonek" unicode="&#x12e;" horiz-adv-x="276" 
d="M229 -78v-88q-34 -14 -73 -14q-54 0 -81 21.5t-27 61.5q0 26 12.5 48t44.5 49h-45v738h156v-738h-36q-18 -21 -24.5 -33.5t-6.5 -25.5q0 -28 35 -28q19 0 45 9z" />
    <glyph glyph-name="Itilde" unicode="&#x128;" horiz-adv-x="276" 
d="M60 0v738h156v-738h-156zM22 835q18 33 63 33q25 0 45 -6t23 -7q19 -7 27 -7q15 0 15 20h71q0 -32 -7 -52q-8 -22 -26 -32.5t-42 -10.5q-25 0 -45 6t-23 7q-19 7 -27 7q-15 0 -15 -20h-71q0 41 12 62z" />
    <glyph glyph-name="J" unicode="J" horiz-adv-x="344" 
d="M18 4v139q30 -11 59 -11q31 0 45.5 16.5t14.5 53.5v536h156v-538q0 -108 -49.5 -158.5t-134.5 -50.5q-47 0 -91 13z" />
    <glyph glyph-name="Jcircumflex" unicode="&#x134;" horiz-adv-x="344" 
d="M18 4v139q30 -11 59 -11q31 0 45.5 16.5t14.5 53.5v536h156v-538q0 -108 -49.5 -158.5t-134.5 -50.5q-47 0 -91 13zM349 773h-101l-33 35l-34 -35h-101l37 95h195z" />
    <glyph glyph-name="K" unicode="K" horiz-adv-x="498" 
d="M508 0h-173l-119 331v-331h-156v738h156v-305l119 305h159l-147 -337z" />
    <glyph glyph-name="Kcommaaccent" unicode="&#x136;" horiz-adv-x="498" 
d="M508 0h-173l-119 331v-331h-156v738h156v-305l119 305h159l-147 -337zM334 -58.5q22 -21.5 22 -60.5q0 -48 -28 -83t-93 -35q-18 0 -39 3v50q16 -3 28 -3q15 0 23.5 4.5t10.5 16.5h-1q-29 0 -45 17t-16 42q0 29 21 49.5t57 20.5q38 0 60 -21.5z" />
    <glyph glyph-name="L" unicode="L" horiz-adv-x="372" 
d="M216 138h138v-138h-294v738h156v-600z" />
    <glyph glyph-name="Lacute" unicode="&#x139;" horiz-adv-x="372" 
d="M216 138h138v-138h-294v738h156v-600zM74 773l27 95h184l-73 -95h-138z" />
    <glyph glyph-name="Lcaron" unicode="&#x13d;" horiz-adv-x="372" 
d="M216 138h138v-138h-294v738h156v-600zM249 590v148h122l-36 -148h-86z" />
    <glyph glyph-name="Lcommaaccent" unicode="&#x13b;" horiz-adv-x="372" 
d="M216 138h138v-138h-294v738h156v-600zM274 -58.5q22 -21.5 22 -60.5q0 -48 -28 -83t-93 -35q-18 0 -39 3v50q16 -3 28 -3q15 0 23.5 4.5t10.5 16.5h-1q-29 0 -45 17t-16 42q0 29 21 49.5t57 20.5q38 0 60 -21.5z" />
    <glyph glyph-name="Ldot" unicode="&#x13f;" horiz-adv-x="372" 
d="M216 138h138v-138h-294v738h156v-600zM265 321q-22 24 -22 59t22 58.5t59 23.5t59 -23.5t22 -58.5t-22 -59t-59 -24t-59 24z" />
    <glyph glyph-name="Lslash" unicode="&#x141;" horiz-adv-x="372" 
d="M216 138h138v-138h-294v738h156v-293l111 86v-124l-111 -86v-183z" />
    <glyph glyph-name="M" unicode="M" horiz-adv-x="700" 
d="M685 0h-160l-32 440l-98 -440h-94l-103 460l-33 -460h-150l78 738h165l91 -419l88 419h165z" />
    <glyph glyph-name="N" unicode="N" horiz-adv-x="568" 
d="M372 738h136v-738h-134l-178 407v-407h-136v738h139l173 -412v412z" />
    <glyph glyph-name="Nacute" unicode="&#x143;" horiz-adv-x="568" 
d="M372 738h136v-738h-134l-178 407v-407h-136v738h139l173 -412v412zM226 773l27 95h184l-73 -95h-138z" />
    <glyph glyph-name="Ncaron" unicode="&#x147;" horiz-adv-x="568" 
d="M372 738h136v-738h-134l-178 407v-407h-136v738h139l173 -412v412zM323 868h101l-37 -95h-195l-37 95h101l34 -35z" />
    <glyph glyph-name="Ncommaaccent" unicode="&#x145;" horiz-adv-x="568" 
d="M372 738h136v-738h-134l-178 407v-407h-136v738h139l173 -412v412zM341 -58.5q22 -21.5 22 -60.5q0 -48 -28 -83t-93 -35q-18 0 -39 3v50q16 -3 28 -3q15 0 23.5 4.5t10.5 16.5h-1q-29 0 -45 17t-16 42q0 29 21 49.5t57 20.5q38 0 60 -21.5z" />
    <glyph glyph-name="Eng" unicode="&#x14a;" horiz-adv-x="560" 
d="M500 738v-741q0 -84 -46 -126.5t-118 -42.5q-42 0 -81 11v114q33 -11 58 -11q27 0 38 12t11 42v4l-166 445v-445h-136v738h166l138 -384v384h136z" />
    <glyph glyph-name="Ntilde" unicode="&#xd1;" horiz-adv-x="568" 
d="M372 738h136v-738h-134l-178 407v-407h-136v738h139l173 -412v412zM174 835q18 33 63 33q25 0 45 -6t23 -7q19 -7 27 -7q15 0 15 20h71q0 -32 -7 -52q-8 -22 -26 -32.5t-42 -10.5q-25 0 -45 6t-23 7q-19 7 -27 7q-15 0 -15 -20h-71q0 41 12 62z" />
    <glyph glyph-name="O" unicode="O" horiz-adv-x="553" 
d="M96.5 85.5q-63.5 97.5 -63.5 283.5t63.5 283.5t180.5 97.5q116 0 179.5 -97.5t63.5 -283.5t-63.5 -283.5t-179.5 -97.5q-117 0 -180.5 97.5zM323 153.5q17 20.5 26 71.5t9 144t-9 144t-26 71.5t-46 20.5t-46.5 -20.5t-26.5 -71.5t-9 -144t9 -144t26.5 -71.5t46.5 -20.5
t46 20.5z" />
    <glyph glyph-name="Oacute" unicode="&#xd3;" horiz-adv-x="553" 
d="M96.5 85.5q-63.5 97.5 -63.5 283.5t63.5 283.5t180.5 97.5q116 0 179.5 -97.5t63.5 -283.5t-63.5 -283.5t-179.5 -97.5q-117 0 -180.5 97.5zM323 153.5q17 20.5 26 71.5t9 144t-9 144t-26 71.5t-46 20.5t-46.5 -20.5t-26.5 -71.5t-9 -144t9 -144t26.5 -71.5t46.5 -20.5
t46 20.5zM213 773l27 95h184l-73 -95h-138z" />
    <glyph glyph-name="Obreve" unicode="&#x14e;" horiz-adv-x="553" 
d="M96.5 85.5q-63.5 97.5 -63.5 283.5t63.5 283.5t180.5 97.5q116 0 179.5 -97.5t63.5 -283.5t-63.5 -283.5t-179.5 -97.5q-117 0 -180.5 97.5zM323 153.5q17 20.5 26 71.5t9 144t-9 144t-26 71.5t-46 20.5t-46.5 -20.5t-26.5 -71.5t-9 -144t9 -144t26.5 -71.5t46.5 -20.5
t46 20.5zM191 788.5q-33 25.5 -34 79.5h91q1 -21 29 -21q27 0 29 21h91q-1 -54 -34 -79.5t-86 -25.5t-86 25.5z" />
    <glyph glyph-name="Ocircumflex" unicode="&#xd4;" horiz-adv-x="553" 
d="M96.5 85.5q-63.5 97.5 -63.5 283.5t63.5 283.5t180.5 97.5q116 0 179.5 -97.5t63.5 -283.5t-63.5 -283.5t-179.5 -97.5q-117 0 -180.5 97.5zM323 153.5q17 20.5 26 71.5t9 144t-9 144t-26 71.5t-46 20.5t-46.5 -20.5t-26.5 -71.5t-9 -144t9 -144t26.5 -71.5t46.5 -20.5
t46 20.5zM411 773h-101l-33 35l-34 -35h-101l37 95h195z" />
    <glyph glyph-name="Odieresis" unicode="&#xd6;" horiz-adv-x="553" 
d="M96.5 85.5q-63.5 97.5 -63.5 283.5t63.5 283.5t180.5 97.5q116 0 179.5 -97.5t63.5 -283.5t-63.5 -283.5t-179.5 -97.5q-117 0 -180.5 97.5zM323 153.5q17 20.5 26 71.5t9 144t-9 144t-26 71.5t-46 20.5t-46.5 -20.5t-26.5 -71.5t-9 -144t9 -144t26.5 -71.5t46.5 -20.5
t46 20.5zM143.5 782q-17.5 16 -17.5 40q0 25 17 40.5t50 15.5t51 -15.5t18 -40.5q0 -24 -18 -40t-51 -16q-32 0 -49.5 16zM309 782q-18 16 -18 40q0 25 18 40.5t50 15.5q33 0 50.5 -15.5t17.5 -40.5t-17.5 -40.5t-50.5 -15.5q-32 0 -50 16z" />
    <glyph glyph-name="Ograve" unicode="&#xd2;" horiz-adv-x="553" 
d="M96.5 85.5q-63.5 97.5 -63.5 283.5t63.5 283.5t180.5 97.5q116 0 179.5 -97.5t63.5 -283.5t-63.5 -283.5t-179.5 -97.5q-117 0 -180.5 97.5zM323 153.5q17 20.5 26 71.5t9 144t-9 144t-26 71.5t-46 20.5t-46.5 -20.5t-26.5 -71.5t-9 -144t9 -144t26.5 -71.5t46.5 -20.5
t46 20.5zM341 773h-138l-73 95h184z" />
    <glyph glyph-name="Ohungarumlaut" unicode="&#x150;" horiz-adv-x="553" 
d="M96.5 85.5q-63.5 97.5 -63.5 283.5t63.5 283.5t180.5 97.5q116 0 179.5 -97.5t63.5 -283.5t-63.5 -283.5t-179.5 -97.5q-117 0 -180.5 97.5zM323 153.5q17 20.5 26 71.5t9 144t-9 144t-26 71.5t-46 20.5t-46.5 -20.5t-26.5 -71.5t-9 -144t9 -144t26.5 -71.5t46.5 -20.5
t46 20.5zM131 773l17 91h154l-63 -91h-108zM301 773l47 91h154l-93 -91h-108z" />
    <glyph glyph-name="Omacron" unicode="&#x14c;" horiz-adv-x="553" 
d="M96.5 85.5q-63.5 97.5 -63.5 283.5t63.5 283.5t180.5 97.5q116 0 179.5 -97.5t63.5 -283.5t-63.5 -283.5t-179.5 -97.5q-117 0 -180.5 97.5zM323 153.5q17 20.5 26 71.5t9 144t-9 144t-26 71.5t-46 20.5t-46.5 -20.5t-26.5 -71.5t-9 -144t9 -144t26.5 -71.5t46.5 -20.5
t46 20.5zM169 868h215v-95h-215v95z" />
    <glyph glyph-name="Oslash" unicode="&#xd8;" horiz-adv-x="553" 
d="M476 617q44 -94 44 -248q0 -186 -63.5 -283.5t-179.5 -97.5q-86 0 -145 54l-25 -42l-76 42l47 78q-45 96 -45 249q0 186 63.5 283.5t180.5 97.5q86 0 144 -55l26 43l76 -42zM188 305l155 259q-11 25 -27 35.5t-39 10.5q-32 0 -51 -20.5t-29 -73t-10 -147.5q0 -45 1 -64z
M365 431l-154 -258q11 -24 27 -34.5t39 -10.5q31 0 50.5 20.5t29 73t9.5 147.5q0 43 -1 62z" />
    <glyph glyph-name="Otilde" unicode="&#xd5;" horiz-adv-x="553" 
d="M96.5 85.5q-63.5 97.5 -63.5 283.5t63.5 283.5t180.5 97.5q116 0 179.5 -97.5t63.5 -283.5t-63.5 -283.5t-179.5 -97.5q-117 0 -180.5 97.5zM323 153.5q17 20.5 26 71.5t9 144t-9 144t-26 71.5t-46 20.5t-46.5 -20.5t-26.5 -71.5t-9 -144t9 -144t26.5 -71.5t46.5 -20.5
t46 20.5zM161 835q18 33 63 33q25 0 45 -6t23 -7q19 -7 27 -7q15 0 15 20h71q0 -32 -7 -52q-8 -22 -26 -32.5t-42 -10.5q-25 0 -45 6t-23 7q-19 7 -27 7q-15 0 -15 -20h-71q0 41 12 62z" />
    <glyph glyph-name="OE" unicode="&#x152;" horiz-adv-x="663" 
d="M633 138v-138h-295v50q-32 -62 -115 -62q-88 0 -139 96t-51 285q0 126 25.5 211.5t71 127.5t103.5 42q73 0 105 -78v66h289v-138h-133v-160h120v-134h-120v-168h139zM307 153.5q15 20.5 23 71.5t8 144t-8 144t-23 71.5t-40 20.5t-40.5 -20.5t-23.5 -71.5t-8 -144t8 -144
t23.5 -71.5t40.5 -20.5t40 20.5z" />
    <glyph glyph-name="P" unicode="P" horiz-adv-x="516" 
d="M424 669q69 -69 69 -200q0 -85 -31.5 -145.5t-88.5 -92t-132 -31.5h-25v-200h-156v738h161q134 0 203 -69zM308 366q23 28 23 103t-23 103t-73 28h-19v-262h19q50 0 73 28z" />
    <glyph glyph-name="Thorn" unicode="&#xde;" horiz-adv-x="516" 
d="M424 569q69 -69 69 -200q0 -85 -31.5 -145.5t-88.5 -92t-132 -31.5h-25v-100h-156v738h156v-100h5q134 0 203 -69zM308 266q23 28 23 103t-23 103t-73 28h-19v-262h19q50 0 73 28z" />
    <glyph glyph-name="Q" unicode="Q" horiz-adv-x="553" 
d="M409 -71l-53 73q-37 -14 -79 -14q-117 0 -180.5 97.5t-63.5 283.5t63.5 283.5t180.5 97.5q116 0 179.5 -97.5t63.5 -283.5q0 -179 -60 -277l62 -85zM323 153.5q17 20.5 26 71.5t9 144t-9 144t-26 71.5t-46 20.5t-46.5 -20.5t-26.5 -71.5t-9 -144t9 -144t26.5 -71.5
t46.5 -20.5t46 20.5z" />
    <glyph glyph-name="R" unicode="R" horiz-adv-x="516" 
d="M466.5 370q-26.5 -51 -74.5 -81l101 -289h-176l-69 250h-7h-29v-250h-152v738h157q135 0 205.5 -64t70.5 -185q0 -68 -26.5 -119zM308 409.5q23 21.5 23 79.5q0 64 -23 87.5t-73 23.5h-23v-212h23q50 0 73 21.5z" />
    <glyph glyph-name="Racute" unicode="&#x154;" horiz-adv-x="516" 
d="M466.5 370q-26.5 -51 -74.5 -81l101 -289h-176l-69 250h-7h-29v-250h-152v738h157q135 0 205.5 -64t70.5 -185q0 -68 -26.5 -119zM308 409.5q23 21.5 23 79.5q0 64 -23 87.5t-73 23.5h-23v-212h23q50 0 73 21.5zM159 773l27 95h184l-73 -95h-138z" />
    <glyph glyph-name="Rcaron" unicode="&#x158;" horiz-adv-x="516" 
d="M466.5 370q-26.5 -51 -74.5 -81l101 -289h-176l-69 250h-7h-29v-250h-152v738h157q135 0 205.5 -64t70.5 -185q0 -68 -26.5 -119zM308 409.5q23 21.5 23 79.5q0 64 -23 87.5t-73 23.5h-23v-212h23q50 0 73 21.5zM256 868h101l-37 -95h-195l-37 95h101l34 -35z" />
    <glyph glyph-name="Rcommaaccent" unicode="&#x156;" horiz-adv-x="516" 
d="M466.5 370q-26.5 -51 -74.5 -81l101 -289h-176l-69 250h-7h-29v-250h-152v738h157q135 0 205.5 -64t70.5 -185q0 -68 -26.5 -119zM308 409.5q23 21.5 23 79.5q0 64 -23 87.5t-73 23.5h-23v-212h23q50 0 73 21.5zM321 -58.5q22 -21.5 22 -60.5q0 -48 -28 -83t-93 -35
q-18 0 -39 3v50q16 -3 28 -3q15 0 23.5 4.5t10.5 16.5h-1q-29 0 -45 17t-16 42q0 29 21 49.5t57 20.5q38 0 60 -21.5z" />
    <glyph glyph-name="S" unicode="S" horiz-adv-x="374" 
d="M36 149q50 -18 94 -18q74 0 74 64q0 25 -14 48t-54 61q-64 63 -90 115.5t-26 116.5q0 60 25.5 108t74 75.5t114.5 27.5q51 0 90 -16v-143q-38 19 -75 19q-72 0 -72 -69q0 -30 16 -58t61 -73q59 -59 83 -106t24 -102q0 -68 -28.5 -115t-76.5 -70t-106 -23q-57 0 -114 20
v138z" />
    <glyph glyph-name="Sacute" unicode="&#x15a;" horiz-adv-x="374" 
d="M36 149q50 -18 94 -18q74 0 74 64q0 25 -14 48t-54 61q-64 63 -90 115.5t-26 116.5q0 60 25.5 108t74 75.5t114.5 27.5q51 0 90 -16v-143q-38 19 -75 19q-72 0 -72 -69q0 -30 16 -58t61 -73q59 -59 83 -106t24 -102q0 -68 -28.5 -115t-76.5 -70t-106 -23q-57 0 -114 20
v138zM125 773l27 95h184l-73 -95h-138z" />
    <glyph glyph-name="Scaron" unicode="&#x160;" horiz-adv-x="374" 
d="M36 149q50 -18 94 -18q74 0 74 64q0 25 -14 48t-54 61q-64 63 -90 115.5t-26 116.5q0 60 25.5 108t74 75.5t114.5 27.5q51 0 90 -16v-143q-38 19 -75 19q-72 0 -72 -69q0 -30 16 -58t61 -73q59 -59 83 -106t24 -102q0 -68 -28.5 -115t-76.5 -70t-106 -23q-57 0 -114 20
v138zM222 868h101l-37 -95h-195l-37 95h101l34 -35z" />
    <glyph glyph-name="Scedilla" unicode="&#x15e;" horiz-adv-x="374" 
d="M36 149q50 -18 94 -18q74 0 74 64q0 25 -14 48t-54 61q-64 63 -90 115.5t-26 116.5q0 60 25.5 108t74 75.5t114.5 27.5q51 0 90 -16v-143q-38 19 -75 19q-72 0 -72 -69q0 -30 16 -58t61 -73q59 -59 83 -106t24 -102q0 -68 -28.5 -115t-76.5 -70t-106 -23q-57 0 -114 20
v138zM92 -184l28 144h134l-54 -144h-108z" />
    <glyph glyph-name="Scircumflex" unicode="&#x15c;" horiz-adv-x="374" 
d="M36 149q50 -18 94 -18q74 0 74 64q0 25 -14 48t-54 61q-64 63 -90 115.5t-26 116.5q0 60 25.5 108t74 75.5t114.5 27.5q51 0 90 -16v-143q-38 19 -75 19q-72 0 -72 -69q0 -30 16 -58t61 -73q59 -59 83 -106t24 -102q0 -68 -28.5 -115t-76.5 -70t-106 -23q-57 0 -114 20
v138zM323 773h-101l-33 35l-34 -35h-101l37 95h195z" />
    <glyph glyph-name="Scommaaccent" unicode="&#x218;" horiz-adv-x="374" 
d="M36 149q50 -18 94 -18q74 0 74 64q0 25 -14 48t-54 61q-64 63 -90 115.5t-26 116.5q0 60 25.5 108t74 75.5t114.5 27.5q51 0 90 -16v-143q-38 19 -75 19q-72 0 -72 -69q0 -30 16 -58t61 -73q59 -59 83 -106t24 -102q0 -68 -28.5 -115t-76.5 -70t-106 -23q-57 0 -114 20
v138zM247 -58.5q22 -21.5 22 -60.5q0 -48 -28 -83t-93 -35q-18 0 -39 3v50q16 -3 28 -3q15 0 23.5 4.5t10.5 16.5h-1q-29 0 -45 17t-16 42q0 29 21 49.5t57 20.5q38 0 60 -21.5z" />
    <glyph glyph-name="Germandbls" unicode="&#x1e9e;" horiz-adv-x="551" 
d="M516 280q21 -54 21 -107q0 -56 -24.5 -97t-66 -63t-90.5 -22q-46 0 -96 18v137q18 -8 32 -11.5t32 -3.5q23 0 36 12.5t13 33.5q0 33 -20.5 84t-73.5 143l82 184q-18 17 -33 24t-35 7q-38 0 -57.5 -31.5t-19.5 -93.5v-494h-156v496q0 82 30.5 138.5t81 84.5t111.5 28
q78 0 133.5 -27t115.5 -87l-100 -199q63 -100 84 -154z" />
    <glyph glyph-name="T" unicode="T" horiz-adv-x="428" 
d="M410 738v-138h-118v-600h-156v600h-118v138h392z" />
    <glyph glyph-name="Tbar" unicode="&#x166;" horiz-adv-x="428" 
d="M410 600h-118v-169h64v-124h-64v-307h-156v307h-64v124h64v169h-118v138h392v-138z" />
    <glyph glyph-name="Tcaron" unicode="&#x164;" horiz-adv-x="428" 
d="M410 738v-138h-118v-600h-156v600h-118v138h392zM247 868h101l-37 -95h-195l-37 95h101l34 -35z" />
    <glyph glyph-name="uni0162" unicode="&#x162;" horiz-adv-x="428" 
d="M410 738v-138h-118v-600h-156v600h-118v138h392zM272 -58.5q22 -21.5 22 -60.5q0 -48 -28 -83t-93 -35q-18 0 -39 3v50q16 -3 28 -3q15 0 23.5 4.5t10.5 16.5h-1q-29 0 -45 17t-16 42q0 29 21 49.5t57 20.5q38 0 60 -21.5z" />
    <glyph glyph-name="uni021A" unicode="&#x21a;" horiz-adv-x="428" 
d="M410 738v-138h-118v-600h-156v600h-118v138h392zM272 -58.5q22 -21.5 22 -60.5q0 -48 -28 -83t-93 -35q-18 0 -39 3v50q16 -3 28 -3q15 0 23.5 4.5t10.5 16.5h-1q-29 0 -45 17t-16 42q0 29 21 49.5t57 20.5q38 0 60 -21.5z" />
    <glyph glyph-name="U" unicode="U" horiz-adv-x="551" 
d="M107 56.5q-56 68.5 -56 192.5v489h156v-499q0 -52 15 -79t54 -27q38 0 53 27t15 79v499h156v-489q0 -123 -56 -192t-168 -69q-113 0 -169 68.5z" />
    <glyph glyph-name="Uacute" unicode="&#xda;" horiz-adv-x="551" 
d="M107 56.5q-56 68.5 -56 192.5v489h156v-499q0 -52 15 -79t54 -27q38 0 53 27t15 79v499h156v-489q0 -123 -56 -192t-168 -69q-113 0 -169 68.5zM212 773l27 95h184l-73 -95h-138z" />
    <glyph glyph-name="Ubreve" unicode="&#x16c;" horiz-adv-x="551" 
d="M107 56.5q-56 68.5 -56 192.5v489h156v-499q0 -52 15 -79t54 -27q38 0 53 27t15 79v499h156v-489q0 -123 -56 -192t-168 -69q-113 0 -169 68.5zM190 788.5q-33 25.5 -34 79.5h91q1 -21 29 -21q27 0 29 21h91q-1 -54 -34 -79.5t-86 -25.5t-86 25.5z" />
    <glyph glyph-name="Ucircumflex" unicode="&#xdb;" horiz-adv-x="551" 
d="M107 56.5q-56 68.5 -56 192.5v489h156v-499q0 -52 15 -79t54 -27q38 0 53 27t15 79v499h156v-489q0 -123 -56 -192t-168 -69q-113 0 -169 68.5zM410 773h-101l-33 35l-34 -35h-101l37 95h195z" />
    <glyph glyph-name="Udieresis" unicode="&#xdc;" horiz-adv-x="551" 
d="M107 56.5q-56 68.5 -56 192.5v489h156v-499q0 -52 15 -79t54 -27q38 0 53 27t15 79v499h156v-489q0 -123 -56 -192t-168 -69q-113 0 -169 68.5zM142.5 782q-17.5 16 -17.5 40q0 25 17 40.5t50 15.5t51 -15.5t18 -40.5q0 -24 -18 -40t-51 -16q-32 0 -49.5 16zM308 782
q-18 16 -18 40q0 25 18 40.5t50 15.5q33 0 50.5 -15.5t17.5 -40.5t-17.5 -40.5t-50.5 -15.5q-32 0 -50 16z" />
    <glyph glyph-name="Ugrave" unicode="&#xd9;" horiz-adv-x="551" 
d="M107 56.5q-56 68.5 -56 192.5v489h156v-499q0 -52 15 -79t54 -27q38 0 53 27t15 79v499h156v-489q0 -123 -56 -192t-168 -69q-113 0 -169 68.5zM340 773h-138l-73 95h184z" />
    <glyph glyph-name="Uhungarumlaut" unicode="&#x170;" horiz-adv-x="551" 
d="M107 56.5q-56 68.5 -56 192.5v489h156v-499q0 -52 15 -79t54 -27q38 0 53 27t15 79v499h156v-489q0 -123 -56 -192t-168 -69q-113 0 -169 68.5zM130 773l17 91h154l-63 -91h-108zM300 773l47 91h154l-93 -91h-108z" />
    <glyph glyph-name="Umacron" unicode="&#x16a;" horiz-adv-x="551" 
d="M107 56.5q-56 68.5 -56 192.5v489h156v-499q0 -52 15 -79t54 -27q38 0 53 27t15 79v499h156v-489q0 -123 -56 -192t-168 -69q-113 0 -169 68.5zM168 868h215v-95h-215v95z" />
    <glyph glyph-name="Uogonek" unicode="&#x172;" horiz-adv-x="551" 
d="M500 738v-489q0 -106 -41.5 -172t-123.5 -83q-10 -13 -14 -22.5t-4 -20.5q0 -28 35 -28q20 0 45 9v-88q-34 -14 -73 -14q-54 0 -81 21.5t-27 61.5q0 21 7.5 38.5t26.5 37.5q-100 8 -149.5 76t-49.5 184v489h156v-499q0 -52 15 -79t54 -27q38 0 53 27t15 79v499h156z" />
    <glyph glyph-name="Uring" unicode="&#x16e;" horiz-adv-x="551" 
d="M107 56.5q-56 68.5 -56 192.5v489h156v-499q0 -52 15 -79t54 -27q38 0 53 27t15 79v499h156v-489q0 -123 -56 -192t-168 -69q-113 0 -169 68.5zM202.5 778q-28.5 24 -28.5 62q0 36 28.5 60.5t73.5 24.5q44 0 72.5 -24.5t28.5 -60.5q0 -38 -28.5 -62t-72.5 -24
q-45 0 -73.5 24zM301.5 816.5q9.5 9.5 9.5 23.5q0 13 -9.5 22.5t-25.5 9.5q-17 0 -26.5 -9.5t-9.5 -22.5q0 -14 9.5 -23.5t26.5 -9.5q16 0 25.5 9.5z" />
    <glyph glyph-name="Utilde" unicode="&#x168;" horiz-adv-x="551" 
d="M107 56.5q-56 68.5 -56 192.5v489h156v-499q0 -52 15 -79t54 -27q38 0 53 27t15 79v499h156v-489q0 -123 -56 -192t-168 -69q-113 0 -169 68.5zM160 835q18 33 63 33q25 0 45 -6t23 -7q19 -7 27 -7q15 0 15 20h71q0 -32 -7 -52q-8 -22 -26 -32.5t-42 -10.5q-25 0 -45 6
t-23 7q-19 7 -27 7q-15 0 -15 -20h-71q0 41 12 62z" />
    <glyph glyph-name="V" unicode="V" horiz-adv-x="492" 
d="M353 738h149l-176 -738h-159l-177 738h161l98 -500z" />
    <glyph glyph-name="W" unicode="W" horiz-adv-x="781" 
d="M615 738h156l-147 -738h-159l-74 409l-72 -409h-156l-153 738h161l74 -481l85 481h126l85 -481z" />
    <glyph glyph-name="Wacute" unicode="&#x1e82;" horiz-adv-x="781" 
d="M615 738h156l-147 -738h-159l-74 409l-72 -409h-156l-153 738h161l74 -481l85 481h126l85 -481zM327 773l27 95h184l-73 -95h-138z" />
    <glyph glyph-name="Wcircumflex" unicode="&#x174;" horiz-adv-x="781" 
d="M615 738h156l-147 -738h-159l-74 409l-72 -409h-156l-153 738h161l74 -481l85 481h126l85 -481zM525 773h-101l-33 35l-34 -35h-101l37 95h195z" />
    <glyph glyph-name="Wdieresis" unicode="&#x1e84;" horiz-adv-x="781" 
d="M615 738h156l-147 -738h-159l-74 409l-72 -409h-156l-153 738h161l74 -481l85 481h126l85 -481zM257.5 782q-17.5 16 -17.5 40q0 25 17 40.5t50 15.5t51 -15.5t18 -40.5q0 -24 -18 -40t-51 -16q-32 0 -49.5 16zM423 782q-18 16 -18 40q0 25 18 40.5t50 15.5
q33 0 50.5 -15.5t17.5 -40.5t-17.5 -40.5t-50.5 -15.5q-32 0 -50 16z" />
    <glyph glyph-name="Wgrave" unicode="&#x1e80;" horiz-adv-x="781" 
d="M615 738h156l-147 -738h-159l-74 409l-72 -409h-156l-153 738h161l74 -481l85 481h126l85 -481zM455 773h-138l-73 95h184z" />
    <glyph glyph-name="X" unicode="X" horiz-adv-x="443" 
d="M453 0h-158l-82 234l-70 -234h-153l142 370l-142 368h159l76 -219l66 219h152l-137 -357z" />
    <glyph glyph-name="Y" unicode="Y" horiz-adv-x="441" 
d="M451 738l-152 -495v-243h-156v249l-153 489h155l82 -324l71 324h153z" />
    <glyph glyph-name="Yacute" unicode="&#xdd;" horiz-adv-x="441" 
d="M451 738l-152 -495v-243h-156v249l-153 489h155l82 -324l71 324h153zM155 773l27 95h184l-73 -95h-138z" />
    <glyph glyph-name="Ycircumflex" unicode="&#x176;" horiz-adv-x="441" 
d="M451 738l-152 -495v-243h-156v249l-153 489h155l82 -324l71 324h153zM353 773h-101l-33 35l-34 -35h-101l37 95h195z" />
    <glyph glyph-name="Ydieresis" unicode="&#x178;" horiz-adv-x="441" 
d="M451 738l-152 -495v-243h-156v249l-153 489h155l82 -324l71 324h153zM85.5 782q-17.5 16 -17.5 40q0 25 17 40.5t50 15.5t51 -15.5t18 -40.5q0 -24 -18 -40t-51 -16q-32 0 -49.5 16zM251 782q-18 16 -18 40q0 25 18 40.5t50 15.5q33 0 50.5 -15.5t17.5 -40.5t-17.5 -40.5
t-50.5 -15.5q-32 0 -50 16z" />
    <glyph glyph-name="Ygrave" unicode="&#x1ef2;" horiz-adv-x="441" 
d="M451 738l-152 -495v-243h-156v249l-153 489h155l82 -324l71 324h153zM283 773h-138l-73 95h184z" />
    <glyph glyph-name="Z" unicode="Z" horiz-adv-x="398" 
d="M368 738v-89l-169 -511h169v-138h-338l3 76l174 524h-167v138h328z" />
    <glyph glyph-name="Zacute" unicode="&#x179;" horiz-adv-x="398" 
d="M368 738v-89l-169 -511h169v-138h-338l3 76l174 524h-167v138h328zM129 773l27 95h184l-73 -95h-138z" />
    <glyph glyph-name="Zcaron" unicode="&#x17d;" horiz-adv-x="398" 
d="M368 738v-89l-169 -511h169v-138h-338l3 76l174 524h-167v138h328zM226 868h101l-37 -95h-195l-37 95h101l34 -35z" />
    <glyph glyph-name="Zdotaccent" unicode="&#x17b;" horiz-adv-x="398" 
d="M368 738v-89l-169 -511h169v-138h-338l3 76l174 524h-167v138h328zM132.5 786q-20.5 18 -20.5 46t20 45t60 17q41 0 61 -17t20 -45t-20 -46t-61 -18q-39 0 -59.5 18z" />
    <glyph glyph-name="a" unicode="a" horiz-adv-x="438" 
d="M348 523.5q45 -48.5 45 -143.5v-380h-143v44q-28 -50 -90 -50q-64 0 -100 46t-36 117q0 184 186 195l35 2v31q0 27 -17 40t-53 13q-30 0 -61 -10.5t-57 -28.5v136q31 18 68 27.5t75 9.5q103 0 148 -48.5zM237 117.5q8 13.5 8 40.5v89l-11 -1q-33 -2 -47.5 -21t-14.5 -62
q0 -27 9 -43t27 -16q21 0 29 13.5z" />
    <glyph glyph-name="aacute" unicode="&#xe1;" horiz-adv-x="438" 
d="M348 523.5q45 -48.5 45 -143.5v-380h-143v44q-28 -50 -90 -50q-64 0 -100 46t-36 117q0 184 186 195l35 2v31q0 27 -17 40t-53 13q-30 0 -61 -10.5t-57 -28.5v136q31 18 68 27.5t75 9.5q103 0 148 -48.5zM237 117.5q8 13.5 8 40.5v89l-11 -1q-33 -2 -47.5 -21t-14.5 -62
q0 -27 9 -43t27 -16q21 0 29 13.5zM157 608l47 130h164l-103 -130h-108z" />
    <glyph glyph-name="abreve" unicode="&#x103;" horiz-adv-x="438" 
d="M348 523.5q45 -48.5 45 -143.5v-380h-143v44q-28 -50 -90 -50q-64 0 -100 46t-36 117q0 184 186 195l35 2v31q0 27 -17 40t-53 13q-30 0 -61 -10.5t-57 -28.5v136q31 18 68 27.5t75 9.5q103 0 148 -48.5zM237 117.5q8 13.5 8 40.5v89l-11 -1q-33 -2 -47.5 -21t-14.5 -62
q0 -27 9 -43t27 -16q21 0 29 13.5zM130 634q-32 30 -33 104h91q1 -21 7.5 -27t21.5 -6t21.5 6t7.5 27h91q-1 -74 -33 -104t-87 -30t-87 30z" />
    <glyph glyph-name="acircumflex" unicode="&#xe2;" horiz-adv-x="438" 
d="M348 523.5q45 -48.5 45 -143.5v-380h-143v44q-28 -50 -90 -50q-64 0 -100 46t-36 117q0 184 186 195l35 2v31q0 27 -17 40t-53 13q-30 0 -61 -10.5t-57 -28.5v136q31 18 68 27.5t75 9.5q103 0 148 -48.5zM237 117.5q8 13.5 8 40.5v89l-11 -1q-33 -2 -47.5 -21t-14.5 -62
q0 -27 9 -43t27 -16q21 0 29 13.5zM351 608h-94l-39 54l-40 -54h-96l57 130h155z" />
    <glyph glyph-name="adieresis" unicode="&#xe4;" horiz-adv-x="438" 
d="M348 523.5q45 -48.5 45 -143.5v-380h-143v44q-28 -50 -90 -50q-64 0 -100 46t-36 117q0 184 186 195l35 2v31q0 27 -17 40t-53 13q-30 0 -61 -10.5t-57 -28.5v136q31 18 68 27.5t75 9.5q103 0 148 -48.5zM237 117.5q8 13.5 8 40.5v89l-11 -1q-33 -2 -47.5 -21t-14.5 -62
q0 -27 9 -43t27 -16q21 0 29 13.5zM82 621q-19 22 -19 54t19 53.5t50 21.5q32 0 51 -21.5t19 -53.5t-19 -54t-51 -22q-31 0 -50 22zM251 621q-19 22 -19 54t19 53.5t50 21.5q32 0 51 -21.5t19 -53.5q0 -33 -19 -54.5t-51 -21.5q-31 0 -50 22z" />
    <glyph glyph-name="agrave" unicode="&#xe0;" horiz-adv-x="438" 
d="M348 523.5q45 -48.5 45 -143.5v-380h-143v44q-28 -50 -90 -50q-64 0 -100 46t-36 117q0 184 186 195l35 2v31q0 27 -17 40t-53 13q-30 0 -61 -10.5t-57 -28.5v136q31 18 68 27.5t75 9.5q103 0 148 -48.5zM237 117.5q8 13.5 8 40.5v89l-11 -1q-33 -2 -47.5 -21t-14.5 -62
q0 -27 9 -43t27 -16q21 0 29 13.5zM277 608h-108l-103 130h164z" />
    <glyph glyph-name="amacron" unicode="&#x101;" horiz-adv-x="438" 
d="M348 523.5q45 -48.5 45 -143.5v-380h-143v44q-28 -50 -90 -50q-64 0 -100 46t-36 117q0 184 186 195l35 2v31q0 27 -17 40t-53 13q-30 0 -61 -10.5t-57 -28.5v136q31 18 68 27.5t75 9.5q103 0 148 -48.5zM237 117.5q8 13.5 8 40.5v89l-11 -1q-33 -2 -47.5 -21t-14.5 -62
q0 -27 9 -43t27 -16q21 0 29 13.5zM109 738h215v-112h-215v112z" />
    <glyph glyph-name="aogonek" unicode="&#x105;" horiz-adv-x="438" 
d="M413 -78v-88q-34 -14 -73 -14q-54 0 -81 21.5t-27 61.5q0 26 12.5 48t44.5 49h-39v44q-28 -50 -90 -50q-64 0 -100 46t-36 117q0 184 186 195l35 2v31q0 27 -17 40t-53 13q-30 0 -61 -10.5t-57 -28.5v136q31 18 68 27.5t75 9.5q103 0 148 -48.5t45 -143.5v-380h-29
q-18 -21 -24.5 -33.5t-6.5 -25.5q0 -28 35 -28q20 0 45 9zM237 117.5q8 13.5 8 40.5v89l-11 -1q-33 -2 -47.5 -21t-14.5 -62q0 -27 9 -43t27 -16q21 0 29 13.5z" />
    <glyph glyph-name="aring" unicode="&#xe5;" horiz-adv-x="438" 
d="M348 523.5q45 -48.5 45 -143.5v-380h-143v44q-28 -50 -90 -50q-64 0 -100 46t-36 117q0 184 186 195l35 2v31q0 27 -17 40t-53 13q-30 0 -61 -10.5t-57 -28.5v136q31 18 68 27.5t75 9.5q103 0 148 -48.5zM237 117.5q8 13.5 8 40.5v89l-11 -1q-33 -2 -47.5 -21t-14.5 -62
q0 -27 9 -43t27 -16q21 0 29 13.5zM136.5 634q-31.5 30 -31.5 77q0 46 31.5 76t80.5 30t80 -30t31 -76q0 -47 -31 -77t-80 -30t-80.5 30zM242.5 681.5q9.5 11.5 9.5 29.5q0 17 -9.5 28.5t-25.5 11.5q-17 0 -26.5 -11.5t-9.5 -28.5q0 -18 9.5 -29.5t26.5 -11.5
q16 0 25.5 11.5z" />
    <glyph glyph-name="atilde" unicode="&#xe3;" horiz-adv-x="438" 
d="M348 523.5q45 -48.5 45 -143.5v-380h-143v44q-28 -50 -90 -50q-64 0 -100 46t-36 117q0 184 186 195l35 2v31q0 27 -17 40t-53 13q-30 0 -61 -10.5t-57 -28.5v136q31 18 68 27.5t75 9.5q103 0 148 -48.5zM237 117.5q8 13.5 8 40.5v89l-11 -1q-33 -2 -47.5 -21t-14.5 -62
q0 -27 9 -43t27 -16q21 0 29 13.5zM98 678q9 31 27 45.5t39 14.5q19 0 33 -6t29 -17q14 -12 23 -12q8 0 11.5 8.5t3.5 26.5h81q0 -65 -12 -95q-19 -49 -63 -49q-19 0 -33 6t-29 17q-14 12 -23 12q-8 0 -11.5 -8.5t-3.5 -26.5h-81q0 54 9 84z" />
    <glyph glyph-name="ae" unicode="&#xe6;" horiz-adv-x="635" 
d="M607 240h-223q2 -45 11.5 -69t30.5 -34t59 -10q41 0 89 19v-131q-28 -11 -55 -16.5t-64 -5.5q-96 0 -149 70q-34 -69 -129 -69q-71 0 -112 44.5t-41 118.5q0 168 176 179l35 2v47q0 27 -17 40t-53 13q-53 0 -108 -38v136q62 36 133 36q88 0 132 -54q49 54 120 54
q80 0 123 -74.5t43 -220.5q0 -20 -1 -37zM398 413q-10 -22 -13 -74h78q-1 53 -9 74.5t-25 21.5q-21 0 -31 -22zM225.5 126.5q9.5 12.5 9.5 41.5v69l-11 -1q-28 -2 -40 -18.5t-12 -54.5q0 -49 25 -49q19 0 28.5 12.5z" />
    <glyph glyph-name="b" unicode="b" horiz-adv-x="506" 
d="M395.5 538.5q37.5 -33.5 59 -99t21.5 -159.5t-21.5 -159.5t-59 -99t-87.5 -33.5q-82 0 -115 72v-60h-143v738h148v-228q33 62 110 62q50 0 87.5 -33.5zM308.5 152.5q15.5 39.5 15.5 127.5t-15.5 127.5t-47.5 39.5q-33 0 -48 -39t-15 -128t15 -128t48 -39q32 0 47.5 39.5z
" />
    <glyph glyph-name="c" unicode="c" horiz-adv-x="345" 
d="M88.5 66q-55.5 73 -55.5 214q0 137 53.5 211.5t149.5 74.5q49 0 82 -12v-134q-24 12 -50 12q-41 0 -62 -33.5t-21 -118.5q0 -87 21.5 -120t67.5 -33q18 0 46 6v-130q-30 -10 -73 -10q-103 0 -158.5 73z" />
    <glyph glyph-name="cacute" unicode="&#x107;" horiz-adv-x="345" 
d="M88.5 66q-55.5 73 -55.5 214q0 137 53.5 211.5t149.5 74.5q49 0 82 -12v-134q-24 12 -50 12q-41 0 -62 -33.5t-21 -118.5q0 -87 21.5 -120t67.5 -33q18 0 46 6v-130q-30 -10 -73 -10q-103 0 -158.5 73zM156 608l47 130h164l-103 -130h-108z" />
    <glyph glyph-name="ccaron" unicode="&#x10d;" horiz-adv-x="345" 
d="M88.5 66q-55.5 73 -55.5 214q0 137 53.5 211.5t149.5 74.5q49 0 82 -12v-134q-24 12 -50 12q-41 0 -62 -33.5t-21 -118.5q0 -87 21.5 -120t67.5 -33q18 0 46 6v-130q-30 -10 -73 -10q-103 0 -158.5 73zM254 738h96l-57 -130h-155l-57 130h94l40 -54z" />
    <glyph glyph-name="ccedilla" unicode="&#xe7;" horiz-adv-x="345" 
d="M88.5 66q-55.5 73 -55.5 214q0 137 53.5 211.5t149.5 74.5q49 0 82 -12v-134q-24 12 -50 12q-41 0 -62 -33.5t-21 -118.5q0 -87 21.5 -120t67.5 -33q18 0 46 6v-130q-30 -10 -73 -10q-103 0 -158.5 73zM132 -184l28 144h134l-54 -144h-108z" />
    <glyph glyph-name="ccircumflex" unicode="&#x109;" horiz-adv-x="345" 
d="M88.5 66q-55.5 73 -55.5 214q0 137 53.5 211.5t149.5 74.5q49 0 82 -12v-134q-24 12 -50 12q-41 0 -62 -33.5t-21 -118.5q0 -87 21.5 -120t67.5 -33q18 0 46 6v-130q-30 -10 -73 -10q-103 0 -158.5 73zM350 608h-94l-39 54l-40 -54h-96l57 130h155z" />
    <glyph glyph-name="cdotaccent" unicode="&#x10b;" horiz-adv-x="345" 
d="M88.5 66q-55.5 73 -55.5 214q0 137 53.5 211.5t149.5 74.5q49 0 82 -12v-134q-24 12 -50 12q-41 0 -62 -33.5t-21 -118.5q0 -87 21.5 -120t67.5 -33q18 0 46 6v-130q-30 -10 -73 -10q-103 0 -158.5 73zM156.5 622q-21.5 22 -21.5 54t21.5 53t58.5 21q38 0 59.5 -20.5
t21.5 -53.5t-21.5 -54.5t-59.5 -21.5q-37 0 -58.5 22z" />
    <glyph glyph-name="d" unicode="d" horiz-adv-x="506" 
d="M456 738v-738h-143v60q-33 -72 -115 -72q-50 0 -87.5 33.5t-59 99t-21.5 159.5t21.5 159.5t59 99t87.5 33.5q77 0 110 -62v228h148zM293 152q15 39 15 128t-15 128t-48 39q-32 0 -47.5 -39.5t-15.5 -127.5t15.5 -127.5t47.5 -39.5q33 0 48 39z" />
    <glyph glyph-name="eth" unicode="&#xf0;" horiz-adv-x="492" 
d="M462 298q0 -145 -50.5 -227.5t-163.5 -82.5q-102 0 -160 69.5t-58 197.5q0 77 23.5 134t64 87.5t91.5 30.5q48 0 78 -30q-21 60 -62 117l-143 -60v70l99 42q-48 52 -96 92h171q19 -15 45 -43l92 39v-70l-48 -20q117 -158 117 -346zM297 153q15 36 15 93q0 73 -15 108
t-47 35q-62 0 -62 -143q0 -129 60 -129q34 0 49 36z" />
    <glyph glyph-name="dcaron" unicode="&#x10f;" horiz-adv-x="506" 
d="M456 738v-738h-143v60q-33 -72 -115 -72q-50 0 -87.5 33.5t-59 99t-21.5 159.5t21.5 159.5t59 99t87.5 33.5q77 0 110 -62v228h148zM293 152q15 39 15 128t-15 128t-48 39q-32 0 -47.5 -39.5t-15.5 -127.5t15.5 -127.5t47.5 -39.5q33 0 48 39zM486 590v148h122l-36 -148
h-86z" />
    <glyph glyph-name="dcroat" unicode="&#x111;" horiz-adv-x="506" 
d="M501 605h-45v-605h-143v60q-33 -72 -115 -72q-50 0 -87.5 33.5t-59 99t-21.5 159.5t21.5 159.5t59 99t87.5 33.5q77 0 110 -62v95h-121v84h121v49h148v-49h45v-84zM293 152q15 39 15 128t-15 128t-48 39q-32 0 -47.5 -39.5t-15.5 -127.5t15.5 -127.5t47.5 -39.5
q33 0 48 39z" />
    <glyph glyph-name="e" unicode="e" horiz-adv-x="444" 
d="M416 233h-233q3 -43 12.5 -65.5t30 -31.5t58.5 -9q49 0 99 20v-132q-58 -22 -129 -22q-109 0 -166.5 73t-57.5 214q0 84 23.5 150t68.5 104t107 38q93 0 140.5 -77t47.5 -226q0 -20 -1 -36zM196 411.5q-10 -23.5 -13 -79.5h89q-1 56 -11.5 79.5t-32.5 23.5t-32 -23.5z
" />
    <glyph glyph-name="eacute" unicode="&#xe9;" horiz-adv-x="444" 
d="M416 233h-233q3 -43 12.5 -65.5t30 -31.5t58.5 -9q49 0 99 20v-132q-58 -22 -129 -22q-109 0 -166.5 73t-57.5 214q0 84 23.5 150t68.5 104t107 38q93 0 140.5 -77t47.5 -226q0 -20 -1 -36zM196 411.5q-10 -23.5 -13 -79.5h89q-1 56 -11.5 79.5t-32.5 23.5t-32 -23.5z
M162 608l47 130h164l-103 -130h-108z" />
    <glyph glyph-name="ebreve" unicode="&#x115;" horiz-adv-x="444" 
d="M416 233h-233q3 -43 12.5 -65.5t30 -31.5t58.5 -9q49 0 99 20v-132q-58 -22 -129 -22q-109 0 -166.5 73t-57.5 214q0 84 23.5 150t68.5 104t107 38q93 0 140.5 -77t47.5 -226q0 -20 -1 -36zM196 411.5q-10 -23.5 -13 -79.5h89q-1 56 -11.5 79.5t-32.5 23.5t-32 -23.5z
M135 634q-32 30 -33 104h91q1 -21 7.5 -27t21.5 -6t21.5 6t7.5 27h91q-1 -74 -33 -104t-87 -30t-87 30z" />
    <glyph glyph-name="ecaron" unicode="&#x11b;" horiz-adv-x="444" 
d="M416 233h-233q3 -43 12.5 -65.5t30 -31.5t58.5 -9q49 0 99 20v-132q-58 -22 -129 -22q-109 0 -166.5 73t-57.5 214q0 84 23.5 150t68.5 104t107 38q93 0 140.5 -77t47.5 -226q0 -20 -1 -36zM196 411.5q-10 -23.5 -13 -79.5h89q-1 56 -11.5 79.5t-32.5 23.5t-32 -23.5z
M260 738h96l-57 -130h-155l-57 130h94l40 -54z" />
    <glyph glyph-name="ecircumflex" unicode="&#xea;" horiz-adv-x="444" 
d="M416 233h-233q3 -43 12.5 -65.5t30 -31.5t58.5 -9q49 0 99 20v-132q-58 -22 -129 -22q-109 0 -166.5 73t-57.5 214q0 84 23.5 150t68.5 104t107 38q93 0 140.5 -77t47.5 -226q0 -20 -1 -36zM196 411.5q-10 -23.5 -13 -79.5h89q-1 56 -11.5 79.5t-32.5 23.5t-32 -23.5z
M356 608h-94l-39 54l-40 -54h-96l57 130h155z" />
    <glyph glyph-name="edieresis" unicode="&#xeb;" horiz-adv-x="444" 
d="M416 233h-233q3 -43 12.5 -65.5t30 -31.5t58.5 -9q49 0 99 20v-132q-58 -22 -129 -22q-109 0 -166.5 73t-57.5 214q0 84 23.5 150t68.5 104t107 38q93 0 140.5 -77t47.5 -226q0 -20 -1 -36zM196 411.5q-10 -23.5 -13 -79.5h89q-1 56 -11.5 79.5t-32.5 23.5t-32 -23.5z
M87 621q-19 22 -19 54t19 53.5t50 21.5q32 0 51 -21.5t19 -53.5t-19 -54t-51 -22q-31 0 -50 22zM256 621q-19 22 -19 54t19 53.5t50 21.5q32 0 51 -21.5t19 -53.5q0 -33 -19 -54.5t-51 -21.5q-31 0 -50 22z" />
    <glyph glyph-name="edotaccent" unicode="&#x117;" horiz-adv-x="444" 
d="M416 233h-233q3 -43 12.5 -65.5t30 -31.5t58.5 -9q49 0 99 20v-132q-58 -22 -129 -22q-109 0 -166.5 73t-57.5 214q0 84 23.5 150t68.5 104t107 38q93 0 140.5 -77t47.5 -226q0 -20 -1 -36zM196 411.5q-10 -23.5 -13 -79.5h89q-1 56 -11.5 79.5t-32.5 23.5t-32 -23.5z
M162.5 622q-21.5 22 -21.5 54t21.5 53t58.5 21q38 0 59.5 -20.5t21.5 -53.5t-21.5 -54.5t-59.5 -21.5q-37 0 -58.5 22z" />
    <glyph glyph-name="egrave" unicode="&#xe8;" horiz-adv-x="444" 
d="M416 233h-233q3 -43 12.5 -65.5t30 -31.5t58.5 -9q49 0 99 20v-132q-58 -22 -129 -22q-109 0 -166.5 73t-57.5 214q0 84 23.5 150t68.5 104t107 38q93 0 140.5 -77t47.5 -226q0 -20 -1 -36zM196 411.5q-10 -23.5 -13 -79.5h89q-1 56 -11.5 79.5t-32.5 23.5t-32 -23.5z
M282 608h-108l-103 130h164z" />
    <glyph glyph-name="emacron" unicode="&#x113;" horiz-adv-x="444" 
d="M416 233h-233q3 -43 12.5 -65.5t30 -31.5t58.5 -9q49 0 99 20v-132q-58 -22 -129 -22q-109 0 -166.5 73t-57.5 214q0 84 23.5 150t68.5 104t107 38q93 0 140.5 -77t47.5 -226q0 -20 -1 -36zM196 411.5q-10 -23.5 -13 -79.5h89q-1 56 -11.5 79.5t-32.5 23.5t-32 -23.5z
M114 738h215v-112h-215v112z" />
    <glyph glyph-name="eogonek" unicode="&#x119;" horiz-adv-x="444" 
d="M416 233h-233q3 -43 12.5 -65.5t30 -31.5t58.5 -9q49 0 99 20v-132q-38 -14 -75 -19q-16 -18 -22 -30t-6 -25q0 -28 35 -28q20 0 45 9v-88q-34 -14 -73 -14q-54 0 -81 21.5t-27 61.5q0 25 11 45.5t39 45.5q-97 8 -148 80.5t-51 205.5q0 84 23.5 150t68.5 104t107 38
q93 0 140.5 -77t47.5 -226q0 -20 -1 -36zM196 411.5q-10 -23.5 -13 -79.5h89q-1 56 -11.5 79.5t-32.5 23.5t-32 -23.5z" />
    <glyph glyph-name="f" unicode="f" horiz-adv-x="326" 
d="M227 618q-14 -16 -14 -46v-12h99v-121h-99v-439h-148v439h-50v121h50v14q0 80 46.5 125.5t134.5 45.5q36 0 66 -6v-110q-20 5 -40 5q-31 0 -45 -16z" />
    <glyph glyph-name="g" unicode="g" horiz-adv-x="501" 
d="M451 560v-505q0 -227 -224 -227q-71 0 -131 19l1 128q57 -20 106 -20t74.5 20t25.5 78v22q-33 -59 -109 -59q-74 0 -119 72t-45 206t45 206t119 72q81 0 114 -69v57h143zM288 172q15 37 15 122t-15 121.5t-46 36.5t-45.5 -37t-14.5 -121q0 -85 14.5 -122t45.5 -37t46 37z
" />
    <glyph glyph-name="gbreve" unicode="&#x11f;" horiz-adv-x="501" 
d="M451 560v-505q0 -227 -224 -227q-71 0 -131 19l1 128q57 -20 106 -20t74.5 20t25.5 78v22q-33 -59 -109 -59q-74 0 -119 72t-45 206t45 206t119 72q81 0 114 -69v57h143zM288 172q15 37 15 122t-15 121.5t-46 36.5t-45.5 -37t-14.5 -121q0 -85 14.5 -122t45.5 -37t46 37z
M162 634q-32 30 -33 104h91q1 -21 7.5 -27t21.5 -6t21.5 6t7.5 27h91q-1 -74 -33 -104t-87 -30t-87 30z" />
    <glyph glyph-name="gcircumflex" unicode="&#x11d;" horiz-adv-x="501" 
d="M451 560v-505q0 -227 -224 -227q-71 0 -131 19l1 128q57 -20 106 -20t74.5 20t25.5 78v22q-33 -59 -109 -59q-74 0 -119 72t-45 206t45 206t119 72q81 0 114 -69v57h143zM288 172q15 37 15 122t-15 121.5t-46 36.5t-45.5 -37t-14.5 -121q0 -85 14.5 -122t45.5 -37t46 37z
M383 608h-94l-39 54l-40 -54h-96l57 130h155z" />
    <glyph glyph-name="gcommaaccent" unicode="&#x123;" horiz-adv-x="501" 
d="M451 560v-505q0 -227 -224 -227q-71 0 -131 19l1 128q57 -20 106 -20t74.5 20t25.5 78v22q-33 -59 -109 -59q-74 0 -119 72t-45 206t45 206t119 72q81 0 114 -69v57h143zM288 172q15 37 15 122t-15 121.5t-46 36.5t-45.5 -37t-14.5 -121q0 -85 14.5 -122t45.5 -37t46 37z
M277.5 742.5q-8.5 -4.5 -10.5 -16.5h1q29 0 45 -17t16 -42q0 -29 -21 -49.5t-57 -20.5q-38 0 -60 21.5t-22 60.5q0 48 28 83t93 35q18 0 39 -3v-50q-17 3 -28 3q-15 0 -23.5 -4.5z" />
    <glyph glyph-name="gdotaccent" unicode="&#x121;" horiz-adv-x="501" 
d="M451 560v-505q0 -227 -224 -227q-71 0 -131 19l1 128q57 -20 106 -20t74.5 20t25.5 78v22q-33 -59 -109 -59q-74 0 -119 72t-45 206t45 206t119 72q81 0 114 -69v57h143zM288 172q15 37 15 122t-15 121.5t-46 36.5t-45.5 -37t-14.5 -121q0 -85 14.5 -122t45.5 -37t46 37z
M189.5 622q-21.5 22 -21.5 54t21.5 53t58.5 21q38 0 59.5 -20.5t21.5 -53.5t-21.5 -54.5t-59.5 -21.5q-37 0 -58.5 22z" />
    <glyph glyph-name="h" unicode="h" horiz-adv-x="498" 
d="M421 521.5q32 -50.5 32 -138.5v-383h-148v361q0 37 -12 54.5t-39 17.5q-28 0 -42 -19.5t-14 -54.5v-359h-148v738h148v-245q36 79 120 79q71 0 103 -50.5z" />
    <glyph glyph-name="hbar" unicode="&#x127;" horiz-adv-x="498" 
d="M421 521.5q32 -50.5 32 -138.5v-383h-148v361q0 37 -12 54.5t-39 17.5q-28 0 -42 -19.5t-14 -54.5v-359h-148v605h-45v84h45v49h148v-49h121v-84h-121v-112q36 79 120 79q71 0 103 -50.5z" />
    <glyph glyph-name="hcircumflex" unicode="&#x125;" horiz-adv-x="498" 
d="M421 521.5q32 -50.5 32 -138.5v-383h-148v361q0 37 -12 54.5t-39 17.5q-28 0 -42 -19.5t-14 -54.5v-359h-148v738h148v-245q36 79 120 79q71 0 103 -50.5zM386 773h-101l-33 35l-34 -35h-101l37 95h195z" />
    <glyph glyph-name="i" unicode="i" horiz-adv-x="248" 
d="M60 608q-24 22 -24 60t24 60t64 22t64 -22t24 -60t-24 -60t-64 -22t-64 22zM50 0v560h148v-560h-148z" />
    <glyph glyph-name="dotlessi" unicode="&#x131;" horiz-adv-x="248" 
d="M50 0v560h148v-560h-148z" />
    <glyph glyph-name="iacute" unicode="&#xed;" horiz-adv-x="248" 
d="M50 0v560h148v-560h-148zM64 608l47 130h164l-103 -130h-108z" />
    <glyph glyph-name="ibreve" unicode="&#x12d;" horiz-adv-x="248" 
d="M50 0v560h148v-560h-148zM37 634q-32 30 -33 104h91q1 -21 7.5 -27t21.5 -6t21.5 6t7.5 27h91q-1 -74 -33 -104t-87 -30t-87 30z" />
    <glyph glyph-name="icircumflex" unicode="&#xee;" horiz-adv-x="248" 
d="M50 0v560h148v-560h-148zM258 608h-94l-39 54l-40 -54h-96l57 130h155z" />
    <glyph glyph-name="idieresis" unicode="&#xef;" horiz-adv-x="248" 
d="M50 0v560h148v-560h-148zM-11 621q-19 22 -19 54t19 53.5t50 21.5q32 0 51 -21.5t19 -53.5t-19 -54t-51 -22q-31 0 -50 22zM158 621q-19 22 -19 54t19 53.5t50 21.5q32 0 51 -21.5t19 -53.5q0 -33 -19 -54.5t-51 -21.5q-31 0 -50 22z" />
    <glyph glyph-name="igrave" unicode="&#xec;" horiz-adv-x="248" 
d="M50 0v560h148v-560h-148zM184 608h-108l-103 130h164z" />
    <glyph glyph-name="ij" unicode="&#x133;" horiz-adv-x="496" 
d="M60 608q-24 22 -24 60t24 60t64 22t64 -22t24 -60t-24 -60t-64 -22t-64 22zM50 0v560h148v-560h-148zM308 608q-24 22 -24 60t24 60t64 22t64 -22t24 -60t-24 -60t-64 -22t-64 22zM446 560v-574q0 -80 -41.5 -125.5t-119.5 -45.5q-30 0 -56 6v118q12 -3 26 -3
q22 0 32.5 11.5t10.5 40.5v572h148z" />
    <glyph glyph-name="imacron" unicode="&#x12b;" horiz-adv-x="248" 
d="M50 0v560h148v-560h-148zM16 738h215v-112h-215v112z" />
    <glyph glyph-name="iogonek" unicode="&#x12f;" horiz-adv-x="248" 
d="M60 608q-24 22 -24 60t24 60t64 22t64 -22t24 -60t-24 -60t-64 -22t-64 22zM50 0v560h148v-560h-148zM145.5 -26.5q-10.5 -16.5 -10.5 -32.5q0 -28 35 -28q19 0 45 9v-88q-34 -14 -73 -14q-54 0 -81 21.5t-27 61.5q0 36 25 66.5t97 77.5l32 -23q-32 -34 -42.5 -50.5z" />
    <glyph glyph-name="itilde" unicode="&#x129;" horiz-adv-x="248" 
d="M50 0v560h148v-560h-148zM5 678q9 31 27 45.5t39 14.5q19 0 33 -6t29 -17q14 -12 23 -12q8 0 11.5 8.5t3.5 26.5h81q0 -65 -12 -95q-19 -49 -63 -49q-19 0 -33 6t-29 17q-14 12 -23 12q-8 0 -11.5 -8.5t-3.5 -26.5h-81q0 54 9 84z" />
    <glyph glyph-name="j" unicode="j" horiz-adv-x="248" 
d="M60 608q-24 22 -24 60t24 60t64 22t64 -22t24 -60t-24 -60t-64 -22t-64 22zM198 560v-574q0 -80 -41.5 -125.5t-119.5 -45.5q-30 0 -56 6v118q12 -3 26 -3q22 0 32.5 11.5t10.5 40.5v572h148z" />
    <glyph glyph-name="dotlessj" unicode="&#x237;" horiz-adv-x="248" 
d="M198 560v-574q0 -80 -41.5 -125.5t-119.5 -45.5q-30 0 -56 6v118q12 -3 26 -3q22 0 32.5 11.5t10.5 40.5v572h148z" />
    <glyph glyph-name="jcircumflex" unicode="&#x135;" horiz-adv-x="248" 
d="M198 560v-574q0 -80 -41.5 -125.5t-119.5 -45.5q-30 0 -56 6v118q12 -3 26 -3q22 0 32.5 11.5t10.5 40.5v572h148zM258 608h-94l-39 54l-40 -54h-96l57 130h155z" />
    <glyph glyph-name="k" unicode="k" horiz-adv-x="467" 
d="M462 0h-166l-97 259v-259h-148v738h148v-417l94 239h163l-120 -260z" />
    <glyph glyph-name="kcommaaccent" unicode="&#x137;" horiz-adv-x="467" 
d="M462 0h-166l-97 259v-259h-148v738h148v-417l94 239h163l-120 -260zM296 -58.5q22 -21.5 22 -60.5q0 -48 -28 -83t-93 -35q-18 0 -39 3v50q16 -3 28 -3q15 0 23.5 4.5t10.5 16.5h-1q-29 0 -45 17t-16 42q0 29 21 49.5t57 20.5q38 0 60 -21.5z" />
    <glyph glyph-name="kgreenlandic" unicode="&#x138;" horiz-adv-x="456" 
d="M452 0h-166l-97 259v-259h-148v560h148v-239l94 239h163l-120 -260z" />
    <glyph glyph-name="l" unicode="l" horiz-adv-x="248" 
d="M50 0v738h148v-738h-148z" />
    <glyph glyph-name="lacute" unicode="&#x13a;" horiz-adv-x="248" 
d="M50 0v738h148v-738h-148zM60 773l27 95h184l-73 -95h-138z" />
    <glyph glyph-name="lcaron" unicode="&#x13e;" horiz-adv-x="248" 
d="M50 0v738h148v-738h-148zM228 590v148h122l-36 -148h-86z" />
    <glyph glyph-name="lcommaaccent" unicode="&#x13c;" horiz-adv-x="248" 
d="M50 0v738h148v-738h-148zM182 -58.5q22 -21.5 22 -60.5q0 -48 -28 -83t-93 -35q-18 0 -39 3v50q16 -3 28 -3q15 0 23.5 4.5t10.5 16.5h-1q-29 0 -45 17t-16 42q0 29 21 49.5t57 20.5q38 0 60 -21.5z" />
    <glyph glyph-name="ldot" unicode="&#x140;" horiz-adv-x="368" 
d="M50 0v738h148v-738h-148zM249 276q-22 24 -22 59t22 58.5t59 23.5t59 -23.5t22 -58.5t-22 -59t-59 -24t-59 24z" />
    <glyph glyph-name="lslash" unicode="&#x142;" horiz-adv-x="288" 
d="M266 514v-124l-48 -41v-349h-148v231l-48 -41v124l48 41v383h148v-265z" />
    <glyph glyph-name="m" unicode="m" horiz-adv-x="733" 
d="M657 521q31 -51 31 -138v-383h-148v361q0 36 -11 54t-35 18q-26 0 -38.5 -19.5t-12.5 -54.5v-359h-148v361q0 36 -11 54t-35 18q-26 0 -38.5 -19.5t-12.5 -54.5v-359h-148v560h143v-78q17 46 48 68t72 22q88 0 117 -89q34 89 128 89q68 0 99 -51z" />
    <glyph glyph-name="n" unicode="n" horiz-adv-x="498" 
d="M421 521.5q32 -50.5 32 -138.5v-383h-148v361q0 37 -12 54.5t-39 17.5q-28 0 -42 -19.5t-14 -54.5v-359h-148v560h143v-79q34 91 125 91q71 0 103 -50.5z" />
    <glyph glyph-name="nacute" unicode="&#x144;" horiz-adv-x="498" 
d="M421 521.5q32 -50.5 32 -138.5v-383h-148v361q0 37 -12 54.5t-39 17.5q-28 0 -42 -19.5t-14 -54.5v-359h-148v560h143v-79q34 91 125 91q71 0 103 -50.5zM190 608l47 130h164l-103 -130h-108z" />
    <glyph glyph-name="napostrophe" unicode="&#x149;" horiz-adv-x="780" 
d="M207 719q25 -28 25 -75q0 -79 -44.5 -134.5t-134.5 -56.5v73q61 3 70 50h-1q-33 0 -52.5 23.5t-19.5 59.5q0 37 24.5 62.5t65.5 25.5q42 0 67 -28zM703 521.5q32 -50.5 32 -138.5v-383h-148v361q0 37 -12 54.5t-39 17.5q-28 0 -42 -19.5t-14 -54.5v-359h-148v560h143v-79
q34 91 125 91q71 0 103 -50.5z" />
    <glyph glyph-name="ncaron" unicode="&#x148;" horiz-adv-x="498" 
d="M421 521.5q32 -50.5 32 -138.5v-383h-148v361q0 37 -12 54.5t-39 17.5q-28 0 -42 -19.5t-14 -54.5v-359h-148v560h143v-79q34 91 125 91q71 0 103 -50.5zM288 738h96l-57 -130h-155l-57 130h94l40 -54z" />
    <glyph glyph-name="ncommaaccent" unicode="&#x146;" horiz-adv-x="498" 
d="M421 521.5q32 -50.5 32 -138.5v-383h-148v361q0 37 -12 54.5t-39 17.5q-28 0 -42 -19.5t-14 -54.5v-359h-148v560h143v-79q34 91 125 91q71 0 103 -50.5zM308 -58.5q22 -21.5 22 -60.5q0 -48 -28 -83t-93 -35q-18 0 -39 3v50q16 -3 28 -3q15 0 23.5 4.5t10.5 16.5h-1
q-29 0 -45 17t-16 42q0 29 21 49.5t57 20.5q38 0 60 -21.5z" />
    <glyph glyph-name="eng" unicode="&#x14b;" horiz-adv-x="489" 
d="M421 521.5q32 -50.5 32 -138.5v-397q0 -80 -41.5 -125.5t-119.5 -45.5q-30 0 -56 6v118q12 -3 26 -3q22 0 32.5 11.5t10.5 40.5v373q0 37 -12 54.5t-39 17.5q-28 0 -42 -19.5t-14 -54.5v-359h-148v560h143v-79q34 91 125 91q71 0 103 -50.5z" />
    <glyph glyph-name="ntilde" unicode="&#xf1;" horiz-adv-x="498" 
d="M421 521.5q32 -50.5 32 -138.5v-383h-148v361q0 37 -12 54.5t-39 17.5q-28 0 -42 -19.5t-14 -54.5v-359h-148v560h143v-79q34 91 125 91q71 0 103 -50.5zM131 678q9 31 27 45.5t39 14.5q19 0 33 -6t29 -17q14 -12 23 -12q8 0 11.5 8.5t3.5 26.5h81q0 -65 -12 -95
q-19 -49 -63 -49q-19 0 -33 6t-29 17q-14 12 -23 12q-8 0 -11.5 -8.5t-3.5 -26.5h-81q0 54 9 84z" />
    <glyph glyph-name="o" unicode="o" horiz-adv-x="489" 
d="M129.5 25.5q-48.5 37.5 -74 103.5t-25.5 151t25.5 151t74 103.5t116.5 37.5q66 0 114 -37.5t73.5 -104t25.5 -150.5q0 -85 -25.5 -151t-73.5 -103.5t-114 -37.5q-68 0 -116.5 37.5zM292.5 157q15.5 38 15.5 123q0 84 -15.5 122t-47.5 38q-33 0 -48 -38t-15 -122
q0 -85 15 -123t48 -38q32 0 47.5 38z" />
    <glyph glyph-name="oacute" unicode="&#xf3;" horiz-adv-x="489" 
d="M129.5 25.5q-48.5 37.5 -74 103.5t-25.5 151t25.5 151t74 103.5t116.5 37.5q66 0 114 -37.5t73.5 -104t25.5 -150.5q0 -85 -25.5 -151t-73.5 -103.5t-114 -37.5q-68 0 -116.5 37.5zM292.5 157q15.5 38 15.5 123q0 84 -15.5 122t-47.5 38q-33 0 -48 -38t-15 -122
q0 -85 15 -123t48 -38q32 0 47.5 38zM185 608l47 130h164l-103 -130h-108z" />
    <glyph glyph-name="obreve" unicode="&#x14f;" horiz-adv-x="489" 
d="M129.5 25.5q-48.5 37.5 -74 103.5t-25.5 151t25.5 151t74 103.5t116.5 37.5q66 0 114 -37.5t73.5 -104t25.5 -150.5q0 -85 -25.5 -151t-73.5 -103.5t-114 -37.5q-68 0 -116.5 37.5zM292.5 157q15.5 38 15.5 123q0 84 -15.5 122t-47.5 38q-33 0 -48 -38t-15 -122
q0 -85 15 -123t48 -38q32 0 47.5 38zM158 634q-32 30 -33 104h91q1 -21 7.5 -27t21.5 -6t21.5 6t7.5 27h91q-1 -74 -33 -104t-87 -30t-87 30z" />
    <glyph glyph-name="ocircumflex" unicode="&#xf4;" horiz-adv-x="489" 
d="M129.5 25.5q-48.5 37.5 -74 103.5t-25.5 151t25.5 151t74 103.5t116.5 37.5q66 0 114 -37.5t73.5 -104t25.5 -150.5q0 -85 -25.5 -151t-73.5 -103.5t-114 -37.5q-68 0 -116.5 37.5zM292.5 157q15.5 38 15.5 123q0 84 -15.5 122t-47.5 38q-33 0 -48 -38t-15 -122
q0 -85 15 -123t48 -38q32 0 47.5 38zM379 608h-94l-39 54l-40 -54h-96l57 130h155z" />
    <glyph glyph-name="odieresis" unicode="&#xf6;" horiz-adv-x="489" 
d="M129.5 25.5q-48.5 37.5 -74 103.5t-25.5 151t25.5 151t74 103.5t116.5 37.5q66 0 114 -37.5t73.5 -104t25.5 -150.5q0 -85 -25.5 -151t-73.5 -103.5t-114 -37.5q-68 0 -116.5 37.5zM292.5 157q15.5 38 15.5 123q0 84 -15.5 122t-47.5 38q-33 0 -48 -38t-15 -122
q0 -85 15 -123t48 -38q32 0 47.5 38zM110 621q-19 22 -19 54t19 53.5t50 21.5q32 0 51 -21.5t19 -53.5t-19 -54t-51 -22q-31 0 -50 22zM279 621q-19 22 -19 54t19 53.5t50 21.5q32 0 51 -21.5t19 -53.5q0 -33 -19 -54.5t-51 -21.5q-31 0 -50 22z" />
    <glyph glyph-name="ograve" unicode="&#xf2;" horiz-adv-x="489" 
d="M129.5 25.5q-48.5 37.5 -74 103.5t-25.5 151t25.5 151t74 103.5t116.5 37.5q66 0 114 -37.5t73.5 -104t25.5 -150.5q0 -85 -25.5 -151t-73.5 -103.5t-114 -37.5q-68 0 -116.5 37.5zM292.5 157q15.5 38 15.5 123q0 84 -15.5 122t-47.5 38q-33 0 -48 -38t-15 -122
q0 -85 15 -123t48 -38q32 0 47.5 38zM305 608h-108l-103 130h164z" />
    <glyph glyph-name="ohungarumlaut" unicode="&#x151;" horiz-adv-x="489" 
d="M129.5 25.5q-48.5 37.5 -74 103.5t-25.5 151t25.5 151t74 103.5t116.5 37.5q66 0 114 -37.5t73.5 -104t25.5 -150.5q0 -85 -25.5 -151t-73.5 -103.5t-114 -37.5q-68 0 -116.5 37.5zM292.5 157q15.5 38 15.5 123q0 84 -15.5 122t-47.5 38q-33 0 -48 -38t-15 -122
q0 -85 15 -123t48 -38q32 0 47.5 38zM99 598l17 140h154l-63 -140h-108zM269 598l47 140h154l-93 -140h-108z" />
    <glyph glyph-name="omacron" unicode="&#x14d;" horiz-adv-x="489" 
d="M129.5 25.5q-48.5 37.5 -74 103.5t-25.5 151t25.5 151t74 103.5t116.5 37.5q66 0 114 -37.5t73.5 -104t25.5 -150.5q0 -85 -25.5 -151t-73.5 -103.5t-114 -37.5q-68 0 -116.5 37.5zM292.5 157q15.5 38 15.5 123q0 84 -15.5 122t-47.5 38q-33 0 -48 -38t-15 -122
q0 -85 15 -123t48 -38q32 0 47.5 38zM137 738h215v-112h-215v112z" />
    <glyph glyph-name="oslash" unicode="&#xf8;" horiz-adv-x="489" 
d="M459 280q0 -85 -25.5 -151t-73.5 -103.5t-114 -37.5q-72 0 -123 42l-19 -30l-59 37l31 48q-46 78 -46 195q0 85 25.5 151t74 103.5t116.5 37.5q70 0 120 -42l20 30l59 -37l-32 -49q46 -78 46 -194zM175 237l118 180q-18 28 -48 28q-36 0 -53.5 -39t-17.5 -126
q0 -30 1 -43zM298.5 153q17.5 39 17.5 127q0 30 -1 43l-118 -181q16 -28 48 -28q36 0 53.5 39z" />
    <glyph glyph-name="otilde" unicode="&#xf5;" horiz-adv-x="489" 
d="M129.5 25.5q-48.5 37.5 -74 103.5t-25.5 151t25.5 151t74 103.5t116.5 37.5q66 0 114 -37.5t73.5 -104t25.5 -150.5q0 -85 -25.5 -151t-73.5 -103.5t-114 -37.5q-68 0 -116.5 37.5zM292.5 157q15.5 38 15.5 123q0 84 -15.5 122t-47.5 38q-33 0 -48 -38t-15 -122
q0 -85 15 -123t48 -38q32 0 47.5 38zM126 678q9 31 27 45.5t39 14.5q19 0 33 -6t29 -17q14 -12 23 -12q8 0 11.5 8.5t3.5 26.5h81q0 -65 -12 -95q-19 -49 -63 -49q-19 0 -33 6t-29 17q-14 12 -23 12q-8 0 -11.5 -8.5t-3.5 -26.5h-81q0 54 9 84z" />
    <glyph glyph-name="oe" unicode="&#x153;" horiz-adv-x="721" 
d="M693 240h-223q2 -45 11.5 -69t30.5 -34t59 -10q41 0 89 19v-131q-28 -11 -55 -16.5t-64 -5.5q-103 0 -154 78q-26 -40 -63 -61.5t-83 -21.5q-100 0 -155.5 80.5t-55.5 211.5q0 85 24.5 151t72 103.5t114.5 37.5q46 0 83 -21.5t63 -61.5q25 40 61 61.5t80 21.5
q80 0 123 -74.5t43 -219.5q0 -22 -1 -38zM292.5 157q15.5 38 15.5 123q0 84 -15.5 122t-47.5 38q-33 0 -48 -38t-15 -122q0 -85 15 -123t48 -38q32 0 47.5 38zM484 413q-10 -22 -13 -74h78q-1 53 -9 74.5t-25 21.5q-21 0 -31 -22z" />
    <glyph glyph-name="p" unicode="p" horiz-adv-x="506" 
d="M395.5 538.5q37.5 -33.5 59 -99t21.5 -159.5t-21.5 -159.5t-59 -99t-87.5 -33.5q-77 0 -110 62v-210h-148v720h143v-60q33 72 115 72q50 0 87.5 -33.5zM308.5 152.5q15.5 39.5 15.5 127.5t-15.5 127.5t-47.5 39.5q-33 0 -48 -39t-15 -128t15 -128t48 -39q32 0 47.5 39.5z
" />
    <glyph glyph-name="thorn" unicode="&#xfe;" horiz-adv-x="506" 
d="M395.5 538.5q37.5 -33.5 59 -99t21.5 -159.5t-21.5 -159.5t-59 -99t-87.5 -33.5q-77 0 -110 62v-210h-148v898h148v-228q33 62 110 62q50 0 87.5 -33.5zM308.5 152.5q15.5 39.5 15.5 127.5t-15.5 127.5t-47.5 39.5q-33 0 -48 -39t-15 -128t15 -128t48 -39q32 0 47.5 39.5
z" />
    <glyph glyph-name="q" unicode="q" horiz-adv-x="506" 
d="M456 560v-720h-148v210q-33 -62 -110 -62q-50 0 -87.5 33.5t-59 99t-21.5 159.5t21.5 159.5t59 99t87.5 33.5q82 0 115 -72v60h143zM293 152q15 39 15 128t-15 128t-48 39q-32 0 -47.5 -39.5t-15.5 -127.5t15.5 -127.5t47.5 -39.5q33 0 48 39z" />
    <glyph glyph-name="r" unicode="r" horiz-adv-x="337" 
d="M323 569v-181q-18 3 -35 3q-42 0 -66 -20t-24 -60v-311h-148v560h143v-121q29 123 130 130z" />
    <glyph glyph-name="racute" unicode="&#x155;" horiz-adv-x="337" 
d="M323 569v-181q-18 3 -35 3q-42 0 -66 -20t-24 -60v-311h-148v560h143v-121q29 123 130 130zM133 608l47 130h164l-103 -130h-108z" />
    <glyph glyph-name="rcaron" unicode="&#x159;" horiz-adv-x="337" 
d="M323 569v-181q-18 3 -35 3q-42 0 -66 -20t-24 -60v-311h-148v560h143v-121q29 123 130 130zM231 738h96l-57 -130h-155l-57 130h94l40 -54z" />
    <glyph glyph-name="rcommaaccent" unicode="&#x157;" horiz-adv-x="337" 
d="M323 569v-181q-18 3 -35 3q-42 0 -66 -20t-24 -60v-311h-148v560h143v-121q29 123 130 130zM182 -58.5q22 -21.5 22 -60.5q0 -48 -28 -83t-93 -35q-18 0 -39 3v50q16 -3 28 -3q15 0 23.5 4.5t10.5 16.5h-1q-29 0 -45 17t-16 42q0 29 21 49.5t57 20.5q38 0 60 -21.5z" />
    <glyph glyph-name="s" unicode="s" horiz-adv-x="327" 
d="M31 3v121q42 -15 84 -15q57 0 57 43q0 21 -12.5 40t-47.5 46q-52 42 -73 79.5t-21 86.5q0 46 21.5 84.5t62.5 61t95 22.5q51 0 85 -15v-121q-34 17 -67 17q-26 0 -41 -13t-15 -34q0 -22 12.5 -41t48.5 -49q50 -41 71 -79t21 -85q0 -79 -48 -121.5t-127 -42.5
q-54 0 -106 15z" />
    <glyph glyph-name="sacute" unicode="&#x15b;" horiz-adv-x="327" 
d="M31 3v121q42 -15 84 -15q57 0 57 43q0 21 -12.5 40t-47.5 46q-52 42 -73 79.5t-21 86.5q0 46 21.5 84.5t62.5 61t95 22.5q51 0 85 -15v-121q-34 17 -67 17q-26 0 -41 -13t-15 -34q0 -22 12.5 -41t48.5 -49q50 -41 71 -79t21 -85q0 -79 -48 -121.5t-127 -42.5
q-54 0 -106 15zM120 608l47 130h164l-103 -130h-108z" />
    <glyph glyph-name="scaron" unicode="&#x161;" horiz-adv-x="327" 
d="M31 3v121q42 -15 84 -15q57 0 57 43q0 21 -12.5 40t-47.5 46q-52 42 -73 79.5t-21 86.5q0 46 21.5 84.5t62.5 61t95 22.5q51 0 85 -15v-121q-34 17 -67 17q-26 0 -41 -13t-15 -34q0 -22 12.5 -41t48.5 -49q50 -41 71 -79t21 -85q0 -79 -48 -121.5t-127 -42.5
q-54 0 -106 15zM218 738h96l-57 -130h-155l-57 130h94l40 -54z" />
    <glyph glyph-name="scedilla" unicode="&#x15f;" horiz-adv-x="327" 
d="M31 3v121q42 -15 84 -15q57 0 57 43q0 21 -12.5 40t-47.5 46q-52 42 -73 79.5t-21 86.5q0 46 21.5 84.5t62.5 61t95 22.5q51 0 85 -15v-121q-34 17 -67 17q-26 0 -41 -13t-15 -34q0 -22 12.5 -41t48.5 -49q50 -41 71 -79t21 -85q0 -79 -48 -121.5t-127 -42.5
q-54 0 -106 15zM58 -184l28 144h134l-54 -144h-108z" />
    <glyph glyph-name="scircumflex" unicode="&#x15d;" horiz-adv-x="327" 
d="M31 3v121q42 -15 84 -15q57 0 57 43q0 21 -12.5 40t-47.5 46q-52 42 -73 79.5t-21 86.5q0 46 21.5 84.5t62.5 61t95 22.5q51 0 85 -15v-121q-34 17 -67 17q-26 0 -41 -13t-15 -34q0 -22 12.5 -41t48.5 -49q50 -41 71 -79t21 -85q0 -79 -48 -121.5t-127 -42.5
q-54 0 -106 15zM314 608h-94l-39 54l-40 -54h-96l57 130h155z" />
    <glyph glyph-name="scommaaccent" unicode="&#x219;" horiz-adv-x="327" 
d="M31 3v121q42 -15 84 -15q57 0 57 43q0 21 -12.5 40t-47.5 46q-52 42 -73 79.5t-21 86.5q0 46 21.5 84.5t62.5 61t95 22.5q51 0 85 -15v-121q-34 17 -67 17q-26 0 -41 -13t-15 -34q0 -22 12.5 -41t48.5 -49q50 -41 71 -79t21 -85q0 -79 -48 -121.5t-127 -42.5
q-54 0 -106 15zM213 -58.5q22 -21.5 22 -60.5q0 -48 -28 -83t-93 -35q-18 0 -39 3v50q16 -3 28 -3q15 0 23.5 4.5t10.5 16.5h-1q-29 0 -45 17t-16 42q0 29 21 49.5t57 20.5q38 0 60 -21.5z" />
    <glyph glyph-name="germandbls" unicode="&#xdf;" horiz-adv-x="519" 
d="M460 328.5q29 -47.5 29 -132.5q0 -100 -44 -154t-121 -54q-41 0 -86 10v120q16 -6 27.5 -7.5t27.5 -1.5q30 0 43 22t13 75q0 63 -19 93.5t-75 34.5v103q34 10 46.5 33t12.5 61q0 103 -57 103q-31 0 -45 -24t-14 -73v-537h-148v539q0 95 53 153t151 58q90 0 144 -53
t54 -152q0 -50 -18 -90.5t-56 -60.5q53 -18 82 -65.5z" />
    <glyph glyph-name="t" unicode="t" horiz-adv-x="332" 
d="M213 439v-256q0 -31 13 -45.5t43 -14.5q21 0 43 5v-128q-30 -6 -66 -6q-90 0 -135.5 44t-45.5 137v264h-50v121h50v102h148v-102h99v-121h-99z" />
    <glyph glyph-name="tbar" unicode="&#x167;" horiz-adv-x="332" 
d="M213 439v-105h75v-84h-75v-67q0 -31 13 -45.5t43 -14.5q21 0 43 5v-128q-30 -6 -66 -6q-90 0 -135.5 44t-45.5 137v75h-43v84h43v105h-50v121h50v102h148v-102h99v-121h-99z" />
    <glyph glyph-name="tcaron" unicode="&#x165;" horiz-adv-x="332" 
d="M213 439v-256q0 -31 13 -45.5t43 -14.5q21 0 43 5v-128q-30 -6 -66 -6q-90 0 -135.5 44t-45.5 137v264h-50v121h50v102h148v-102h99v-121h-99zM243 590v148h122l-36 -148h-86z" />
    <glyph glyph-name="uni0163" unicode="&#x163;" horiz-adv-x="332" 
d="M213 439v-256q0 -31 13 -45.5t43 -14.5q21 0 43 5v-128q-30 -6 -66 -6q-90 0 -135.5 44t-45.5 137v264h-50v121h50v102h148v-102h99v-121h-99zM271 -58.5q22 -21.5 22 -60.5q0 -48 -28 -83t-93 -35q-18 0 -39 3v50q16 -3 28 -3q15 0 23.5 4.5t10.5 16.5h-1q-29 0 -45 17
t-16 42q0 29 21 49.5t57 20.5q38 0 60 -21.5z" />
    <glyph glyph-name="uni021B" unicode="&#x21b;" horiz-adv-x="332" 
d="M213 439v-256q0 -31 13 -45.5t43 -14.5q21 0 43 5v-128q-30 -6 -66 -6q-90 0 -135.5 44t-45.5 137v264h-50v121h50v102h148v-102h99v-121h-99zM271 -58.5q22 -21.5 22 -60.5q0 -48 -28 -83t-93 -35q-18 0 -39 3v50q16 -3 28 -3q15 0 23.5 4.5t10.5 16.5h-1q-29 0 -45 17
t-16 42q0 29 21 49.5t57 20.5q38 0 60 -21.5z" />
    <glyph glyph-name="u" unicode="u" horiz-adv-x="498" 
d="M448 560v-560h-143v79q-34 -91 -125 -91q-71 0 -103 50.5t-32 138.5v383h148v-361q0 -37 12 -54.5t39 -17.5q28 0 42 19.5t14 54.5v359h148z" />
    <glyph glyph-name="uacute" unicode="&#xfa;" horiz-adv-x="498" 
d="M448 560v-560h-143v79q-34 -91 -125 -91q-71 0 -103 50.5t-32 138.5v383h148v-361q0 -37 12 -54.5t39 -17.5q28 0 42 19.5t14 54.5v359h148zM180 608l47 130h164l-103 -130h-108z" />
    <glyph glyph-name="ubreve" unicode="&#x16d;" horiz-adv-x="498" 
d="M448 560v-560h-143v79q-34 -91 -125 -91q-71 0 -103 50.5t-32 138.5v383h148v-361q0 -37 12 -54.5t39 -17.5q28 0 42 19.5t14 54.5v359h148zM153 634q-32 30 -33 104h91q1 -21 7.5 -27t21.5 -6t21.5 6t7.5 27h91q-1 -74 -33 -104t-87 -30t-87 30z" />
    <glyph glyph-name="ucircumflex" unicode="&#xfb;" horiz-adv-x="498" 
d="M448 560v-560h-143v79q-34 -91 -125 -91q-71 0 -103 50.5t-32 138.5v383h148v-361q0 -37 12 -54.5t39 -17.5q28 0 42 19.5t14 54.5v359h148zM374 608h-94l-39 54l-40 -54h-96l57 130h155z" />
    <glyph glyph-name="udieresis" unicode="&#xfc;" horiz-adv-x="498" 
d="M448 560v-560h-143v79q-34 -91 -125 -91q-71 0 -103 50.5t-32 138.5v383h148v-361q0 -37 12 -54.5t39 -17.5q28 0 42 19.5t14 54.5v359h148zM105 621q-19 22 -19 54t19 53.5t50 21.5q32 0 51 -21.5t19 -53.5t-19 -54t-51 -22q-31 0 -50 22zM274 621q-19 22 -19 54
t19 53.5t50 21.5q32 0 51 -21.5t19 -53.5q0 -33 -19 -54.5t-51 -21.5q-31 0 -50 22z" />
    <glyph glyph-name="ugrave" unicode="&#xf9;" horiz-adv-x="498" 
d="M448 560v-560h-143v79q-34 -91 -125 -91q-71 0 -103 50.5t-32 138.5v383h148v-361q0 -37 12 -54.5t39 -17.5q28 0 42 19.5t14 54.5v359h148zM300 608h-108l-103 130h164z" />
    <glyph glyph-name="uhungarumlaut" unicode="&#x171;" horiz-adv-x="498" 
d="M448 560v-560h-143v79q-34 -91 -125 -91q-71 0 -103 50.5t-32 138.5v383h148v-361q0 -37 12 -54.5t39 -17.5q28 0 42 19.5t14 54.5v359h148zM94 598l17 140h154l-63 -140h-108zM264 598l47 140h154l-93 -140h-108z" />
    <glyph glyph-name="umacron" unicode="&#x16b;" horiz-adv-x="498" 
d="M448 560v-560h-143v79q-34 -91 -125 -91q-71 0 -103 50.5t-32 138.5v383h148v-361q0 -37 12 -54.5t39 -17.5q28 0 42 19.5t14 54.5v359h148zM132 738h215v-112h-215v112z" />
    <glyph glyph-name="uogonek" unicode="&#x173;" horiz-adv-x="498" 
d="M454 -78v-88q-34 -14 -73 -14q-54 0 -81 21.5t-27 61.5q0 26 12.5 48t44.5 49h-25v79q-34 -91 -125 -91q-71 0 -103 50.5t-32 138.5v383h148v-361q0 -37 12 -54.5t39 -17.5q28 0 42 19.5t14 54.5v359h148v-560h-43q-18 -21 -24.5 -33.5t-6.5 -25.5q0 -28 35 -28
q20 0 45 9z" />
    <glyph glyph-name="uring" unicode="&#x16f;" horiz-adv-x="498" 
d="M448 560v-560h-143v79q-34 -91 -125 -91q-71 0 -103 50.5t-32 138.5v383h148v-361q0 -37 12 -54.5t39 -17.5q28 0 42 19.5t14 54.5v359h148zM159.5 634q-31.5 30 -31.5 77q0 46 31.5 76t80.5 30t80 -30t31 -76q0 -47 -31 -77t-80 -30t-80.5 30zM265.5 681.5
q9.5 11.5 9.5 29.5q0 17 -9.5 28.5t-25.5 11.5q-17 0 -26.5 -11.5t-9.5 -28.5q0 -18 9.5 -29.5t26.5 -11.5q16 0 25.5 11.5z" />
    <glyph glyph-name="utilde" unicode="&#x169;" horiz-adv-x="498" 
d="M448 560v-560h-143v79q-34 -91 -125 -91q-71 0 -103 50.5t-32 138.5v383h148v-361q0 -37 12 -54.5t39 -17.5q28 0 42 19.5t14 54.5v359h148zM121 678q9 31 27 45.5t39 14.5q19 0 33 -6t29 -17q14 -12 23 -12q8 0 11.5 8.5t3.5 26.5h81q0 -65 -12 -95q-19 -49 -63 -49
q-19 0 -33 6t-29 17q-14 12 -23 12q-8 0 -11.5 -8.5t-3.5 -26.5h-81q0 54 9 84z" />
    <glyph glyph-name="v" unicode="v" horiz-adv-x="447" 
d="M283 560h154l-111 -560h-205l-111 560h156l59 -416z" />
    <glyph glyph-name="w" unicode="w" horiz-adv-x="685" 
d="M516 560h152l-89 -560h-189l-48 350l-47 -350h-189l-89 560h152l39 -411l54 411h161l56 -411z" />
    <glyph glyph-name="wacute" unicode="&#x1e83;" horiz-adv-x="685" 
d="M516 560h152l-89 -560h-189l-48 350l-47 -350h-189l-89 560h152l39 -411l54 411h161l56 -411zM283 608l47 130h164l-103 -130h-108z" />
    <glyph glyph-name="wcircumflex" unicode="&#x175;" horiz-adv-x="685" 
d="M516 560h152l-89 -560h-189l-48 350l-47 -350h-189l-89 560h152l39 -411l54 411h161l56 -411zM477 608h-94l-39 54l-40 -54h-96l57 130h155z" />
    <glyph glyph-name="wdieresis" unicode="&#x1e85;" horiz-adv-x="685" 
d="M516 560h152l-89 -560h-189l-48 350l-47 -350h-189l-89 560h152l39 -411l54 411h161l56 -411zM208 621q-19 22 -19 54t19 53.5t50 21.5q32 0 51 -21.5t19 -53.5t-19 -54t-51 -22q-31 0 -50 22zM377 621q-19 22 -19 54t19 53.5t50 21.5q32 0 51 -21.5t19 -53.5
q0 -33 -19 -54.5t-51 -21.5q-31 0 -50 22z" />
    <glyph glyph-name="wgrave" unicode="&#x1e81;" horiz-adv-x="685" 
d="M516 560h152l-89 -560h-189l-48 350l-47 -350h-189l-89 560h152l39 -411l54 411h161l56 -411zM403 608h-108l-103 130h164z" />
    <glyph glyph-name="x" unicode="x" horiz-adv-x="413" 
d="M408 0h-155l-51 170l-48 -170h-147l115 279l-117 281h155l48 -156l43 156h148l-112 -269z" />
    <glyph glyph-name="y" unicode="y" horiz-adv-x="446" 
d="M436 560l-106 -560q-17 -91 -64 -138t-133 -47q-36 0 -66 6v114q21 -6 44 -6q31 0 46.5 14.5t21.5 56.5h-57l-112 560h155l63 -416l54 416h154z" />
    <glyph glyph-name="yacute" unicode="&#xfd;" horiz-adv-x="446" 
d="M436 560l-106 -560q-17 -91 -64 -138t-133 -47q-36 0 -66 6v114q21 -6 44 -6q31 0 46.5 14.5t21.5 56.5h-57l-112 560h155l63 -416l54 416h154zM163 608l47 130h164l-103 -130h-108z" />
    <glyph glyph-name="ycircumflex" unicode="&#x177;" horiz-adv-x="446" 
d="M436 560l-106 -560q-17 -91 -64 -138t-133 -47q-36 0 -66 6v114q21 -6 44 -6q31 0 46.5 14.5t21.5 56.5h-57l-112 560h155l63 -416l54 416h154zM357 608h-94l-39 54l-40 -54h-96l57 130h155z" />
    <glyph glyph-name="ydieresis" unicode="&#xff;" horiz-adv-x="446" 
d="M436 560l-106 -560q-17 -91 -64 -138t-133 -47q-36 0 -66 6v114q21 -6 44 -6q31 0 46.5 14.5t21.5 56.5h-57l-112 560h155l63 -416l54 416h154zM88 621q-19 22 -19 54t19 53.5t50 21.5q32 0 51 -21.5t19 -53.5t-19 -54t-51 -22q-31 0 -50 22zM257 621q-19 22 -19 54
t19 53.5t50 21.5q32 0 51 -21.5t19 -53.5q0 -33 -19 -54.5t-51 -21.5q-31 0 -50 22z" />
    <glyph glyph-name="ygrave" unicode="&#x1ef3;" horiz-adv-x="446" 
d="M436 560l-106 -560q-17 -91 -64 -138t-133 -47q-36 0 -66 6v114q21 -6 44 -6q31 0 46.5 14.5t21.5 56.5h-57l-112 560h155l63 -416l54 416h154zM283 608h-108l-103 130h164z" />
    <glyph glyph-name="z" unicode="z" horiz-adv-x="341" 
d="M318 560v-90l-142 -348h142v-122h-298v90l143 349h-141v121h296z" />
    <glyph glyph-name="zacute" unicode="&#x17a;" horiz-adv-x="341" 
d="M318 560v-90l-142 -348h142v-122h-298v90l143 349h-141v121h296zM108 608l47 130h164l-103 -130h-108z" />
    <glyph glyph-name="zcaron" unicode="&#x17e;" horiz-adv-x="341" 
d="M318 560v-90l-142 -348h142v-122h-298v90l143 349h-141v121h296zM206 738h96l-57 -130h-155l-57 130h94l40 -54z" />
    <glyph glyph-name="zdotaccent" unicode="&#x17c;" horiz-adv-x="341" 
d="M318 560v-90l-142 -348h142v-122h-298v90l143 349h-141v121h296zM108.5 622q-21.5 22 -21.5 54t21.5 53t58.5 21q38 0 59.5 -20.5t21.5 -53.5t-21.5 -54.5t-59.5 -21.5q-37 0 -58.5 22z" />
    <glyph glyph-name="f_i" horiz-adv-x="574" 
d="M227 618q-14 -16 -14 -46v-12h99v-121h-99v-439h-148v439h-50v121h50v14q0 80 46.5 125.5t134.5 45.5q36 0 66 -6v-110q-20 5 -40 5q-31 0 -45 -16zM386 608q-24 22 -24 60t24 60t64 22t64 -22t24 -60t-24 -60t-64 -22t-64 22zM376 0v560h148v-560h-148z" />
    <glyph glyph-name="f_l" horiz-adv-x="574" 
d="M227 618q-14 -16 -14 -46v-12h99v-121h-99v-439h-148v439h-50v121h50v14q0 80 46.5 125.5t134.5 45.5q36 0 66 -6v-110q-20 5 -40 5q-31 0 -45 -16zM376 0v738h148v-738h-148z" />
    <glyph glyph-name="ordfeminine" unicode="&#xaa;" horiz-adv-x="330" 
d="M263 714.5q34 -35.5 34 -102.5v-264h-110v31q-21 -35 -67 -35q-48 0 -75 32t-27 83q0 131 140 138l25 1v18q0 16 -12.5 23.5t-38.5 7.5q-44 0 -89 -26l1 104q46 25 107 25q78 0 112 -35.5zM177.5 434.5q5.5 7.5 5.5 24.5v57h-7q-24 -2 -34 -13t-10 -39q0 -17 6.5 -27
t18.5 -10q15 0 20.5 7.5z" />
    <glyph glyph-name="ordmasculine" unicode="&#xba;" horiz-adv-x="367" 
d="M65 396q-43 57 -43 148q0 92 43 149t120 57q75 0 117.5 -57.5t42.5 -147.5q0 -91 -43 -148.5t-117 -57.5q-77 0 -120 57zM218 463.5q11 24.5 11 81.5q0 55 -11 79.5t-34 24.5q-24 0 -34.5 -24.5t-10.5 -80.5t10.5 -80.5t34.5 -24.5q23 0 34 24.5z" />
    <glyph glyph-name="uni0394" unicode="&#x394;" horiz-adv-x="526" 
d="M342 738l177 -738h-512l176 738h159zM183 128h150l-73 372z" />
    <glyph glyph-name="uni03A9" unicode="&#x3a9;" horiz-adv-x="552" 
d="M438 138h74v-138h-210v124q34 64 44.5 121t10.5 164q0 78 -9 120.5t-26 59t-46 16.5t-46 -16.5t-26 -59t-9 -120.5q0 -107 10.5 -164t44.5 -121v-124h-210v138h74q-81 114 -81 281q0 169 62.5 250t180.5 81t180.5 -81t62.5 -250q0 -167 -81 -281z" />
    <glyph glyph-name="uni03BC" unicode="&#x3bc;" horiz-adv-x="503" 
d="M453 560v-560h-143v52q-21 -64 -63 -64q-33 0 -49 31v-179h-148v720h148v-361q0 -37 12 -54.5t39 -17.5q28 0 42 19.5t14 54.5v359h148z" />
    <glyph glyph-name="zero" unicode="0" horiz-adv-x="557" 
d="M148 37q-56 49 -85.5 135.5t-29.5 196.5t29.5 196.5t85.5 135.5t131 49t130.5 -49t85 -135.5t29.5 -196.5t-29.5 -196.5t-85 -135.5t-130.5 -49t-131 49zM343 189q23 60 23 180t-23 180t-64 60q-42 0 -65 -60t-23 -180t23 -180t65 -60q41 0 64 60z" />
    <glyph glyph-name="one" unicode="1" horiz-adv-x="338" 
d="M166 738h112v-738h-152v571l-108 -44v151z" />
    <glyph glyph-name="two" unicode="2" horiz-adv-x="379" 
d="M356 138v-138h-330l-1 110l120 239q27 52 41 101.5t14 81.5q0 79 -75 79q-50 0 -101 -34v135q64 35 140 35q89 0 139 -52.5t50 -148.5q0 -54 -20.5 -115t-67.5 -152l-74 -141h165z" />
    <glyph glyph-name="three" unicode="3" horiz-adv-x="379" 
d="M333 315.5q29 -46.5 29 -105.5q0 -71 -27 -120.5t-73.5 -74t-104.5 -24.5q-69 0 -131 34v136q51 -32 103 -32q38 0 56.5 18.5t18.5 67.5q0 56 -22.5 79t-63.5 23h-30v124h21q86 0 86 91q0 42 -17 60.5t-53 18.5q-50 0 -101 -34v137q61 33 135 33q86 0 137.5 -53
t51.5 -148q0 -57 -24.5 -99.5t-70.5 -64.5q51 -20 80 -66.5z" />
    <glyph glyph-name="four" unicode="4" horiz-adv-x="492" 
d="M474 268v-138h-63v-130h-151v130h-242v119l205 489h188v-470h63zM160 268h100v248z" />
    <glyph glyph-name="five" unicode="5" horiz-adv-x="407" 
d="M336 408.5q48 -63.5 48 -167.5q0 -82 -27 -138.5t-74 -84t-106 -27.5q-67 0 -135 35v141q57 -32 101 -32q83 0 83 109q0 57 -30 81.5t-85 24.5q-14 0 -56 -3v391h309v-134h-178v-131q102 -1 150 -64.5z" />
    <glyph glyph-name="six" unicode="6" horiz-adv-x="497" 
d="M388.5 459q40.5 -29 63 -84t22.5 -130q0 -123 -58 -190t-160 -67q-85 0 -137 49q-86 82 -86 304q0 208 68 307t207 99q61 0 109 -17v-132q-43 18 -85 18q-67 0 -104 -37t-44 -140q39 49 111 49q53 0 93.5 -29zM316 237q0 130 -62 130q-32 0 -47 -31.5t-15 -98.5
q0 -68 23 -97q15 -20 41 -20q60 0 60 117z" />
    <glyph glyph-name="seven" unicode="7" horiz-adv-x="365" 
d="M18 738h329v-119l-143 -619h-150l151 604h-187v134z" />
    <glyph glyph-name="eight" unicode="8" horiz-adv-x="488" 
d="M443.5 316q27.5 -46 27.5 -106q0 -108 -60.5 -163t-166.5 -55q-108 0 -167.5 55.5t-59.5 162.5q0 61 27.5 106.5t80.5 65.5q-48 21 -71 63t-23 101q0 98 57.5 149t155.5 51t155.5 -52t57.5 -148q0 -59 -23 -101t-71 -63q53 -20 80.5 -66zM179 532q0 -41 17 -64.5
t48 -23.5q30 0 47.5 23.5t17.5 64.5q0 45 -16.5 67.5t-48.5 22.5q-65 0 -65 -90zM318 223q0 47 -19.5 70t-54.5 23q-74 0 -74 -97q0 -104 74 -104t74 108z" />
    <glyph glyph-name="nine" unicode="9" horiz-adv-x="497" 
d="M464 397q0 -208 -68 -307t-207 -99q-61 0 -109 17v132q43 -18 85 -18q67 0 104 37t44 140q-39 -49 -111 -49q-53 0 -93.5 29t-63 84t-22.5 130q0 123 58 190t160 67q85 0 137 -49q86 -82 86 -304zM290 402.5q15 31.5 15 98.5q0 68 -23 97q-15 20 -41 20q-60 0 -60 -117
q0 -130 62 -130q32 0 47 31.5z" />
    <glyph glyph-name="zero.inferior" unicode="&#x2080;" horiz-adv-x="415" 
d="M80 -94q-47 64 -47 165q0 102 47 166t128 64t127.5 -64.5t46.5 -165.5t-46.5 -165t-127.5 -64t-128 64zM257 71q0 119 -49 119q-50 0 -50 -119q0 -62 12.5 -90.5t37.5 -28.5q49 0 49 119z" />
    <glyph glyph-name="one.inferior" unicode="&#x2081;" horiz-adv-x="267" 
d="M118 293h89v-443h-121v318l-68 -18v117z" />
    <glyph glyph-name="two.inferior" unicode="&#x2082;" horiz-adv-x="281" 
d="M258 -41v-109h-233v84l81 142q12 22 19.5 47t7.5 36q0 19 -11 25t-33 6q-28 0 -65 -17v107q48 19 96 19q64 0 100 -32.5t36 -92.5q0 -57 -49 -141l-44 -74h95z" />
    <glyph glyph-name="three.inferior" unicode="&#x2083;" horiz-adv-x="275" 
d="M239.5 40q18.5 -27 18.5 -60q0 -64 -40.5 -100.5t-103.5 -36.5q-43 0 -88 18v109q35 -16 66 -16q22 0 31.5 8t9.5 27q0 22 -11 31t-39 9h-18v98h11q29 0 40 7.5t11 25.5q0 16 -9 23t-30 7q-31 0 -64 -16v108q44 17 92 17q61 0 97 -32t36 -90q0 -33 -15 -58t-46 -38
q33 -14 51.5 -41z" />
    <glyph glyph-name="four.inferior" unicode="&#x2084;" horiz-adv-x="358" 
d="M340 27v-107h-41v-70h-120v70h-161v92l130 281h151v-266h41zM189 179l-65 -152h65v152z" />
    <glyph glyph-name="five.inferior" unicode="&#x2085;" horiz-adv-x="303" 
d="M250.5 95q29.5 -38 29.5 -98q0 -72 -41 -113t-105 -41q-45 0 -92 21v112q37 -18 65 -18q23 0 35.5 9.5t12.5 32.5q0 27 -18.5 34.5t-56.5 7.5q-16 0 -30 -2v253h217l1 -106h-112v-50q65 -4 94.5 -42z" />
    <glyph glyph-name="six.inferior" unicode="&#x2086;" horiz-adv-x="369" 
d="M312.5 104.5q33.5 -37.5 33.5 -106.5q0 -75 -41 -115.5t-113 -40.5q-38 0 -64.5 8.5t-46.5 30.5q-48 54 -48 177q0 122 48 181.5t149 59.5q39 0 74 -8v-104q-30 8 -56 8q-45 0 -67.5 -13t-27.5 -57q25 17 71 17q55 0 88.5 -37.5zM214 -45q7 11 7 37q0 29 -7.5 41.5
t-23.5 12.5q-18 0 -24.5 -13.5t-6.5 -43.5q0 -26 9 -37q7 -8 23 -8t23 11z" />
    <glyph glyph-name="seven.inferior" unicode="&#x2087;" horiz-adv-x="266" 
d="M19 293h229v-92l-94 -351h-120l97 337h-113z" />
    <glyph glyph-name="eight.inferior" unicode="&#x2088;" horiz-adv-x="356" 
d="M321 39.5q18 -26.5 18 -59.5q0 -69 -42.5 -102t-118.5 -33q-77 0 -119 33t-42 102q0 33 18 59.5t54 40.5q-63 28 -63 96q0 61 40.5 91.5t111.5 30.5q70 0 111 -31t41 -91q0 -68 -63 -95q36 -15 54 -41.5zM152 193q-8 -9 -8 -29q0 -16 9 -25.5t25 -9.5q15 0 24.5 9.5
t9.5 25.5q0 21 -8 29.5t-26 8.5t-26 -9zM208 -49q9 11 9 40q0 38 -39 38t-39 -42q0 -26 9.5 -36.5t29.5 -10.5q21 0 30 11z" />
    <glyph glyph-name="nine.inferior" unicode="&#x2089;" horiz-adv-x="369" 
d="M336 85q0 -122 -48 -181.5t-149 -59.5q-39 0 -74 8v104q30 -8 56 -8q45 0 67.5 13t27.5 57q-25 -17 -71 -17q-55 0 -88.5 37.5t-33.5 106.5q0 75 41 115.5t113 40.5q38 0 64.5 -8.5t46.5 -30.5q48 -54 48 -177zM203.5 110.5q6.5 13.5 6.5 43.5q0 27 -9 37q-7 8 -23 8
t-23 -11t-7 -37q0 -29 7.5 -41.5t23.5 -12.5q18 0 24.5 13.5z" />
    <glyph glyph-name="zero.dnom" horiz-adv-x="415" 
d="M80 56q-47 64 -47 165q0 102 47 166t128 64t127.5 -64.5t46.5 -165.5t-46.5 -165t-127.5 -64t-128 64zM257 221q0 119 -49 119q-50 0 -50 -119q0 -62 12.5 -90.5t37.5 -28.5q49 0 49 119z" />
    <glyph glyph-name="one.dnom" horiz-adv-x="267" 
d="M118 443h89v-443h-121v318l-68 -18v117z" />
    <glyph glyph-name="two.dnom" horiz-adv-x="281" 
d="M258 109v-109h-233v84l81 142q12 22 19.5 47t7.5 36q0 19 -11 25t-33 6q-28 0 -65 -17v107q48 19 96 19q64 0 100 -32.5t36 -92.5q0 -57 -49 -141l-44 -74h95z" />
    <glyph glyph-name="three.dnom" horiz-adv-x="275" 
d="M239.5 190q18.5 -27 18.5 -60q0 -64 -40.5 -100.5t-103.5 -36.5q-43 0 -88 18v109q35 -16 66 -16q22 0 31.5 8t9.5 27q0 22 -11 31t-39 9h-18v98h11q29 0 40 7.5t11 25.5q0 16 -9 23t-30 7q-31 0 -64 -16v108q44 17 92 17q61 0 97 -32t36 -90q0 -33 -15 -58t-46 -38
q33 -14 51.5 -41z" />
    <glyph glyph-name="four.dnom" horiz-adv-x="358" 
d="M340 177v-107h-41v-70h-120v70h-161v92l130 281h151v-266h41zM189 329l-65 -152h65v152z" />
    <glyph glyph-name="five.dnom" horiz-adv-x="303" 
d="M250.5 245q29.5 -38 29.5 -98q0 -72 -41 -113t-105 -41q-45 0 -92 21v112q37 -18 65 -18q23 0 35.5 9.5t12.5 32.5q0 27 -18.5 34.5t-56.5 7.5q-16 0 -30 -2v253h217l1 -106h-112v-50q65 -4 94.5 -42z" />
    <glyph glyph-name="six.dnom" horiz-adv-x="369" 
d="M312.5 254.5q33.5 -37.5 33.5 -106.5q0 -75 -41 -115.5t-113 -40.5q-38 0 -64.5 8.5t-46.5 30.5q-48 54 -48 177q0 122 48 181.5t149 59.5q39 0 74 -8v-104q-30 8 -56 8q-45 0 -67.5 -13t-27.5 -57q25 17 71 17q55 0 88.5 -37.5zM214 105q7 11 7 37q0 29 -7.5 41.5
t-23.5 12.5q-18 0 -24.5 -13.5t-6.5 -43.5q0 -26 9 -37q7 -8 23 -8t23 11z" />
    <glyph glyph-name="seven.dnom" horiz-adv-x="266" 
d="M19 443h229v-92l-94 -351h-120l97 337h-113z" />
    <glyph glyph-name="eight.dnom" horiz-adv-x="356" 
d="M321 189.5q18 -26.5 18 -59.5q0 -69 -42.5 -102t-118.5 -33q-77 0 -119 33t-42 102q0 33 18 59.5t54 40.5q-63 28 -63 96q0 61 40.5 91.5t111.5 30.5q70 0 111 -31t41 -91q0 -68 -63 -95q36 -15 54 -41.5zM152 343q-8 -9 -8 -29q0 -16 9 -25.5t25 -9.5q15 0 24.5 9.5
t9.5 25.5q0 21 -8 29.5t-26 8.5t-26 -9zM208 101q9 11 9 40q0 38 -39 38t-39 -42q0 -26 9.5 -36.5t29.5 -10.5q21 0 30 11z" />
    <glyph glyph-name="nine.dnom" horiz-adv-x="369" 
d="M336 235q0 -122 -48 -181.5t-149 -59.5q-39 0 -74 8v104q30 -8 56 -8q45 0 67.5 13t27.5 57q-25 -17 -71 -17q-55 0 -88.5 37.5t-33.5 106.5q0 75 41 115.5t113 40.5q38 0 64.5 -8.5t46.5 -30.5q48 -54 48 -177zM203.5 260.5q6.5 13.5 6.5 43.5q0 27 -9 37q-7 8 -23 8
t-23 -11t-7 -37q0 -29 7.5 -41.5t23.5 -12.5q18 0 24.5 13.5z" />
    <glyph glyph-name="zero.numr" horiz-adv-x="415" 
d="M80 351q-47 64 -47 165q0 102 47 166t128 64t127.5 -64.5t46.5 -165.5t-46.5 -165t-127.5 -64t-128 64zM257 516q0 119 -49 119q-50 0 -50 -119q0 -62 12.5 -90.5t37.5 -28.5q49 0 49 119z" />
    <glyph glyph-name="one.numr" horiz-adv-x="267" 
d="M118 738h89v-443h-121v318l-68 -18v117z" />
    <glyph glyph-name="two.numr" horiz-adv-x="281" 
d="M258 404v-109h-233v84l81 142q12 22 19.5 47t7.5 36q0 19 -11 25t-33 6q-28 0 -65 -17v107q48 19 96 19q64 0 100 -32.5t36 -92.5q0 -57 -49 -141l-44 -74h95z" />
    <glyph glyph-name="three.numr" horiz-adv-x="275" 
d="M239.5 485q18.5 -27 18.5 -60q0 -64 -40.5 -100.5t-103.5 -36.5q-43 0 -88 18v109q35 -16 66 -16q22 0 31.5 8t9.5 27q0 22 -11 31t-39 9h-18v98h11q29 0 40 7.5t11 25.5q0 16 -9 23t-30 7q-31 0 -64 -16v108q44 17 92 17q61 0 97 -32t36 -90q0 -33 -15 -58t-46 -38
q33 -14 51.5 -41z" />
    <glyph glyph-name="four.numr" horiz-adv-x="358" 
d="M340 472v-107h-41v-70h-120v70h-161v92l130 281h151v-266h41zM189 624l-65 -152h65v152z" />
    <glyph glyph-name="five.numr" horiz-adv-x="303" 
d="M250.5 540q29.5 -38 29.5 -98q0 -72 -41 -113t-105 -41q-45 0 -92 21v112q37 -18 65 -18q23 0 35.5 9.5t12.5 32.5q0 27 -18.5 34.5t-56.5 7.5q-16 0 -30 -2v253h217l1 -106h-112v-50q65 -4 94.5 -42z" />
    <glyph glyph-name="six.numr" horiz-adv-x="369" 
d="M312.5 549.5q33.5 -37.5 33.5 -106.5q0 -75 -41 -115.5t-113 -40.5q-38 0 -64.5 8.5t-46.5 30.5q-48 54 -48 177q0 122 48 181.5t149 59.5q39 0 74 -8v-104q-30 8 -56 8q-45 0 -67.5 -13t-27.5 -57q25 17 71 17q55 0 88.5 -37.5zM214 400q7 11 7 37q0 29 -7.5 41.5
t-23.5 12.5q-18 0 -24.5 -13.5t-6.5 -43.5q0 -26 9 -37q7 -8 23 -8t23 11z" />
    <glyph glyph-name="seven.numr" horiz-adv-x="266" 
d="M19 738h229v-92l-94 -351h-120l97 337h-113z" />
    <glyph glyph-name="eight.numr" horiz-adv-x="356" 
d="M321 484.5q18 -26.5 18 -59.5q0 -69 -42.5 -102t-118.5 -33q-77 0 -119 33t-42 102q0 33 18 59.5t54 40.5q-63 28 -63 96q0 61 40.5 91.5t111.5 30.5q70 0 111 -31t41 -91q0 -68 -63 -95q36 -15 54 -41.5zM152 638q-8 -9 -8 -29q0 -16 9 -25.5t25 -9.5q15 0 24.5 9.5
t9.5 25.5q0 21 -8 29.5t-26 8.5t-26 -9zM208 396q9 11 9 40q0 38 -39 38t-39 -42q0 -26 9.5 -36.5t29.5 -10.5q21 0 30 11z" />
    <glyph glyph-name="nine.numr" horiz-adv-x="369" 
d="M336 530q0 -122 -48 -181.5t-149 -59.5q-39 0 -74 8v104q30 -8 56 -8q45 0 67.5 13t27.5 57q-25 -17 -71 -17q-55 0 -88.5 37.5t-33.5 106.5q0 75 41 115.5t113 40.5q38 0 64.5 -8.5t46.5 -30.5q48 -54 48 -177zM203.5 555.5q6.5 13.5 6.5 43.5q0 27 -9 37q-7 8 -23 8
t-23 -11t-7 -37q0 -29 7.5 -41.5t23.5 -12.5q18 0 24.5 13.5z" />
    <glyph glyph-name="zero.superior" unicode="&#x2070;" horiz-adv-x="415" 
d="M80 501q-47 64 -47 165q0 102 47 166t128 64t127.5 -64.5t46.5 -165.5t-46.5 -165t-127.5 -64t-128 64zM257 666q0 119 -49 119q-50 0 -50 -119q0 -62 12.5 -90.5t37.5 -28.5q49 0 49 119z" />
    <glyph glyph-name="onesuperior" unicode="&#xb9;" horiz-adv-x="267" 
d="M118 888h89v-443h-121v318l-68 -18v117z" />
    <glyph glyph-name="twosuperior" unicode="&#xb2;" horiz-adv-x="281" 
d="M258 554v-109h-233v84l81 142q12 22 19.5 47t7.5 36q0 19 -11 25t-33 6q-28 0 -65 -17v107q48 19 96 19q64 0 100 -32.5t36 -92.5q0 -57 -49 -141l-44 -74h95z" />
    <glyph glyph-name="threesuperior" unicode="&#xb3;" horiz-adv-x="275" 
d="M239.5 635q18.5 -27 18.5 -60q0 -64 -40.5 -100.5t-103.5 -36.5q-43 0 -88 18v109q35 -16 66 -16q22 0 31.5 8t9.5 27q0 22 -11 31t-39 9h-18v98h11q29 0 40 7.5t11 25.5q0 16 -9 23t-30 7q-31 0 -64 -16v108q44 17 92 17q61 0 97 -32t36 -90q0 -33 -15 -58t-46 -38
q33 -14 51.5 -41z" />
    <glyph glyph-name="four.superior" unicode="&#x2074;" horiz-adv-x="358" 
d="M340 622v-107h-41v-70h-120v70h-161v92l130 281h151v-266h41zM189 774l-65 -152h65v152z" />
    <glyph glyph-name="five.superior" unicode="&#x2075;" horiz-adv-x="303" 
d="M250.5 690q29.5 -38 29.5 -98q0 -72 -41 -113t-105 -41q-45 0 -92 21v112q37 -18 65 -18q23 0 35.5 9.5t12.5 32.5q0 27 -18.5 34.5t-56.5 7.5q-16 0 -30 -2v253h217l1 -106h-112v-50q65 -4 94.5 -42z" />
    <glyph glyph-name="six.superior" unicode="&#x2076;" horiz-adv-x="369" 
d="M312.5 699.5q33.5 -37.5 33.5 -106.5q0 -75 -41 -115.5t-113 -40.5q-38 0 -64.5 8.5t-46.5 30.5q-48 54 -48 177q0 122 48 181.5t149 59.5q39 0 74 -8v-104q-30 8 -56 8q-45 0 -67.5 -13t-27.5 -57q25 17 71 17q55 0 88.5 -37.5zM214 550q7 11 7 37q0 29 -7.5 41.5
t-23.5 12.5q-18 0 -24.5 -13.5t-6.5 -43.5q0 -26 9 -37q7 -8 23 -8t23 11z" />
    <glyph glyph-name="seven.superior" unicode="&#x2077;" horiz-adv-x="266" 
d="M19 888h229v-92l-94 -351h-120l97 337h-113z" />
    <glyph glyph-name="eight.superior" unicode="&#x2078;" horiz-adv-x="356" 
d="M321 634.5q18 -26.5 18 -59.5q0 -69 -42.5 -102t-118.5 -33q-77 0 -119 33t-42 102q0 33 18 59.5t54 40.5q-63 28 -63 96q0 61 40.5 91.5t111.5 30.5q70 0 111 -31t41 -91q0 -68 -63 -95q36 -15 54 -41.5zM152 788q-8 -9 -8 -29q0 -16 9 -25.5t25 -9.5q15 0 24.5 9.5
t9.5 25.5q0 21 -8 29.5t-26 8.5t-26 -9zM208 546q9 11 9 40q0 38 -39 38t-39 -42q0 -26 9.5 -36.5t29.5 -10.5q21 0 30 11z" />
    <glyph glyph-name="nine.superior" unicode="&#x2079;" horiz-adv-x="369" 
d="M336 680q0 -122 -48 -181.5t-149 -59.5q-39 0 -74 8v104q30 -8 56 -8q45 0 67.5 13t27.5 57q-25 -17 -71 -17q-55 0 -88.5 37.5t-33.5 106.5q0 75 41 115.5t113 40.5q38 0 64.5 -8.5t46.5 -30.5q48 -54 48 -177zM203.5 705.5q6.5 13.5 6.5 43.5q0 27 -9 37q-7 8 -23 8
t-23 -11t-7 -37q0 -29 7.5 -41.5t23.5 -12.5q18 0 24.5 13.5z" />
    <glyph glyph-name="fraction" unicode="&#x2044;" horiz-adv-x="181" 
d="M-170 0l400 738h121l-400 -738h-121z" />
    <glyph glyph-name="onehalf" unicode="&#xbd;" horiz-adv-x="729" 
d="M118 738h89v-443h-121v318l-68 -18v117zM97 0l400 738h121l-400 -738h-121zM706 109v-109h-233v84l81 142q12 22 19.5 47t7.5 36q0 19 -11 25t-33 6q-28 0 -65 -17v107q48 19 96 19q64 0 100 -32.5t36 -92.5q0 -57 -49 -141l-44 -74h95z" />
    <glyph glyph-name="onequarter" unicode="&#xbc;" horiz-adv-x="766" 
d="M118 738h89v-443h-121v318l-68 -18v117zM97 0l400 738h121l-400 -738h-121zM748 177v-107h-41v-70h-120v70h-161v92l130 281h151v-266h41zM597 329l-65 -152h65v152z" />
    <glyph glyph-name="threequarters" unicode="&#xbe;" horiz-adv-x="774" 
d="M239.5 485q18.5 -27 18.5 -60q0 -64 -40.5 -100.5t-103.5 -36.5q-43 0 -88 18v109q35 -16 66 -16q22 0 31.5 8t9.5 27q0 22 -11 31t-39 9h-18v98h11q29 0 40 7.5t11 25.5q0 16 -9 23t-30 7q-31 0 -64 -16v108q44 17 92 17q61 0 97 -32t36 -90q0 -33 -15 -58t-46 -38
q33 -14 51.5 -41zM105 0l400 738h121l-400 -738h-121zM756 177v-107h-41v-70h-120v70h-161v92l130 281h151v-266h41zM605 329l-65 -152h65v152z" />
    <glyph glyph-name="oneeighth" unicode="&#x215b;" horiz-adv-x="804" 
d="M118 738h89v-443h-121v318l-68 -18v117zM97 0l400 738h121l-400 -738h-121zM769 189.5q18 -26.5 18 -59.5q0 -69 -42.5 -102t-118.5 -33q-77 0 -119 33t-42 102q0 33 18 59.5t54 40.5q-63 28 -63 96q0 61 40.5 91.5t111.5 30.5q70 0 111 -31t41 -91q0 -68 -63 -95
q36 -15 54 -41.5zM600 343q-8 -9 -8 -29q0 -16 9 -25.5t25 -9.5q15 0 24.5 9.5t9.5 25.5q0 21 -8 29.5t-26 8.5t-26 -9zM656 101q9 11 9 40q0 38 -39 38t-39 -42q0 -26 9.5 -36.5t29.5 -10.5q21 0 30 11z" />
    <glyph glyph-name="threeeighths" unicode="&#x215c;" horiz-adv-x="812" 
d="M239.5 485q18.5 -27 18.5 -60q0 -64 -40.5 -100.5t-103.5 -36.5q-43 0 -88 18v109q35 -16 66 -16q22 0 31.5 8t9.5 27q0 22 -11 31t-39 9h-18v98h11q29 0 40 7.5t11 25.5q0 16 -9 23t-30 7q-31 0 -64 -16v108q44 17 92 17q61 0 97 -32t36 -90q0 -33 -15 -58t-46 -38
q33 -14 51.5 -41zM105 0l400 738h121l-400 -738h-121zM777 189.5q18 -26.5 18 -59.5q0 -69 -42.5 -102t-118.5 -33q-77 0 -119 33t-42 102q0 33 18 59.5t54 40.5q-63 28 -63 96q0 61 40.5 91.5t111.5 30.5q70 0 111 -31t41 -91q0 -68 -63 -95q36 -15 54 -41.5zM608 343
q-8 -9 -8 -29q0 -16 9 -25.5t25 -9.5q15 0 24.5 9.5t9.5 25.5q0 21 -8 29.5t-26 8.5t-26 -9zM664 101q9 11 9 40q0 38 -39 38t-39 -42q0 -26 9.5 -36.5t29.5 -10.5q21 0 30 11z" />
    <glyph glyph-name="fiveeighths" unicode="&#x215d;" horiz-adv-x="840" 
d="M250.5 540q29.5 -38 29.5 -98q0 -72 -41 -113t-105 -41q-45 0 -92 21v112q37 -18 65 -18q23 0 35.5 9.5t12.5 32.5q0 27 -18.5 34.5t-56.5 7.5q-16 0 -30 -2v253h217l1 -106h-112v-50q65 -4 94.5 -42zM133 0l400 738h121l-400 -738h-121zM805 189.5q18 -26.5 18 -59.5
q0 -69 -42.5 -102t-118.5 -33q-77 0 -119 33t-42 102q0 33 18 59.5t54 40.5q-63 28 -63 96q0 61 40.5 91.5t111.5 30.5q70 0 111 -31t41 -91q0 -68 -63 -95q36 -15 54 -41.5zM636 343q-8 -9 -8 -29q0 -16 9 -25.5t25 -9.5q15 0 24.5 9.5t9.5 25.5q0 21 -8 29.5t-26 8.5
t-26 -9zM692 101q9 11 9 40q0 38 -39 38t-39 -42q0 -26 9.5 -36.5t29.5 -10.5q21 0 30 11z" />
    <glyph glyph-name="seveneighths" unicode="&#x215e;" horiz-adv-x="803" 
d="M19 738h229v-92l-94 -351h-120l97 337h-113zM96 0l400 738h121l-400 -738h-121zM768 189.5q18 -26.5 18 -59.5q0 -69 -42.5 -102t-118.5 -33q-77 0 -119 33t-42 102q0 33 18 59.5t54 40.5q-63 28 -63 96q0 61 40.5 91.5t111.5 30.5q70 0 111 -31t41 -91q0 -68 -63 -95
q36 -15 54 -41.5zM599 343q-8 -9 -8 -29q0 -16 9 -25.5t25 -9.5q15 0 24.5 9.5t9.5 25.5q0 21 -8 29.5t-26 8.5t-26 -9zM655 101q9 11 9 40q0 38 -39 38t-39 -42q0 -26 9.5 -36.5t29.5 -10.5q21 0 30 11z" />
    <glyph glyph-name="asterisk" unicode="*" horiz-adv-x="417" 
d="M387 620l-113 -7l87 -74l-110 -79l-42 106l-43 -106l-109 80l86 73l-113 8l43 129l96 -60l-28 110h136l-27 -111l97 61z" />
    <glyph glyph-name="backslash" unicode="\" horiz-adv-x="261" 
d="M263 -100h-121l-140 908h121z" />
    <glyph glyph-name="periodcentered" unicode="&#xb7;" horiz-adv-x="240" 
d="M54.5 242.5q-24.5 26.5 -24.5 65.5t24.5 65t65.5 26t65.5 -26t24.5 -65t-24.5 -65.5t-65.5 -26.5t-65.5 26.5z" />
    <glyph glyph-name="bullet" unicode="&#x2022;" horiz-adv-x="360" 
d="M95.5 284.5q-35.5 35.5 -35.5 84.5q0 50 35.5 85t84.5 35q50 0 85 -35t35 -85q0 -49 -35 -84.5t-85 -35.5q-49 0 -84.5 35.5z" />
    <glyph glyph-name="colon" unicode=":" horiz-adv-x="240" 
d="M54.5 14.5q-24.5 26.5 -24.5 65.5t24.5 65t65.5 26t65.5 -26t24.5 -65t-24.5 -65.5t-65.5 -26.5t-65.5 26.5zM54.5 415.5q-24.5 26.5 -24.5 65.5t24.5 65t65.5 26t65.5 -26t24.5 -65t-24.5 -65.5t-65.5 -26.5t-65.5 26.5z" />
    <glyph glyph-name="comma" unicode="," horiz-adv-x="245" 
d="M190 140q25 -28 25 -75q0 -79 -44.5 -134.5t-134.5 -56.5v73q61 3 70 50h-1q-33 0 -52.5 23.5t-19.5 59.5q0 37 24.5 62.5t65.5 25.5q42 0 67 -28z" />
    <glyph glyph-name="ellipsis" unicode="&#x2026;" horiz-adv-x="706" 
d="M287.5 14.5q-24.5 26.5 -24.5 65.5t24.5 65t65.5 26t65.5 -26t24.5 -65t-24.5 -65.5t-65.5 -26.5t-65.5 26.5zM520.5 14.5q-24.5 26.5 -24.5 65.5t24.5 65t65.5 26t65.5 -26t24.5 -65t-24.5 -65.5t-65.5 -26.5t-65.5 26.5zM54.5 14.5q-24.5 26.5 -24.5 65.5t24.5 65
t65.5 26t65.5 -26t24.5 -65t-24.5 -65.5t-65.5 -26.5t-65.5 26.5z" />
    <glyph glyph-name="exclam" unicode="!" horiz-adv-x="300" 
d="M82 210l-20 528h176l-20 -528h-136zM84.5 14.5q-24.5 26.5 -24.5 65.5t24.5 65t65.5 26t65.5 -26t24.5 -65t-24.5 -65.5t-65.5 -26.5t-65.5 26.5z" />
    <glyph glyph-name="exclamdown" unicode="&#xa1;" horiz-adv-x="300" 
d="M215.5 723.5q24.5 -26.5 24.5 -65.5t-24.5 -65t-65.5 -26t-65.5 26t-24.5 65t24.5 65.5t65.5 26.5t65.5 -26.5zM218 528l20 -528h-176l20 528h136z" />
    <glyph glyph-name="numbersign" unicode="#" horiz-adv-x="549" 
d="M515 410h-72l-11 -90h71l-16 -127h-72l-25 -193h-128l25 193h-71l-25 -193h-128l25 193h-70l16 127h71l11 90h-70l15 127h72l26 201h128l-26 -201h71l26 201h128l-26 -201h71zM304 320l11 90h-71l-11 -90h71z" />
    <glyph glyph-name="period" unicode="." horiz-adv-x="240" 
d="M54.5 14.5q-24.5 26.5 -24.5 65.5t24.5 65t65.5 26t65.5 -26t24.5 -65t-24.5 -65.5t-65.5 -26.5t-65.5 26.5z" />
    <glyph glyph-name="question" unicode="?" horiz-adv-x="370" 
d="M335.5 480q-11.5 -36 -42.5 -86q-32 -51 -44 -91t-13 -90v-3h-125q-1 12 -1 34q0 53 12 94.5t41 89.5q21 34 28 56.5t7 45.5q0 45 -20.5 63t-58.5 18q-50 0 -101 -34v135q64 35 140 35q88 0 138.5 -50.5t50.5 -136.5q0 -44 -11.5 -80zM112.5 14.5q-24.5 26.5 -24.5 65.5
t24.5 65t65.5 26t65.5 -26t24.5 -65t-24.5 -65.5t-65.5 -26.5t-65.5 26.5z" />
    <glyph glyph-name="questiondown" unicode="&#xbf;" horiz-adv-x="370" 
d="M257.5 720.5q24.5 -26.5 24.5 -65.5t-24.5 -65t-65.5 -26t-65.5 26t-24.5 65t24.5 65.5t65.5 26.5t65.5 -26.5zM34.5 255q11.5 36 42.5 86q32 52 44.5 91.5t12.5 89.5v3h125q1 -12 1 -34q0 -52 -12 -94t-41 -90q-21 -34 -28 -56.5t-7 -45.5q0 -45 20.5 -63t58.5 -18
q50 0 101 34v-135q-64 -35 -140 -35q-88 0 -138.5 50.5t-50.5 136.5q0 44 11.5 80z" />
    <glyph glyph-name="quotedbl" unicode="&#x22;" horiz-adv-x="402" 
d="M63 468l-33 270h152l-33 -270h-86zM253 468l-33 270h152l-33 -270h-86z" />
    <glyph glyph-name="quotesingle" unicode="'" horiz-adv-x="212" 
d="M63 468l-33 270h152l-33 -270h-86z" />
    <glyph glyph-name="semicolon" unicode=";" horiz-adv-x="248" 
d="M193 140q25 -28 25 -75q0 -79 -44.5 -134.5t-134.5 -56.5v73q61 3 70 50h-1q-33 0 -52.5 23.5t-19.5 59.5q0 37 24.5 62.5t65.5 25.5q42 0 67 -28zM57.5 415.5q-24.5 26.5 -24.5 65.5t24.5 65t65.5 26t65.5 -26t24.5 -65t-24.5 -65.5t-65.5 -26.5t-65.5 26.5z" />
    <glyph glyph-name="slash" unicode="/" horiz-adv-x="261" 
d="M-2 -100l140 908h121l-140 -908h-121z" />
    <glyph glyph-name="underscore" unicode="_" horiz-adv-x="462" 
d="M15 -29h432v-121h-432v121z" />
    <glyph glyph-name="uni208D" unicode="&#x208d;" horiz-adv-x="249" 
d="M91 268.5q41 84.5 117 140.5l51 -68q-50 -48 -72.5 -112.5t-22.5 -170.5q0 -105 22.5 -171t72.5 -113l-51 -68q-76 57 -117 141.5t-41 210.5t41 210.5z" />
    <glyph glyph-name="uni208E" unicode="&#x208e;" horiz-adv-x="249" 
d="M158 -152.5q-41 -84.5 -116 -141.5l-52 68q50 48 72.5 113t22.5 171t-22.5 170.5t-72.5 112.5l52 68q75 -56 116 -140.5t41 -210.5t-41 -210.5z" />
    <glyph glyph-name="braceleft" unicode="{" horiz-adv-x="314" 
d="M231.5 717q-15.5 -19 -15.5 -61q0 -29 9 -79q12 -64 12 -107q0 -54 -21.5 -86t-65.5 -47q44 -15 65.5 -47t21.5 -87q0 -43 -12 -107q-9 -50 -9 -79q0 -42 15.5 -61t64.5 -23v-91q-109 -1 -162.5 46t-53.5 129q0 34 5 66t6 37q10 58 10 83q0 44 -18.5 59t-58.5 15h-6v120
h6q41 0 59 14.5t18 58.5q0 25 -10 83q-1 5 -6 37t-5 66q0 82 53.5 129t162.5 46v-91q-49 -4 -64.5 -23z" />
    <glyph glyph-name="braceright" unicode="}" horiz-adv-x="314" 
d="M296 397v-120h-6q-40 0 -58.5 -15t-18.5 -59q0 -25 10 -83q1 -5 6 -37t5 -66q0 -82 -53.5 -129t-162.5 -46v91q49 4 64.5 23t15.5 61q0 29 -9 79q-12 64 -12 107q0 55 21.5 87t65.5 47q-44 15 -65.5 47t-21.5 86q0 43 12 107q9 50 9 79q0 42 -15.5 61t-64.5 23v91
q109 1 162.5 -46t53.5 -129q0 -34 -5 -66t-6 -37q-10 -58 -10 -83q0 -44 18 -58.5t59 -14.5h6z" />
    <glyph glyph-name="bracketleft" unicode="[" horiz-adv-x="301" 
d="M60 -162v997h223v-112h-77v-772h77v-113h-223z" />
    <glyph glyph-name="bracketright" unicode="]" horiz-adv-x="301" 
d="M241 -162h-223v113h77v772h-77v112h223v-997z" />
    <glyph glyph-name="parenleft" unicode="(" horiz-adv-x="324" 
d="M106.5 622q56.5 119 159.5 201l68 -85q-74 -70 -107.5 -165t-33.5 -247q0 -153 33.5 -248t107.5 -166l-68 -84q-103 82 -159.5 201.5t-56.5 296.5t56.5 296z" />
    <glyph glyph-name="parenright" unicode=")" horiz-adv-x="324" 
d="M217.5 29.5q-56.5 -119.5 -159.5 -201.5l-68 84q74 71 107.5 166t33.5 248q0 152 -33.5 247t-107.5 165l68 85q103 -82 159.5 -201t56.5 -296t-56.5 -296.5z" />
    <glyph glyph-name="uni207D" unicode="&#x207d;" horiz-adv-x="249" 
d="M91 879.5q41 84.5 117 140.5l51 -68q-50 -48 -72.5 -112.5t-22.5 -170.5q0 -105 22.5 -171t72.5 -113l-51 -68q-76 57 -117 141.5t-41 210.5t41 210.5z" />
    <glyph glyph-name="uni207E" unicode="&#x207e;" horiz-adv-x="249" 
d="M158 458.5q-41 -84.5 -116 -141.5l-52 68q50 48 72.5 113t22.5 171t-22.5 170.5t-72.5 112.5l52 68q75 -56 116 -140.5t41 -210.5t-41 -210.5z" />
    <glyph glyph-name="emdash" unicode="&#x2014;" horiz-adv-x="600" 
d="M0 380h600v-121h-600v121z" />
    <glyph glyph-name="endash" unicode="&#x2013;" horiz-adv-x="462" 
d="M15 380h432v-121h-432v121z" />
    <glyph glyph-name="hyphen" unicode="-" horiz-adv-x="318" 
d="M15 380h288v-121h-288v121z" />
    <glyph glyph-name="uni00AD" unicode="&#xad;" horiz-adv-x="318" 
d="M15 380h288v-121h-288v121z" />
    <glyph glyph-name="guillemotleft" unicode="&#xab;" horiz-adv-x="463" 
d="M139 95l-129 198l129 198l96 -61l-72 -137l72 -137zM347 95l-129 198l129 198l96 -61l-72 -137l72 -137z" />
    <glyph glyph-name="guillemotright" unicode="&#xbb;" horiz-adv-x="463" 
d="M116 95l-96 61l72 137l-72 137l96 61l129 -198zM324 95l-96 61l72 137l-72 137l96 61l129 -198z" />
    <glyph glyph-name="guilsinglleft" unicode="&#x2039;" horiz-adv-x="255" 
d="M139 95l-129 198l129 198l96 -61l-72 -137l72 -137z" />
    <glyph glyph-name="guilsinglright" unicode="&#x203a;" horiz-adv-x="255" 
d="M116 95l-96 61l72 137l-72 137l96 61l129 -198z" />
    <glyph glyph-name="quotedblbase" unicode="&#x201e;" horiz-adv-x="461" 
d="M406 140q25 -28 25 -75q0 -79 -44.5 -134.5t-134.5 -56.5v73q61 3 70 50h-1q-33 0 -52.5 23.5t-19.5 59.5q0 37 24.5 62.5t65.5 25.5q42 0 67 -28zM190 140q25 -28 25 -75q0 -79 -44.5 -134.5t-134.5 -56.5v73q61 3 70 50h-1q-33 0 -52.5 23.5t-19.5 59.5q0 37 24.5 62.5
t65.5 25.5q42 0 67 -28z" />
    <glyph glyph-name="quotedblleft" unicode="&#x201c;" horiz-adv-x="461" 
d="M192.5 603.5q19.5 -23.5 19.5 -59.5q0 -37 -24.5 -62.5t-65.5 -25.5q-42 0 -67 28t-25 75q0 79 44.5 134.5t134.5 56.5v-73q-61 -3 -70 -50h1q33 0 52.5 -23.5zM408.5 603.5q19.5 -23.5 19.5 -59.5q0 -37 -24.5 -62.5t-65.5 -25.5q-42 0 -67 28t-25 75q0 79 44.5 134.5
t134.5 56.5v-73q-61 -3 -70 -50h1q33 0 52.5 -23.5z" />
    <glyph glyph-name="quotedblright" unicode="&#x201d;" horiz-adv-x="461" 
d="M406 719q25 -28 25 -75q0 -79 -44.5 -134.5t-134.5 -56.5v73q61 3 70 50h-1q-33 0 -52.5 23.5t-19.5 59.5q0 37 24.5 62.5t65.5 25.5q42 0 67 -28zM190 719q25 -28 25 -75q0 -79 -44.5 -134.5t-134.5 -56.5v73q61 3 70 50h-1q-33 0 -52.5 23.5t-19.5 59.5q0 37 24.5 62.5
t65.5 25.5q42 0 67 -28z" />
    <glyph glyph-name="quoteleft" unicode="&#x2018;" horiz-adv-x="245" 
d="M192.5 603.5q19.5 -23.5 19.5 -59.5q0 -37 -24.5 -62.5t-65.5 -25.5q-42 0 -67 28t-25 75q0 79 44.5 134.5t134.5 56.5v-73q-61 -3 -70 -50h1q33 0 52.5 -23.5z" />
    <glyph glyph-name="quoteright" unicode="&#x2019;" horiz-adv-x="245" 
d="M190 719q25 -28 25 -75q0 -79 -44.5 -134.5t-134.5 -56.5v73q61 3 70 50h-1q-33 0 -52.5 23.5t-19.5 59.5q0 37 24.5 62.5t65.5 25.5q42 0 67 -28z" />
    <glyph glyph-name="quotesinglbase" unicode="&#x201a;" horiz-adv-x="245" 
d="M190 140q25 -28 25 -75q0 -79 -44.5 -134.5t-134.5 -56.5v73q61 3 70 50h-1q-33 0 -52.5 23.5t-19.5 59.5q0 37 24.5 62.5t65.5 25.5q42 0 67 -28z" />
    <glyph glyph-name="uni00A0" unicode="&#xa0;" horiz-adv-x="200" 
 />
    <glyph glyph-name="uniFEFF" unicode="&#xfeff;" 
 />
    <glyph glyph-name="cent" unicode="&#xa2;" horiz-adv-x="342" 
d="M317 95q-20 -6 -47 -9v-86h-116v103q-60 27 -92 95t-32 174q0 105 32 174.5t92 95.5v96h116v-82q27 -3 45 -10v-134q-24 12 -50 12q-41 0 -62 -33.5t-21 -118.5q0 -87 21.5 -120t67.5 -33q18 0 46 6v-130z" />
    <glyph glyph-name="currency" unicode="&#xa4;" horiz-adv-x="555" 
d="M462 252l75 -75l-93 -91l-75 75q-42 -20 -91 -20t-92 20l-75 -75l-93 91l75 75q-20 42 -20 93q0 49 20 91l-75 75l93 91l75 -75q43 20 92 20t91 -20l75 75l93 -91l-74 -74q20 -42 20 -92q0 -52 -21 -93zM338.5 280q22.5 23 22.5 61q0 41 -23 65.5t-60 24.5t-60 -24
t-23 -63q0 -38 23 -62.5t60 -24.5q38 0 60.5 23z" />
    <glyph glyph-name="dollar" unicode="$" horiz-adv-x="374" 
d="M333.5 86.5q-27.5 -46.5 -74.5 -70.5v-117h-116v92q-53 1 -107 20v138q50 -18 94 -18q74 0 74 64q0 25 -14 48t-54 61q-64 63 -90 115.5t-26 116.5q0 68 32 119.5t91 75.5v108h116v-93q35 -3 65 -15v-143q-38 19 -75 19q-72 0 -72 -69q0 -30 16 -58t61 -73
q59 -59 83 -106t24 -102q0 -66 -27.5 -112.5z" />
    <glyph glyph-name="Euro" unicode="&#x20ac;" horiz-adv-x="444" 
d="M292.5 582.5q-25.5 -24.5 -36.5 -87.5h125v-90h-133v-36v-34h133v-90h-125q10 -66 36 -90t75 -24q28 0 53 8v-139q-35 -9 -76 -9q-106 0 -168 65t-81 189h-77l20 90h49q-1 11 -1 34q0 24 1 36h-69l20 90h57q20 123 82 187.5t167 64.5q31 0 76 -12v-138q-34 10 -57 10
q-45 0 -70.5 -24.5z" />
    <glyph glyph-name="florin" unicode="&#x192;" horiz-adv-x="384" 
d="M366 364h-101v-201q0 -80 -46.5 -125.5t-134.5 -45.5q-36 0 -66 6v120q20 -5 40 -5q31 0 45 16t14 46v189h-70v106h70v104q0 80 46.5 125.5t134.5 45.5q36 0 66 -6v-120q-20 5 -40 5q-31 0 -45 -16t-14 -46v-92h101v-106z" />
    <glyph glyph-name="uni20BA" unicode="&#x20ba;" horiz-adv-x="539" 
d="M521 254q-13 -127 -88 -190.5t-202 -63.5h-144v258l-69 -26v95l69 26v81l-69 -26v95l69 26v209h156v-152l126 47v-95l-126 -47v-81l126 47v-95l-126 -47v-177h9q46 0 75 25.5t40 90.5h154z" />
    <glyph glyph-name="uni20B9" unicode="&#x20b9;" horiz-adv-x="437" 
d="M326 648q27 -29 38 -70h55v-90h-52q-8 -58 -40 -103t-83 -68l126 -317h-160l-141 370l43 17q44 18 65 40.5t27 60.5h-186v90h187q-7 39 -29.5 54.5t-63.5 15.5h-94v90h401v-90h-93z" />
    <glyph glyph-name="sterling" unicode="&#xa3;" horiz-adv-x="428" 
d="M398 138v-138h-368v115q82 46 82 116q0 37 -14 93h-66v106h41q-10 47 -10 87q0 122 65 176t155 54q49 0 101 -10v-140q-33 10 -70 10q-89 0 -89 -106q0 -34 5 -71h135v-106h-114q11 -53 11 -82q0 -55 -54 -104h190z" />
    <glyph glyph-name="yen" unicode="&#xa5;" horiz-adv-x="469" 
d="M451 738l-112 -383h88v-90h-112v-70h112v-90h-112v-105h-156v105h-115v90h115v67l-1 3h-114v90h88l-114 383h160l63 -330l50 330h160z" />
    <glyph glyph-name="uni2219" unicode="&#x2219;" horiz-adv-x="416" 
d="M129.5 276.5q-29.5 31.5 -29.5 78.5q0 46 29.5 77.5t78.5 31.5t78.5 -31.5t29.5 -77.5q0 -47 -29.5 -78.5t-78.5 -31.5t-78.5 31.5z" />
    <glyph glyph-name="uni2215" unicode="&#x2215;" horiz-adv-x="461" 
d="M50 0l240 738h121l-240 -738h-121z" />
    <glyph glyph-name="uni208C" unicode="&#x208c;" horiz-adv-x="369" 
d="M50 79v97h269v-97h-269zM50 -44v97h269v-97h-269z" />
    <glyph glyph-name="uni207C" unicode="&#x207c;" horiz-adv-x="369" 
d="M50 690v97h269v-97h-269zM50 567v97h269v-97h-269z" />
    <glyph glyph-name="uni208B" unicode="&#x208b;" horiz-adv-x="369" 
d="M50 1v102h269v-102h-269z" />
    <glyph glyph-name="uni207B" unicode="&#x207b;" horiz-adv-x="369" 
d="M50 612v102h269v-102h-269z" />
    <glyph glyph-name="plus" unicode="+" horiz-adv-x="523" 
d="M473 420v-132h-145v-158h-133v158h-145v132h145v158h133v-158h145z" />
    <glyph glyph-name="minus" unicode="&#x2212;" horiz-adv-x="479" 
d="M50 289v130h379v-130h-379z" />
    <glyph glyph-name="multiply" unicode="&#xd7;" horiz-adv-x="518" 
d="M468 483l-120 -128l120 -128l-92 -93l-118 126l-117 -124l-91 92l119 127l-119 128l91 92l118 -125l117 125z" />
    <glyph glyph-name="divide" unicode="&#xf7;" horiz-adv-x="479" 
d="M179.5 476.5q-23.5 23.5 -23.5 60.5q0 35 23.5 59t59.5 24q35 0 59 -24.5t24 -59.5q0 -36 -24 -59.5t-59 -23.5q-36 0 -59.5 23.5zM50 289v131h379v-131h-379zM179.5 112q-23.5 24 -23.5 60q0 35 23.5 59t59.5 24q35 0 59 -24.5t24 -59.5t-24 -59t-59 -24q-36 0 -59.5 24
z" />
    <glyph glyph-name="equal" unicode="=" horiz-adv-x="479" 
d="M50 380v123h379v-123h-379zM50 206v123h379v-123h-379z" />
    <glyph glyph-name="notequal" unicode="&#x2260;" horiz-adv-x="479" 
d="M429 380h-127l-22 -51h149v-123h-202l-45 -105l-83 47l25 58h-74v123h127l22 51h-149v123h201l45 104l84 -47l-25 -57h74v-123z" />
    <glyph glyph-name="greater" unicode="&#x3e;" horiz-adv-x="479" 
d="M50 123v139l224 92v1l-224 92v138l379 -152v-157z" />
    <glyph glyph-name="less" unicode="&#x3c;" horiz-adv-x="479" 
d="M429 123l-379 153v157l379 152v-138l-224 -92v-1l224 -92v-139z" />
    <glyph glyph-name="greaterequal" unicode="&#x2265;" horiz-adv-x="479" 
d="M50 217v121l224 74v3l-224 74v119l379 -123v-142zM50 89v115h379v-115h-379z" />
    <glyph glyph-name="lessequal" unicode="&#x2264;" horiz-adv-x="479" 
d="M429 217l-379 126v142l379 123v-119l-224 -74v-3l224 -74v-121zM429 89h-379v115h379v-115z" />
    <glyph glyph-name="plusminus" unicode="&#xb1;" horiz-adv-x="479" 
d="M174 256v106h-124v129h124v104h131v-104h124v-129h-124v-106h-131zM50 89v128h379v-128h-379z" />
    <glyph glyph-name="approxequal" unicode="&#x2248;" horiz-adv-x="482" 
d="M272.5 374q-18.5 7 -44.5 24q-33 22 -49 22t-25 -11t-9 -30h-95q0 71 34 115t90 44q19 0 37.5 -7.5t44.5 -25.5q17 -12 27.5 -17t18.5 -5q17 0 25.5 12t8.5 32h96q0 -72 -34 -116t-90 -44q-17 0 -35.5 7zM228 203q-33 22 -49 22t-25 -12t-9 -31h-95q0 72 33.5 115.5
t90.5 43.5q18 0 37 -7.5t45 -24.5q19 -12 28.5 -16.5t17.5 -4.5q34 0 34 42h96q0 -70 -34 -114.5t-90 -44.5q-34 0 -80 32z" />
    <glyph glyph-name="asciitilde" unicode="~" horiz-adv-x="689" 
d="M390.5 250.5q-30.5 11.5 -72.5 39.5q-30 20 -49 28.5t-35 8.5q-29 0 -46.5 -22t-17.5 -58h-120q0 67 24.5 117.5t67.5 78t98 27.5q30 0 58 -11t74 -42q33 -22 50 -29.5t32 -7.5q29 0 47 23t18 61h120q0 -68 -23.5 -119t-66.5 -78.5t-98 -27.5q-30 0 -60.5 11.5z" />
    <glyph glyph-name="logicalnot" unicode="&#xac;" horiz-adv-x="479" 
d="M300 173v170h-250v130h379v-300h-129z" />
    <glyph glyph-name="infinity" unicode="&#x221e;" horiz-adv-x="830" 
d="M730.5 480.5q49.5 -51.5 49.5 -137.5t-49.5 -137.5t-132.5 -51.5q-58 0 -101 27.5t-82 76.5q-40 -49 -83 -76.5t-101 -27.5q-83 0 -132 51.5t-49 137.5t49 137.5t132 51.5q52 0 96 -28t88 -76q43 48 87 76t96 28q83 0 132.5 -51.5zM292.5 296.5q22.5 17.5 52.5 51.5
q-23 28 -47 43t-51 15q-31 0 -49.5 -17t-18.5 -46t18.5 -46.5t49.5 -17.5q23 0 45.5 17.5zM631.5 296.5q18.5 17.5 18.5 46.5t-18.5 46t-49.5 17q-27 0 -51 -15t-47 -43q30 -34 52.5 -51.5t45.5 -17.5q31 0 49.5 17.5z" />
    <glyph glyph-name="integral" unicode="&#x222b;" horiz-adv-x="414" 
d="M14 -106v120q20 -5 40 -5q31 0 44 15.5t15 46.5l40 503q6 81 50.5 126t130.5 45q36 0 66 -6v-120q-20 5 -40 5q-31 0 -44 -15.5t-15 -46.5l-40 -503q-6 -81 -50.5 -126t-130.5 -45q-36 0 -66 6z" />
    <glyph glyph-name="Omega" unicode="&#x2126;" horiz-adv-x="552" 
d="M438 138h74v-138h-210v124q34 64 44.5 121t10.5 164q0 78 -9 120.5t-26 59t-46 16.5t-46 -16.5t-26 -59t-9 -120.5q0 -107 10.5 -164t44.5 -121v-124h-210v138h74q-81 114 -81 281q0 169 62.5 250t180.5 81t180.5 -81t62.5 -250q0 -167 -81 -281z" />
    <glyph glyph-name="Delta" unicode="&#x2206;" horiz-adv-x="526" 
d="M342 738l177 -738h-512l176 738h159zM183 128h150l-73 372z" />
    <glyph glyph-name="product" unicode="&#x220f;" horiz-adv-x="558" 
d="M540 738v-138h-68v-700h-156v700h-74v-700h-156v700h-68v138h522z" />
    <glyph glyph-name="summation" unicode="&#x2211;" horiz-adv-x="348" 
d="M330 738v-138h-138l82 -263l-94 -299h141v-138h-291v119l109 318l-97 282v119h288z" />
    <glyph glyph-name="radical" unicode="&#x221a;" horiz-adv-x="447" 
d="M477 738v-138h-61l-105 -700h-205l-96 560h156l44 -398l73 676h194z" />
    <glyph glyph-name="partialdiff" unicode="&#x2202;" horiz-adv-x="497" 
d="M396 648q68 -99 68 -307q0 -222 -86 -304q-52 -49 -137 -49q-102 0 -160 67t-58 190q0 75 22.5 130t63 84t93.5 29q72 0 111 -49q-7 103 -44 140t-104 37q-41 0 -85 -18v132q48 17 109 17q139 0 207 -99zM305 237q0 67 -15 98.5t-47 31.5q-62 0 -62 -130q0 -117 60 -117
q26 0 41 20q23 28 23 97z" />
    <glyph glyph-name="mu" unicode="&#xb5;" horiz-adv-x="503" 
d="M453 560v-560h-143v52q-21 -64 -63 -64q-33 0 -49 31v-179h-148v720h148v-361q0 -37 12 -54.5t39 -17.5q28 0 42 19.5t14 54.5v359h148z" />
    <glyph glyph-name="percent" unicode="%" horiz-adv-x="811" 
d="M77 420q-44 53 -44 136q0 84 44 137t121 53q76 0 120 -53t44 -137q0 -83 -44 -136t-120 -53q-77 0 -121 53zM145 0l400 738h121l-400 -738h-121zM242 556q0 84 -44 84q-45 0 -45 -84q0 -44 11 -64t34 -20q44 0 44 84zM734 318q44 -53 44 -136q0 -84 -44 -137t-121 -53
q-76 0 -120 53t-44 137q0 83 44 136t120 53q77 0 121 -53zM569 182q0 -84 44 -84q22 0 33.5 20t11.5 64t-11.5 64t-33.5 20q-44 0 -44 -84z" />
    <glyph glyph-name="perthousand" unicode="&#x2030;" horiz-adv-x="1181" 
d="M77 420q-44 53 -44 136q0 84 44 137t121 53q76 0 120 -53t44 -137q0 -83 -44 -136t-120 -53q-77 0 -121 53zM145 0l400 738h121l-400 -738h-121zM242 556q0 84 -44 84q-45 0 -45 -84q0 -44 11 -64t34 -20q44 0 44 84zM734 318q44 -53 44 -136q0 -84 -44 -137t-121 -53
q-76 0 -120 53t-44 137q0 83 44 136t120 53q77 0 121 -53zM1104 318q44 -53 44 -136q0 -84 -44 -137t-121 -53q-76 0 -120 53t-44 137q0 83 44 136t120 53q77 0 121 -53zM569 182q0 -84 44 -84q22 0 33.5 20t11.5 64t-11.5 64t-33.5 20q-44 0 -44 -84zM939 182q0 -84 44 -84
q22 0 33.5 20t11.5 64t-11.5 64t-33.5 20q-44 0 -44 -84z" />
    <glyph glyph-name="uni208A" unicode="&#x208a;" horiz-adv-x="400" 
d="M350 129v-103h-98v-108h-105v108h-97v103h97v108h105v-108h98z" />
    <glyph glyph-name="uni207A" unicode="&#x207a;" horiz-adv-x="400" 
d="M350 740v-103h-98v-108h-105v108h-97v103h97v108h105v-108h98z" />
    <glyph glyph-name="lozenge" unicode="&#x25ca;" horiz-adv-x="447" 
d="M326 738l111 -419l-111 -419h-205l-111 419l111 419h205zM225 9l56 310l-59 310l-56 -310z" />
    <glyph glyph-name="at" unicode="@" horiz-adv-x="834" 
d="M631.5 715.5q83.5 -46.5 128 -134t44.5 -208.5q0 -126 -52 -194.5t-136 -68.5q-41 0 -69 13.5t-43 36.5q-36 -50 -117 -50q-61 0 -95.5 39.5t-34.5 98.5q0 141 171 148l38 2v14q0 58 -67 58q-49 0 -108 -33v119q69 28 129 28q94 0 135 -43.5t41 -122.5v-162
q0 -25 8.5 -38.5t24.5 -13.5q82 0 82 169q0 149 -70.5 226.5t-207.5 77.5q-94 0 -163 -41t-106.5 -117.5t-37.5 -181.5q0 -157 76 -241t208 -84q44 0 83.5 8.5t81.5 27.5l31 -72q-87 -45 -196 -45q-116 0 -201 46t-130.5 137.5t-45.5 222.5q0 127 50.5 223.5t141.5 149
t208 52.5q115 0 198.5 -46.5zM457.5 215.5q8.5 11.5 8.5 32.5v63l-19 -1q-32 -1 -46 -14.5t-14 -43.5q0 -22 10 -35t29 -13q23 0 31.5 11.5z" />
    <glyph glyph-name="ampersand" unicode="&#x26;" horiz-adv-x="647" 
d="M558 316q-4 -77 -29 -139l79 -96l-111 -94l-55 67q-78 -66 -195 -66q-66 0 -114.5 24.5t-74 66t-25.5 90.5q0 71 31 120t106 98q-60 82 -60 166q0 55 27 99t77 69.5t116 25.5q51 0 90 -16v-143q-38 19 -75 19q-38 0 -58 -20.5t-20 -52.5q0 -23 10 -43t30 -44l116 -141
q7 43 7 104q0 26 -1 40h200v-134h-71zM357 158l-109 132q-29 -22 -42.5 -45.5t-13.5 -50.5q0 -32 20 -48.5t55 -16.5q53 0 90 29z" />
    <glyph glyph-name="paragraph" unicode="&#xb6;" horiz-adv-x="738" 
d="M678 -160h-143v754h-53v-754h-144v754h-10q-70 0 -106.5 -32.5t-36.5 -91.5q0 -54 25.5 -81t82.5 -27v-147q-131 -4 -200.5 64t-69.5 190q0 78 35 139t104 95.5t168 34.5h348v-898z" />
    <glyph glyph-name="section" unicode="&#xa7;" horiz-adv-x="374" 
d="M210 300q9 13 9 30q0 21 -12.5 39.5t-47.5 46.5q-52 41 -73 79t-21 87q0 46 21.5 84.5t62.5 61t95 22.5q51 0 85 -15v-121q-34 17 -67 17q-26 0 -41 -13t-15 -34q0 -22 12.5 -41t48.5 -49q50 -41 71 -79t21 -85q0 -57 -24 -95t-63 -51l-91 87q20 16 29 29zM167 305.5
q-8 -13.5 -8 -28.5q0 -22 13 -41t48 -49q51 -42 71.5 -79.5t20.5 -84.5q0 -79 -48 -121.5t-127 -42.5q-54 0 -106 15v121q42 -15 84 -15q57 0 57 43q0 21 -12.5 39.5t-47.5 46.5q-52 42 -73 79.5t-21 86.5q0 48 23 88.5t60 61.5l89 -90q-15 -16 -23 -29.5z" />
    <glyph glyph-name="copyright" unicode="&#xa9;" horiz-adv-x="746" 
d="M195.5 35.5q-77.5 47.5 -120 134t-42.5 200.5q0 113 43 199t120 133.5t177 47.5t177 -47.5t120 -133.5t43 -199q0 -114 -42.5 -200.5t-120 -134t-177.5 -47.5t-177.5 47.5zM501.5 111.5q54.5 35.5 84 102t29.5 156.5q0 89 -29.5 155t-84.5 101.5t-128 35.5t-128 -35.5
t-84.5 -101.5t-29.5 -155q0 -90 29.5 -156.5t84 -102t128.5 -35.5t128.5 35.5zM262 204.5q-50 56.5 -50 164.5q0 106 48 163.5t134 57.5q44 0 74 -9v-103q-21 9 -45 9q-37 0 -56 -26t-19 -92q0 -67 20 -92.5t61 -25.5q21 0 41 5v-101q-28 -7 -66 -7q-92 0 -142 56.5z" />
    <glyph glyph-name="registered" unicode="&#xae;" horiz-adv-x="512" 
d="M374 719.5q51 -31.5 79.5 -88.5t28.5 -133q0 -75 -28.5 -132.5t-80 -89t-117.5 -31.5t-117.5 31.5t-80 89t-28.5 132.5q0 76 28.5 133t79.5 88.5t118 31.5t118 -31.5zM368.5 359.5q41.5 50.5 41.5 138.5t-41.5 138.5t-112.5 50.5t-113 -50.5t-42 -138.5t42 -138.5
t113 -50.5t112.5 50.5zM321 455l34 -99h-79l-20 76h-8v-76h-77v288h77q54 -3 81.5 -29.5t27.5 -75.5q0 -56 -36 -84zM248 498q18 1 25 8.5t7 32.5q0 24 -7.5 32t-24.5 9v-82z" />
    <glyph glyph-name="uni2117" unicode="&#x2117;" horiz-adv-x="746" 
d="M550 702.5q77 -47.5 120 -133.5t43 -199q0 -114 -42.5 -200.5t-120 -134t-177.5 -47.5t-177.5 47.5t-120 134t-42.5 200.5q0 113 43 199t120 133.5t177 47.5t177 -47.5zM501.5 111.5q54.5 35.5 84 102t29.5 156.5q0 89 -29.5 155t-84.5 101.5t-128 35.5t-128 -35.5
t-84.5 -101.5t-29.5 -155q0 -90 29.5 -156.5t84 -102t128.5 -35.5t128.5 35.5zM499 546q42 -40 42 -115t-45.5 -117t-121.5 -42v-118h-108v436h108q83 -4 125 -44zM420 377q14 13 14 54t-14 54t-46 14v-135q32 0 46 13z" />
    <glyph glyph-name="trademark" unicode="&#x2122;" horiz-adv-x="776" 
d="M287 738v-105h-75v-338h-119v338h-75v105h269zM761 295h-121l-19 228l-59 -228h-72l-64 243l-19 -243h-115l52 443h127l54 -222l53 222h127z" />
    <glyph glyph-name="degree" unicode="&#xb0;" horiz-adv-x="336" 
d="M98.5 492.5q-31.5 18.5 -50 50t-18.5 69.5t18.5 69.5t50 50t69.5 18.5t69.5 -18.5t50 -50t18.5 -69.5t-18.5 -69.5t-50 -50t-69.5 -18.5t-69.5 18.5zM196 580.5q11 11.5 11 31.5t-11 31.5t-28 11.5t-28 -11.5t-11 -31.5t11 -31.5t28 -11.5t28 11.5z" />
    <glyph glyph-name="bar" unicode="|" horiz-adv-x="265" 
d="M72 -100v908h121v-908h-121z" />
    <glyph glyph-name="brokenbar" unicode="&#xa6;" horiz-adv-x="265" 
d="M72 495v313h121v-313h-121zM72 -100v313h121v-313h-121z" />
    <glyph glyph-name="dagger" unicode="&#x2020;" horiz-adv-x="452" 
d="M304 560h118v-138h-118v-582h-156v582h-118v138h118v178h156v-178z" />
    <glyph glyph-name="uni2113" unicode="&#x2113;" horiz-adv-x="474" 
d="M320 122.5q13 8.5 26 31.5l93 -69q-25 -48 -64.5 -71.5t-97.5 -23.5q-64 0 -106.5 31t-65.5 101l-51 -18l-36 119q30 9 63 23q-5 62 -5 127q0 190 46 282.5t150 92.5q83 0 126 -60t43 -156q0 -112 -50 -198.5t-155 -149.5q15 -70 53 -70q18 0 31 8.5zM233 566
q-11 -56 -11 -193v-41q37 38 55 89t18 120q0 43 -6.5 62t-21.5 19q-23 0 -34 -56z" />
    <glyph glyph-name="daggerdbl" unicode="&#x2021;" horiz-adv-x="452" 
d="M422 422h-118v-284h118v-138h-118v-160h-156v160h-118v138h118v284h-118v138h118v178h156v-178h118v-138z" />
    <glyph glyph-name="estimated" unicode="&#x212e;" horiz-adv-x="933" 
d="M688.5 693q94.5 -53 144 -142.5t49.5 -196.5h-663q-6 0 -10 -4t-4 -9v-181q0 -17 3.5 -27.5t12.5 -19.5q101 -99 246 -99q78 0 146.5 32.5t112.5 86.5h74q-42 -60 -127 -103t-206 -43q-124 0 -218.5 48.5t-146 134.5t-51.5 195q0 107 50.5 194t145 137t220.5 50
q127 0 221.5 -53zM221 617q-9 -9 -12.5 -19t-3.5 -26v-180q0 -7 4 -10.5t10 -3.5h493q15 0 15 14v180q0 16 -3.5 26t-13.5 19q-102 101 -243 101q-143 0 -246 -101z" />
    <glyph glyph-name="asciicircum" unicode="^" horiz-adv-x="609" 
d="M50 224l161 263h187l161 -263h-164l-89 121h-2l-89 -121h-165z" />
    <glyph glyph-name="dieresiscomb" unicode="&#x308;" 
d="M-339 621q-19 22 -19 54t19 53.5t50 21.5q32 0 51 -21.5t19 -53.5t-19 -54t-51 -22q-31 0 -50 22zM-170 621q-19 22 -19 54t19 53.5t50 21.5q32 0 51 -21.5t19 -53.5q0 -33 -19 -54.5t-51 -21.5q-31 0 -50 22z" />
    <glyph glyph-name="dotaccentcomb" unicode="&#x307;" 
d="M-189.5 622q-21.5 22 -21.5 54t21.5 53t58.5 21q38 0 59.5 -20.5t21.5 -53.5t-21.5 -54.5t-59.5 -21.5q-37 0 -58.5 22z" />
    <glyph glyph-name="gravecomb" unicode="&#x300;" 
d="M-50 608h-108l-103 130h164z" />
    <glyph glyph-name="acutecomb" unicode="&#x301;" 
d="M-261 608l47 130h164l-103 -130h-108z" />
    <glyph glyph-name="hungarumlautcomb" unicode="&#x30b;" 
d="M-421 598l17 140h154l-63 -140h-108zM-251 598l47 140h154l-93 -140h-108z" />
    <glyph glyph-name="caroncomb.alt" 
d="M-172 590v148h122l-36 -148h-86z" />
    <glyph glyph-name="circumflexcomb" unicode="&#x302;" 
d="M-50 608h-94l-39 54l-40 -54h-96l57 130h155z" />
    <glyph glyph-name="caroncomb" unicode="&#x30c;" 
d="M-146 738h96l-57 -130h-155l-57 130h94l40 -54z" />
    <glyph glyph-name="brevecomb" unicode="&#x306;" 
d="M-257 634q-32 30 -33 104h91q1 -21 7.5 -27t21.5 -6t21.5 6t7.5 27h91q-1 -74 -33 -104t-87 -30t-87 30z" />
    <glyph glyph-name="ringcomb" unicode="&#x30a;" 
d="M-241.5 634q-31.5 30 -31.5 77q0 46 31.5 76t80.5 30t80 -30t31 -76q0 -47 -31 -77t-80 -30t-80.5 30zM-135.5 681.5q9.5 11.5 9.5 29.5q0 17 -9.5 28.5t-25.5 11.5q-17 0 -26.5 -11.5t-9.5 -28.5q0 -18 9.5 -29.5t26.5 -11.5q16 0 25.5 11.5z" />
    <glyph glyph-name="tildecomb" unicode="&#x303;" 
d="M-297 678q9 31 27 45.5t39 14.5q19 0 33 -6t29 -17q14 -12 23 -12q8 0 11.5 8.5t3.5 26.5h81q0 -65 -12 -95q-19 -49 -63 -49q-19 0 -33 6t-29 17q-14 12 -23 12q-8 0 -11.5 -8.5t-3.5 -26.5h-81q0 54 9 84z" />
    <glyph glyph-name="macroncomb" unicode="&#x304;" 
d="M-265 738h215v-112h-215v112z" />
    <glyph glyph-name="commaturnedabovecomb" unicode="&#x312;" 
d="M-101.5 733.5q-8.5 -4.5 -10.5 -16.5h1q29 0 45 -17t16 -42q0 -29 -21 -49.5t-57 -20.5q-38 0 -60 21.5t-22 60.5q0 48 28 83t93 35q18 0 39 -3v-50q-17 3 -28 3q-15 0 -23.5 -4.5z" />
    <glyph glyph-name="uni0313" unicode="&#x313;" 
d="M-72 766.5q22 -21.5 22 -60.5q0 -48 -28 -83t-93 -35q-18 0 -39 3v50q17 -3 28 -3q15 0 23.5 4.5t10.5 16.5h-1q-29 0 -45 17t-16 42q0 29 21 49.5t57 20.5q38 0 60 -21.5z" />
    <glyph glyph-name="commaaccent" unicode="&#x326;" 
d="M-72 -58.5q22 -21.5 22 -60.5q0 -48 -28 -83t-93 -35q-18 0 -39 3v50q16 -3 28 -3q15 0 23.5 4.5t10.5 16.5h-1q-29 0 -45 17t-16 42q0 29 21 49.5t57 20.5q38 0 60 -21.5z" />
    <glyph glyph-name="cedillacomb" unicode="&#x327;" 
d="M-212 -184l28 144h134l-54 -144h-108z" />
    <glyph glyph-name="ogonekcomb" unicode="&#x328;" 
d="M-119.5 -26.5q-10.5 -16.5 -10.5 -32.5q0 -28 35 -28q19 0 45 9v-88q-34 -14 -73 -14q-54 0 -81 21.5t-27 61.5q0 36 25 66.5t97 77.5l32 -23q-32 -34 -42.5 -50.5z" />
    <glyph glyph-name="uni0335" unicode="&#x335;" 
d="M-364 350h314v-84h-314v84z" />
    <glyph glyph-name="uni0337" unicode="&#x337;" 
d="M-172 385l122 105v-124l-122 -105v10l-122 -105v124l122 105v-10z" />
    <glyph glyph-name="uni0338" unicode="&#x338;" 
d="M-391 0l-59 37l341 523l59 -37z" />
    <glyph glyph-name="uni0308.case" 
d="M-333.5 782q-17.5 16 -17.5 40q0 25 17 40.5t50 15.5t51 -15.5t18 -40.5q0 -24 -18 -40t-51 -16q-32 0 -49.5 16zM-168 782q-18 16 -18 40q0 25 18 40.5t50 15.5q33 0 50.5 -15.5t17.5 -40.5t-17.5 -40.5t-50.5 -15.5q-32 0 -50 16z" />
    <glyph glyph-name="uni0307.case" 
d="M-190.5 786q-20.5 18 -20.5 46t20 45t60 17q41 0 61 -17t20 -45t-20 -46t-61 -18q-39 0 -59.5 18z" />
    <glyph glyph-name="gravecomb.case" 
d="M-50 773h-138l-73 95h184z" />
    <glyph glyph-name="acutecomb.case" 
d="M-261 773l27 95h184l-73 -95h-138z" />
    <glyph glyph-name="uni030B.case" 
d="M-421 773l17 91h154l-63 -91h-108zM-251 773l47 91h154l-93 -91h-108z" />
    <glyph glyph-name="uni0302.case" 
d="M-50 773h-101l-33 35l-34 -35h-101l37 95h195z" />
    <glyph glyph-name="uni030C.case" 
d="M-151 868h101l-37 -95h-195l-37 95h101l34 -35z" />
    <glyph glyph-name="uni0306.case" 
d="M-256 788.5q-33 25.5 -34 79.5h91q1 -21 29 -21q27 0 29 21h91q-1 -54 -34 -79.5t-86 -25.5t-86 25.5z" />
    <glyph glyph-name="uni030A.case" 
d="M-224.5 778q-28.5 24 -28.5 62q0 36 28.5 60.5t73.5 24.5q44 0 72.5 -24.5t28.5 -60.5q0 -38 -28.5 -62t-72.5 -24q-45 0 -73.5 24zM-125.5 816.5q9.5 9.5 9.5 23.5q0 13 -9.5 22.5t-25.5 9.5q-17 0 -26.5 -9.5t-9.5 -22.5q0 -14 9.5 -23.5t26.5 -9.5q16 0 25.5 9.5z" />
    <glyph glyph-name="tildecomb.case" 
d="M-294 835q18 33 63 33q25 0 45 -6t23 -7q19 -7 27 -7q15 0 15 20h71q0 -32 -7 -52q-8 -22 -26 -32.5t-42 -10.5q-25 0 -45 6t-23 7q-19 7 -27 7q-15 0 -15 -20h-71q0 41 12 62z" />
    <glyph glyph-name="uni0304.case" 
d="M-265 868h215v-95h-215v95z" />
    <glyph glyph-name="uni0335.case" 
d="M-334 370h284v-124h-284v124z" />
    <glyph glyph-name="uni0336.case" 
d="M-474 360h424v-104h-424v104z" />
    <glyph glyph-name="uni0337.case" 
d="M-204 360l154 120v-124l-154 -120v124z" />
    <glyph glyph-name="uni0338.case" 
d="M-466 0l-76 42l416 696l76 -42z" />
    <glyph glyph-name="uni0307.i" 
d="M-178 608q-24 22 -24 60t24 60t64 22t64 -22t24 -60t-24 -60t-64 -22t-64 22z" />
    <glyph glyph-name="uni02BC" unicode="&#x2bc;" horiz-adv-x="282" 
d="M207 719q25 -28 25 -75q0 -79 -44.5 -134.5t-134.5 -56.5v73q61 3 70 50h-1q-33 0 -52.5 23.5t-19.5 59.5q0 37 24.5 62.5t65.5 25.5q42 0 67 -28z" />
    <glyph glyph-name="uni02C9" unicode="&#x2c9;" horiz-adv-x="315" 
d="M50 738h215v-112h-215v112z" />
    <glyph glyph-name="acute" unicode="&#xb4;" horiz-adv-x="311" 
d="M50 608l47 130h164l-103 -130h-108z" />
    <glyph glyph-name="breve" unicode="&#x2d8;" horiz-adv-x="340" 
d="M83 634q-32 30 -33 104h91q1 -21 7.5 -27t21.5 -6t21.5 6t7.5 27h91q-1 -74 -33 -104t-87 -30t-87 30z" />
    <glyph glyph-name="caron" unicode="&#x2c7;" horiz-adv-x="369" 
d="M223 738h96l-57 -130h-155l-57 130h94l40 -54z" />
    <glyph glyph-name="cedilla" unicode="&#xb8;" horiz-adv-x="262" 
d="M50 -184l28 144h134l-54 -144h-108z" />
    <glyph glyph-name="circumflex" unicode="&#x2c6;" horiz-adv-x="369" 
d="M319 608h-94l-39 54l-40 -54h-96l57 130h155z" />
    <glyph glyph-name="dieresis" unicode="&#xa8;" horiz-adv-x="408" 
d="M69 621q-19 22 -19 54t19 53.5t50 21.5q32 0 51 -21.5t19 -53.5t-19 -54t-51 -22q-31 0 -50 22zM238 621q-19 22 -19 54t19 53.5t50 21.5q32 0 51 -21.5t19 -53.5q0 -33 -19 -54.5t-51 -21.5q-31 0 -50 22z" />
    <glyph glyph-name="dotaccent" unicode="&#x2d9;" horiz-adv-x="261" 
d="M72 622q-22 22 -22 54t21.5 53t58.5 21q38 0 59.5 -20.5t21.5 -53.5t-21.5 -54.5t-59.5 -21.5q-36 0 -58 22z" />
    <glyph glyph-name="grave" unicode="`" horiz-adv-x="311" 
d="M261 608h-108l-103 130h164z" />
    <glyph glyph-name="hungarumlaut" unicode="&#x2dd;" horiz-adv-x="471" 
d="M50 598l17 140h154l-63 -140h-108zM220 598l47 140h154l-93 -140h-108z" />
    <glyph glyph-name="macron" unicode="&#xaf;" horiz-adv-x="315" 
d="M50 738h215v-112h-215v112z" />
    <glyph glyph-name="ogonek" unicode="&#x2db;" horiz-adv-x="281" 
d="M161.5 -26.5q-10.5 -16.5 -10.5 -32.5q0 -28 35 -28q20 0 45 9v-88q-34 -14 -73 -14q-54 0 -81 21.5t-27 61.5q0 36 25 66.5t97 77.5l32 -23q-32 -34 -42.5 -50.5z" />
    <glyph glyph-name="ring" unicode="&#x2da;" horiz-adv-x="323" 
d="M81.5 634q-31.5 30 -31.5 77q0 46 31.5 76t80.5 30t80 -30t31 -76q0 -47 -31 -77t-80 -30t-80.5 30zM187.5 681.5q9.5 11.5 9.5 29.5q0 17 -9.5 28.5t-25.5 11.5q-17 0 -26.5 -11.5t-9.5 -28.5q0 -18 9.5 -29.5t26.5 -11.5q16 0 25.5 11.5z" />
    <glyph glyph-name="tilde" unicode="&#x2dc;" horiz-adv-x="356" 
d="M69 703.5q22 34.5 56 34.5q19 0 33 -6t29 -17q14 -12 23 -12q8 0 11.5 8.5t3.5 26.5h81q3 -75 -19 -109.5t-56 -34.5q-19 0 -33 6t-29 17q-14 12 -23 12q-8 0 -11.5 -8.5t-3.5 -26.5h-81q-3 75 19 109.5z" />
    <glyph glyph-name="caron.alt" horiz-adv-x="369" 
d="M223 738h96l-57 -130h-155l-57 130h94l40 -54z" />
    <glyph glyph-name="acute.case" horiz-adv-x="311" 
d="M50 773l27 95h184l-73 -95h-138z" />
    <glyph glyph-name="breve.case" horiz-adv-x="340" 
d="M84 788.5q-33 25.5 -34 79.5h91q2 -21 29 -21q28 0 29 21h91q-1 -54 -34 -79.5t-86 -25.5t-86 25.5z" />
    <glyph glyph-name="caron.case" horiz-adv-x="369" 
d="M218 868h101l-37 -95h-195l-37 95h101l34 -35z" />
    <glyph glyph-name="circumflex.case" horiz-adv-x="369" 
d="M319 773h-101l-33 35l-34 -35h-101l37 95h195z" />
    <glyph glyph-name="dieresis.case" horiz-adv-x="401" 
d="M67.5 782q-17.5 16 -17.5 40q0 25 17 40.5t50 15.5t51 -15.5t18 -40.5q0 -24 -18 -40t-51 -16q-32 0 -49.5 16zM233 782q-18 16 -18 40q0 25 18 40.5t50 15.5q33 0 50.5 -15.5t17.5 -40.5t-17.5 -40.5t-50.5 -15.5q-32 0 -50 16z" />
    <glyph glyph-name="dotaccent.case" horiz-adv-x="261" 
d="M70.5 786q-20.5 18 -20.5 46t20 45t60 17q41 0 61 -17t20 -45t-20 -46t-61 -18q-39 0 -59.5 18z" />
    <glyph glyph-name="grave.case" horiz-adv-x="311" 
d="M261 773h-138l-73 95h184z" />
    <glyph glyph-name="hungarumlaut.case" horiz-adv-x="471" 
d="M50 773l17 91h154l-63 -91h-108zM220 773l47 91h154l-93 -91h-108z" />
    <glyph glyph-name="macron.case" horiz-adv-x="315" 
d="M50 868h215v-95h-215v95z" />
    <glyph glyph-name="ring.case" horiz-adv-x="303" 
d="M78.5 778q-28.5 24 -28.5 62q0 36 28.5 60.5t73.5 24.5q44 0 72.5 -24.5t28.5 -60.5q0 -38 -28.5 -62t-72.5 -24q-45 0 -73.5 24zM177.5 816.5q9.5 9.5 9.5 23.5q0 13 -9.5 22.5t-25.5 9.5q-17 0 -26.5 -9.5t-9.5 -22.5q0 -14 9.5 -23.5t26.5 -9.5q16 0 25.5 9.5z" />
    <glyph glyph-name="tilde.case" horiz-adv-x="356" 
d="M69 845.5q22 22.5 56 22.5q25 0 45 -6t23 -7q19 -7 27 -7q15 0 15 20h71q3 -50 -19 -72.5t-56 -22.5q-25 0 -45 6t-23 7q-19 7 -27 7q-15 0 -15 -20h-71q-3 50 19 72.5z" />
    <glyph glyph-name="tonos.case" horiz-adv-x="222" 
d="M50 590v148h122l-36 -148h-86z" />
    <glyph glyph-name="brevecy.case" horiz-adv-x="340" 
d="M84 788.5q-33 25.5 -34 79.5h91q1 -21 29 -21q27 0 29 21h91q-1 -54 -34 -79.5t-86 -25.5t-86 25.5z" />
    <glyph glyph-name="brevecy" horiz-adv-x="340" 
d="M83 634q-32 30 -33 104h91q1 -21 7.5 -27t21.5 -6t21.5 6t7.5 27h91q-1 -74 -33 -104t-87 -30t-87 30z" />
    <glyph glyph-name="uni2011" unicode="&#x2011;" horiz-adv-x="318" 
d="M15 380h288v-121h-288v121z" />
    </font>
</defs>
</svg>
